<svg xmlns="http://www.w3.org/2000/svg" width="311.806" height="288.578" viewBox="0 0 311.806 288.578">
  <g id="box" transform="translate(-23 -40.717)">
    <path id="Path_381" data-name="Path 381" d="M176.631,192.446l116.186-67.079L238.172,93.818,121.986,160.9Z" transform="translate(-32.753 -17.571)" fill="#222"/>
    <path id="Path_382" data-name="Path 382" d="M139.425,220.169,23,153.085V287.264l116.425,67.084Z" transform="translate(0 -37.181)" fill="#222"/>
    <rect id="Rectangle_35" data-name="Rectangle 35" width="12.713" height="12.713" transform="translate(242.468 251.676)" fill="#222"/>
    <path id="Path_383" data-name="Path 383" d="M211,220.169V354.349l63.565-36.758V220.73a20.1,20.1,0,0,1,20-20.2h16.667A16.415,16.415,0,0,1,326.9,188.491h-.145V153.085Z" transform="translate(-62.207 -37.181)" fill="#222"/>
    <rect id="Rectangle_36" data-name="Rectangle 36" width="40.816" height="14.051" rx="7.026" transform="translate(257.858 160.677)" fill="#222"/>
    <path id="Path_384" data-name="Path 384" d="M198.371,70.839,146.2,40.717,30.013,107.8l52.173,30.122Z" transform="translate(-2.321)" fill="#222"/>
    <path id="Path_385" data-name="Path 385" d="M422.317,238h-16.85a16.02,16.02,0,0,1-15.485,11.375H362.968A16.021,16.021,0,0,1,347.482,238H330.633A10.721,10.721,0,0,0,320,248.828V384.055a10.457,10.457,0,0,0,10.633,10.517h91.685a10.567,10.567,0,0,0,10.762-10.517V248.828A10.83,10.83,0,0,0,422.32,238Zm-90.943,31.47a4.674,4.674,0,0,1,4.65-4.706h22.064a4.746,4.746,0,0,1,4.735,4.706v3.151a4.7,4.7,0,0,1-4.709,4.673,4.509,4.509,0,0,1-4.453-3.163H340.742v12.713h.185a4.684,4.684,0,0,1,0,9.368h-4.9a4.65,4.65,0,0,1-4.65-4.678Zm0,42.8a4.684,4.684,0,0,1,4.684-4.684h22.081a4.684,4.684,0,0,1,4.684,4.684v22.081a4.684,4.684,0,0,1-4.684,4.684H336.058a4.684,4.684,0,0,1-4.684-4.684Zm9.553,69.587h-4.9a4.518,4.518,0,0,1-4.65-4.521V355.274a4.812,4.812,0,0,1,4.65-4.864h22.064a4.885,4.885,0,0,1,4.735,4.864v4.513a4.708,4.708,0,1,1-9.416-.009H340.742v12.713h.185a4.684,4.684,0,0,1,0,9.368ZM375.5,363.619l-17.03,17.03a4.684,4.684,0,0,1-6.624,0l-7.487-7.485a4.684,4.684,0,1,1,6.624-6.624l4.173,4.173L368.869,357a4.684,4.684,0,0,1,6.624,6.624Zm0-86.482-17.03,17.03a4.684,4.684,0,0,1-6.624,0l-7.487-7.485a4.684,4.684,0,1,1,6.624-6.624l4.173,4.173,13.717-13.717a4.684,4.684,0,0,1,6.624,6.624Zm41.429,94.015H387.507a4.684,4.684,0,0,1,0-9.368h29.418a4.684,4.684,0,0,1,0,9.368Zm0-42.823H387.507a4.684,4.684,0,0,1,0-9.368h29.418a4.684,4.684,0,0,1,0,9.368Zm0-42.823H387.507a4.684,4.684,0,0,1,0-9.368h29.418a4.684,4.684,0,0,1,0,9.368Z" transform="translate(-98.274 -65.279)" fill="#222"/>
  </g>
</svg>
