<svg xmlns="http://www.w3.org/2000/svg" width="371.791" height="253.164" viewBox="0 0 371.791 253.164">
  <g id="Page-1" transform="translate(-34.295 -28.824)">
    <g id="_026---Tree-Branch-UI" data-name="026---Tree-Branch-UI" transform="translate(38.295 32.824)">
      <path id="Shape" d="M117.719,227.438V179.987a23.726,23.726,0,0,0-23.726-23.725H70.268V140.445a7.909,7.909,0,0,1,7.909-7.909H180.987v23.726H157.262a23.726,23.726,0,0,0-23.725,23.725v47.451a23.726,23.726,0,0,0,23.725,23.726H220.53a23.726,23.726,0,0,0,23.726-23.726V179.987a23.726,23.726,0,0,0-23.726-23.725H196.8V132.536H299.615a7.909,7.909,0,0,1,7.909,7.909v15.817H283.8a23.726,23.726,0,0,0-23.725,23.725v47.451A23.726,23.726,0,0,0,283.8,251.164h63.268a23.726,23.726,0,0,0,23.726-23.726V179.987a23.726,23.726,0,0,0-23.726-23.725H323.34V140.445a23.726,23.726,0,0,0-23.725-23.726H196.8V100.9h55.36a23.726,23.726,0,0,0,23.726-23.725V29.726A23.726,23.726,0,0,0,252.164,6H125.628A23.726,23.726,0,0,0,101.9,29.726V77.177A23.726,23.726,0,0,0,125.628,100.9h55.36v15.817H78.177a23.726,23.726,0,0,0-23.726,23.726v15.817H30.726A23.726,23.726,0,0,0,7,179.987v47.451a23.726,23.726,0,0,0,23.726,23.726H93.994A23.726,23.726,0,0,0,117.719,227.438Zm237.255-47.451v47.451a7.909,7.909,0,0,1-7.909,7.909H283.8a7.908,7.908,0,0,1-7.908-7.909V179.987a7.908,7.908,0,0,1,7.908-7.909h63.268A7.909,7.909,0,0,1,354.974,179.987Zm-126.536,0v47.451a7.908,7.908,0,0,1-7.909,7.909H157.262a7.909,7.909,0,0,1-7.909-7.909V179.987a7.909,7.909,0,0,1,7.909-7.909H220.53A7.908,7.908,0,0,1,228.438,179.987ZM117.719,77.177V29.726a7.909,7.909,0,0,1,7.909-7.909H252.164a7.909,7.909,0,0,1,7.909,7.909V77.177a7.909,7.909,0,0,1-7.909,7.908H125.628A7.909,7.909,0,0,1,117.719,77.177ZM101.9,227.438a7.909,7.909,0,0,1-7.909,7.909H30.726a7.908,7.908,0,0,1-7.909-7.909V179.987a7.908,7.908,0,0,1,7.909-7.909H93.994a7.909,7.909,0,0,1,7.909,7.909Z" transform="translate(-7 -6)" fill="#0078bc" stroke="#0078bc" stroke-width="8"/>
      <path id="Shape-2" data-name="Shape" d="M46.726,11H30.909a7.909,7.909,0,1,0,0,15.817H46.726a7.909,7.909,0,1,0,0-15.817Z" transform="translate(103.536 28.543)" fill="#0078bc" stroke="#0078bc" stroke-width="8"/>
      <path id="Shape-3" data-name="Shape" d="M40.909,26.817H56.725a7.909,7.909,0,1,0,0-15.817H40.909a7.909,7.909,0,1,0,0,15.817Z" transform="translate(172.621 28.543)" fill="#0078bc" stroke="#0078bc" stroke-width="8"/>
      <path id="Shape-4" data-name="Shape" d="M59.634,18.909A7.909,7.909,0,0,0,51.726,11H35.909a7.909,7.909,0,0,0,0,15.817H51.726A7.909,7.909,0,0,0,59.634,18.909Z" transform="translate(138.079 28.543)" fill="#0078bc" stroke="#0078bc" stroke-width="8"/>
      <circle id="Oval" cx="8" cy="8" r="8" transform="translate(31.567 189.121)" fill="#0078bc" stroke="#0078bc" stroke-width="8"/>
      <ellipse id="Oval-2" data-name="Oval" cx="7" cy="8" rx="7" ry="8" transform="translate(64.567 189.121)" fill="#0078bc" stroke="#0078bc" stroke-width="8"/>
      <ellipse id="Oval-3" data-name="Oval" cx="9" cy="8" rx="9" ry="8" transform="translate(156.567 189.121)" fill="#0078bc" stroke="#0078bc" stroke-width="8"/>
      <ellipse id="Oval-4" data-name="Oval" cx="9" cy="8" rx="9" ry="8" transform="translate(188.567 189.121)" fill="#0078bc" stroke="#0078bc" stroke-width="8"/>
      <ellipse id="Oval-5" data-name="Oval" cx="8.5" cy="8" rx="8.5" ry="8" transform="translate(284.567 189.121)" fill="#0078bc" stroke="#0078bc" stroke-width="8"/>
      <circle id="Oval-6" data-name="Oval" cx="8" cy="8" r="8" transform="translate(315.567 189.121)" fill="#0078bc" stroke="#0078bc" stroke-width="8"/>
    </g>
  </g>
</svg>
