<svg id="calculator" xmlns="http://www.w3.org/2000/svg" width="265.155" height="265.155" viewBox="0 0 265.155 265.155">
  <path id="Path_386" data-name="Path 386" d="M23.3,0A23.331,23.331,0,0,0,0,23.3v94.772H118.077V0Zm53.86,66.807H66.807V77.164a7.768,7.768,0,0,1-15.536,0V66.807H40.913a7.768,7.768,0,0,1,0-15.536H51.27V40.913a7.768,7.768,0,0,1,15.536,0V51.27H77.164a7.768,7.768,0,0,1,0,15.536Z" fill="#222"/>
  <g id="Group_105" data-name="Group 105">
    <path id="Path_387" data-name="Path 387" d="M371.848,118.077h4.229V23.3A23.331,23.331,0,0,0,352.772,0H258V115.275a91.738,91.738,0,0,1,113.848,2.8Zm-80.7-59.038a7.768,7.768,0,0,1,7.768-7.768h36.252a7.768,7.768,0,1,1,0,15.536H298.913A7.768,7.768,0,0,1,291.144,59.038Z" transform="translate(-124.387)" fill="#222"/>
    <path id="Path_388" data-name="Path 388" d="M115.275,258H0v94.772a23.331,23.331,0,0,0,23.3,23.3h94.772v-4.229A91.738,91.738,0,0,1,115.275,258Zm-37.8,66.493a7.768,7.768,0,1,1-10.985,10.985l-7.454-7.454-7.454,7.454A7.768,7.768,0,0,1,40.6,324.492l7.454-7.454L40.6,309.584A7.768,7.768,0,1,1,51.584,298.6l7.454,7.454,7.454-7.454a7.768,7.768,0,1,1,10.986,10.986l-7.454,7.454Z" transform="translate(0 -124.387)" fill="#222"/>
  </g>
  <g id="Group_106" data-name="Group 106" transform="translate(112.38 112.38)">
    <path id="Path_389" data-name="Path 389" d="M293.388,217a76.388,76.388,0,1,0,76.388,76.388A76.474,76.474,0,0,0,293.388,217Zm18.126,97.1H275.262a7.768,7.768,0,0,1,0-15.536h36.252a7.768,7.768,0,0,1,0,15.536Zm0-25.894H275.262a7.768,7.768,0,1,1,0-15.536h36.252a7.768,7.768,0,0,1,0,15.536Z" transform="translate(-217 -217)" fill="#222"/>
  </g>
</svg>
