<?xml version="1.0" encoding="utf-8"?>
<!-- Generator: Adobe Illustrator 21.1.0, SVG Export Plug-In . SVG Version: 6.00 Build 0)  -->
<svg version="1.1" xmlns="http://www.w3.org/2000/svg" xmlns:xlink="http://www.w3.org/1999/xlink" x="0px" y="0px"
	 viewBox="0 0 3710 3710" style="enable-background:new 0 0 3710 3710;" xml:space="preserve">
<style type="text/css">
	.st0{opacity:0.4;fill:#0073B4;}
	.st1{fill:url(#SVGID_1_);}
	.st2{fill:#F0F0F0;}
	.st3{fill:url(#SVGID_2_);}
	.st4{fill:url(#SVGID_3_);}
	.st5{fill:url(#SVGID_4_);}
	.st6{fill:#FFFFFF;}
	.st7{fill:url(#SVGID_5_);}
	.st8{fill:url(#SVGID_6_);}
	.st9{fill:url(#SVGID_7_);}
	.st10{opacity:0.78;fill:#FFFFFF;}
	.st11{fill:url(#SVGID_8_);}
	.st12{fill:url(#SVGID_9_);}
	.st13{fill:url(#SVGID_10_);}
	.st14{fill:url(#SVGID_11_);}
	.st15{fill:url(#SVGID_12_);}
	.st16{fill:url(#SVGID_13_);}
	.st17{fill:url(#SVGID_14_);}
	.st18{fill:url(#SVGID_15_);}
	.st19{fill:url(#SVGID_16_);}
	.st20{fill:url(#SVGID_17_);}
	.st21{fill:url(#SVGID_18_);}
	.st22{fill:url(#SVGID_19_);}
	.st23{fill:url(#SVGID_20_);}
	.st24{fill:url(#SVGID_21_);}
	.st25{fill:url(#SVGID_22_);}
	.st26{fill:url(#SVGID_23_);}
	.st27{fill:url(#SVGID_24_);}
	.st28{fill:url(#SVGID_25_);}
	.st29{opacity:0.37;fill:#FFFFFF;}
	.st30{fill:url(#SVGID_26_);}
	.st31{fill:url(#SVGID_27_);}
	.st32{fill:url(#SVGID_28_);}
	.st33{fill:url(#SVGID_29_);}
	.st34{fill:url(#SVGID_30_);}
	.st35{opacity:0.5;}
	.st36{fill:#0574B5;}
	.st37{fill:#DCE8EF;}
</style>
<g id="Background">
</g>
<g id="Illustration">
	<g>
		<g>
			<path class="st0" d="M3076.8,3055.4c-87.9,90.6-166.6,143.9-226.8,184.1c-587.4,392.2-1258.9,279.2-1466.5,240.5
				c-335-62.3-617.7-106.3-860.6-325.8C-29.2,2655.5-2.3,1615.2,419.5,970.7c50-76.4,471.2-700.7,1144.1-788.7
				c16.5-2.2,28.7-3.4,39.5-4.5c104.1-11,749.2-69.2,1275.2,371.5c75.3,63.1,196.5,176.9,308.8,350.4
				C3598,1534,3599.3,2516.8,3076.8,3055.4z"/>
			<g>
				
					<linearGradient id="SVGID_1_" gradientUnits="userSpaceOnUse" x1="3991.5034" y1="146.9529" x2="5052.2412" y2="146.9529" gradientTransform="matrix(0.9248 0.3806 -0.3806 0.9248 -1044.3727 -90.4817)">
					<stop  offset="0" style="stop-color:#D5507A"/>
					<stop  offset="1" style="stop-color:#EF8843"/>
				</linearGradient>
				<path class="st1" d="M2807.9,3027.8c-168.8-33-298-285-285.7-497.1c12.6-218.3,166.6-248.6,274.9-514.2
					c122.9-301.7-15.1-411.7,48.3-860.5c14.3-101.3,97.2-687.2,305.8-717.6c192.9-28.1,520.1,415,457.6,784
					c-44.6,263.1-254.5,294.9-305.6,601.7c-44.8,269.2,102,333.8,61.1,594.5C3314.6,2736,3029.5,3071.1,2807.9,3027.8z"/>
				<path class="st2" d="M2766.5,3096.1c175.6-307.3,299.7-841.9,372.9-1236.3c79.2-426.9,117.5-786,117.9-789.6l-14.5-1.5
					c-0.4,3.6-38.6,362.2-117.7,788.6c-73,393.2-196.6,926-371.2,1231.6L2766.5,3096.1z"/>
			</g>
			<g>
				<linearGradient id="SVGID_2_" gradientUnits="userSpaceOnUse" x1="2996.5747" y1="94.6221" x2="2084.04" y2="2071.7842">
					<stop  offset="0" style="stop-color:#EF8843"/>
					<stop  offset="0.9001" style="stop-color:#59246D"/>
					<stop  offset="1" style="stop-color:#4C246D"/>
				</linearGradient>
				<path class="st3" d="M2044.8,2374.3c-286.9-83.9-468.2-531.4-350.4-711.9c79.6-122,244.1-42.9,361.2-176.2
					c149.6-170.2-30.7-399.1,42.4-756.8c62.3-304.4,292.6-626.5,468.8-604.8c184.5,22.8,359.8,428.4,262.5,712.8
					c-63.3,184.9-208.9,222.3-210.2,382.9c-1.5,186.3,193.7,232.5,229.1,405.8C2912,1937.4,2424.3,2485.3,2044.8,2374.3z"/>
				
					<linearGradient id="SVGID_3_" gradientUnits="userSpaceOnUse" x1="5947.8291" y1="1451.009" x2="5613.2681" y2="3074.0872" gradientTransform="matrix(0.9809 -0.1946 0.1946 0.9809 -3827.1946 543.2809)">
					<stop  offset="0" style="stop-color:#2B3582"/>
					<stop  offset="1" style="stop-color:#150E42"/>
				</linearGradient>
				<path class="st4" d="M2208.8,2465.6c-1.6,0.3-3.2,0.3-4.8-0.1c-5.8-1.5-9.2-7.4-7.7-13.2c203.8-778.6,141.3-1622.6,140.7-1631.1
					c-0.5-5.9,4-11.1,9.9-11.6c5.9-0.5,11.1,4,11.6,9.9c0.7,8.5,63.3,856.1-141.3,1638.2C2216,2461.9,2212.7,2464.8,2208.8,2465.6z"
					/>
				<path class="st2" d="M2649.2,981c-1.1,0.2-2.3,0.1-3.3-0.5c-2.5-1.3-3.6-4.4-2.3-6.9c81.1-161.2,160-395,75.7-592.8
					c-50.2-117.8-135.7-167.5-136.6-168c-2.5-1.4-3.3-4.6-1.9-7c1.4-2.5,4.6-3.3,7-1.9c3.6,2.1,89.4,51.9,141,172.9
					c47.4,111.2,72.7,305.8-75.9,601.5C2652.1,979.7,2650.7,980.7,2649.2,981z"/>
				<path class="st2" d="M2009.1,2316.9c-1.6,0.3-3.4-0.1-4.6-1.4c-215.6-210.8-310-388.1-280.6-526.8
					c26.1-123.3,144.8-168.9,146-169.3c2.7-1,5.6,0.4,6.6,3c1,2.7-0.4,5.6-3,6.6c-1.1,0.4-114.7,44.1-139.6,161.9
					c-28.5,135,64.9,309,277.8,517.1c2,2,2.1,5.3,0.1,7.3C2011,2316.2,2010.1,2316.7,2009.1,2316.9z"/>
			</g>
			<g>
				<g>
					<linearGradient id="SVGID_4_" gradientUnits="userSpaceOnUse" x1="2562.2273" y1="920.2502" x2="4108.3154" y2="-1158.1013">
						<stop  offset="0" style="stop-color:#2B3582"/>
						<stop  offset="1" style="stop-color:#150E42"/>
					</linearGradient>
					<path class="st5" d="M602.7,1826.8c0,681.5,573.3,1233.9,1280.6,1233.9s1312.2-576.6,1312.2-1258
						c0-681.5-605-1209.8-1312.2-1209.8S602.7,1145.4,602.7,1826.8z"/>
					<g>
						<path class="st6" d="M3095,1526.8c0.8,0,1.5-0.1,2.3-0.3c4.7-1.2,7.5-5.9,6.3-10.4c-13.8-49.9-31.4-99.3-52.3-147
							c-1.9-4.3-7.1-6.3-11.6-4.5c-4.5,1.8-6.6,6.8-4.7,11.2c20.6,46.9,38,95.6,51.5,144.7C3087.5,1524.3,3091.1,1526.8,3095,1526.8
							z"/>
						<path class="st6" d="M2899.3,1141.2c1.8,0,3.7-0.6,5.3-1.7c3.9-2.8,4.7-8.2,1.7-11.9C2669.1,824.4,2286.9,643.4,1884,643.4
							c-172.1,0-338.5,33.6-494.6,99.9c-4.5,1.9-6.5,6.9-4.5,11.2c2,4.3,7.2,6.3,11.7,4.4c153.9-65.3,317.9-98.5,487.5-98.5
							c397.4,0,774.2,178.4,1008.2,477.3C2894,1140,2896.6,1141.2,2899.3,1141.2z"/>
					</g>
					<linearGradient id="SVGID_5_" gradientUnits="userSpaceOnUse" x1="1222.9294" y1="483.8964" x2="2997.1265" y2="3998.4958">
						<stop  offset="0" style="stop-color:#53D8FF"/>
						<stop  offset="1" style="stop-color:#3840F7"/>
					</linearGradient>
					<path class="st7" d="M776.9,1826.8c0,589.9,496.3,1068.1,1108.5,1068.1s1135.9-499.1,1135.9-1089
						c0-589.9-523.7-1047.2-1135.9-1047.2S776.9,1236.9,776.9,1826.8z"/>
					
						<linearGradient id="SVGID_6_" gradientUnits="userSpaceOnUse" x1="854.485" y1="1127.5399" x2="-1378.7693" y2="3390.9709" gradientTransform="matrix(-1 0 0 1 2062.8765 0)">
						<stop  offset="0" style="stop-color:#53D8FF"/>
						<stop  offset="1" style="stop-color:#3840F7"/>
					</linearGradient>
					<path class="st8" d="M776.9,1826.8c0-589.9,496.3-1068.1,1108.5-1068.1c331.5,0,637,134.1,847.5,350.8L1879,1794.1
						l-175.5,1086.4C1177.9,2796.9,776.9,2357,776.9,1826.8z"/>
					<linearGradient id="SVGID_7_" gradientUnits="userSpaceOnUse" x1="3074.6106" y1="165.1377" x2="-423.0913" y2="5115.9946">
						<stop  offset="0" style="stop-color:#53D8FF"/>
						<stop  offset="1" style="stop-color:#3840F7"/>
					</linearGradient>
					<path class="st9" d="M927.8,1752.6c0,532.4,457.2,963.9,1021.2,963.9c564,0,1046.4-450.4,1046.4-982.8
						c0-532.4-482.4-945.1-1046.4-945.1C1385,788.7,927.8,1220.2,927.8,1752.6z"/>
					<path class="st10" d="M2738,1771.4c2.7,45.3,43.1,80,90.2,77.3c47.1-2.6,83-41.5,80.2-86.9c-2.7-45.3-43.1-80-90.2-77.3
						C2771.2,1687.2,2735.3,1726.1,2738,1771.4z"/>
					<path class="st10" d="M894.3,1874.8c2.7,45.3,43.1,80,90.2,77.3c47.1-2.6,83-41.5,80.2-86.9c-2.7-45.3-43.1-80-90.2-77.3
						C927.5,1790.6,891.6,1829.5,894.3,1874.8z"/>
					<path class="st10" d="M2051.9,2612.8c-46.4,8.2-77.1,51-68.6,95.7s52.9,74.3,99.3,66.1c46.4-8.2,77.1-51,68.6-95.7
						C2142.8,2634.2,2098.3,2604.6,2051.9,2612.8z"/>
					<path class="st10" d="M1720.1,862.2c-46.4,8.2-77.1,51-68.6,95.7c8.5,44.7,52.9,74.3,99.3,66.1c46.4-8.2,77.1-51,68.6-95.7
						C1810.9,883.6,1766.5,854,1720.1,862.2z"/>
					<path class="st10" d="M1445.2,2659.8c-8.7,21.1-6.5,40.8,4.8,44.1c11.3,3.3,27.6-11.2,36.2-32.3c8.7-21.1,6.5-40.8-4.8-44.1
						C1470.1,2624.2,1453.9,2638.7,1445.2,2659.8z"/>
					<path class="st10" d="M2187,999.3c-8.7,21.1-6.5,40.8,4.8,44.1c11.3,3.3,27.6-11.2,36.2-32.3c8.7-21.1,6.5-40.8-4.8-44.1
						C2211.9,963.8,2195.6,978.2,2187,999.3z"/>
					<path class="st10" d="M1057.9,2344.1c-18.8,13.7-27.6,31.6-19.6,40.1c7.9,8.5,29.6,4.2,48.4-9.4c18.8-13.7,27.6-31.6,19.6-40.1
						C1098.4,2326.2,1076.7,2330.4,1057.9,2344.1z"/>
					<path class="st10" d="M2586.6,1296.1c-18.8,13.7-27.6,31.6-19.6,40.1c7.9,8.5,29.6,4.2,48.4-9.4c18.8-13.7,27.6-31.6,19.6-40.1
						C2627,1278.2,2605.4,1282.5,2586.6,1296.1z"/>
					<path class="st10" d="M1009.3,1404c-21.3-9.7-41.8-9-46,1.7c-4.1,10.7,9.7,27.3,31,37c21.3,9.7,41.8,9,46-1.7
						C1044.4,1430.3,1030.5,1413.7,1009.3,1404z"/>
					<path class="st10" d="M2679,2228.3c-21.3-9.7-41.8-9-46,1.7c-4.1,10.7,9.7,27.3,31,37c21.2,9.8,41.8,9,46-1.7
						C2714.1,2254.6,2700.2,2238,2679,2228.3z"/>
					<path class="st10" d="M1362.1,1052.8c-12.9-19-30.9-28.6-40.2-21.6c-9.3,7.1-6.4,28.2,6.5,47.1c12.9,19,30.9,28.6,40.2,21.6
						C1377.9,1092.8,1375,1071.7,1362.1,1052.8z"/>
					<path class="st10" d="M2344.9,2592.6c-12.9-19-30.9-28.6-40.2-21.5c-9.3,7.1-6.4,28.2,6.5,47.1c12.9,19,30.9,28.6,40.2,21.6
						C2360.7,2632.7,2357.8,2611.6,2344.9,2592.6z"/>
					
						<linearGradient id="SVGID_8_" gradientUnits="userSpaceOnUse" x1="5572.04" y1="-483.1571" x2="3214.6563" y2="2609.3245" gradientTransform="matrix(-3.050000e-02 -0.9995 -0.9995 3.050000e-02 4912.793 5520.5835)">
						<stop  offset="0" style="stop-color:#FDF53F"/>
						<stop  offset="1" style="stop-color:#0073B4"/>
					</linearGradient>
					<path class="st11" d="M1919.9,1793.7l685.6,329.5c13.3,6.4,28.8-3.2,28.4-17.5l-2.7-85c-0.5-16.5,19.7-25.7,32.6-14.8
						l495.7,420.5c15.2,12.9,2.7,36.8-17.1,32.7L2504,2327.8c-15.3-3.1-20.8-21.4-9.7-32l74.7-71c9.2-8.8,7.3-23.6-4-29.9
						L1901.4,1827c-9.2-5.1-12.5-16.4-7.4-25.4l0,0C1899,1792.7,1910.5,1789.2,1919.9,1793.7z"/>
					<path class="st6" d="M3082.4,2424.5c6.4,0,12.1-3.4,15.1-9.2c3.5-6.9,1.7-14.8-4.4-19.7l-108.5-86.4c-3.8-3-9.3-2.5-12.4,1.1
						c-3.1,3.6-2.6,9,1.2,12l108.5,86.4c-144.5-31.8-483-102.9-490.1-103.6c-4.7-0.5-9.2,2.9-9.7,7.6c-0.5,4.6,3,8.8,7.7,9.3
						c10.1,1.6,269.6,55.9,489,102C3079.9,2424.3,3081.1,2424.5,3082.4,2424.5z"/>
					
						<linearGradient id="SVGID_9_" gradientUnits="userSpaceOnUse" x1="6509.4189" y1="231.4008" x2="4152.0361" y2="3323.8811" gradientTransform="matrix(-3.050000e-02 -0.9995 -0.9995 3.050000e-02 4912.793 5520.5835)">
						<stop  offset="0" style="stop-color:#FDF53F"/>
						<stop  offset="1" style="stop-color:#0073B4"/>
					</linearGradient>
					<path class="st12" d="M1848.4,1761.3l1.4-645.9c-0.2-14.3-16.2-23.2-29.2-16.2l-77.1,41.4c-15,8.1-32.7-5-28.6-21.1L1874.4,502
						c4.9-18.9,32.6-19.2,38-0.4l172.6,606.6c4.1,14.5-10.1,27.6-25,23l-99.8-31.3c-12.3-3.9-25.1,4.7-25.7,17.2l-46.9,644.8
						c-0.5,10.3-9.4,18.3-20,18.1l0,0C1857.1,1779.7,1848.6,1771.5,1848.4,1761.3z"/>
					<path class="st6" d="M2032,1048.9c1.1,0,2.2-0.2,3.2-0.6c4.5-1.7,6.7-6.5,5.1-10.9c-3.2-9.4-72.5-256.3-130.9-465.2
						c-2.1-7.4-8.6-12.2-16.8-12.1c-8,0.2-14.4,5.4-16.1,12.9l-29.7,132.6c-1,4.6,2,9.1,6.8,10.1c4.7,1,9.5-1.9,10.5-6.5l29.7-132.6
						c37.2,138.3,127.4,460.6,130,466.9C2025.2,1046.9,2028.5,1048.9,2032,1048.9z"/>
					<linearGradient id="SVGID_10_" gradientUnits="userSpaceOnUse" x1="2335.3411" y1="944.0175" x2="1718.5963" y2="2126.8169">
						<stop  offset="0" style="stop-color:#FDF53F"/>
						<stop  offset="1" style="stop-color:#0073B4"/>
					</linearGradient>
					<ellipse class="st13" cx="1891.1" cy="1795.9" rx="91.1" ry="87.8"/>
				</g>
			</g>
			<g>
				
					<linearGradient id="SVGID_11_" gradientUnits="userSpaceOnUse" x1="-4753.8843" y1="3505.6523" x2="-4409.9932" y2="3505.6523" gradientTransform="matrix(-1 0 0 1 -3471.8828 0)">
					<stop  offset="0" style="stop-color:#53D8FF"/>
					<stop  offset="1" style="stop-color:#3840F7"/>
				</linearGradient>
				<path class="st14" d="M947.8,3489c58.9,5.1,161.2,13.4,241.8,16.9c48.5,2.1,76.4-2.6,92.4-9c0,1.8-0.1,3.5-0.1,5.1
					c-0.4,8.5-7.3,15.3-15.8,15.7c-152.3,8.5-273.4,2.9-316.6,0.3c-8.9-0.5-14.2-10.2-9.7-17.8
					C942.1,3496.4,944.8,3492.7,947.8,3489z"/>
				
					<linearGradient id="SVGID_12_" gradientUnits="userSpaceOnUse" x1="-4753.9038" y1="3438.2542" x2="-4419.7041" y2="3438.2542" gradientTransform="matrix(-1 0 0 1 -3471.8828 0)">
					<stop  offset="0" style="stop-color:#2B3582"/>
					<stop  offset="1" style="stop-color:#150E42"/>
				</linearGradient>
				<path class="st15" d="M1189.6,3505.9c-80.6-3.5-182.9-11.8-241.8-16.9c57.9-71.1,241.8-119,241.8-119h51.9
					c35.7,51.5,40.9,100.5,40.5,126.8C1265.9,3503.3,1238,3508.1,1189.6,3505.9z"/>
				
					<linearGradient id="SVGID_13_" gradientUnits="userSpaceOnUse" x1="-4722.1353" y1="3344.157" x2="-4625.2681" y2="3344.157" gradientTransform="matrix(-1 0 0 1 -3471.8828 0)">
					<stop  offset="0" style="stop-color:#F9B776"/>
					<stop  offset="1" style="stop-color:#F47960"/>
				</linearGradient>
				<path class="st16" d="M1250.3,3285.3l-4.9,96.2c-0.5,10.4-8.3,19.2-18.7,20.7c-10.4,1.5-24.3,1.7-39-3.2
					c-9.1-3-15.8-10.7-17.5-20l-16.8-93.6H1250.3z"/>
				<g>
					
						<linearGradient id="SVGID_14_" gradientUnits="userSpaceOnUse" x1="-5367.6836" y1="3590.9263" x2="-5235.8989" y2="3590.9263" gradientTransform="matrix(-1 0 0 1 -3471.8828 0)">
						<stop  offset="0" style="stop-color:#53D8FF"/>
						<stop  offset="1" style="stop-color:#3840F7"/>
					</linearGradient>
					<path class="st17" d="M1852.9,3599.9c25.5-4.6,37.1-21.8,42-40.1c0,0.2,0.1,0.3,0.1,0.5c3.8,19.3-5,39.4-22.4,48.9
						c-21.1,11.5-44.1,13.5-62,12.5c-19.2-1-36.8-11.3-46.5-27.7l-0.1-0.2C1783.3,3606.2,1810.3,3607.6,1852.9,3599.9z"/>
					
						<linearGradient id="SVGID_15_" gradientUnits="userSpaceOnUse" x1="-5366.7251" y1="3459.7849" x2="-5173.291" y2="3459.7849" gradientTransform="matrix(-1 0 0 1 -3471.8828 0)">
						<stop  offset="0" style="stop-color:#2B3582"/>
						<stop  offset="1" style="stop-color:#150E42"/>
					</linearGradient>
					<path class="st18" d="M1732.4,3314.9h42.8c65.2-1.7,106.2,176.1,119.6,244.9c-4.8,18.3-16.4,35.5-42,40.1
						c-42.6,7.7-69.6,6.2-88.9-6.1c-35.2-59.9-52.7-147.7-61.1-198.9C1693.4,3336.7,1732.4,3314.9,1732.4,3314.9z"/>
				</g>
				
					<linearGradient id="SVGID_16_" gradientUnits="userSpaceOnUse" x1="-5266.1807" y1="3293.6445" x2="-5150.4146" y2="3293.6445" gradientTransform="matrix(-1 0 0 1 -3471.8828 0)">
					<stop  offset="0" style="stop-color:#F9B776"/>
					<stop  offset="1" style="stop-color:#F47960"/>
				</linearGradient>
				<path class="st19" d="M1769.8,3225.7l23.8,94.6c2.9,11.6-2.6,23.6-13.4,29.1c-13.3,6.8-32,14-49.2,11.9
					c-8.1-1-14.8-6.7-17.5-14.3l-34.9-99.5L1769.8,3225.7z"/>
				<linearGradient id="SVGID_17_" gradientUnits="userSpaceOnUse" x1="2168.3684" y1="1507.9366" x2="1779.7345" y2="2040.1959">
					<stop  offset="0" style="stop-color:#2B3582"/>
					<stop  offset="0.5464" style="stop-color:#1F205F"/>
					<stop  offset="1" style="stop-color:#150E42"/>
				</linearGradient>
				<path class="st20" d="M933.3,1980.1c0,0,212.5,1328.2,209,1335.5c0,0,58.7,26.7,122.7,3.4c0,0-19.2-710-64.2-982.3
					c0,0,362.6,634.6,477.8,950.8c0,0,60.1-7.2,109.8-39.9c0,0-390.5-1142.3-494.6-1294.4L933.3,1980.1z"/>
				<linearGradient id="SVGID_18_" gradientUnits="userSpaceOnUse" x1="2912.4968" y1="-269.8055" x2="1446.6045" y2="1035.1283">
					<stop  offset="0" style="stop-color:#FDF53F"/>
					<stop  offset="1" style="stop-color:#0073B4"/>
				</linearGradient>
				<path class="st21" d="M899.8,1052.7c-15.2,0.9-30.2,3.8-44.5,8.8c-155.7,54-278,40.4-372-2.1c-21.8,28.9-56.9,89.1-72.2,190.2
					c171.1,127.4,386.3,93.8,456.7,78.1c-18.4,136.7-18.2,353,57,670c2,8.3,9.1,14.4,17.7,15.1c48.1,4,209,13.4,363.7-21.3
					c6.9-1.6,10.7-9,8-15.5l-1.4-3.3c-12.9-30.4-18.7-63.2-16.8-96c5.6-99.9,32.5-325.5,89.8-480.1c3.3,5.6,6.4,11.2,9.4,16.7
					c10.4-101.7,49.3-201.8,76.8-302.7C1247.9,1039.3,981.5,1047.9,899.8,1052.7z"/>
				
					<linearGradient id="SVGID_19_" gradientUnits="userSpaceOnUse" x1="-4695.855" y1="1240.681" x2="-4645.6943" y2="977.339" gradientTransform="matrix(-1 0 0 1 -3471.8828 0)">
					<stop  offset="0" style="stop-color:#F9B776"/>
					<stop  offset="1" style="stop-color:#F47960"/>
				</linearGradient>
				<path class="st22" d="M1249.4,868c0,0,15.7,165.5,29.4,214.5c2.1,7.4-1.1,15.3-7.9,19.1c-23.4,13.4-79.5,35.2-156.2-2.4
					c-12.4-6.1-19.9-19.1-19.3-32.8l6.8-159.9L1249.4,868z"/>
				<g>
					
						<linearGradient id="SVGID_20_" gradientUnits="userSpaceOnUse" x1="-4560.1279" y1="757.5325" x2="-4846.3232" y2="976.5154" gradientTransform="matrix(-1 0 0 1 -3471.8828 0)">
						<stop  offset="0" style="stop-color:#F9B776"/>
						<stop  offset="1" style="stop-color:#F47960"/>
					</linearGradient>
					<path class="st23" d="M1098.7,656.3c0,0-50.1,115-53.4,175.4c-3.4,60.4-16.4,99.5,53.4,111.7c69.8,12.2,128.6-22.6,160.4-82.7
						c0,0,49.9-92.6,38.7-130.6C1286.7,692.1,1098.7,656.3,1098.7,656.3z"/>
					
						<linearGradient id="SVGID_21_" gradientUnits="userSpaceOnUse" x1="-4791.3301" y1="607.239" x2="-4524.7842" y2="950.4166" gradientTransform="matrix(-1 0 0 1 -3471.8828 0)">
						<stop  offset="0" style="stop-color:#2B3582"/>
						<stop  offset="1" style="stop-color:#150E42"/>
					</linearGradient>
					<path class="st24" d="M1235.3,817.4l-4-1.8c-5.1-2.2-7.2-8.3-4.7-13.2c9.8-19,29-62.6,4.2-72.8c-23.4-9.6-48.6-15-72.6-22.6
						c-22.3-7.1-65.6-14.6-77.2-38.1c-3.4-6.8,0.3-14.8,3.9-21.5c6.8-12.5,13.6-24.9,20.3-37.4c5.7-10.5,11.7-21.3,20.8-29.1
						c20.9-17.8,45.9-2.2,69,2.1c86.1,15.9,143,50.7,144.4,110.2c0.1,3.8,4.1,5.9,7.3,3.9c6.4-3.9,16.5-5.7,30.1,5.7
						c23.6,19.9,14,71.5-37.9,113.9c-2.5,2-2.4,5.9,0.2,7.6c9.4,6.1,23.4,20.7-12.9,40.1c-37.5,20.1-65.6,18.4-76.4,16.6
						c-2.7-0.4-4.4-3-3.8-5.7l11.5-52.3c0.7-3-1.6-5.8-4.6-5.8H1235.3z"/>
					
						<linearGradient id="SVGID_22_" gradientUnits="userSpaceOnUse" x1="-4595.6265" y1="711.1368" x2="-4881.8228" y2="930.1208" gradientTransform="matrix(-1 0 0 1 -3471.8828 0)">
						<stop  offset="0" style="stop-color:#F9B776"/>
						<stop  offset="1" style="stop-color:#F47960"/>
					</linearGradient>
					<path class="st25" d="M1233.2,828.4c0,0,19.1-73.5,52-52.9c32.9,20.6-17.1,82.3-43.6,85.1L1233.2,828.4z"/>
				</g>
				<g>
					<g>
						
							<linearGradient id="SVGID_23_" gradientUnits="userSpaceOnUse" x1="2407.0596" y1="-236.2541" x2="1690.4164" y2="300.2693" gradientTransform="matrix(0.9906 0.1368 -0.1368 0.9906 676.1831 -429.2192)">
							<stop  offset="0" style="stop-color:#FDF53F"/>
							<stop  offset="1" style="stop-color:#0073B4"/>
						</linearGradient>
						<path class="st26" d="M1057.3,675.9c81.9-242.8,421.6-89.7,309.6,121.8C1249.3,744.4,1112.3,659.1,1057.3,675.9z"/>
					</g>
					
						<linearGradient id="SVGID_24_" gradientUnits="userSpaceOnUse" x1="2380.511" y1="-271.6718" x2="1663.8741" y2="264.8469" gradientTransform="matrix(0.9906 0.1368 -0.1368 0.9906 676.1831 -429.2192)">
						<stop  offset="0" style="stop-color:#FDF53F"/>
						<stop  offset="1" style="stop-color:#0073B4"/>
					</linearGradient>
					<path class="st27" d="M1257.6,740.4L1044,768.5c-5.4,0.7-10.8-1.5-14.2-5.8c-24.6-31.3-56-48.6-92.8-55
						c-4.7-0.8-4.8-7.4-0.2-8.5l128.8-30.1c0.1,0,0.3-0.1,0.4-0.1c65.7-5.6,129.6,24.1,192.7,66.3
						C1260.8,736.8,1260.1,740.1,1257.6,740.4z"/>
				</g>
				<g>
					
						<linearGradient id="SVGID_25_" gradientUnits="userSpaceOnUse" x1="-115.6468" y1="1178.351" x2="1703.752" y2="2447.6992" gradientTransform="matrix(-1 0 0 1 1563.5464 0)">
						<stop  offset="0" style="stop-color:#FDF53F"/>
						<stop  offset="1" style="stop-color:#0073B4"/>
					</linearGradient>
					<path class="st28" d="M1304,1966.2c49,0.9,89.2-38.5,89.2-87.5v-389.4c0-51.2-41.1-92.8-92.3-93.3
						c-153.5-1.7-470.2-1.8-729.2,20.1c-35.4,3-62.9,32-64.1,67.4l-24.2,376.4c-1.8,49.8,37.6,91.4,87.4,92.3L1304,1966.2z"/>
					<path class="st6" d="M1304.2,1531.5c0.7,33.1-0.3,85.7-1.1,119.7c-0.4,17.7-15.9,31.1-33.5,29.1l-126.3-14.8
						c-16.8-2-28.7-17.5-26.2-34.2l15.5-103.5c2.2-14.7,14.8-25.6,29.7-25.6h112C1290.6,1502.1,1303.9,1515.2,1304.2,1531.5z"/>
					<path class="st29" d="M974.1,1727.5l-105.4,11.4c-14.7,1.6-27.3-10.6-26.2-25.4l23-313.5c44.2-1.4,87.8-2.4,129.8-3.1v307
						C995.3,1716,986.1,1726.2,974.1,1727.5z"/>
					<path class="st6" d="M930.9,1673.2c-0.3,5.6-5,10-10.6,10c-0.2,0-0.4,0-0.6,0c-5.8-0.3-10.3-5.3-10-11.2l15.9-273.6
						c7.1-0.2,14.2-0.3,21.3-0.5L930.9,1673.2z"/>
				</g>
				<g>
					
						<linearGradient id="SVGID_26_" gradientUnits="userSpaceOnUse" x1="239.3708" y1="820.6971" x2="1601.3737" y2="1770.9319" gradientTransform="matrix(-1 0 0 1 1563.5464 0)">
						<stop  offset="0" style="stop-color:#FDF53F"/>
						<stop  offset="1" style="stop-color:#0073B4"/>
					</linearGradient>
					<path class="st30" d="M1043.3,1410.5c36.7,0.7,66.8-28.8,66.8-65.5v-291.5c0-38.3-30.8-69.5-69.1-69.9
						c-114.9-1.3-352-1.3-545.9,15c-26.5,2.2-47.1,23.9-48,50.5L429,1330.9c-1.3,37.3,28.1,68.4,65.4,69.1L1043.3,1410.5z"/>
					<path class="st6" d="M1043.5,1085c0.5,24.8-0.2,64.2-0.9,89.6c-0.3,13.2-11.9,23.3-25.1,21.8l-94.6-11.1
						c-12.6-1.5-21.5-13.1-19.6-25.6l11.6-77.4c1.6-11,11.1-19.1,22.2-19.1h83.8C1033.3,1063.1,1043.3,1072.8,1043.5,1085z"/>
					<path class="st29" d="M796.3,1231.8l-78.9,8.5c-11,1.2-20.5-7.9-19.6-19L715,986.6c33.1-1,65.7-1.8,97.2-2.4v229.8
						C812.2,1223.2,805.4,1230.8,796.3,1231.8z"/>
					<path class="st6" d="M764,1191.1c-0.2,4.2-3.7,7.5-7.9,7.5c-0.2,0-0.3,0-0.5,0c-4.4-0.3-7.7-4-7.5-8.4L760,985.4
						c5.3-0.1,10.6-0.3,15.9-0.4L764,1191.1z"/>
				</g>
				
					<linearGradient id="SVGID_27_" gradientUnits="userSpaceOnUse" x1="3218.3833" y1="1181.9207" x2="3496.4353" y2="2491.3337" gradientTransform="matrix(-0.9937 -0.1123 -0.1123 0.9937 3848.0139 117.0656)">
					<stop  offset="0" style="stop-color:#F9B776"/>
					<stop  offset="1" style="stop-color:#F47960"/>
				</linearGradient>
				<path class="st31" d="M403.1,1152.2c16.1-4,52.3-53,56.2-35.1c3.9,17.9-7.1,40.6-5.4,48.2c1.6,7.6,13.8,50.3,4.1,68.2
					c-7,12.9-20.7,53.5-27.7,75.1c-2.3,7.2-4.3,16.6-11.8,15.8c-7.5-0.8-13.3-10.9-14-18.5C404.2,1302.9,386.9,1156.1,403.1,1152.2z
					"/>
				<g>
					<linearGradient id="SVGID_28_" gradientUnits="userSpaceOnUse" x1="3148.4727" y1="-4.7241" x2="1682.584" y2="1300.2065">
						<stop  offset="0" style="stop-color:#FDF53F"/>
						<stop  offset="1" style="stop-color:#0073B4"/>
					</linearGradient>
					<path class="st32" d="M1558.5,1212.6c-19.9-45.6-83.2-101.1-86.5-102.1c-27.5,100.9-75.9,184.2-86.3,285.9
						c67.9,124.7,52.3,271.7,9.9,343.1c20.8,31,45.2,73.1,66.3,125.5C1722.9,1708.9,1619.6,1352.9,1558.5,1212.6z"/>
					
						<linearGradient id="SVGID_29_" gradientUnits="userSpaceOnUse" x1="-4470.9023" y1="1560.1326" x2="-4635.1284" y2="1806.4717" gradientTransform="matrix(-1 0 0 1 -3471.8828 0)">
						<stop  offset="0" style="stop-color:#F9B776"/>
						<stop  offset="1" style="stop-color:#F47960"/>
					</linearGradient>
					<path class="st33" d="M1223.3,1978.1l-225.9-4.9c0,0,197-55.7,209.2-40.5c0,0,122.1-80.2,189-193.1
						c20.8,31,45.2,73.1,66.3,125.5C1402,1900.3,1323.2,1961.5,1223.3,1978.1z"/>
					<linearGradient id="SVGID_30_" gradientUnits="userSpaceOnUse" x1="1326.6298" y1="1599.9209" x2="1165.7089" y2="1841.3019">
						<stop  offset="0" style="stop-color:#F9B776"/>
						<stop  offset="1" style="stop-color:#F47960"/>
					</linearGradient>
					<path class="st34" d="M1229.7,1939c0,0,4.7,90-113.5,76.9c-64.2-7.1-167.9-67-167.9-67S1218.5,1948.3,1229.7,1939z"/>
				</g>
			</g>
		</g>
		<g class="st35">
			<polygon class="st36" points="1003.1,1101 1003.1,1125.6 1030.2,1125.6 			"/>
			<polygon class="st36" points="1003.1,1137.4 1003.1,1161.6 1030,1137.4 			"/>
			<polygon class="st36" points="990.7,1166.1 990.7,1096.4 949.9,1096.4 986.1,1131.2 949.9,1166.1 			"/>
		</g>
		<g class="st35">
			<polygon class="st36" points="1232.4,1549.9 1232.4,1579.5 1265,1579.5 			"/>
			<polygon class="st36" points="1232.4,1593.8 1232.4,1622.9 1264.8,1593.8 			"/>
			<polygon class="st36" points="1217.5,1628.3 1217.5,1544.3 1168.3,1544.3 1211.9,1586.3 1168.3,1628.3 			"/>
		</g>
		<g class="st35">
			<polygon class="st37" points="1173.3,615.7 1165.3,636.3 1188.1,645.1 			"/>
			<polygon class="st37" points="1161.5,646.3 1153.6,666.5 1184.1,655 			"/>
			<polygon class="st37" points="1141.8,666.3 1164.5,607.8 1130.2,594.5 1149.3,635.5 1107.5,653 			"/>
		</g>
	</g>
</g>
</svg>
