<?xml version="1.0" encoding="utf-8"?>
<!-- Generator: Adobe Illustrator 21.1.0, SVG Export Plug-In . SVG Version: 6.00 Build 0)  -->
<svg version="1.1" xmlns="http://www.w3.org/2000/svg" xmlns:xlink="http://www.w3.org/1999/xlink" x="0px" y="0px"
	 viewBox="0 0 2284 1866" style="enable-background:new 0 0 2284 1866;" xml:space="preserve">
<style type="text/css">
	.st0{fill:#FFFFFF;}
	.st1{opacity:0.5;fill:url(#SVGID_1_);}
	.st2{opacity:0.5;fill:url(#SVGID_2_);}
	.st3{fill:url(#SVGID_3_);}
	.st4{opacity:0.5;}
	.st5{fill:url(#SVGID_4_);}
	.st6{fill:url(#SVGID_5_);}
	.st7{opacity:0.28;fill:#FFFFFF;}
	.st8{fill:url(#SVGID_6_);}
	.st9{fill:url(#SVGID_7_);}
	.st10{fill:url(#SVGID_8_);}
	.st11{fill:url(#SVGID_9_);}
	.st12{opacity:0.11;fill:#FFFFFF;}
	.st13{opacity:0.68;}
	.st14{fill:url(#SVGID_10_);}
	.st15{fill:url(#SVGID_11_);}
	.st16{fill:url(#SVGID_12_);}
	.st17{fill:url(#SVGID_13_);}
	.st18{fill:url(#SVGID_14_);}
	.st19{fill:url(#SVGID_15_);}
	.st20{fill:url(#SVGID_16_);}
	.st21{fill:url(#SVGID_17_);}
	.st22{fill:url(#SVGID_18_);}
	.st23{fill:url(#SVGID_19_);}
	.st24{fill:url(#SVGID_20_);}
	.st25{fill:url(#SVGID_21_);}
	.st26{fill:url(#SVGID_22_);}
	.st27{fill:url(#SVGID_23_);}
	.st28{fill:url(#SVGID_24_);}
	.st29{fill:url(#SVGID_25_);}
	.st30{fill:url(#SVGID_26_);}
	.st31{fill:url(#SVGID_27_);}
	.st32{fill:url(#SVGID_28_);}
	.st33{fill:url(#SVGID_29_);}
	.st34{fill:url(#SVGID_30_);}
	.st35{fill:url(#SVGID_31_);}
	.st36{fill:url(#SVGID_32_);}
	.st37{fill:url(#SVGID_33_);}
	.st38{fill:url(#SVGID_34_);}
	.st39{opacity:0.6;fill:#FFFFFF;}
	.st40{opacity:0.5;fill:#FFFFFF;}
	.st41{fill:url(#SVGID_35_);}
	.st42{opacity:0.37;fill:#FFFFFF;}
	.st43{fill:url(#SVGID_36_);}
	.st44{fill:url(#SVGID_37_);}
	.st45{fill:url(#SVGID_38_);}
	.st46{fill:url(#SVGID_39_);}
	.st47{fill:url(#SVGID_40_);}
	.st48{fill:url(#SVGID_41_);}
	.st49{fill:url(#SVGID_42_);}
	.st50{fill:url(#SVGID_43_);}
	.st51{fill:url(#SVGID_44_);}
	.st52{fill:url(#SVGID_45_);}
	.st53{fill:url(#SVGID_46_);}
	.st54{fill:url(#SVGID_47_);}
	.st55{fill:url(#SVGID_48_);}
	.st56{fill:url(#SVGID_49_);}
	.st57{fill:url(#SVGID_50_);}
	.st58{fill:url(#SVGID_51_);}
	.st59{fill:url(#SVGID_52_);}
	.st60{fill:url(#SVGID_53_);}
	.st61{fill:url(#SVGID_54_);}
	.st62{fill:url(#SVGID_55_);}
	.st63{fill:url(#SVGID_56_);}
	.st64{fill:url(#SVGID_57_);}
	.st65{fill:url(#SVGID_58_);}
	.st66{fill:url(#SVGID_59_);}
	.st67{fill:url(#SVGID_60_);}
	.st68{fill:url(#SVGID_61_);}
	.st69{fill:url(#SVGID_62_);}
	.st70{fill:url(#SVGID_63_);}
	.st71{fill:url(#SVGID_64_);}
	.st72{fill:url(#SVGID_65_);}
	.st73{fill:url(#SVGID_66_);}
	.st74{fill:url(#SVGID_67_);}
	.st75{fill:url(#SVGID_68_);}
	.st76{fill:url(#SVGID_69_);}
	.st77{fill:url(#SVGID_70_);}
	.st78{opacity:0.8;fill:#FFFFFF;}
	.st79{fill:url(#SVGID_71_);}
	.st80{fill:url(#SVGID_72_);}
	.st81{fill:url(#SVGID_73_);}
	.st82{fill:url(#SVGID_74_);}
	.st83{fill:url(#SVGID_75_);}
	.st84{fill:url(#SVGID_76_);}
	.st85{fill:url(#SVGID_77_);}
	.st86{fill:url(#SVGID_78_);}
	.st87{fill:url(#SVGID_79_);}
	.st88{fill:url(#SVGID_80_);}
	.st89{fill:url(#SVGID_81_);}
	.st90{fill:url(#SVGID_82_);}
	.st91{fill:url(#SVGID_83_);}
	.st92{fill:url(#SVGID_84_);}
	.st93{fill:url(#SVGID_85_);}
	.st94{fill:url(#SVGID_86_);}
	.st95{fill:url(#SVGID_87_);}
	.st96{fill:url(#SVGID_88_);}
	.st97{fill:url(#SVGID_89_);}
	.st98{fill:url(#SVGID_90_);}
	.st99{fill:url(#SVGID_91_);}
	.st100{fill:url(#SVGID_92_);}
	.st101{fill:url(#SVGID_93_);}
	.st102{fill:url(#SVGID_94_);}
	.st103{fill:url(#SVGID_95_);}
	.st104{fill:url(#SVGID_96_);}
	.st105{fill:url(#SVGID_97_);}
	.st106{fill:url(#SVGID_98_);}
	.st107{fill:url(#SVGID_99_);}
	.st108{fill:url(#SVGID_100_);}
	.st109{fill:url(#SVGID_101_);}
	.st110{fill:url(#SVGID_102_);}
	.st111{fill:url(#SVGID_103_);}
	.st112{fill:url(#SVGID_104_);}
	.st113{fill:url(#SVGID_105_);}
	.st114{fill:url(#SVGID_106_);}
	.st115{fill:url(#SVGID_107_);}
	.st116{fill:url(#SVGID_108_);}
	.st117{fill:url(#SVGID_109_);}
	.st118{fill:url(#SVGID_110_);}
	.st119{fill:url(#SVGID_111_);}
	.st120{fill:url(#SVGID_112_);}
	.st121{fill:url(#SVGID_113_);}
	.st122{fill:url(#SVGID_114_);}
	.st123{fill:url(#SVGID_115_);}
	.st124{fill:url(#SVGID_116_);}
	.st125{fill:url(#SVGID_117_);}
	.st126{fill:url(#SVGID_118_);}
	.st127{fill:url(#SVGID_119_);}
	.st128{fill:url(#SVGID_120_);}
	.st129{fill:url(#SVGID_121_);}
	.st130{fill:url(#SVGID_122_);}
	.st131{fill:url(#SVGID_123_);}
	.st132{fill:url(#SVGID_124_);}
	.st133{fill:url(#SVGID_125_);}
	.st134{fill:url(#SVGID_126_);}
	.st135{fill:url(#SVGID_127_);}
	.st136{fill:url(#SVGID_128_);}
	.st137{fill:url(#SVGID_129_);}
	.st138{fill:url(#SVGID_130_);}
	.st139{fill:url(#SVGID_131_);}
	.st140{fill:url(#SVGID_132_);}
	.st141{fill:url(#SVGID_133_);}
	.st142{fill:url(#SVGID_134_);}
	.st143{fill:url(#SVGID_135_);}
	.st144{fill:url(#SVGID_136_);}
	.st145{fill:url(#SVGID_137_);}
	.st146{fill:url(#SVGID_138_);}
	.st147{fill:url(#SVGID_139_);}
	.st148{fill:url(#SVGID_140_);}
	.st149{fill:url(#SVGID_141_);}
	.st150{fill:url(#SVGID_142_);}
	.st151{fill:url(#SVGID_143_);}
	.st152{fill:url(#SVGID_144_);}
	.st153{fill:url(#SVGID_145_);}
	.st154{fill:url(#SVGID_146_);}
	.st155{fill:url(#SVGID_147_);}
	.st156{fill:url(#SVGID_148_);}
	.st157{fill:url(#SVGID_149_);}
	.st158{fill:url(#SVGID_150_);}
	.st159{fill:url(#SVGID_151_);}
	.st160{fill:url(#SVGID_152_);}
	.st161{fill:url(#SVGID_153_);}
	.st162{fill:url(#SVGID_154_);}
	.st163{fill:url(#SVGID_155_);}
	.st164{fill:url(#SVGID_156_);}
	.st165{fill:url(#SVGID_157_);}
	.st166{fill:url(#SVGID_158_);}
</style>
<g id="Background">
</g>
<g id="Illustration">
	<g>
		<linearGradient id="SVGID_1_" gradientUnits="userSpaceOnUse" x1="1742.9583" y1="148.0827" x2="699.0341" y2="1517.9379">
			<stop  offset="0" style="stop-color:#53D8FF"/>
			<stop  offset="1" style="stop-color:#3889F7"/>
		</linearGradient>
		<path style="fill:url(#SVGID_1_);" d="M2001.8,1025.2c-20.2,459.1-438.2,813.6-933.7,791.9c-495.5-21.8-880.9-411.5-860.8-870.6
			c20.2-459.1,438.2-813.6,933.7-791.9S2021.9,566.1,2001.8,1025.2z"/>
		<ellipse class="st12" cx="1055.9" cy="925.8" rx="704.7" ry="665.7"/>
		<g class="st13">
			<path class="st0" d="M1334,989.8c-0.2,146.7-10.3,293.8-36.1,438.5c-6.5,36.1-14.1,72.1-23.2,107.7
				c-9.1,35.6-19.5,70.9-32.4,105.4c-12.9,34.4-27.9,68.4-48.3,99.4c-10.3,15.4-21.9,30.1-36.2,42.3c-7.2,6-15.1,11.4-23.7,15.3
				c-8.6,3.9-18.1,6.4-27.7,6.5c-9.6,0.3-19.2-1.6-28-5.1c-8.9-3.5-16.9-8.6-24.3-14.5c-14.7-11.8-26.6-26.3-37-41.6
				c-20.7-30.8-35.9-64.6-49-99c-13-34.5-23.6-69.7-32.7-105.3c-9.1-35.6-16.8-71.5-23.4-107.7c-13.2-72.3-22.2-145.2-28.2-218.4
				c-6-73.2-9-146.6-9.4-220c-0.2-36.7,0.8-73.4,2.1-110.1c1.4-36.7,3.4-73.3,6.1-109.9c5.4-73.2,13.5-146.2,25.6-218.7
				c6-36.2,13.1-72.3,21.6-108c8.5-35.7,18.4-71.2,30.6-105.8c6.2-17.3,12.9-34.5,20.6-51.2c7.7-16.7,16.3-33.1,26.3-48.6
				c10.1-15.4,21.7-30.1,36.2-41.9c7.2-5.8,15.2-10.9,23.9-14.3c8.7-3.5,18.1-5.2,27.5-4.9c9.4,0.3,18.7,2.6,27.2,6.4
				c8.6,3.8,16.4,8.9,23.6,14.8c14.4,11.7,26.4,26.1,37,41.2c21.1,30.3,37,63.8,50.7,97.9c13.7,34.1,24.9,69.2,34.8,104.6
				c9.8,35.4,18.1,71.2,25.3,107.2C1322,696,1333.6,843.1,1334,989.8z M1323.1,989.8c0.1-73.1-2.6-146.3-8.7-219.1
				c-6-72.9-15.1-145.5-28.6-217.4c-6.8-35.9-14.6-71.6-24-107c-9.4-35.3-20.2-70.2-33.4-104.3c-13.3-33.9-28.7-67.3-49.2-97.4
				c-10.3-15-21.9-29.2-35.8-40.7c-7-5.7-14.5-10.8-22.7-14.5c-8.2-3.7-17-6.1-25.9-6.3c-8.9-0.3-17.9,1.5-26.1,4.9
				c-8.3,3.4-15.9,8.3-22.9,14c-13.9,11.5-25.1,26.1-34.9,41.3c-9.8,15.3-18.1,31.6-25.5,48.2c-7.4,16.6-13.9,33.7-19.9,51
				c-11.8,34.6-21.2,69.9-29.3,105.5c-8.1,35.6-14.7,71.6-20.3,107.7C904.8,628.1,897.5,701,892.9,774c-4.7,73-6.3,146.2-6.1,219.3
				c-0.2,73.1,2.2,146.3,7.7,219.2c5.5,72.9,13.9,145.6,26.4,217.6c6.3,36,13.6,71.8,22.4,107.3c8.8,35.4,19.1,70.5,31.7,104.7
				c12.7,34.1,27.5,67.7,47.5,97.9c10.1,15,21.5,29.2,35.4,40.5c6.9,5.6,14.5,10.4,22.7,13.7c8.1,3.3,16.9,5.2,25.6,4.9
				c8.7-0.2,17.4-2.5,25.4-6.2c8-3.7,15.4-8.8,22.2-14.6c13.6-11.7,24.8-26.1,34.7-41.2c19.7-30.5,34.3-64.1,46.8-98.3
				c12.4-34.3,22.5-69.4,31.3-104.9c8.7-35.5,16-71.3,22.2-107.3c12.5-72,20.8-144.8,26.3-217.7
				C1320.6,1136.1,1323.2,1063,1323.1,989.8z"/>
			<path class="st0" d="M1704.2,989.8c-0.5,94.5-12.7,189-38,280.2c-25.7,90.9-64.5,178.4-117.2,256.9
				c-26.3,39.2-56.2,76.1-89.5,109.6c-33.3,33.5-70.2,63.5-110.2,88.7c-40.1,25.1-83.3,45.2-128.6,58.8
				c-45.3,13.7-92.5,20.8-139.8,20.8c-47.3,0-94.5-7.1-139.8-20.7c-45.3-13.6-88.6-33.6-128.7-58.7c-40.1-25.2-77-55.2-110.4-88.7
				c-33.4-33.5-63.3-70.4-89.7-109.6c-52.8-78.5-91.7-166.1-117.5-257c-12.7-45.6-22.2-92-28.5-138.9c-6.2-46.9-9.4-94.2-9.6-141.5
				c0.2-47.3,3.4-94.6,9.7-141.5c6.3-46.9,15.8-93.3,28.6-138.9c25.9-90.9,64.9-178.4,117.7-256.8c26.4-39.2,56.3-76.1,89.7-109.5
				c33.4-33.4,70.3-63.4,110.3-88.5c40.1-25,83.4-44.9,128.6-58.5c45.2-13.6,92.4-20.8,139.6-20.8c47.2,0.1,94.4,7.2,139.6,20.9
				c45.2,13.6,88.5,33.6,128.5,58.6c40,25.1,76.8,55.1,110.2,88.6c33.3,33.5,63.2,70.3,89.5,109.5c52.7,78.4,91.6,165.9,117.4,256.7
				C1691.4,800.8,1703.6,895.3,1704.2,989.8z M1691.7,989.8c-0.1-93.4-11.8-187-36.4-277.1c-24.8-90-62.1-177-113.5-255.2
				c-25.7-39.1-54.8-75.9-87.5-109.3c-32.7-33.4-68.8-63.6-108.2-88.8c-39.5-25-82.2-45.1-127-58.7c-44.7-13.6-91.4-20.8-138.2-20.9
				c-46.8,0.2-93.5,7.4-138.2,21c-44.7,13.6-87.4,33.8-126.9,58.8c-39.4,25.1-75.5,55.4-108.1,88.8c-32.6,33.5-61.7,70.3-87.3,109.3
				c-51.3,78.2-88.5,165.1-113.2,255.1c-12.3,45.1-21.2,91-27.2,137.3c-6,46.3-9,93-9.1,139.7c0.1,46.7,3.1,93.4,9.2,139.6
				c6.1,46.3,15,92.2,27.3,137.2c24.7,90,62,176.8,113.3,254.9c25.6,39,54.7,75.8,87.3,109.2c32.6,33.4,68.6,63.6,108.1,88.7
				c39.5,24.9,82.1,44.9,126.8,58.6c44.6,13.7,91.2,20.9,138,21.1c46.7-0.2,93.3-7.4,138-21c44.7-13.6,87.3-33.6,126.9-58.5
				c39.5-25,75.5-55.2,108.2-88.6c32.7-33.4,61.8-70.2,87.5-109.2c51.4-78.1,88.8-165,113.7-255
				C1679.8,1176.8,1691.5,1083.3,1691.7,989.8z"/>
			<path class="st0" d="M353.6,667.3l187.2-1.5l187.2-0.9l374.4-0.7l374.4,0.8l187.2,0.9l187.2,1.6c0.3,0,0.5,0.3,0.5,0.6
				c0,0.3-0.2,0.5-0.5,0.5l-187.2,1.6l-187.2,0.9l-374.4,0.8l-374.4-0.7l-187.2-0.9l-187.2-1.5c-0.5,0-0.8-0.4-0.8-0.8
				C352.7,667.7,353.1,667.3,353.6,667.3z"/>
			<path class="st0" d="M570.7,353.8c44.3-0.7,88.6-1,132.9-1.5l132.9-0.9c44.3-0.4,88.6-0.3,132.9-0.4l132.9-0.3l265.8,0.8
				l132.9,0.9c44.3,0.6,88.6,0.9,132.9,1.6c0.3,0,0.5,0.3,0.5,0.6c0,0.3-0.2,0.5-0.5,0.5c-44.3,0.8-88.6,1.1-132.9,1.6l-132.9,0.9
				l-265.8,0.8l-132.9-0.3c-44.3-0.1-88.6-0.1-132.9-0.4l-132.9-0.9c-44.3-0.5-88.6-0.8-132.9-1.5c-0.5,0-0.8-0.4-0.8-0.8
				C569.9,354.1,570.3,353.8,570.7,353.8z"/>
			<path class="st0" d="M288.5,980.8l203.4-1.5l203.4-0.9l406.9-0.7l406.9,0.8l203.4,0.9l203.4,1.6c0.3,0,0.5,0.3,0.5,0.6
				c0,0.3-0.2,0.5-0.5,0.5l-203.4,1.6l-203.4,0.9l-406.9,0.8l-406.9-0.7L492,984l-203.4-1.5c-0.5,0-0.8-0.4-0.8-0.8
				C287.7,981.2,288.1,980.8,288.5,980.8z"/>
			<path class="st0" d="M353.6,1294.3l187.2-1.5l187.2-0.9l374.4-0.7l374.4,0.8l187.2,0.9l187.2,1.6c0.3,0,0.5,0.3,0.5,0.6
				c0,0.3-0.2,0.5-0.5,0.5l-187.2,1.6l-187.2,0.9l-374.4,0.8l-374.4-0.7l-187.2-0.9l-187.2-1.5c-0.5,0-0.8-0.4-0.8-0.8
				C352.7,1294.7,353.1,1294.3,353.6,1294.3z"/>
			<path class="st0" d="M1660.7,1611.5H597.5c-1.6,0-2.9-1.3-2.9-2.9c0-1.6,1.3-2.9,2.9-2.9h1063.2c1.6,0,2.9,1.3,2.9,2.9
				C1663.5,1610.2,1662.2,1611.5,1660.7,1611.5z"/>
		</g>
	</g>
	<g>
		<g>
			
				<linearGradient id="SVGID_2_" gradientUnits="userSpaceOnUse" x1="-4772.6074" y1="308.2887" x2="-4479.895" y2="90.5571" gradientTransform="matrix(-0.9966 -8.250000e-02 -8.250000e-02 0.9966 -3623.8372 -434.0639)">
				<stop  offset="0" style="stop-color:#FDAF4C"/>
				<stop  offset="1" style="stop-color:#D96A66"/>
			</linearGradient>
			<path style="fill:url(#SVGID_2_);" d="M934.7,196.6l75.1-38c1.5-0.8,3.3-0.9,5-0.4l91.1,27c2.5,0.7,4.3,2.8,4.7,5.3
				c0.5,2.5-0.5,5.1-2.6,6.6l-59.9,45.1L934.7,196.6z"/>
			
				<linearGradient id="SVGID_3_" gradientUnits="userSpaceOnUse" x1="-4752.6792" y1="259.1021" x2="-5902.0513" y2="466.7766" gradientTransform="matrix(-1 0 0 1 -3839.5166 0)">
				<stop  offset="0" style="stop-color:#FDAF4C"/>
				<stop  offset="1" style="stop-color:#D96A66"/>
			</linearGradient>
			<path class="st3" d="M1545.1,332.3c0,0-850.7-229.7-885.4-221.9c-34.7,7.9-98,38.4-115.8,36.9c-17.8-1.5-80.9,4-68.5,49.8
				s717.1,243.7,803,222.2c85.9-21.5,301.8-57.3,301.8-57.3S1602.2,333.4,1545.1,332.3z"/>
			
				<linearGradient id="SVGID_4_" gradientUnits="userSpaceOnUse" x1="-5321.2549" y1="186.7508" x2="-5098.8066" y2="687.259" gradientTransform="matrix(-1 0 0 1 -3839.5166 0)">
				<stop  offset="0" style="stop-color:#FDAF4C"/>
				<stop  offset="1" style="stop-color:#D96A66"/>
			</linearGradient>
			<path class="st5" d="M1298.6,269l130.3-58.4c8.2-3.7,15.1-9.5,20.1-17l58.1-86.5c4.6-6.9,13.2-9.9,21.1-7.5
				c25.3,7.7,77.7,24.3,77.5,30.4c-0.4,8-43.8,206.5-43.8,206.5L1298.6,269z"/>
			
				<linearGradient id="SVGID_5_" gradientUnits="userSpaceOnUse" x1="-5335.0791" y1="276.8788" x2="-5199.3857" y2="643.9178" gradientTransform="matrix(-1 0 0 1 -3839.5166 0)">
				<stop  offset="0" style="stop-color:#FDAF4C"/>
				<stop  offset="1" style="stop-color:#D96A66"/>
			</linearGradient>
			<path class="st6" d="M1534.5,360.3l6.7,43.2c1.1,7.3-1.1,14.4-6.2,19.8c-5,5.4-12.2,7.9-19.6,7.3l-43.9-3.6
				c-6.9-0.6-13.3-3.8-17.4-9.4l-70.7-96L1534.5,360.3z"/>
			
				<linearGradient id="SVGID_6_" gradientUnits="userSpaceOnUse" x1="-4720.1284" y1="347.9786" x2="-4940.3516" y2="519.2633" gradientTransform="matrix(-1 0 0 1 -3839.5166 0)">
				<stop  offset="0" style="stop-color:#FDAF4C"/>
				<stop  offset="1" style="stop-color:#D96A66"/>
			</linearGradient>
			<path class="st8" d="M1069.7,462.8c0,0-29.4,30.5-72.7,26.9c-43.3-3.6-95.7-20-104.4-36.2c-8.7-16.2-20.7-131.2,66-107.6
				C1045.2,369.5,1143.6,429.3,1069.7,462.8z"/>
			
				<linearGradient id="SVGID_7_" gradientUnits="userSpaceOnUse" x1="-4760.7222" y1="474.2931" x2="-4882.21" y2="740.5325" gradientTransform="matrix(-0.9966 -8.250000e-02 -8.250000e-02 0.9966 -3623.8372 -434.0639)">
				<stop  offset="0" style="stop-color:#FDAF4C"/>
				<stop  offset="1" style="stop-color:#D96A66"/>
			</linearGradient>
			<path class="st9" d="M1128.7,349.9l-202.3-53.4l153.8,236c2.2,3.3,5.6,5.6,9.5,6.2l122.1,20.6c5.3,0.9,10.6-1.3,13.8-5.6
				c3.2-4.3,3.6-10.1,1.1-14.8L1128.7,349.9z"/>
			
				<linearGradient id="SVGID_8_" gradientUnits="userSpaceOnUse" x1="-5134.6406" y1="274.045" x2="-4738.5669" y2="-20.571" gradientTransform="matrix(-0.9727 -0.2322 -0.2322 0.9727 -3788.4395 -783.6465)">
				<stop  offset="0" style="stop-color:#FDAF4C"/>
				<stop  offset="1" style="stop-color:#D96A66"/>
			</linearGradient>
			<path class="st10" d="M909.6,454.1c12.7-11.8,37.5-59.5,34.5-81.3c-1.9-13.9-11.4-17-19-17.1c-9.3-0.1-17.9,4.4-22.9,12.2l0,0
				c-17.2,26.3-14.7,62.9-7.5,80.5c2.2,5.5,4.8,8.6,7.5,9.2c0.5,0.1,1,0.1,1.5,0.1C905.4,457.3,907.3,456.2,909.6,454.1z M925,359.4
				c9.1,0.1,14.1,4.7,15.3,13.9c2.6,19.3-20.1,65.8-33.3,78.1c-2.8,2.6-4,2.5-4.1,2.4c-1-0.2-2.9-2.2-4.8-6.9
				c-6.7-16.4-9.1-52.2,7.2-77l0,0c3.7-5.7,9.9-9.5,16.6-10.3C922.9,359.4,924,359.4,925,359.4z"/>
			
				<linearGradient id="SVGID_9_" gradientUnits="userSpaceOnUse" x1="-5614.7207" y1="-150.2348" x2="-5280.3901" y2="207.6031" gradientTransform="matrix(-0.9962 -8.690000e-02 -8.690000e-02 0.9962 -3784.864 -317.6125)">
				<stop  offset="0" style="stop-color:#FDAF4C"/>
				<stop  offset="1" style="stop-color:#D96A66"/>
			</linearGradient>
			<polygon class="st11" points="1596.7,177.2 1575.3,175.4 1544.1,309.9 1566,317 			"/>
			<g>
				<g>
					
						<linearGradient id="SVGID_10_" gradientUnits="userSpaceOnUse" x1="-4204.6636" y1="55.8315" x2="-4496.1826" y2="179.9969" gradientTransform="matrix(-0.9966 -8.250000e-02 -8.250000e-02 0.9966 -3623.8372 -434.0639)">
						<stop  offset="0" style="stop-color:#2C759E"/>
						<stop  offset="1" style="stop-color:#051042"/>
					</linearGradient>
					<path class="st14" d="M1232.5,311.9c0.6-7-4.6-13.2-11.7-13.8l-0.8-0.1c-7-0.6-13.2,4.6-13.8,11.7l-0.7,8.3
						c-0.6,7,4.6,13.2,11.7,13.8l0.8,0.1c7,0.6,13.2-4.6,13.8-11.7L1232.5,311.9z"/>
					
						<linearGradient id="SVGID_11_" gradientUnits="userSpaceOnUse" x1="-4199.8506" y1="70.8302" x2="-4491.3716" y2="194.9964" gradientTransform="matrix(-0.9966 -8.250000e-02 -8.250000e-02 0.9966 -3623.8372 -434.0639)">
						<stop  offset="0" style="stop-color:#2C759E"/>
						<stop  offset="1" style="stop-color:#051042"/>
					</linearGradient>
					<path class="st15" d="M1184.1,304.1c0.6-7-4.6-13.2-11.7-13.8l-0.8-0.1c-7-0.6-13.2,4.6-13.8,11.7l-0.7,8.3
						c-0.6,7,4.6,13.2,11.7,13.8l0.8,0.1c7,0.6,13.2-4.6,13.8-11.7L1184.1,304.1z"/>
					
						<linearGradient id="SVGID_12_" gradientUnits="userSpaceOnUse" x1="-4195.0425" y1="78.3144" x2="-4486.5635" y2="202.4808" gradientTransform="matrix(-0.9966 -8.250000e-02 -8.250000e-02 0.9966 -3623.8372 -434.0639)">
						<stop  offset="0" style="stop-color:#2C759E"/>
						<stop  offset="1" style="stop-color:#051042"/>
					</linearGradient>
					<path class="st16" d="M1136.4,288.9c0.6-7-4.6-13.2-11.7-13.8l-0.8-0.1c-7-0.6-13.2,4.6-13.8,11.7l-0.7,8.3
						c-0.6,7,4.6,13.2,11.7,13.8l0.8,0.1c7,0.6,13.2-4.6,13.8-11.7L1136.4,288.9z"/>
					
						<linearGradient id="SVGID_13_" gradientUnits="userSpaceOnUse" x1="-4193.9893" y1="89.5558" x2="-4485.5122" y2="213.7229" gradientTransform="matrix(-0.9966 -8.250000e-02 -8.250000e-02 0.9966 -3623.8372 -434.0639)">
						<stop  offset="0" style="stop-color:#2C759E"/>
						<stop  offset="1" style="stop-color:#051042"/>
					</linearGradient>
					<path class="st17" d="M1092.1,277.7c0.6-7-4.6-13.2-11.7-13.8l-0.8-0.1c-7-0.6-13.2,4.6-13.8,11.7l-0.7,8.3
						c-0.6,7,4.6,13.2,11.7,13.8l0.8,0.1c7,0.6,13.2-4.6,13.8-11.7L1092.1,277.7z"/>
					
						<linearGradient id="SVGID_14_" gradientUnits="userSpaceOnUse" x1="-4185.4258" y1="100.7992" x2="-4476.9478" y2="224.9658" gradientTransform="matrix(-0.9966 -8.250000e-02 -8.250000e-02 0.9966 -3623.8372 -434.0639)">
						<stop  offset="0" style="stop-color:#2C759E"/>
						<stop  offset="1" style="stop-color:#051042"/>
					</linearGradient>
					<path class="st18" d="M1040.2,265.8c0.6-7-4.6-13.2-11.7-13.8l-0.8-0.1c-7-0.6-13.2,4.6-13.8,11.7l-0.7,8.3
						c-0.6,7,4.6,13.2,11.7,13.8l0.8,0.1c7,0.6,13.2-4.6,13.8-11.7L1040.2,265.8z"/>
					
						<linearGradient id="SVGID_15_" gradientUnits="userSpaceOnUse" x1="-4180.6182" y1="112.042" x2="-4472.1401" y2="236.2085" gradientTransform="matrix(-0.9966 -8.250000e-02 -8.250000e-02 0.9966 -3623.8372 -434.0639)">
						<stop  offset="0" style="stop-color:#2C759E"/>
						<stop  offset="1" style="stop-color:#051042"/>
					</linearGradient>
					<path class="st19" d="M992.2,254.3c0.6-7-4.6-13.2-11.7-13.8l-0.8-0.1c-7-0.6-13.2,4.6-13.8,11.7l-0.7,8.3
						c-0.6,7,4.6,13.2,11.7,13.8l0.8,0.1c7,0.6,13.2-4.6,13.8-11.7L992.2,254.3z"/>
					
						<linearGradient id="SVGID_16_" gradientUnits="userSpaceOnUse" x1="-4175.8135" y1="119.528" x2="-4467.333" y2="243.6936" gradientTransform="matrix(-0.9966 -8.250000e-02 -8.250000e-02 0.9966 -3623.8372 -434.0639)">
						<stop  offset="0" style="stop-color:#2C759E"/>
						<stop  offset="1" style="stop-color:#051042"/>
					</linearGradient>
					<path class="st20" d="M944.4,239c0.6-7-4.6-13.2-11.7-13.8l-0.8-0.1c-7-0.6-13.2,4.6-13.8,11.7l-0.7,8.3
						c-0.6,7,4.6,13.2,11.7,13.8l0.8,0.1c7,0.6,13.2-4.6,13.8-11.7L944.4,239z"/>
					
						<linearGradient id="SVGID_17_" gradientUnits="userSpaceOnUse" x1="-4174.7612" y1="134.5277" x2="-4466.2822" y2="258.694" gradientTransform="matrix(-0.9966 -8.250000e-02 -8.250000e-02 0.9966 -3623.8372 -434.0639)">
						<stop  offset="0" style="stop-color:#2C759E"/>
						<stop  offset="1" style="stop-color:#051042"/>
					</linearGradient>
					<path class="st21" d="M899.8,231.6c0.6-7-4.6-13.2-11.7-13.8l-0.8-0.1c-7-0.6-13.2,4.6-13.8,11.7l-0.7,8.3
						c-0.6,7,4.6,13.2,11.7,13.8l0.8,0.1c7,0.6,13.2-4.6,13.8-11.7L899.8,231.6z"/>
					
						<linearGradient id="SVGID_18_" gradientUnits="userSpaceOnUse" x1="-4169.9536" y1="145.7701" x2="-4461.4746" y2="269.9364" gradientTransform="matrix(-0.9966 -8.250000e-02 -8.250000e-02 0.9966 -3623.8372 -434.0639)">
						<stop  offset="0" style="stop-color:#2C759E"/>
						<stop  offset="1" style="stop-color:#051042"/>
					</linearGradient>
					<path class="st22" d="M851.7,220c0.6-7-4.6-13.2-11.7-13.8l-0.8-0.1c-7-0.6-13.2,4.6-13.8,11.7l-0.7,8.3
						c-0.6,7,4.6,13.2,11.7,13.8l0.8,0.1c7,0.6,13.2-4.6,13.8-11.7L851.7,220z"/>
					
						<linearGradient id="SVGID_19_" gradientUnits="userSpaceOnUse" x1="-4165.1455" y1="153.2546" x2="-4456.667" y2="277.421" gradientTransform="matrix(-0.9966 -8.250000e-02 -8.250000e-02 0.9966 -3623.8372 -434.0639)">
						<stop  offset="0" style="stop-color:#2C759E"/>
						<stop  offset="1" style="stop-color:#051042"/>
					</linearGradient>
					<path class="st23" d="M804,204.8c0.6-7-4.6-13.2-11.7-13.8l-0.8-0.1c-7-0.6-13.2,4.6-13.8,11.7l-0.7,8.3
						c-0.6,7,4.6,13.2,11.7,13.8l0.8,0.1c7,0.6,13.2-4.6,13.8-11.7L804,204.8z"/>
					
						<linearGradient id="SVGID_20_" gradientUnits="userSpaceOnUse" x1="-4164.0972" y1="168.2559" x2="-4455.6147" y2="292.4208" gradientTransform="matrix(-0.9966 -8.250000e-02 -8.250000e-02 0.9966 -3623.8372 -434.0639)">
						<stop  offset="0" style="stop-color:#2C759E"/>
						<stop  offset="1" style="stop-color:#051042"/>
					</linearGradient>
					<path class="st24" d="M759.3,197.3c0.6-7-4.6-13.2-11.7-13.8l-0.8-0.1c-7-0.6-13.2,4.6-13.8,11.7l-0.7,8.3
						c-0.6,7,4.6,13.2,11.7,13.8l0.8,0.1c7,0.6,13.2-4.6,13.8-11.7L759.3,197.3z"/>
				</g>
				
					<linearGradient id="SVGID_21_" gradientUnits="userSpaceOnUse" x1="-4150.9697" y1="185.1985" x2="-4446.6523" y2="311.1373" gradientTransform="matrix(-0.9966 -8.250000e-02 -8.250000e-02 0.9966 -3623.8372 -434.0639)">
					<stop  offset="0" style="stop-color:#2C759E"/>
					<stop  offset="1" style="stop-color:#051042"/>
				</linearGradient>
				<path class="st25" d="M597.2,132.1l83.5,30.8c6.3,2.3,10,8.8,8.9,15.4c-1.4,7.8-3.3,16.6-5,15.7c-3-1.6-134.1-46.7-134.1-46.7
					L597.2,132.1z"/>
			</g>
		</g>
		<g>
			<linearGradient id="SVGID_22_" gradientUnits="userSpaceOnUse" x1="1185.9796" y1="747.3938" x2="1052.0626" y2="893.7513">
				<stop  offset="0" style="stop-color:#2B3582"/>
				<stop  offset="1" style="stop-color:#150E42"/>
			</linearGradient>
			<rect x="1066.6" y="807.4" class="st26" width="58.5" height="77"/>
			<linearGradient id="SVGID_23_" gradientUnits="userSpaceOnUse" x1="1110.6179" y1="785.7794" x2="1007.392" y2="891.7953">
				<stop  offset="0" style="stop-color:#2B3582"/>
				<stop  offset="1" style="stop-color:#150E42"/>
			</linearGradient>
			<path class="st27" d="M1140.9,827.6h-93.2c-9.8,0-17.7-7.9-17.7-17.7l0,0c-4.8-23.3,11-41,38.2-38.2h70.9c10.5,0,19,8.5,19,19
				v19.7C1158.1,819.9,1150.4,827.6,1140.9,827.6z"/>
			<linearGradient id="SVGID_24_" gradientUnits="userSpaceOnUse" x1="1257.6586" y1="815.2204" x2="1272.2943" y2="952.0642">
				<stop  offset="0" style="stop-color:#2B3582"/>
				<stop  offset="1" style="stop-color:#150E42"/>
			</linearGradient>
			<polygon class="st28" points="1265.1,951.7 1242.5,928 1273.7,898.3 1296.3,922 			"/>
			<linearGradient id="SVGID_25_" gradientUnits="userSpaceOnUse" x1="1282.2664" y1="892.8348" x2="1341.5413" y2="1087.4905">
				<stop  offset="0" style="stop-color:#2B3582"/>
				<stop  offset="1" style="stop-color:#150E42"/>
			</linearGradient>
			<path class="st29" d="M1293.3,935.3l-37-38.8c-2.7-2.9-2.6-7.4,0.3-10.2v0c9.6-9.2,24.9-8.8,34,0.8l23.9,25.1
				c4.9,5.2,4.7,13.4-0.5,18.3l-5.4,5.2C1304.3,939.8,1297.5,939.6,1293.3,935.3z"/>
			<linearGradient id="SVGID_26_" gradientUnits="userSpaceOnUse" x1="966.4034" y1="840.7829" x2="904.2016" y2="965.9182">
				<stop  offset="0" style="stop-color:#2B3582"/>
				<stop  offset="1" style="stop-color:#150E42"/>
			</linearGradient>
			<polygon class="st30" points="929.3,950.7 951.9,927 920.7,897.3 898.1,921 			"/>
			<linearGradient id="SVGID_27_" gradientUnits="userSpaceOnUse" x1="907.6277" y1="876.5394" x2="909.8231" y2="1050.7047">
				<stop  offset="0" style="stop-color:#2B3582"/>
				<stop  offset="1" style="stop-color:#150E42"/>
			</linearGradient>
			<path class="st31" d="M901.1,934.3l37-38.8c2.7-2.9,2.6-7.4-0.3-10.2l0,0c-9.6-9.2-24.9-8.8-34,0.8l-24.5,25.7
				c-4.6,4.8-4.4,12.4,0.4,17l6.1,5.8C890.1,938.8,897,938.7,901.1,934.3z"/>
			<linearGradient id="SVGID_28_" gradientUnits="userSpaceOnUse" x1="853.7101" y1="1111.6926" x2="1331.6825" y2="1111.6926">
				<stop  offset="0" style="stop-color:#2B3582"/>
				<stop  offset="1" style="stop-color:#150E42"/>
			</linearGradient>
			<circle class="st32" cx="1092.7" cy="1111.7" r="239"/>
			<circle class="st0" cx="1095.2" cy="1114.6" r="202.4"/>
			<linearGradient id="SVGID_29_" gradientUnits="userSpaceOnUse" x1="1109.5098" y1="934.5235" x2="898.023" y2="1083.0768">
				<stop  offset="0" style="stop-color:#6C93CB"/>
				<stop  offset="1" style="stop-color:#1D316D"/>
			</linearGradient>
			<rect x="1090.4" y="916.4" class="st33" width="7.3" height="58"/>
			<linearGradient id="SVGID_30_" gradientUnits="userSpaceOnUse" x1="1109.5098" y1="1273.8722" x2="898.023" y2="1422.4255">
				<stop  offset="0" style="stop-color:#6C93CB"/>
				<stop  offset="1" style="stop-color:#1D316D"/>
			</linearGradient>
			<rect x="1090.4" y="1255.7" class="st34" width="7.3" height="58"/>
			
				<linearGradient id="SVGID_31_" gradientUnits="userSpaceOnUse" x1="-8927.5508" y1="-6583.5034" x2="-9139.0391" y2="-6434.9492" gradientTransform="matrix(1.030000e-02 0.9999 -0.9999 1.030000e-02 -5215.6182 10122.3604)">
				<stop  offset="0" style="stop-color:#6C93CB"/>
				<stop  offset="1" style="stop-color:#1D316D"/>
			</linearGradient>
			<polygon class="st35" points="1235.2,1116.5 1235.2,1109.2 1293.2,1108.6 1293.3,1115.9 			"/>
			
				<linearGradient id="SVGID_32_" gradientUnits="userSpaceOnUse" x1="-8927.6787" y1="-6245.603" x2="-9139.166" y2="-6097.0493" gradientTransform="matrix(1.030000e-02 0.9999 -0.9999 1.030000e-02 -5215.6182 10122.3604)">
				<stop  offset="0" style="stop-color:#6C93CB"/>
				<stop  offset="1" style="stop-color:#1D316D"/>
			</linearGradient>
			<polygon class="st36" points="897.4,1119.8 897.3,1112.5 955.4,1111.9 955.4,1119.2 			"/>
			
				<linearGradient id="SVGID_33_" gradientUnits="userSpaceOnUse" x1="51.5997" y1="-3364.3997" x2="224.3853" y2="-3364.3997" gradientTransform="matrix(0.7354 0.3789 -0.5683 0.7965 -964.1122 3686.7837)">
				<stop  offset="0" style="stop-color:#6C93CB"/>
				<stop  offset="1" style="stop-color:#1D316D"/>
			</linearGradient>
			<path class="st37" d="M1093.7,1117.7c-0.5,0-1.1-0.2-1.4-0.7l-88.6-113.1c-0.6-0.8-0.5-1.9,0.3-2.6c0.8-0.6,1.9-0.5,2.6,0.3
				l88.6,113.1c0.6,0.8,0.5,1.9-0.3,2.6C1094.4,1117.6,1094,1117.7,1093.7,1117.7z"/>
			
				<linearGradient id="SVGID_34_" gradientUnits="userSpaceOnUse" x1="-15378.7539" y1="2409.2144" x2="-15364.1172" y2="2409.2144" gradientTransform="matrix(-0.785 -0.6194 31.5252 -39.9528 -86902.7188 87823.2422)">
				<stop  offset="0" style="stop-color:#6C93CB"/>
				<stop  offset="1" style="stop-color:#1D316D"/>
			</linearGradient>
			<path class="st38" d="M1070.2,1153.3c-1.6,0-3.2-0.5-4.5-1.6c-3.2-2.5-3.7-7.1-1.2-10.3l89.3-113.2c2.5-3.2,7.1-3.7,10.3-1.2
				c3.2,2.5,3.7,7.1,1.2,10.3l-89.3,113.2C1074.5,1152.4,1072.3,1153.3,1070.2,1153.3z"/>
			
				<linearGradient id="SVGID_35_" gradientUnits="userSpaceOnUse" x1="-2073.3279" y1="-5242.5083" x2="-1846.4398" y2="-5242.5083" gradientTransform="matrix(0.6694 0.6464 -0.6999 0.714 -1219.7191 6171.7471)">
				<stop  offset="0" style="stop-color:#6C93CB"/>
				<stop  offset="1" style="stop-color:#1D316D"/>
			</linearGradient>
			<path class="st41" d="M1205.6,1240.7c-1.5,0-2.9-0.6-4-1.8l-136.1-147.1c-2.1-2.2-1.9-5.7,0.3-7.8c2.2-2.1,5.7-1.9,7.8,0.3
				l136.1,147.1c2.1,2.2,1.9,5.7-0.3,7.8C1208.3,1240.3,1207,1240.7,1205.6,1240.7z"/>
			<linearGradient id="SVGID_36_" gradientUnits="userSpaceOnUse" x1="1109.2091" y1="1104.9415" x2="896.8323" y2="1254.1199">
				<stop  offset="0" style="stop-color:#2B3582"/>
				<stop  offset="1" style="stop-color:#150E42"/>
			</linearGradient>
			<circle class="st43" cx="1093.7" cy="1115.9" r="19.8"/>
			<circle class="st0" cx="1093.7" cy="1115.9" r="13.2"/>
			<linearGradient id="SVGID_37_" gradientUnits="userSpaceOnUse" x1="1103.4507" y1="930.5822" x2="974.6872" y2="1021.0287">
				<stop  offset="0" style="stop-color:#6C93CB"/>
				<stop  offset="1" style="stop-color:#1D316D"/>
			</linearGradient>
			<rect x="1090.4" y="921.6" class="st44" width="7.3" height="31.3"/>
			
				<linearGradient id="SVGID_38_" gradientUnits="userSpaceOnUse" x1="-575.1972" y1="-3464.9814" x2="-703.9529" y2="-3374.5405" gradientTransform="matrix(0.8823 0.4708 -0.4708 0.8823 65.7072 4284.9668)">
				<stop  offset="0" style="stop-color:#6C93CB"/>
				<stop  offset="1" style="stop-color:#1D316D"/>
			</linearGradient>
			<polygon class="st45" points="1174,973.9 1167.5,970.5 1182.2,942.9 1188.7,946.3 			"/>
			
				<linearGradient id="SVGID_39_" gradientUnits="userSpaceOnUse" x1="-4672.4722" y1="-6809.9185" x2="-4801.2412" y2="-6719.4683" gradientTransform="matrix(0.5038 0.8638 -0.8638 0.5038 -2269.7712 8497.9053)">
				<stop  offset="0" style="stop-color:#6C93CB"/>
				<stop  offset="1" style="stop-color:#1D316D"/>
			</linearGradient>
			<polygon class="st46" points="1236.5,1037.2 1232.8,1030.9 1259.8,1015.1 1263.5,1021.5 			"/>
			
				<linearGradient id="SVGID_40_" gradientUnits="userSpaceOnUse" x1="-14107.6445" y1="-5836.7373" x2="-14236.4131" y2="-5746.2876" gradientTransform="matrix(-0.4744 0.8803 -0.8803 -0.4744 -10578.6348 10862.4092)">
				<stop  offset="0" style="stop-color:#6C93CB"/>
				<stop  offset="1" style="stop-color:#1D316D"/>
			</linearGradient>
			<polygon class="st47" points="1235.3,1196.8 1238.7,1190.3 1266.3,1205.1 1262.8,1211.6 			"/>
			
				<linearGradient id="SVGID_41_" gradientUnits="userSpaceOnUse" x1="-17441.9551" y1="-1711.5385" x2="-17570.7266" y2="-1621.0867" gradientTransform="matrix(-0.8666 0.4989 -0.4989 -0.8666 -14791.4785 8499.9063)">
				<stop  offset="0" style="stop-color:#6C93CB"/>
				<stop  offset="1" style="stop-color:#1D316D"/>
			</linearGradient>
			<polygon class="st48" points="1171.5,1259.2 1177.8,1255.5 1193.4,1282.6 1187.1,1286.3 			"/>
			
				<linearGradient id="SVGID_42_" gradientUnits="userSpaceOnUse" x1="-16415.5625" y1="7716.0132" x2="-16544.3223" y2="7806.4561" gradientTransform="matrix(-0.8777 -0.4793 0.4793 -0.8777 -17109.9746 178.1553)">
				<stop  offset="0" style="stop-color:#6C93CB"/>
				<stop  offset="1" style="stop-color:#1D316D"/>
			</linearGradient>
			<polygon class="st49" points="1012,1257 1018.4,1260.5 1003.4,1288 997,1284.5 			"/>
			
				<linearGradient id="SVGID_43_" gradientUnits="userSpaceOnUse" x1="-11892.5166" y1="11177.9863" x2="-12021.2773" y2="11268.4307" gradientTransform="matrix(-0.4571 -0.8894 0.8894 -0.4571 -14453.3867 -4275.8901)">
				<stop  offset="0" style="stop-color:#6C93CB"/>
				<stop  offset="1" style="stop-color:#1D316D"/>
			</linearGradient>
			<polygon class="st50" points="946.8,1186.8 950.2,1193.3 922.4,1207.6 919,1201.1 			"/>
			
				<linearGradient id="SVGID_44_" gradientUnits="userSpaceOnUse" x1="-3646.6558" y1="10466.6963" x2="-3775.4175" y2="10557.1406" gradientTransform="matrix(0.3962 -0.9182 0.9182 0.3962 -7238.3027 -6461.8032)">
				<stop  offset="0" style="stop-color:#6C93CB"/>
				<stop  offset="1" style="stop-color:#1D316D"/>
			</linearGradient>
			<polygon class="st51" points="945.6,1047.6 942.7,1054.3 914,1041.9 916.9,1035.2 			"/>
			
				<linearGradient id="SVGID_45_" gradientUnits="userSpaceOnUse" x1="-229.5489" y1="7110.4863" x2="-358.3192" y2="7200.9375" gradientTransform="matrix(0.7874 -0.6164 0.6164 0.7874 -3214.9973 -4776.3638)">
				<stop  offset="0" style="stop-color:#6C93CB"/>
				<stop  offset="1" style="stop-color:#1D316D"/>
			</linearGradient>
			<polygon class="st52" points="996.3,985 990.6,989.5 971.3,964.9 977.1,960.4 			"/>
			<path class="st0" d="M1094.8,1337.4c-39.7,0-78.6-10.6-112.6-30.5c-0.3-0.2-0.5-0.7-0.3-1c0.2-0.3,0.7-0.5,1-0.3
				c33.8,19.8,72.5,30.3,111.9,30.3c21.5,0,42.7-3.1,63.1-9.1c0.4-0.1,0.8,0.1,0.9,0.5c0.1,0.4-0.1,0.8-0.5,0.9
				C1137.7,1334.3,1116.4,1337.4,1094.8,1337.4z"/>
			<path class="st0" d="M1304.6,1188.1c-0.1,0-0.2,0-0.2,0c-0.4-0.1-0.6-0.5-0.5-0.9c8-23.2,12.1-47.6,12.1-72.4
				c0-48.9-15.6-95.3-45.2-134c-0.2-0.3-0.2-0.8,0.1-1c0.3-0.2,0.8-0.2,1,0.1c14.5,19,25.7,40,33.5,62.5c8,23.3,12,47.6,12,72.4
				c0,25-4.1,49.5-12.2,72.9C1305.2,1187.9,1304.9,1188.1,1304.6,1188.1z"/>
			<path class="st0" d="M881.2,1176.2c-0.3,0-0.6-0.2-0.7-0.5c-5.6-19.7-8.5-40.3-8.5-61c0-24.9,4.1-49.4,12.2-72.7
				c7.8-22.6,19.1-43.7,33.7-62.7c14.4-18.8,31.7-35.2,51.3-48.5c19.9-13.6,41.6-23.8,64.7-30.3c0.4-0.1,0.8,0.1,0.9,0.5
				c0.1,0.4-0.1,0.8-0.5,0.9c-94.7,26.8-160.8,114.4-160.8,212.9c0,20.6,2.8,41,8.4,60.6c0.1,0.4-0.1,0.8-0.5,0.9
				C881.4,1176.2,881.3,1176.2,881.2,1176.2z"/>
			<path class="st0" d="M1037.3,817.3c-0.3,0-0.7-0.2-0.7-0.6c-2.9-16.5-1.9-26.1,3.5-32.2c9.4-10.7,31.8-9.7,72.4-8l2.3,0.1
				c0.4,0,0.7,0.4,0.7,0.8c0,0.4-0.4,0.7-0.8,0.7l-2.3-0.1c-40.2-1.7-62.4-2.7-71.3,7.5c-5,5.7-5.9,15.2-3.2,31
				c0.1,0.4-0.2,0.8-0.6,0.8C1037.4,817.3,1037.3,817.3,1037.3,817.3z"/>
		</g>
		<g>
			<g>
				
					<linearGradient id="SVGID_46_" gradientUnits="userSpaceOnUse" x1="-5251.8657" y1="491.8398" x2="-4925.7656" y2="491.8398" gradientTransform="matrix(-1 0 0 1 -3842.0076 0)">
					<stop  offset="0" style="stop-color:#F97B5E"/>
					<stop  offset="1" style="stop-color:#DFF4A6"/>
				</linearGradient>
				<path class="st53" d="M1409.7,588.8l-253-197.9c-0.9-0.7-1.6-1.7-1.9-2.8l-15.7-51.3c-0.4-1.4-1.4-2.6-2.6-3.3l-10.2-5.8
					c-1-0.6-2.2-0.8-3.3-0.7l-31.7,3.1c-2.6,0.2-4.6,2.2-5,4.7l-2.4,14.8c-0.2,1.4,0.1,2.9,0.9,4.1l4.3,6.1c1.2,1.8,1.3,4.1,0.3,6
					l0,0c-1.2,2.1-0.9,4.7,0.7,6.5c5.2,5.8,18.5,18.8,39.6,27.8c0.7,0.3,1.4,0.8,1.9,1.3L1374,656.6
					C1376.2,659,1412.4,590.9,1409.7,588.8z"/>
				
					<linearGradient id="SVGID_47_" gradientUnits="userSpaceOnUse" x1="-4962.8735" y1="365.0388" x2="-4934.0649" y2="365.0388" gradientTransform="matrix(-1 0 0 1 -3842.0076 0)">
					<stop  offset="0" style="stop-color:#F97B5E"/>
					<stop  offset="1" style="stop-color:#DFF4A6"/>
				</linearGradient>
				<path class="st54" d="M1119.6,371.8c0.2,0,0.4-0.1,0.6-0.2c0.6-0.3,0.9-1.1,0.5-1.8c-0.3-0.6-7.8-14-17.2-11.1
					c-7.4,2.3-9.4,1.4-9.5,1.4c-0.6-0.4-1.4-0.2-1.8,0.4c-0.4,0.6-0.2,1.4,0.4,1.8c0.6,0.4,3.1,1.5,11.6-1.1
					c7.4-2.3,14.1,9.7,14.2,9.8C1118.6,371.5,1119.1,371.8,1119.6,371.8z"/>
				
					<linearGradient id="SVGID_48_" gradientUnits="userSpaceOnUse" x1="-5102.6074" y1="364.4132" x2="-5255.5742" y2="619.0956" gradientTransform="matrix(-1 0 0 1 -3842.0076 0)">
					<stop  offset="0" style="stop-color:#FDAF4C"/>
					<stop  offset="1" style="stop-color:#D96A66"/>
				</linearGradient>
				<path class="st55" d="M1409,588.2l114.3,95.8l-35.4,81.8l-128.5-118.8C1384.3,629.9,1401.5,610.5,1409,588.2z"/>
			</g>
			<g>
				
					<linearGradient id="SVGID_49_" gradientUnits="userSpaceOnUse" x1="-6015.3071" y1="1629.2806" x2="-5987.9941" y2="1629.2806" gradientTransform="matrix(-1 0 0 1 -3842.0076 0)">
					<stop  offset="0" style="stop-color:#53D8FF"/>
					<stop  offset="1" style="stop-color:#3840F7"/>
				</linearGradient>
				<path class="st56" d="M2156.8,1575.2c-1.1-14.5-5.8-24.7-10.9-31.6c10.8,3.5,14.8,11.5,17.4,33c3,25.5,8.3,94.6,9.8,109.8
					c1.4,15.3-4.9,22.8-9.8,27.7c-1.6,1.6-4.1,0.9-7.1-1.4c6.1-7.7,8.5-15.6,9.7-22.2C2167.9,1680.3,2159.3,1608.9,2156.8,1575.2z"
					/>
				
					<linearGradient id="SVGID_50_" gradientUnits="userSpaceOnUse" x1="-6008.2471" y1="1621.7697" x2="-5927.3638" y2="1621.7697" gradientTransform="matrix(-1 0 0 1 -3842.0076 0)">
					<stop  offset="0" style="stop-color:#2B3582"/>
					<stop  offset="1" style="stop-color:#150E42"/>
				</linearGradient>
				<path class="st57" d="M2086.3,1555.2l18.7-24.3c0,0,18,8.6,34.1,11.1c2.6,0.4,4.8,0.9,6.9,1.6c5,6.9,9.8,17.1,10.9,31.6
					c2.5,33.7,11,105.1,9.1,115.3c-1.2,6.5-3.6,14.4-9.7,22.2c-6-4.7-14-16.1-20-27.7c-9-17.3-39.4-69.1-46.5-88.4
					C2082.6,1577.2,2086.3,1555.2,2086.3,1555.2z"/>
			</g>
			<g>
				
					<linearGradient id="SVGID_51_" gradientUnits="userSpaceOnUse" x1="-5709.1138" y1="1388.3054" x2="-5657.3159" y2="1388.3054" gradientTransform="matrix(-1 0 0 1 -3842.0076 0)">
					<stop  offset="0" style="stop-color:#53D8FF"/>
					<stop  offset="1" style="stop-color:#3840F7"/>
				</linearGradient>
				<path class="st58" d="M1831.2,1334.4c-3.5-14.1-9.8-23.4-15.9-29.4c11.2,1.7,16.6,8.9,22.6,29.7c7.2,24.7,23.9,91.9,27.8,106.7
					c3.9,14.8-1.1,23.3-5,29c-1.3,1.9-3.9,1.5-7.2-0.3c4.7-8.6,5.8-16.8,5.9-23.5C1859.5,1436.2,1839.3,1367.3,1831.2,1334.4z"/>
				
					<linearGradient id="SVGID_52_" gradientUnits="userSpaceOnUse" x1="-5701.335" y1="1384.6722" x2="-5600.3643" y2="1384.6722" gradientTransform="matrix(-1 0 0 1 -3842.0076 0)">
					<stop  offset="0" style="stop-color:#2B3582"/>
					<stop  offset="1" style="stop-color:#150E42"/>
				</linearGradient>
				<path class="st59" d="M1758.4,1326.3l14.5-27.1c0,0,19.2,5.5,35.5,5.3c2.6,0,4.9,0.1,7,0.4c6.1,6,12.5,15.3,15.9,29.4
					c8.1,32.9,28.3,101.8,28.1,112.2c-0.1,6.6-1.2,14.8-5.9,23.5c-6.7-3.7-16.5-13.6-24.3-24c-11.7-15.6-50.3-61.6-60.5-79.5
					C1758.4,1348.7,1758.4,1326.3,1758.4,1326.3z"/>
			</g>
			
				<linearGradient id="SVGID_53_" gradientUnits="userSpaceOnUse" x1="-5962.5474" y1="1538.9971" x2="-5889.2637" y2="1538.9971" gradientTransform="matrix(-1 0 0 1 -3842.0076 0)">
				<stop  offset="0" style="stop-color:#F97B5E"/>
				<stop  offset="1" style="stop-color:#DFF4A6"/>
			</linearGradient>
			<path class="st60" d="M2086.3,1496c3.3,4.3,27.2,47.9,32.4,57.3c0.9,1.6,1.4,3.3,1.7,5.1c0.6,4.9,0.1,14.3-10.2,21.1
				c-6.3,4.2-14.8,2.7-19.4-3.3l-43.5-57.3L2086.3,1496z"/>
			
				<linearGradient id="SVGID_54_" gradientUnits="userSpaceOnUse" x1="-5635.4448" y1="1309.1616" x2="-5561.4731" y2="1309.1616" gradientTransform="matrix(-1 0 0 1 -3842.0076 0)">
				<stop  offset="0" style="stop-color:#F97B5E"/>
				<stop  offset="1" style="stop-color:#DFF4A6"/>
			</linearGradient>
			<path class="st61" d="M1748.6,1268c4,3.7,34.8,42.7,41.5,51.2c1.1,1.4,2,3,2.5,4.8c1.4,4.7,2.5,14.1-6.6,22.5
				c-5.5,5.2-14.1,5.2-19.7,0l-46.8-54L1748.6,1268z"/>
			
				<linearGradient id="SVGID_55_" gradientUnits="userSpaceOnUse" x1="-5229.9941" y1="812.1649" x2="-5708.6309" y2="1275.1094" gradientTransform="matrix(-1 0 0 1 -3842.0076 0)">
				<stop  offset="0" style="stop-color:#2B3582"/>
				<stop  offset="1" style="stop-color:#150E42"/>
			</linearGradient>
			<path class="st62" d="M1689.9,1062.6c0-12.1-69.4-7.8-130.2-14.8c-31.9-3.7-50.9,34.7-28.5,57.8l184.2,190.1
				c3.9,4,9.6,5.5,14.9,3.8c7.2-2.4,17.7-6.7,27-14c5.4-4.3,6.4-12.2,2.4-17.8l-84.7-120.6l77.2,22.3l293.1,362.6
				c4.8,6,13.4,7.4,19.9,3.3c8.6-5.4,20.1-13.6,27.7-22.6c4-4.8,4.3-11.6,0.9-16.8c-32.3-49.4-208.1-318.6-216.4-346.6
				c-9.2-30.8-42.9-87.2-74.4-89.2C1771.6,1057.9,1689.9,1062.6,1689.9,1062.6z"/>
			
				<linearGradient id="SVGID_56_" gradientUnits="userSpaceOnUse" x1="-5480.8647" y1="1136.9067" x2="-5558.0259" y2="1203.6056" gradientTransform="matrix(-1 0 0 1 -3842.0076 0)">
				<stop  offset="0" style="stop-color:#2B3582"/>
				<stop  offset="1" style="stop-color:#150E42"/>
			</linearGradient>
			<path class="st63" d="M1670.5,1145.4c0.9,0,1.7-0.6,1.9-1.5c0.3-1-0.3-2.1-1.4-2.4l-69.5-18.4c-1.1-0.3-2.1,0.3-2.4,1.4
				c-0.3,1,0.3,2.1,1.4,2.4l69.5,18.4C1670.1,1145.4,1670.3,1145.4,1670.5,1145.4z"/>
			
				<linearGradient id="SVGID_57_" gradientUnits="userSpaceOnUse" x1="-5570.6958" y1="1141.2545" x2="-5612.1104" y2="1200.5426" gradientTransform="matrix(-1 0 0 1 -3842.0076 0)">
				<stop  offset="0" style="stop-color:#2B3582"/>
				<stop  offset="1" style="stop-color:#150E42"/>
			</linearGradient>
			<path class="st64" d="M1745.4,1164.2c0.5,0,1-0.2,1.3-0.5c0.8-0.7,0.8-2,0.1-2.8l-17.4-18.8c-0.7-0.8-2-0.8-2.8-0.1
				c-0.8,0.7-0.8,2-0.1,2.8l17.4,18.8C1744.4,1164,1744.9,1164.2,1745.4,1164.2z"/>
			
				<linearGradient id="SVGID_58_" gradientUnits="userSpaceOnUse" x1="-4673.8555" y1="-102.9365" x2="-5420.0552" y2="814.3922" gradientTransform="matrix(-1 0 0 1 -3842.0076 0)">
				<stop  offset="0" style="stop-color:#FDAF4C"/>
				<stop  offset="1" style="stop-color:#D96A66"/>
			</linearGradient>
			<path class="st65" d="M1487.9,680.5c0,0-36.7,37.5-30.4,102.2c1.9,19,9.3,37.1,21,52.2l185.4,239.2c4.3,5.5,10.6,9.1,17.5,10
				c27.3,3.3,99.8,9.9,151.1-7.1c4.1-1.4,5.9-6.2,3.7-9.9l-168.5-296.5l-102.1-118.8C1565.6,651.7,1517,635,1487.9,680.5z"/>
			
				<linearGradient id="SVGID_59_" gradientUnits="userSpaceOnUse" x1="-5787.8159" y1="880.9608" x2="-5850.2021" y2="958.3198" gradientTransform="matrix(-1 0 0 1 -3842.0076 0)">
				<stop  offset="0" style="stop-color:#F96F3B"/>
				<stop  offset="0.9964" style="stop-color:#9B1E5F"/>
			</linearGradient>
			<path class="st66" d="M2020.7,947.7c0.7,0,1.5-0.4,1.8-1.1c0.6-1,0.2-2.3-0.8-2.8c-0.7-0.4-71.9-39.1-87-51.7
				c-0.9-0.7-2.2-0.6-2.9,0.3c-0.7,0.9-0.6,2.2,0.3,2.9c15.4,12.8,84.7,50.5,87.7,52.1C2020,947.6,2020.3,947.7,2020.7,947.7z"/>
			<g>
				
					<linearGradient id="SVGID_60_" gradientUnits="userSpaceOnUse" x1="-4897.7427" y1="315.3062" x2="-4805.6138" y2="220.7843" gradientTransform="matrix(-0.963 0.2697 0.2697 0.963 -3240.9409 1687.304)">
					<stop  offset="0" style="stop-color:#F97B5E"/>
					<stop  offset="1" style="stop-color:#DFF4A6"/>
				</linearGradient>
				<path class="st67" d="M1479,569l55.4,78.2c3.6,5.1,3.1,12-1.1,16.5c-7.5,8-20,19.2-33.6,21.8c-4.2,0.8-8.5-1-10.8-4.6
					l-29.5-45.2C1459.4,635.7,1453.7,564.6,1479,569z"/>
				
					<linearGradient id="SVGID_61_" gradientUnits="userSpaceOnUse" x1="-6474.7939" y1="-1526.7448" x2="-6591.4507" y2="-1372.4174" gradientTransform="matrix(-0.6854 -0.7281 -0.7281 0.6854 -4070.863 -3147.1382)">
					<stop  offset="0" style="stop-color:#F97B5E"/>
					<stop  offset="1" style="stop-color:#DFF4A6"/>
				</linearGradient>
				<path class="st68" d="M1463.4,503.6c-1.1,1.1-47.3,91.7-47.3,91.7l52.3,25.2l56.5-79.4C1524.9,541.1,1482.1,486,1463.4,503.6z"
					/>
				
					<linearGradient id="SVGID_62_" gradientUnits="userSpaceOnUse" x1="-6563.8867" y1="-1489.683" x2="-6436.2524" y2="-1489.683" gradientTransform="matrix(-0.6854 -0.7281 -0.7281 0.6854 -4070.863 -3147.1382)">
					<stop  offset="0" style="stop-color:#2B3582"/>
					<stop  offset="1" style="stop-color:#150E42"/>
				</linearGradient>
				<path class="st69" d="M1501.1,550.7l-26.1,43.5c-0.4,0.7-0.9,1.3-1.4,1.8c-3.1,2.9-13.7,11.3-21.9-0.1
					c-7-9.8-13.6-18.6-20.6-22.3c-4.1-2.1-9.2-0.4-11.3,3.7c-4.3,8.5-12.6,25.9-17.9,42.3c-1.3,4.1,0.8,8.6,4.8,10.2
					c10.6,4.3,31.5,12,50.1,14.6c3.1,0.4,6.1-0.9,7.9-3.4c8-10.9,30.5-41.5,38.2-49.2c7.1-7.1,20.3-4.4,26.3-2.7
					c2.3,0.6,4.7,0.3,6.7-0.9c6-3.6,16.5-12.7,6.9-28c-2.4-3.8-1.2-8.9,2.6-11.3c6.7-4.4,14-12.7,7.1-26.2
					c-7-13.6-19.6-14.8-28.2-13.8c-3.8,0.5-7.6-1.5-9.1-5.1c-1.5-3.6-5.4-2.2-7.4-4.6c-1.7-2.1-1.2-3.6-2.3-5.5
					c-3.4-6.1-3.2-11-11.1-14.5c-6.1-2.7-13.1-2.8-19.7-1.7c-3.7,0.6-7.4,1.6-10.3,3.8c-2.7,2-4.5,4.8-6.4,7.6
					c-3.8,5.7-7.8,12.7-5.3,19.1c3.8,9.7,19.9,11.5,28.4,14.5c10.6,3.7,16.5,10.2,20.6,20.8C1502.7,545.7,1502.5,548.4,1501.1,550.7
					z"/>
				
					<linearGradient id="SVGID_63_" gradientUnits="userSpaceOnUse" x1="-6645.6499" y1="-1404.5295" x2="-6552.082" y2="-1500.5277" gradientTransform="matrix(-0.6854 -0.7281 -0.7281 0.6854 -4070.863 -3147.1382)">
					<stop  offset="0" style="stop-color:#F97B5E"/>
					<stop  offset="1" style="stop-color:#DFF4A6"/>
				</linearGradient>
				<path class="st70" d="M1493.2,607.7c0,0,10-29.4,22.9-28.3c12.8,1.1,23,13.9,7,28.3C1503.3,625.6,1493.2,607.7,1493.2,607.7z"/>
			</g>
			<g>
				
					<linearGradient id="SVGID_64_" gradientUnits="userSpaceOnUse" x1="-1256.9139" y1="783.1968" x2="-345.5786" y2="1419.0123" gradientTransform="matrix(1 0 0 1 2562.5339 0)">
					<stop  offset="0" style="stop-color:#FDAF4C"/>
					<stop  offset="1" style="stop-color:#D96A66"/>
				</linearGradient>
				<path class="st71" d="M1293.6,1025.6v-195c0-25.6,20.6-46.5,46.2-46.8c76.9-0.8,235.5-0.9,365.3,10.1
					c17.7,1.5,31.5,16,32.1,33.8l12.1,188.6c0.9,24.9-18.8,45.8-43.8,46.3l-367.3,7C1313.7,1069.9,1293.6,1050.2,1293.6,1025.6z"/>
				<path class="st0" d="M1338.1,851.7c-0.3,16.6,0.2,42.9,0.6,59.9c0.2,8.8,8,15.6,16.8,14.6l63.3-7.4c8.4-1,14.4-8.8,13.1-17.2
					l-7.8-51.8c-1.1-7.4-7.4-12.8-14.9-12.8h-56.1C1345,837,1338.3,843.5,1338.1,851.7z"/>
				<path class="st42" d="M1503.5,949.9l52.8,5.7c7.4,0.8,13.7-5.3,13.1-12.7l-11.5-157c-22.1-0.7-44-1.2-65-1.6v153.8
					C1492.9,944.2,1497.5,949.3,1503.5,949.9z"/>
				<path class="st0" d="M1525.1,922.7c0.2,2.8,2.5,5,5.3,5c0.1,0,0.2,0,0.3,0c2.9-0.2,5.2-2.7,5-5.6l-8-137.1
					c-3.6-0.1-7.1-0.2-10.6-0.2L1525.1,922.7z"/>
				<g>
					
						<linearGradient id="SVGID_65_" gradientUnits="userSpaceOnUse" x1="-1175.123" y1="846.7288" x2="-1288.4063" y2="1011.3433" gradientTransform="matrix(1 0 0 1 2562.5339 0)">
						<stop  offset="0" style="stop-color:#2B3582"/>
						<stop  offset="1" style="stop-color:#150E42"/>
					</linearGradient>
					<path class="st72" d="M1367.4,901.2c-0.9,0-1.7-0.7-1.8-1.7l-2.7-43.2c-0.1-1,0.7-1.8,1.7-1.9c1-0.1,1.8,0.7,1.9,1.7l2.7,43.2
						c0.1,1-0.7,1.8-1.7,1.9C1367.5,901.2,1367.4,901.2,1367.4,901.2z"/>
					
						<linearGradient id="SVGID_66_" gradientUnits="userSpaceOnUse" x1="-1171.0498" y1="849.532" x2="-1284.3331" y2="1014.1467" gradientTransform="matrix(1 0 0 1 2562.5339 0)">
						<stop  offset="0" style="stop-color:#2B3582"/>
						<stop  offset="1" style="stop-color:#150E42"/>
					</linearGradient>
					<path class="st73" d="M1373,901.2c-1,0-1.7-0.8-1.8-1.7l-1.4-44c0-1,0.7-1.8,1.7-1.8c1.1-0.1,1.8,0.7,1.8,1.7l1.4,44
						C1374.8,900.3,1374,901.1,1373,901.2C1373.1,901.2,1373,901.2,1373,901.2z"/>
					
						<linearGradient id="SVGID_67_" gradientUnits="userSpaceOnUse" x1="-1166.1349" y1="852.9142" x2="-1279.4186" y2="1017.5292" gradientTransform="matrix(1 0 0 1 2562.5339 0)">
						<stop  offset="0" style="stop-color:#2B3582"/>
						<stop  offset="1" style="stop-color:#150E42"/>
					</linearGradient>
					<path class="st74" d="M1380.6,901.2c-0.9,0-1.7-0.7-1.8-1.7c-0.3-7.2-2.1-43.3-2.1-44.1c0-1,0.8-1.8,1.8-1.8
						c1,0,1.8,0.8,1.8,1.8c0,1,1.4,29.2,2.1,43.9C1382.4,900.3,1381.6,901.1,1380.6,901.2C1380.6,901.2,1380.6,901.2,1380.6,901.2z
						 M1380.3,855.4L1380.3,855.4L1380.3,855.4z"/>
					
						<linearGradient id="SVGID_68_" gradientUnits="userSpaceOnUse" x1="-1157.6338" y1="858.7645" x2="-1270.9169" y2="1023.3788" gradientTransform="matrix(1 0 0 1 2562.5339 0)">
						<stop  offset="0" style="stop-color:#2B3582"/>
						<stop  offset="1" style="stop-color:#150E42"/>
					</linearGradient>
					<path class="st75" d="M1392.4,903c-1.9,0-3.5-1.5-3.5-3.4c-1.5-42.6-1.2-43.6-1.1-44.2c0.5-1.9,2.5-3,4.3-2.5
						c1.7,0.5,2.8,2.2,2.6,3.9c-0.1,2.6,0.7,27.4,1.2,42.6c0.1,2-1.5,3.6-3.4,3.7C1392.5,903,1392.4,903,1392.4,903z"/>
					
						<linearGradient id="SVGID_69_" gradientUnits="userSpaceOnUse" x1="-1152.0284" y1="862.6219" x2="-1265.312" y2="1027.2368" gradientTransform="matrix(1 0 0 1 2562.5339 0)">
						<stop  offset="0" style="stop-color:#2B3582"/>
						<stop  offset="1" style="stop-color:#150E42"/>
					</linearGradient>
					<path class="st76" d="M1400,901.2c-1,0-1.8-0.8-1.8-1.8v-43.2c0-1,0.8-1.8,1.8-1.8c1,0,1.8,0.8,1.8,1.8v43.2
						C1401.8,900.4,1401,901.2,1400,901.2z"/>
					
						<linearGradient id="SVGID_70_" gradientUnits="userSpaceOnUse" x1="-1148.5486" y1="865.0169" x2="-1261.8314" y2="1029.6309" gradientTransform="matrix(1 0 0 1 2562.5339 0)">
						<stop  offset="0" style="stop-color:#2B3582"/>
						<stop  offset="1" style="stop-color:#150E42"/>
					</linearGradient>
					<path class="st77" d="M1406.2,901.2c-1,0-1.7-0.8-1.8-1.7c-0.3-15-1.1-39.5-1.8-42.4c-0.3-0.6-0.3-1.3,0.1-1.8
						c0.5-0.8,1.6-1,2.5-0.5c1,0.6,1.9,1.2,2.9,44.7C1408,900.3,1407.3,901.2,1406.2,901.2L1406.2,901.2z"/>
					
						<linearGradient id="SVGID_71_" gradientUnits="userSpaceOnUse" x1="-1180.9519" y1="842.7177" x2="-1294.2355" y2="1007.3325" gradientTransform="matrix(1 0 0 1 2562.5339 0)">
						<stop  offset="0" style="stop-color:#2B3582"/>
						<stop  offset="1" style="stop-color:#150E42"/>
					</linearGradient>
					<path class="st79" d="M1357.9,905.1c-1.9,0-3.4-1.5-3.5-3.4l-2.4-45.3c-0.1-2,1.4-3.6,3.4-3.7c1.9-0.1,3.6,1.4,3.7,3.4
						l2.4,45.3c0.1,2-1.4,3.6-3.4,3.7C1358,905.1,1357.9,905.1,1357.9,905.1z"/>
				</g>
			</g>
			<g>
				
					<linearGradient id="SVGID_72_" gradientUnits="userSpaceOnUse" x1="-1202.4423" y1="174.2773" x2="-890.9631" y2="257.608" gradientTransform="matrix(1 0 0 1 1438.3633 0)">
					<stop  offset="0" style="stop-color:#FDAF4C"/>
					<stop  offset="1" style="stop-color:#D96A66"/>
				</linearGradient>
				<path class="st80" d="M1442.7,506.6c44.4-83.9,159.5-7.7,105.9,63C1508.8,543.1,1463.8,503.8,1442.7,506.6z"/>
			</g>
			
				<linearGradient id="SVGID_73_" gradientUnits="userSpaceOnUse" x1="-5781.6699" y1="1082.4825" x2="-5436.2515" y2="795.5622" gradientTransform="matrix(-1 0 0 1 -3842.0076 0)">
				<stop  offset="0" style="stop-color:#FDAF4C"/>
				<stop  offset="1" style="stop-color:#D96A66"/>
			</linearGradient>
			<path class="st81" d="M1531.3,778.6l99.7-51.1c0,0,71.2,70.2,89.4,165.6c-20.9,1.5-59,7-96.3,25.8
				C1615.9,873.9,1531.3,778.6,1531.3,778.6z"/>
			
				<linearGradient id="SVGID_74_" gradientUnits="userSpaceOnUse" x1="-5832.1963" y1="869.3744" x2="-5243.1948" y2="1030.5533" gradientTransform="matrix(-1 0 0 1 -3842.0076 0)">
				<stop  offset="0" style="stop-color:#F97B5E"/>
				<stop  offset="1" style="stop-color:#DFF4A6"/>
			</linearGradient>
			<path class="st82" d="M1449.1,945.4c0,0,124.4,70.3,166.3,10.3c8.7-12.5,10.8-24.8,8.7-36.7c37.3-18.8,75.4-24.3,96.3-25.8
				c5.5,28.8,2.6,59.4-14.3,90.3c-73.5,134.5-273.4-7.4-273.4-7.4L1449.1,945.4z"/>
			
				<linearGradient id="SVGID_75_" gradientUnits="userSpaceOnUse" x1="-1546.4952" y1="698.0449" x2="-957.4941" y2="859.2237" gradientTransform="matrix(1 0 0 1 2099.4583 0)">
				<stop  offset="0" style="stop-color:#F97B5E"/>
				<stop  offset="1" style="stop-color:#DFF4A6"/>
			</linearGradient>
			<path class="st83" d="M1443.2,981.1c7.9,2.1,16-3.1,17.6-11.2c2.5-12.6,5.5-31.9,3.1-40.8c-3.8-13.8-11.2-31.5-35.8-27.6
				c-24.6,3.9-53.7,14.3-53.7,14.3s1.5,18,20.2,12.2l-11.6,9c0,0,1.7,14.4,17.5,6.7l-10.8,11.9c0,0,6.8,11.8,18.4,4.2
				C1417.6,953.6,1423.1,975.8,1443.2,981.1z"/>
			
				<linearGradient id="SVGID_76_" gradientUnits="userSpaceOnUse" x1="-4795.2002" y1="125.4938" x2="-5713.2407" y2="808.1392" gradientTransform="matrix(-1 0 0 1 -3842.0076 0)">
				<stop  offset="0" style="stop-color:#FDAF4C"/>
				<stop  offset="1" style="stop-color:#D96A66"/>
			</linearGradient>
			<path class="st84" d="M2070.6,963.6c4.3,0.8,6.6,5.6,4.7,9.5c-9,18.1-35.5,58.1-90,45.5c-69.8-16.1-282.9-177.2-331.2-221.2
				c-48.2-44-112.1-98.8-143.4-91.2c-31.3,7.7-12.4-10.5,9.2-25c21.7-14.5,29.7-35.9,13.6-31.9c0,0,38.9-12.6,98.3,20.1
				c58,32,341.4,141.3,436.2,109.6c3.5-1.2,7.2,1.1,7.9,4.7c3.8,21.6,9.5,89.3-45.9,165.4C2029.9,949.1,2051.5,960,2070.6,963.6z"/>
			
				<linearGradient id="SVGID_77_" gradientUnits="userSpaceOnUse" x1="-6471.3853" y1="210.7789" x2="-6184.5527" y2="287.5159" gradientTransform="matrix(-1 0 0 1 -3842.0076 0)">
				<stop  offset="0" style="stop-color:#FDAF4C"/>
				<stop  offset="1" style="stop-color:#D96A66"/>
			</linearGradient>
			<path class="st85" d="M1512,542.2l-79.7-2.5c-2-0.1-3.9-1.2-4.9-3c-7.1-12.9-17.6-21.1-30.7-25.6c-1.7-0.6-1.3-3,0.4-3.1
				l48.9-3.3c0.1,0,0.1,0,0.2,0c24.4,1.9,45.9,16.5,66.5,35.7C1513.4,541,1512.9,542.2,1512,542.2z"/>
		</g>
		<g>
			<g>
				<g>
					<linearGradient id="SVGID_78_" gradientUnits="userSpaceOnUse" x1="891.03" y1="544.7444" x2="1160.4307" y2="544.7444">
						<stop  offset="0" style="stop-color:#6C93CB"/>
						<stop  offset="1" style="stop-color:#1D316D"/>
					</linearGradient>
					<circle class="st86" cx="1025.7" cy="544.7" r="134.7"/>
					<linearGradient id="SVGID_79_" gradientUnits="userSpaceOnUse" x1="890.7842" y1="684.4357" x2="1160.4446" y2="684.4357">
						<stop  offset="0" style="stop-color:#6C93CB"/>
						<stop  offset="1" style="stop-color:#1D316D"/>
					</linearGradient>
					<path class="st87" d="M1160.2,537.5h-134.5H891c0,0-10.7,74.8,109.5,279.5c5.2,8.9,14.8,14.3,25.2,14.3
						c10.4,0,20-5.2,25.2-14.2C1171.1,612.4,1160.2,537.5,1160.2,537.5z"/>
				</g>
				<g>
					<path class="st78" d="M1025.7,835.7v0.8h0c-11.7,0-22.7-6.5-28.6-16.5c-70.3-119.7-96-195.4-105.2-237.7
						c-2.6-9.7-4.1-19.3-4.6-29.1c-0.8-10-0.2-14.2-0.1-14.7l0.4-2.2c5.4-72.4,65.6-128.7,138.2-128.7c73.5,0,134.3,57.1,138.4,130
						c0.1,1,0.3,3.4,0.2,7.4l0,0.5c0,13.2-1.9,26.3-5.6,39c-9.5,42.3-35.4,117.3-104.5,234.9
						C1048.3,829.6,1037.8,835.7,1025.7,835.7z M894.7,543.6c0,2,0,4.9,0.4,9.2l0,0c0.4,9.3,1.9,18.2,4.4,27.5l0,0.2
						c9.1,41.8,34.6,116.5,104.4,235.4c4.5,7.7,12.8,12.4,21.8,12.4l0,3.9v-3.9c8.1,0,17.3-4.8,21.8-12.5
						c68.6-116.9,94.3-191.2,103.7-233l0.1-0.2c3.5-11.9,4.5-24.3,4.5-36.9l-0.8-0.6v0c0-3.9,0.7-6,0.6-6.6l0.4-0.2
						c-3.8-68.8-61-122.8-130.4-122.8c-69.3,0-126.5,54.7-130.5,124.1l-0.1,4H894.7z"/>
				</g>
				<circle class="st0" cx="1026.2" cy="544.3" r="77.8"/>
				<g>
					<linearGradient id="SVGID_80_" gradientUnits="userSpaceOnUse" x1="1287.4229" y1="335.1862" x2="386.5204" y2="1056.3129">
						<stop  offset="0" style="stop-color:#FDAF4C"/>
						<stop  offset="1" style="stop-color:#D96A66"/>
					</linearGradient>
					<path class="st88" d="M1026.2,626.4c-45.3,0-82.1-36.8-82.1-82.1c0-45.3,36.8-82.1,82.1-82.1s82.1,36.8,82.1,82.1
						C1108.3,589.6,1071.4,626.4,1026.2,626.4z M1026.2,470.9c-40.5,0-73.4,32.9-73.4,73.4c0,40.5,32.9,73.4,73.4,73.4
						c40.5,0,73.4-32.9,73.4-73.4C1099.6,503.8,1066.7,470.9,1026.2,470.9z"/>
				</g>
			</g>
			<g>
				<path class="st0" d="M952.4,463.3c-0.4,0-0.7-0.2-1-0.5c-0.5-0.5-0.4-1.4,0.1-1.8c21.8-18.8,49.8-29.1,78.6-29.1
					c0.7,0,1.3,0.6,1.3,1.3c0,0.7-0.6,1.3-1.3,1.3c-28.2,0-55.5,10.1-76.9,28.5C953,463.2,952.7,463.3,952.4,463.3z"/>
			</g>
			<g>
				<path class="st0" d="M910.7,554c-0.7,0-1.3-0.6-1.3-1.3c0-22.5,6.2-44.5,18.1-63.5c0.4-0.6,1.2-0.8,1.8-0.4
					c0.6,0.4,0.8,1.2,0.4,1.8c-11.6,18.6-17.7,40.1-17.7,62.2C912,553.4,911.5,554,910.7,554z"/>
			</g>
		</g>
	</g>
</g>
</svg>
