<?xml version="1.0" encoding="utf-8"?>
<!-- Generator: Adobe Illustrator 21.1.0, SVG Export Plug-In . SVG Version: 6.00 Build 0)  -->
<svg version="1.1" id="Layer_1" xmlns="http://www.w3.org/2000/svg" xmlns:xlink="http://www.w3.org/1999/xlink" x="0px" y="0px"
	 viewBox="0 0 961.1 240" style="enable-background:new 0 0 961.1 240;" xml:space="preserve">
<style type="text/css">
	.st0{fill:#0574B5;}
	.st1{fill:#FFFFFF;}
	.st2{fill:#EF8843;}
	.st3{fill:#4A4A4A;}
	.st4{fill:#A09F9F;}
</style>
<rect y="-604.5" class="st0" width="1024" height="250"/>
<rect x="1403.2" y="-655" class="st1" width="1024" height="250"/>
<g>
	<g>
		<path class="st0" d="M796.4-1146.3c-28.8,0-52.2,23.4-52.2,52.2s23.4,52.2,52.2,52.2c9.8,0,18.9-2.7,26.7-7.4v7.4h25.5v-54h-0.1
			C847.6-1123.8,824.6-1146.3,796.4-1146.3z M796.4-1067.4c-14.7,0-26.7-12-26.7-26.7s12-26.7,26.7-26.7s26.7,12,26.7,26.7
			S811.1-1067.4,796.4-1067.4z"/>
		<path class="st0" d="M906-1146.3c-26.3,0-47.7,21.4-47.7,47.7v56.8h25.5v-56.8c0-12.2,9.9-22.2,22.2-22.2s22.2,9.9,22.2,22.2v56.8
			h25.5v-56.8C953.7-1124.9,932.3-1146.3,906-1146.3z"/>
		<path class="st0" d="M321.9-1146.3c-26.3,0-47.7,21.4-47.7,47.7v56.8h25.5v-56.8c0-12.2,9.9-22.2,22.2-22.2
			c12.2,0,22.2,9.9,22.2,22.2v56.8h25.5v-56.8C369.6-1124.9,348.2-1146.3,321.9-1146.3z"/>
		<path class="st0" d="M457.8-1138.9c-7.8-4.7-16.9-7.4-26.7-7.4c-28.8,0-52.2,23.4-52.2,52.2s23.4,52.2,52.2,52.2
			c27.8,0,50.6-21.9,52.1-49.3h0.1v-110.1h-25.5V-1138.9z M431.1-1067.4c-14.7,0-26.7-12-26.7-26.7s12-26.7,26.7-26.7
			s26.7,12,26.7,26.7S445.9-1067.4,431.1-1067.4z"/>
		<path class="st0" d="M239.2-1146.3h25.5v104.5h-25.5L239.2-1146.3L239.2-1146.3z"/>
		<path class="st2" d="M264.7-1171.3v17.9h-25.5"/>
		<path class="st0" d="M200.9-1200.4h25.3v158.6h-25.3V-1200.4z"/>
		<path class="st0" d="M571.7-1094.1c0,14.7-12,26.7-26.7,26.7s-26.7-12-26.7-26.7v-52.2h-25.5v52.2c0,28.8,23.4,52.2,52.2,52.2
			c9.8,0,18.9-2.7,26.7-7.4v7.4h25.5v-104.5h-25.5V-1094.1z"/>
		<path class="st0" d="M638.7-1108.5c-3.4,0-6.1-2.7-6.1-6.1s2.7-6.1,6.1-6.1c1.6,0,2.8,0.6,3.5,1.1s1.3,1.1,1.7,1.8l21.5-13.7
			c-2.3-3.6-5.2-6.6-8.7-9.1c-5.3-3.7-11.5-5.6-18-5.6c-17.4,0-31.6,14.2-31.6,31.6s14.2,31.6,31.6,31.6c4.3,0,7.8,3.5,7.8,7.8
			s-3.5,7.8-7.8,7.8c-3.4,0-6.3-2.2-7.4-5.4l-24.3,8c4.5,13.7,17.2,22.9,31.7,22.9c18.4,0,33.3-14.9,33.3-33.3
			C672-1093.5,657.1-1108.5,638.7-1108.5z"/>
		<path class="st0" d="M721.8-1067.4c-4.4,0-7.9-3.5-7.9-7.9v-45.4h25v-25.5h-25v-34.3h-25.5v34.3h-13.1v25.5h13.1v45.4
			c0,18.4,15,33.4,33.4,33.4c6.7,0,13.2-2,18.7-5.7l-14.3-21.2C724.9-1067.8,723.4-1067.4,721.8-1067.4z"/>
		<g>
			<polygon class="st0" points="128.7,-1189.6 128.7,-1133.8 190.2,-1133.8 			"/>
			<polygon class="st0" points="128.7,-1106.9 128.7,-1052.2 189.7,-1106.9 			"/>
			<polygon class="st0" points="100.7,-1041.8 100.7,-1200.1 8,-1200.1 90.2,-1121 8,-1041.8 			"/>
		</g>
	</g>
	<g>
		<path class="st1" d="M291.2-986.9h-16.1v-1.6c0.5,0,1.1-0.1,2-0.1s1.5-0.1,1.8-0.3c0.6-0.2,1-0.5,1.2-0.8s0.4-0.8,0.4-1.4v-23
			c0-0.5-0.1-1-0.3-1.3c-0.2-0.3-0.6-0.6-1.3-0.9c-0.5-0.2-1.1-0.3-1.9-0.5s-1.4-0.3-1.9-0.3v-1.6h16.1v1.6c-0.5,0-1.1,0.1-1.9,0.2
			c-0.7,0.1-1.3,0.2-1.9,0.4s-1.1,0.5-1.3,0.9s-0.3,0.9-0.3,1.3v23c0,0.5,0.1,0.9,0.4,1.3c0.2,0.4,0.7,0.7,1.2,0.9
			c0.3,0.1,0.9,0.3,1.7,0.4c0.8,0.1,1.5,0.2,2,0.2L291.2-986.9L291.2-986.9z"/>
		<path class="st1" d="M332.3-1017.1c-0.5,0-1.2,0.1-2.2,0.4c-1,0.2-1.7,0.5-2.1,0.7c-0.6,0.4-1,1.1-1.2,2.1c-0.2,1.1-0.3,2.4-0.3,4
			v23.3h-2.2l-21.6-26v16.4c0,1.8,0.1,3.2,0.4,4.2s0.7,1.7,1.2,2.1c0.4,0.3,1.2,0.6,2.4,0.9c1.2,0.3,2,0.4,2.4,0.4v1.6h-14.6v-1.6
			c0.5,0,1.2-0.2,2.3-0.4c1.1-0.3,1.7-0.5,2-0.7c0.6-0.4,1-1.1,1.2-1.9s0.3-2.3,0.3-4.4v-15.6c0-0.7-0.1-1.4-0.4-2.1
			c-0.3-0.7-0.6-1.2-1.1-1.6c-0.6-0.5-1.4-0.9-2.5-1.3c-1-0.4-1.9-0.5-2.5-0.6v-1.6H304l20.1,24.2v-15.1c0-1.9-0.1-3.3-0.4-4.3
			s-0.7-1.7-1.2-2s-1.2-0.6-2.3-0.8c-1.1-0.3-1.9-0.4-2.4-0.4v-1.6h14.5L332.3-1017.1L332.3-1017.1z"/>
		<path class="st1" d="M364.2-1010h-1.7c-0.2-0.5-0.4-1.2-0.8-1.9s-0.8-1.4-1.3-2.1c-0.5-0.7-1.1-1.3-1.7-1.8s-1.2-0.8-1.7-0.9
			c-0.5-0.1-1.2-0.1-2-0.1s-1.5,0-2.2,0h-1.5v25.4c0,0.5,0.1,0.9,0.4,1.4c0.2,0.4,0.6,0.7,1.2,0.9c0.3,0.1,0.9,0.2,1.9,0.4
			s1.7,0.3,2.3,0.3v1.6h-16.8v-1.6c0.5,0,1.2-0.1,2.1-0.2c1-0.1,1.6-0.2,2-0.3c0.6-0.2,1-0.5,1.2-0.8c0.3-0.4,0.4-0.9,0.4-1.5v-25.6
			h-1.5c-0.5,0-1.2,0-1.9,0c-0.8,0-1.5,0.1-2.2,0.1c-0.6,0.1-1.1,0.4-1.7,0.9s-1.1,1.1-1.7,1.8c-0.5,0.7-0.9,1.4-1.3,2.1
			c-0.4,0.8-0.7,1.4-0.8,1.9h-1.8v-8.6h31.1V-1010z"/>
		<path class="st1" d="M397-996.3l-0.7,9.4h-29.6v-1.6c0.5,0,1.2-0.1,2-0.2c0.8-0.1,1.4-0.2,1.6-0.3c0.5-0.2,0.9-0.5,1.1-0.9
			s0.3-0.8,0.3-1.4v-22.8c0-0.5-0.1-0.9-0.3-1.3s-0.6-0.7-1.2-0.9c-0.5-0.2-1.1-0.4-1.8-0.5c-0.8-0.1-1.4-0.2-1.8-0.3v-1.6h27.6v7.7
			h-1.9c-0.3-1.1-1.1-2.3-2.2-3.6s-2.2-2-3.2-2.1c-0.5-0.1-1.1-0.1-1.9-0.1c-0.7,0-1.5,0-2.5,0h-5.6v12.6h4c1.3,0,2.2-0.1,2.8-0.3
			c0.6-0.2,1.1-0.6,1.6-1.1c0.4-0.4,0.7-1,0.9-1.7c0.3-0.7,0.4-1.4,0.5-2h1.9v12.4H387c-0.1-0.7-0.2-1.5-0.5-2.3s-0.6-1.4-0.9-1.7
			c-0.5-0.6-1.1-1-1.8-1.1c-0.7-0.2-1.5-0.3-2.6-0.3h-4v9.5c0,1,0.1,1.7,0.2,2.3c0.2,0.6,0.4,1,0.9,1.3c0.4,0.3,1,0.5,1.8,0.5
			c0.8,0.1,1.8,0.1,3.2,0.1c0.6,0,1.3,0,2.2,0c0.9,0,1.7,0,2.3-0.1c0.6-0.1,1.3-0.2,2-0.3c0.7-0.2,1.2-0.4,1.4-0.6
			c0.8-0.7,1.6-1.8,2.4-3.3s1.4-2.5,1.6-3.2h1.8V-996.3z"/>
		<path class="st1" d="M435.4-986.9h-9.6c-2.1-3-4-5.5-5.8-7.7c-1.7-2.2-3.6-4.4-5.6-6.7h-3.7v10.1c0,0.5,0.1,1,0.3,1.4
			c0.2,0.4,0.6,0.7,1.2,0.9c0.3,0.1,0.8,0.2,1.6,0.3c0.8,0.1,1.4,0.1,1.9,0.2v1.6h-15.1v-1.6c0.4,0,1-0.1,1.7-0.2
			c0.8-0.1,1.3-0.2,1.6-0.3c0.5-0.2,0.9-0.5,1.1-0.9s0.3-0.9,0.3-1.4v-23c0-0.5-0.1-1-0.3-1.4s-0.6-0.7-1.2-0.9
			c-0.4-0.1-1-0.3-1.6-0.4c-0.7-0.1-1.2-0.2-1.7-0.2v-1.6H417c1.5,0,2.9,0.1,4.3,0.4c1.3,0.3,2.5,0.7,3.6,1.3c1,0.6,1.9,1.4,2.5,2.3
			c0.6,1,0.9,2.1,0.9,3.5c0,1.2-0.2,2.3-0.6,3.2s-1,1.8-1.9,2.4c-0.8,0.6-1.7,1.2-2.7,1.7c-1.1,0.5-2.2,0.9-3.5,1.2
			c1.8,2.1,3.2,3.8,4.4,5.2c1.2,1.4,2.6,3.1,4.3,5.2c0.7,0.9,1.4,1.6,2,2s1.2,0.8,1.8,1c0.4,0.2,1,0.3,1.6,0.4
			c0.7,0.1,1.2,0.2,1.6,0.2v1.8H435.4z M422.2-1010.6c0-1.9-0.6-3.4-1.9-4.6c-1.2-1.1-3-1.7-5.3-1.7h-4.3v13.6h3.3
			c2.3,0,4.2-0.7,5.8-2C421.4-1006.5,422.2-1008.3,422.2-1010.6z"/>
		<path class="st1" d="M473.4-1017.1c-0.5,0-1.2,0.1-2.2,0.4c-1,0.2-1.7,0.5-2.1,0.7c-0.6,0.4-1,1.1-1.2,2.1c-0.2,1.1-0.3,2.4-0.3,4
			v23.3h-2.2l-21.6-26v16.4c0,1.8,0.1,3.2,0.4,4.2s0.7,1.7,1.2,2.1c0.4,0.3,1.2,0.6,2.4,0.9c1.2,0.3,2,0.4,2.4,0.4v1.6h-14.6v-1.6
			c0.5,0,1.2-0.2,2.3-0.4c1.1-0.3,1.7-0.5,2-0.7c0.6-0.4,1-1.1,1.2-1.9s0.3-2.3,0.3-4.4v-15.6c0-0.7-0.1-1.4-0.4-2.1
			c-0.3-0.7-0.6-1.2-1.1-1.6c-0.6-0.5-1.4-0.9-2.5-1.3c-1-0.4-1.9-0.5-2.5-0.6v-1.6h10.2l20.1,24.2v-15.1c0-1.9-0.1-3.3-0.4-4.3
			s-0.7-1.7-1.2-2s-1.2-0.6-2.3-0.8c-1.1-0.3-1.9-0.4-2.4-0.4v-1.6h14.5L473.4-1017.1L473.4-1017.1z"/>
		<path class="st1" d="M509.6-986.9h-14.8v-1.6c1.3-0.1,2.4-0.2,3.3-0.4s1.3-0.5,1.3-0.8c0-0.1,0-0.3-0.1-0.5c0-0.2-0.1-0.4-0.1-0.5
			l-3-7.1h-12.5c-0.5,1-0.9,2-1.1,2.7c-0.3,0.8-0.6,1.5-0.8,2.1c-0.2,0.6-0.4,1.2-0.5,1.6c-0.1,0.4-0.1,0.7-0.1,1
			c0,0.6,0.5,1.1,1.6,1.4c1.1,0.3,2.2,0.5,3.6,0.6v1.6H473v-1.6c0.4,0,1-0.1,1.6-0.3c0.7-0.1,1.2-0.3,1.6-0.6
			c0.7-0.4,1.2-0.8,1.6-1.3c0.4-0.4,0.7-1,1.1-1.8c1.8-4,3.8-8.5,5.9-13.4c2.2-5,4.1-9.4,5.8-13.3h2l11.9,27.4
			c0.2,0.6,0.5,1.1,0.9,1.4c0.3,0.4,0.8,0.7,1.3,1.1c0.4,0.2,0.9,0.4,1.5,0.5s1.1,0.2,1.6,0.2v1.6H509.6z M495.2-999.9l-5.4-12.3
			l-5.3,12.3H495.2z"/>
		<path class="st1" d="M539.9-1010h-1.7c-0.2-0.5-0.4-1.2-0.8-1.9c-0.4-0.7-0.8-1.4-1.3-2.1c-0.5-0.7-1.1-1.3-1.7-1.8
			c-0.6-0.5-1.2-0.8-1.7-0.9c-0.5-0.1-1.2-0.1-2-0.1s-1.5,0-2.2,0H527v25.4c0,0.5,0.1,0.9,0.4,1.4c0.2,0.4,0.6,0.7,1.2,0.9
			c0.3,0.1,0.9,0.2,1.9,0.4s1.7,0.3,2.3,0.3v1.6H516v-1.6c0.5,0,1.2-0.1,2.1-0.2c1-0.1,1.6-0.2,2-0.3c0.6-0.2,1-0.5,1.2-0.8
			c0.3-0.4,0.4-0.9,0.4-1.5v-25.6h-1.5c-0.5,0-1.2,0-1.9,0c-0.8,0-1.5,0.1-2.2,0.1c-0.6,0.1-1.1,0.4-1.7,0.9
			c-0.6,0.5-1.1,1.1-1.7,1.8c-0.5,0.7-0.9,1.4-1.3,2.1c-0.4,0.8-0.7,1.4-0.8,1.9h-1.8v-8.6h31.1V-1010z"/>
		<path class="st1" d="M558.3-986.9h-16.1v-1.6c0.5,0,1.1-0.1,2-0.1s1.5-0.1,1.8-0.3c0.6-0.2,1-0.5,1.2-0.8s0.4-0.8,0.4-1.4v-23
			c0-0.5-0.1-1-0.3-1.3s-0.6-0.6-1.3-0.9c-0.5-0.2-1.1-0.3-1.9-0.5c-0.8-0.2-1.4-0.3-1.9-0.3v-1.6h16.1v1.6c-0.5,0-1.1,0.1-1.9,0.2
			c-0.7,0.1-1.3,0.2-1.9,0.4c-0.6,0.2-1.1,0.5-1.3,0.9s-0.3,0.9-0.3,1.3v23c0,0.5,0.1,0.9,0.4,1.3c0.2,0.4,0.7,0.7,1.2,0.9
			c0.3,0.1,0.9,0.3,1.7,0.4c0.8,0.1,1.5,0.2,2,0.2L558.3-986.9L558.3-986.9z"/>
		<path class="st1" d="M591.6-1014.9c1.6,1.5,2.8,3.2,3.7,5.3s1.3,4.4,1.3,6.9s-0.5,4.8-1.4,6.9c-0.9,2.1-2.2,3.8-3.8,5.3
			c-1.6,1.4-3.4,2.5-5.4,3.3c-2.1,0.8-4.3,1.2-6.6,1.2c-2.5,0-4.8-0.4-6.9-1.2c-2.1-0.8-3.9-2-5.4-3.5c-1.5-1.4-2.7-3.2-3.6-5.3
			c-0.9-2.1-1.3-4.3-1.3-6.6c0-2.6,0.5-4.9,1.4-6.9s2.2-3.8,3.8-5.2c1.6-1.5,3.4-2.6,5.5-3.4c2.1-0.8,4.3-1.2,6.6-1.2
			c2.4,0,4.6,0.4,6.7,1.2S590.1-1016.3,591.6-1014.9z M587.9-992.4c0.9-1.4,1.6-2.9,2.1-4.6c0.4-1.7,0.6-3.6,0.6-5.8s-0.2-4.2-0.7-6
			s-1.2-3.4-2.1-4.7c-0.9-1.3-2.1-2.3-3.5-3s-3-1.1-4.8-1.1c-2,0-3.7,0.4-5.1,1.2c-1.4,0.8-2.6,1.9-3.4,3.3
			c-0.8,1.3-1.5,2.8-1.9,4.6s-0.6,3.6-0.6,5.5c0,2.1,0.2,4.1,0.7,5.8c0.4,1.7,1.1,3.3,2.1,4.6c0.9,1.3,2,2.3,3.4,3.1
			c1.4,0.7,3,1.1,4.9,1.1c1.8,0,3.4-0.4,4.9-1.1C585.8-990,587-991,587.9-992.4z"/>
		<path class="st1" d="M637.7-1017.1c-0.5,0-1.2,0.1-2.2,0.4c-1,0.2-1.7,0.5-2.1,0.7c-0.6,0.4-1,1.1-1.2,2.1c-0.2,1.1-0.3,2.4-0.3,4
			v23.3h-2.2l-21.6-26v16.4c0,1.8,0.1,3.2,0.4,4.2c0.3,1,0.7,1.7,1.2,2.1c0.4,0.3,1.2,0.6,2.4,0.9c1.2,0.3,2,0.4,2.4,0.4v1.6h-14.6
			v-1.6c0.5,0,1.2-0.2,2.3-0.4c1.1-0.3,1.7-0.5,2-0.7c0.6-0.4,1-1.1,1.2-1.9s0.3-2.3,0.3-4.4v-15.6c0-0.7-0.1-1.4-0.4-2.1
			c-0.3-0.7-0.6-1.2-1.1-1.6c-0.6-0.5-1.4-0.9-2.5-1.3c-1-0.4-1.9-0.5-2.5-0.6v-1.6h10.2l20.1,24.2v-15.1c0-1.9-0.1-3.3-0.4-4.3
			c-0.3-1-0.7-1.7-1.2-2s-1.2-0.6-2.3-0.8c-1.1-0.3-1.9-0.4-2.4-0.4v-1.6h14.5L637.7-1017.1L637.7-1017.1z"/>
		<path class="st1" d="M673.9-986.9h-14.8v-1.6c1.3-0.1,2.4-0.2,3.3-0.4c0.9-0.2,1.3-0.5,1.3-0.8c0-0.1,0-0.3-0.1-0.5
			s-0.1-0.4-0.1-0.5l-3-7.1H648c-0.5,1-0.9,2-1.1,2.7c-0.3,0.8-0.6,1.5-0.8,2.1s-0.4,1.2-0.5,1.6c-0.1,0.4-0.1,0.7-0.1,1
			c0,0.6,0.5,1.1,1.6,1.4c1.1,0.3,2.2,0.5,3.6,0.6v1.6h-13.4v-1.6c0.4,0,1-0.1,1.6-0.3c0.7-0.1,1.2-0.3,1.6-0.6
			c0.7-0.4,1.2-0.8,1.6-1.3c0.4-0.4,0.7-1,1.1-1.8c1.8-4,3.8-8.5,5.9-13.4c2.2-5,4.1-9.4,5.8-13.3h2l11.9,27.4
			c0.2,0.6,0.5,1.1,0.9,1.4c0.3,0.4,0.8,0.7,1.3,1.1c0.4,0.2,0.9,0.4,1.5,0.5s1.1,0.2,1.6,0.2v1.6H673.9z M659.5-999.9l-5.4-12.3
			l-5.3,12.3H659.5z"/>
		<path class="st1" d="M703.8-996.4L703-987h-27.9v-1.6c0.4,0,1-0.1,1.7-0.2c0.8-0.1,1.3-0.2,1.6-0.3c0.5-0.2,0.9-0.5,1.1-0.9
			c0.2-0.4,0.3-0.9,0.3-1.4v-22.7c0-0.5-0.1-1-0.3-1.3c-0.2-0.4-0.6-0.7-1.1-0.9c-0.4-0.2-0.9-0.4-1.6-0.5c-0.7-0.2-1.3-0.3-1.7-0.3
			v-1.6h15.1v1.6c-0.5,0-1.1,0.1-1.8,0.2c-0.7,0.1-1.3,0.3-1.6,0.4c-0.6,0.2-1,0.5-1.2,0.9s-0.3,0.9-0.3,1.4v21.3
			c0,1,0.1,1.7,0.2,2.3c0.1,0.5,0.4,1,0.8,1.3c0.4,0.3,1,0.4,1.7,0.5c0.8,0.1,1.8,0.1,3.2,0.1c0.6,0,1.3,0,1.9,0
			c0.7,0,1.3-0.1,1.9-0.2c0.6-0.1,1.1-0.2,1.6-0.4s0.9-0.4,1.1-0.6c0.7-0.7,1.5-1.7,2.4-3.1c0.9-1.4,1.5-2.5,1.9-3.4H703.8z"/>
		<path class="st1" d="M734.4-986.1c-2.1,0-4.2-0.4-6.1-1.1c-1.9-0.7-3.7-1.8-5.2-3.2s-2.7-3.1-3.6-5.1c-0.9-2-1.3-4.3-1.3-6.8
			s0.4-4.8,1.3-6.9c0.9-2.1,2.1-3.8,3.6-5.3s3.3-2.6,5.4-3.4c2.1-0.8,4.3-1.2,6.7-1.2c1.8,0,3.3,0.2,4.8,0.6
			c1.4,0.4,2.8,0.9,4.1,1.6l1-1.5h2l0.2,11.3h-2.1c-0.3-1.1-0.7-2.3-1.2-3.6s-1.2-2.4-1.9-3.3c-0.8-1-1.8-1.8-2.9-2.4
			c-1.1-0.6-2.4-0.9-3.8-0.9c-1.6,0-3.1,0.3-4.5,1s-2.6,1.6-3.6,2.8s-1.7,2.7-2.3,4.6c-0.6,1.9-0.8,3.9-0.8,6.2c0,2,0.3,3.9,0.9,5.6
			c0.6,1.7,1.4,3.2,2.5,4.5s2.3,2.3,3.8,3s3.1,1.1,4.9,1.1c1.4,0,2.6-0.2,3.7-0.6c1.1-0.4,2.1-0.9,3-1.5c0.8-0.7,1.6-1.4,2.2-2.2
			c0.6-0.8,1.2-1.7,1.6-2.7l1.9,0.8c-1.4,3.1-3.4,5.4-5.7,6.7C740.5-986.8,737.7-986.1,734.4-986.1z"/>
		<path class="st1" d="M780.6-1014.9c1.6,1.5,2.8,3.2,3.7,5.3s1.3,4.4,1.3,6.9s-0.5,4.8-1.4,6.9c-0.9,2.1-2.2,3.8-3.8,5.3
			c-1.6,1.4-3.4,2.5-5.4,3.3c-2.1,0.8-4.3,1.2-6.6,1.2c-2.5,0-4.8-0.4-6.9-1.2c-2.1-0.8-3.9-2-5.4-3.5c-1.5-1.4-2.7-3.2-3.6-5.3
			c-0.9-2.1-1.3-4.3-1.3-6.6c0-2.6,0.5-4.9,1.4-6.9s2.2-3.8,3.8-5.2c1.6-1.5,3.4-2.6,5.5-3.4c2.1-0.8,4.3-1.2,6.6-1.2
			c2.4,0,4.6,0.4,6.7,1.2S779.1-1016.3,780.6-1014.9z M776.8-992.4c0.9-1.4,1.6-2.9,2.1-4.6c0.4-1.7,0.6-3.6,0.6-5.8s-0.2-4.2-0.7-6
			s-1.2-3.4-2.1-4.7c-0.9-1.3-2.1-2.3-3.5-3s-3-1.1-4.8-1.1c-2,0-3.7,0.4-5.1,1.2c-1.4,0.8-2.6,1.9-3.4,3.3
			c-0.8,1.3-1.5,2.8-1.9,4.6s-0.6,3.6-0.6,5.5c0,2.1,0.2,4.1,0.7,5.8c0.4,1.7,1.1,3.3,2.1,4.6c0.9,1.3,2,2.3,3.4,3.1
			c1.4,0.7,3,1.1,4.9,1.1c1.8,0,3.4-0.4,4.9-1.1C774.8-990,775.9-991,776.8-992.4z"/>
		<path class="st1" d="M826.2-1017.1c-0.5,0-1.2,0.1-2.1,0.3c-0.9,0.2-1.6,0.4-2.2,0.7c-0.6,0.3-1,1.1-1.2,2.1
			c-0.2,1.1-0.3,2.4-0.3,3.9v13.8c0,1.8-0.4,3.3-1.2,4.6s-1.9,2.4-3.2,3.2s-2.7,1.4-4.2,1.7c-1.5,0.4-2.9,0.5-4.2,0.5
			c-2.1,0-4.1-0.3-5.7-0.7c-1.7-0.5-3.1-1.2-4.2-2c-1.1-0.9-2-1.8-2.5-2.9c-0.6-1.1-0.9-2.2-0.9-3.4v-18.8c0-0.5-0.1-1-0.3-1.3
			s-0.6-0.7-1.2-1c-0.4-0.2-1-0.4-1.6-0.5c-0.7-0.1-1.2-0.2-1.6-0.2v-1.6h14.9v1.6c-0.5,0-1.1,0.1-1.8,0.2c-0.7,0.1-1.2,0.2-1.6,0.3
			c-0.6,0.2-1,0.5-1.1,0.9c-0.2,0.4-0.3,0.9-0.3,1.4v17.5c0,0.9,0.1,1.7,0.3,2.7c0.2,0.9,0.6,1.8,1.2,2.6c0.7,0.8,1.5,1.5,2.7,2
			c1.1,0.5,2.7,0.8,4.6,0.8c1.8,0,3.4-0.3,4.6-0.8c1.3-0.5,2.2-1.2,3-2.1c0.7-0.8,1.2-1.6,1.5-2.5s0.4-1.8,0.4-2.7v-13
			c0-1.7-0.1-3-0.4-4.1c-0.3-1.1-0.7-1.7-1.2-2.1c-0.6-0.4-1.4-0.7-2.4-0.9s-1.8-0.3-2.3-0.4v-1.6h14.6L826.2-1017.1L826.2-1017.1z"
			/>
		<path class="st1" d="M863.8-986.9h-9.6c-2.1-3-4-5.5-5.8-7.7c-1.7-2.2-3.6-4.4-5.6-6.7h-3.7v10.1c0,0.5,0.1,1,0.3,1.4
			s0.6,0.7,1.2,0.9c0.3,0.1,0.8,0.2,1.6,0.3s1.4,0.1,1.9,0.2v1.6H829v-1.6c0.4,0,1-0.1,1.7-0.2c0.8-0.1,1.3-0.2,1.6-0.3
			c0.5-0.2,0.9-0.5,1.1-0.9c0.2-0.4,0.3-0.9,0.3-1.4v-23c0-0.5-0.1-1-0.3-1.4s-0.6-0.7-1.2-0.9c-0.4-0.1-1-0.3-1.6-0.4
			c-0.7-0.1-1.2-0.2-1.7-0.2v-1.6h16.5c1.5,0,2.9,0.1,4.3,0.4c1.3,0.3,2.5,0.7,3.6,1.3c1,0.6,1.9,1.4,2.5,2.3c0.6,1,0.9,2.1,0.9,3.5
			c0,1.2-0.2,2.3-0.6,3.2c-0.4,0.9-1,1.8-1.9,2.4c-0.8,0.6-1.7,1.2-2.7,1.7c-1.1,0.5-2.2,0.9-3.5,1.2c1.8,2.1,3.2,3.8,4.4,5.2
			s2.6,3.1,4.3,5.2c0.7,0.9,1.4,1.6,2,2s1.2,0.8,1.8,1c0.4,0.2,1,0.3,1.6,0.4c0.7,0.1,1.2,0.2,1.6,0.2v1.8H863.8z M850.6-1010.6
			c0-1.9-0.6-3.4-1.9-4.6c-1.2-1.1-3-1.7-5.3-1.7h-4.3v13.6h3.3c2.3,0,4.2-0.7,5.8-2C849.8-1006.5,850.6-1008.3,850.6-1010.6z"/>
		<path class="st1" d="M880.8-986.9h-16.1v-1.6c0.5,0,1.1-0.1,2-0.1s1.5-0.1,1.8-0.3c0.6-0.2,1-0.5,1.2-0.8s0.4-0.8,0.4-1.4v-23
			c0-0.5-0.1-1-0.3-1.3s-0.6-0.6-1.3-0.9c-0.5-0.2-1.1-0.3-1.9-0.5c-0.8-0.2-1.4-0.3-1.9-0.3v-1.6h16.1v1.6c-0.5,0-1.1,0.1-1.9,0.2
			c-0.7,0.1-1.3,0.2-1.9,0.4c-0.6,0.2-1.1,0.5-1.3,0.9s-0.3,0.9-0.3,1.3v23c0,0.5,0.1,0.9,0.4,1.3c0.2,0.4,0.7,0.7,1.2,0.9
			c0.3,0.1,0.9,0.3,1.7,0.4c0.8,0.1,1.5,0.2,2,0.2L880.8-986.9L880.8-986.9z"/>
		<path class="st1" d="M915.2-996.3l-0.7,9.4h-29.6v-1.6c0.5,0,1.2-0.1,2-0.2c0.8-0.1,1.4-0.2,1.6-0.3c0.5-0.2,0.9-0.5,1.1-0.9
			s0.3-0.8,0.3-1.4v-22.8c0-0.5-0.1-0.9-0.3-1.3s-0.6-0.7-1.2-0.9c-0.5-0.2-1.1-0.4-1.8-0.5c-0.8-0.1-1.4-0.2-1.8-0.3v-1.6h27.6v7.7
			h-1.9c-0.3-1.1-1.1-2.3-2.2-3.6c-1.1-1.3-2.2-2-3.2-2.1c-0.5-0.1-1.1-0.1-1.9-0.1c-0.7,0-1.5,0-2.5,0h-5.6v12.6h4
			c1.3,0,2.2-0.1,2.8-0.3s1.1-0.6,1.6-1.1c0.4-0.4,0.7-1,0.9-1.7c0.3-0.7,0.4-1.4,0.5-2h1.9v12.4h-1.9c-0.1-0.7-0.2-1.5-0.5-2.3
			s-0.6-1.4-0.9-1.7c-0.5-0.6-1.1-1-1.8-1.1s-1.5-0.3-2.6-0.3h-4v9.5c0,1,0.1,1.7,0.2,2.3c0.2,0.6,0.4,1,0.9,1.3
			c0.4,0.3,1,0.5,1.8,0.5c0.8,0.1,1.8,0.1,3.2,0.1c0.6,0,1.3,0,2.2,0s1.7,0,2.3-0.1s1.3-0.2,2-0.3c0.7-0.2,1.2-0.4,1.4-0.6
			c0.8-0.7,1.6-1.8,2.4-3.3c0.8-1.5,1.4-2.5,1.6-3.2h2.1V-996.3z"/>
		<path class="st1" d="M953.7-986.9H944c-2.1-3-4-5.5-5.8-7.7c-1.7-2.2-3.6-4.4-5.6-6.7H929v10.1c0,0.5,0.1,1,0.3,1.4
			s0.6,0.7,1.2,0.9c0.3,0.1,0.8,0.2,1.6,0.3s1.4,0.1,1.9,0.2v1.6h-15.1v-1.6c0.4,0,1-0.1,1.7-0.2c0.8-0.1,1.3-0.2,1.6-0.3
			c0.5-0.2,0.9-0.5,1.1-0.9c0.2-0.4,0.3-0.9,0.3-1.4v-23c0-0.5-0.1-1-0.3-1.4s-0.6-0.7-1.2-0.9c-0.4-0.1-1-0.3-1.6-0.4
			c-0.7-0.1-1.2-0.2-1.7-0.2v-1.6h16.5c1.5,0,2.9,0.1,4.3,0.4c1.3,0.3,2.5,0.7,3.6,1.3c1,0.6,1.9,1.4,2.5,2.3c0.6,1,0.9,2.1,0.9,3.5
			c0,1.2-0.2,2.3-0.6,3.2c-0.4,0.9-1,1.8-1.9,2.4c-0.8,0.6-1.7,1.2-2.7,1.7c-1.1,0.5-2.2,0.9-3.5,1.2c1.8,2.1,3.2,3.8,4.4,5.2
			s2.6,3.1,4.3,5.2c0.7,0.9,1.4,1.6,2,2s1.2,0.8,1.8,1c0.4,0.2,1,0.3,1.6,0.4c0.7,0.1,1.2,0.2,1.6,0.2v1.8H953.7z M940.4-1010.6
			c0-1.9-0.6-3.4-1.9-4.6c-1.2-1.1-3-1.7-5.3-1.7H929v13.6h3.3c2.3,0,4.2-0.7,5.8-2C939.7-1006.5,940.4-1008.3,940.4-1010.6z"/>
	</g>
</g>
<g>
	<g>
		<path class="st1" d="M796.4,61.2c-28.8,0-52.2,23.4-52.2,52.2s23.4,52.2,52.2,52.2c9.8,0,18.9-2.7,26.7-7.4v7.4h25.5v-54h-0.1
			C847.6,83.6,824.6,61.2,796.4,61.2z M796.4,140.1c-14.7,0-26.7-12-26.7-26.7s12-26.7,26.7-26.7s26.7,12,26.7,26.7
			S811.1,140.1,796.4,140.1z"/>
		<path class="st1" d="M906,61.2c-26.3,0-47.7,21.4-47.7,47.7v56.8h25.5v-56.8c0-12.2,9.9-22.2,22.2-22.2s22.2,9.9,22.2,22.2v56.8
			h25.5v-56.8C953.7,82.6,932.3,61.2,906,61.2z"/>
		<path class="st1" d="M321.9,61.2c-26.3,0-47.7,21.4-47.7,47.7v56.8h25.5v-56.8c0-12.2,9.9-22.2,22.2-22.2
			c12.2,0,22.2,9.9,22.2,22.2v56.8h25.5v-56.8C369.6,82.6,348.2,61.2,321.9,61.2z"/>
		<path class="st1" d="M457.8,68.6c-7.8-4.7-16.9-7.4-26.7-7.4c-28.8,0-52.2,23.4-52.2,52.2s23.4,52.2,52.2,52.2
			c27.8,0,50.6-21.9,52.1-49.3h0.1V6.2h-25.5V68.6z M431.1,140.1c-14.7,0-26.7-12-26.7-26.7s12-26.7,26.7-26.7s26.7,12,26.7,26.7
			S445.9,140.1,431.1,140.1z"/>
		<path class="st1" d="M239.2,61.2h25.5v104.5h-25.5L239.2,61.2L239.2,61.2z"/>
		<path class="st2" d="M264.7,36.1V54h-25.5L264.7,36.1z"/>
		<path class="st1" d="M200.9,7h25.3v158.6h-25.3V7z"/>
		<path class="st1" d="M571.7,113.4c0,14.7-12,26.7-26.7,26.7s-26.7-12-26.7-26.7V61.2h-25.5v52.2c0,28.8,23.4,52.2,52.2,52.2
			c9.8,0,18.9-2.7,26.7-7.4v7.4h25.5V61.2h-25.5V113.4z"/>
		<path class="st1" d="M638.7,99c-3.4,0-6.1-2.7-6.1-6.1s2.7-6.1,6.1-6.1c1.6,0,2.8,0.6,3.5,1.1s1.3,1.1,1.7,1.8L665.4,76
			c-2.3-3.6-5.2-6.6-8.7-9.1c-5.3-3.7-11.5-5.6-18-5.6c-17.4,0-31.6,14.2-31.6,31.6s14.2,31.6,31.6,31.6c4.3,0,7.8,3.5,7.8,7.8
			s-3.5,7.8-7.8,7.8c-3.4,0-6.3-2.2-7.4-5.4l-24.3,8c4.5,13.7,17.2,22.9,31.7,22.9c18.4,0,33.3-14.9,33.3-33.3S657.1,99,638.7,99z"
			/>
		<path class="st1" d="M721.8,140.1c-4.4,0-7.9-3.5-7.9-7.9V86.8h25V61.2h-25V27h-25.5v34.3h-13.1v25.5h13.1v45.4
			c0,18.4,15,33.4,33.4,33.4c6.7,0,13.2-2,18.7-5.7l-14.3-21.2C724.9,139.6,723.4,140.1,721.8,140.1z"/>
		<g>
			<polygon class="st1" points="128.7,17.9 128.7,73.7 190.2,73.7 			"/>
			<polygon class="st1" points="128.7,100.6 128.7,155.3 189.7,100.6 			"/>
			<polygon class="st1" points="100.7,165.6 100.7,7.4 8,7.4 90.2,86.5 8,165.6 			"/>
		</g>
	</g>
	<g>
		<path class="st1" d="M291.2,220.6h-16.1V219c0.5,0,1.1-0.1,2-0.1s1.5-0.1,1.8-0.3c0.6-0.2,1-0.5,1.2-0.8s0.4-0.8,0.4-1.4v-23
			c0-0.5-0.1-1-0.3-1.3c-0.2-0.3-0.6-0.6-1.3-0.9c-0.5-0.2-1.1-0.3-1.9-0.5s-1.4-0.3-1.9-0.3v-1.6h16.1v1.6c-0.5,0-1.1,0.1-1.9,0.2
			c-0.7,0.1-1.3,0.2-1.9,0.4s-1.1,0.5-1.3,0.9s-0.3,0.9-0.3,1.3v23c0,0.5,0.1,0.9,0.4,1.3c0.2,0.4,0.7,0.7,1.2,0.9
			c0.3,0.1,0.9,0.3,1.7,0.4c0.8,0.1,1.5,0.2,2,0.2L291.2,220.6L291.2,220.6z"/>
		<path class="st1" d="M332.3,190.4c-0.5,0-1.2,0.1-2.2,0.4c-1,0.2-1.7,0.5-2.1,0.7c-0.6,0.4-1,1.1-1.2,2.1c-0.2,1.1-0.3,2.4-0.3,4
			v23.3h-2.2l-21.6-26v16.4c0,1.8,0.1,3.2,0.4,4.2s0.7,1.7,1.2,2.1c0.4,0.3,1.2,0.6,2.4,0.9c1.2,0.3,2,0.4,2.4,0.4v1.6h-14.6V219
			c0.5,0,1.2-0.2,2.3-0.4c1.1-0.3,1.7-0.5,2-0.7c0.6-0.4,1-1.1,1.2-1.9s0.3-2.3,0.3-4.4V196c0-0.7-0.1-1.4-0.4-2.1
			c-0.3-0.7-0.6-1.2-1.1-1.6c-0.6-0.5-1.4-0.9-2.5-1.3c-1-0.4-1.9-0.5-2.5-0.6v-1.6H304l20,24.2v-15.1c0-1.9-0.1-3.3-0.4-4.3
			s-0.7-1.7-1.2-2s-1.2-0.6-2.3-0.8c-1.1-0.3-1.9-0.4-2.4-0.4v-1.6h14.5L332.3,190.4L332.3,190.4z"/>
		<path class="st1" d="M364.2,197.4h-1.7c-0.2-0.5-0.4-1.2-0.8-1.9s-0.8-1.4-1.3-2.1c-0.5-0.7-1.1-1.3-1.7-1.8s-1.2-0.8-1.7-0.9
			c-0.5-0.1-1.2-0.1-2-0.1s-1.5,0-2.2,0h-1.5V216c0,0.5,0.1,0.9,0.4,1.4c0.2,0.4,0.6,0.7,1.2,0.9c0.3,0.1,0.9,0.2,1.9,0.4
			s1.7,0.3,2.3,0.3v1.6h-16.8V219c0.5,0,1.2-0.1,2.1-0.2s1.6-0.2,2-0.3c0.6-0.2,1-0.5,1.2-0.8s0.4-0.9,0.4-1.5v-25.6h-1.5
			c-0.5,0-1.2,0-1.9,0c-0.8,0-1.5,0.1-2.2,0.1c-0.6,0.1-1.1,0.4-1.7,0.9s-1.1,1.1-1.7,1.8c-0.5,0.7-0.9,1.4-1.3,2.1
			c-0.4,0.8-0.7,1.4-0.8,1.9h-1.8v-8.6h31.1V197.4z"/>
		<path class="st1" d="M397,211.2l-0.7,9.4h-29.6V219c0.5,0,1.2-0.1,2-0.2c0.8-0.1,1.4-0.2,1.6-0.3c0.5-0.2,0.9-0.5,1.1-0.9
			s0.3-0.8,0.3-1.4v-22.8c0-0.5-0.1-0.9-0.3-1.3c-0.2-0.4-0.6-0.7-1.2-0.9c-0.5-0.2-1.1-0.4-1.8-0.5c-0.8-0.1-1.4-0.2-1.8-0.3v-1.6
			h27.6v7.7h-1.9c-0.3-1.1-1.1-2.3-2.2-3.6s-2.2-2-3.2-2.1c-0.5-0.1-1.1-0.1-1.9-0.1c-0.7,0-1.5,0-2.5,0h-5.6v12.6h4
			c1.3,0,2.2-0.1,2.8-0.3c0.6-0.2,1.1-0.6,1.6-1.1c0.4-0.4,0.7-1,0.9-1.7c0.3-0.7,0.4-1.4,0.5-2h1.9v12.4H387
			c-0.1-0.7-0.2-1.5-0.5-2.3s-0.6-1.4-0.9-1.7c-0.5-0.6-1.1-1-1.8-1.1c-0.7-0.2-1.5-0.3-2.6-0.3h-4v9.5c0,1,0.1,1.7,0.2,2.3
			c0.2,0.6,0.4,1,0.9,1.3c0.4,0.3,1,0.5,1.8,0.5c0.8,0.1,1.8,0.1,3.2,0.1c0.6,0,1.3,0,2.2,0c0.9,0,1.7,0,2.3-0.1
			c0.6-0.1,1.3-0.2,2-0.3c0.7-0.2,1.2-0.4,1.4-0.6c0.8-0.7,1.6-1.8,2.4-3.3s1.4-2.5,1.6-3.2h1.8V211.2z"/>
		<path class="st1" d="M435.4,220.6h-9.6c-2.1-3-4-5.5-5.8-7.7c-1.7-2.2-3.6-4.4-5.6-6.7h-3.7v10.1c0,0.5,0.1,1,0.3,1.4
			c0.2,0.4,0.6,0.7,1.2,0.9c0.3,0.1,0.8,0.2,1.6,0.3c0.8,0.1,1.4,0.1,1.9,0.2v1.6h-15.1V219c0.4,0,1-0.1,1.7-0.2
			c0.8-0.1,1.3-0.2,1.6-0.3c0.5-0.2,0.9-0.5,1.1-0.9s0.3-0.9,0.3-1.4v-23c0-0.5-0.1-1-0.3-1.4s-0.6-0.7-1.2-0.9
			c-0.4-0.1-1-0.3-1.6-0.4c-0.7-0.1-1.2-0.2-1.7-0.2v-1.6H417c1.5,0,2.9,0.1,4.3,0.4c1.3,0.3,2.5,0.7,3.6,1.3c1,0.6,1.9,1.4,2.5,2.3
			c0.6,1,0.9,2.1,0.9,3.5c0,1.2-0.2,2.3-0.6,3.2s-1,1.8-1.9,2.4c-0.8,0.6-1.7,1.2-2.7,1.7c-1.1,0.5-2.2,0.9-3.5,1.2
			c1.8,2.1,3.2,3.8,4.4,5.2c1.2,1.4,2.6,3.1,4.3,5.2c0.7,0.9,1.4,1.6,2,2s1.2,0.8,1.8,1c0.4,0.2,1,0.3,1.6,0.4s1.2,0.2,1.6,0.2v1.9
			H435.4z M422.2,196.9c0-1.9-0.6-3.4-1.9-4.6c-1.2-1.1-3-1.7-5.3-1.7h-4.3v13.6h3.3c2.3,0,4.2-0.7,5.8-2
			C421.4,201,422.2,199.2,422.2,196.9z"/>
		<path class="st1" d="M473.4,190.4c-0.5,0-1.2,0.1-2.2,0.4c-1,0.2-1.7,0.5-2.1,0.7c-0.6,0.4-1,1.1-1.2,2.1c-0.2,1.1-0.3,2.4-0.3,4
			v23.3h-2.2l-21.6-26v16.4c0,1.8,0.1,3.2,0.4,4.2s0.7,1.7,1.2,2.1c0.4,0.3,1.2,0.6,2.4,0.9c1.2,0.3,2,0.4,2.4,0.4v1.6h-14.6V219
			c0.5,0,1.2-0.2,2.3-0.4c1.1-0.3,1.7-0.5,2-0.7c0.6-0.4,1-1.1,1.2-1.9s0.3-2.3,0.3-4.4V196c0-0.7-0.1-1.4-0.4-2.1
			c-0.3-0.7-0.6-1.2-1.1-1.6c-0.6-0.5-1.4-0.9-2.5-1.3c-1-0.4-1.9-0.5-2.5-0.6v-1.6h10.2l20.1,24.2v-15.1c0-1.9-0.1-3.3-0.4-4.3
			s-0.7-1.7-1.2-2s-1.2-0.6-2.3-0.8c-1.1-0.3-1.9-0.4-2.4-0.4v-1.6h14.5L473.4,190.4L473.4,190.4z"/>
		<path class="st1" d="M509.6,220.6h-14.8V219c1.3-0.1,2.4-0.2,3.3-0.4s1.3-0.5,1.3-0.8c0-0.1,0-0.3-0.1-0.5c0-0.2-0.1-0.4-0.1-0.5
			l-3-7.1h-12.5c-0.5,1-0.9,2-1.1,2.7c-0.3,0.8-0.6,1.5-0.8,2.1c-0.2,0.6-0.4,1.2-0.5,1.6c-0.1,0.4-0.1,0.7-0.1,1
			c0,0.6,0.5,1.1,1.6,1.4c1.1,0.3,2.2,0.5,3.6,0.6v1.6H473V219c0.4,0,1-0.1,1.6-0.3c0.7-0.1,1.2-0.3,1.6-0.6
			c0.7-0.4,1.2-0.8,1.6-1.3c0.4-0.4,0.7-1,1.1-1.8c1.8-4,3.8-8.5,5.9-13.4c2.2-5,4.1-9.4,5.8-13.3h2l11.9,27.4
			c0.2,0.6,0.5,1.1,0.9,1.4c0.3,0.4,0.8,0.7,1.3,1.1c0.4,0.2,0.9,0.4,1.5,0.5s1.1,0.2,1.6,0.2v1.7H509.6z M495.2,207.6l-5.4-12.3
			l-5.3,12.3H495.2z"/>
		<path class="st1" d="M539.9,197.4h-1.7c-0.2-0.5-0.4-1.2-0.8-1.9c-0.4-0.7-0.8-1.4-1.3-2.1c-0.5-0.7-1.1-1.3-1.7-1.8
			c-0.6-0.5-1.2-0.8-1.7-0.9c-0.5-0.1-1.2-0.1-2-0.1s-1.5,0-2.2,0H527V216c0,0.5,0.1,0.9,0.4,1.4c0.2,0.4,0.6,0.7,1.2,0.9
			c0.3,0.1,0.9,0.2,1.9,0.4s1.7,0.3,2.3,0.3v1.6H516V219c0.5,0,1.2-0.1,2.1-0.2c1-0.1,1.6-0.2,2-0.3c0.6-0.2,1-0.5,1.2-0.8
			s0.4-0.9,0.4-1.5v-25.6h-1.5c-0.5,0-1.2,0-1.9,0c-0.8,0-1.5,0.1-2.2,0.1c-0.6,0.1-1.1,0.4-1.7,0.9c-0.6,0.5-1.1,1.1-1.7,1.8
			c-0.5,0.7-0.9,1.4-1.3,2.1c-0.4,0.8-0.7,1.4-0.8,1.9h-1.8v-8.6h31.1V197.4z"/>
		<path class="st1" d="M558.3,220.6h-16.1V219c0.5,0,1.1-0.1,2-0.1s1.5-0.1,1.8-0.3c0.6-0.2,1-0.5,1.2-0.8s0.4-0.8,0.4-1.4v-23
			c0-0.5-0.1-1-0.3-1.3s-0.6-0.6-1.3-0.9c-0.5-0.2-1.1-0.3-1.9-0.5c-0.8-0.2-1.4-0.3-1.9-0.3v-1.6h16.1v1.6c-0.5,0-1.1,0.1-1.9,0.2
			c-0.7,0.1-1.3,0.2-1.9,0.4c-0.6,0.2-1.1,0.5-1.3,0.9s-0.3,0.9-0.3,1.3v23c0,0.5,0.1,0.9,0.4,1.3c0.2,0.4,0.7,0.7,1.2,0.9
			c0.3,0.1,0.9,0.3,1.7,0.4c0.8,0.1,1.5,0.2,2,0.2L558.3,220.6L558.3,220.6z"/>
		<path class="st1" d="M591.6,192.6c1.6,1.5,2.8,3.2,3.7,5.3s1.3,4.4,1.3,6.9s-0.5,4.8-1.4,6.9c-0.9,2.1-2.2,3.8-3.8,5.3
			c-1.6,1.4-3.4,2.5-5.4,3.3s-4.3,1.2-6.6,1.2c-2.5,0-4.8-0.4-6.9-1.2c-2.1-0.8-3.9-2-5.4-3.5c-1.5-1.4-2.7-3.2-3.6-5.3
			s-1.3-4.3-1.3-6.6c0-2.6,0.5-4.9,1.4-6.9s2.2-3.8,3.8-5.2c1.6-1.5,3.4-2.6,5.5-3.4c2.1-0.8,4.3-1.2,6.6-1.2c2.4,0,4.6,0.4,6.7,1.2
			C588.3,190,590.1,191.1,591.6,192.6z M587.9,215.1c0.9-1.4,1.6-2.9,2.1-4.6c0.4-1.7,0.6-3.6,0.6-5.8s-0.2-4.2-0.7-6
			s-1.2-3.4-2.1-4.7c-0.9-1.3-2.1-2.3-3.5-3s-3-1.1-4.8-1.1c-2,0-3.7,0.4-5.1,1.2c-1.4,0.8-2.6,1.9-3.4,3.3
			c-0.8,1.3-1.5,2.9-1.9,4.6c-0.4,1.8-0.6,3.6-0.6,5.5c0,2.1,0.2,4.1,0.7,5.8c0.4,1.7,1.1,3.3,2.1,4.6c0.9,1.3,2,2.3,3.4,3.1
			c1.4,0.7,3,1.1,4.9,1.1c1.8,0,3.4-0.4,4.9-1.1C585.8,217.5,587,216.4,587.9,215.1z"/>
		<path class="st1" d="M637.7,190.4c-0.5,0-1.2,0.1-2.2,0.4c-1,0.2-1.7,0.5-2.1,0.7c-0.6,0.4-1,1.1-1.2,2.1c-0.2,1.1-0.3,2.4-0.3,4
			v23.3h-2.2l-21.6-26v16.4c0,1.8,0.1,3.2,0.4,4.2c0.3,1,0.7,1.7,1.2,2.1c0.4,0.3,1.2,0.6,2.4,0.9c1.2,0.3,2,0.4,2.4,0.4v1.6h-14.6
			V219c0.5,0,1.2-0.2,2.3-0.4c1.1-0.3,1.7-0.5,2-0.7c0.6-0.4,1-1.1,1.2-1.9s0.3-2.3,0.3-4.4V196c0-0.7-0.1-1.4-0.4-2.1
			c-0.3-0.7-0.6-1.2-1.1-1.6c-0.6-0.5-1.4-0.9-2.5-1.3c-1-0.4-1.9-0.5-2.5-0.6v-1.6h10.2l20.1,24.2v-15.1c0-1.9-0.1-3.3-0.4-4.3
			c-0.3-1-0.7-1.7-1.2-2s-1.2-0.6-2.3-0.8c-1.1-0.3-1.9-0.4-2.4-0.4v-1.6h14.5L637.7,190.4L637.7,190.4z"/>
		<path class="st1" d="M673.9,220.6h-14.8V219c1.3-0.1,2.4-0.2,3.3-0.4c0.9-0.2,1.3-0.5,1.3-0.8c0-0.1,0-0.3-0.1-0.5
			s-0.1-0.4-0.1-0.5l-3-7.1H648c-0.5,1-0.9,2-1.1,2.7c-0.3,0.8-0.6,1.5-0.8,2.1s-0.4,1.2-0.5,1.6c-0.1,0.4-0.1,0.7-0.1,1
			c0,0.6,0.5,1.1,1.6,1.4c1.1,0.3,2.2,0.5,3.6,0.6v1.6h-13.4V219c0.4,0,1-0.1,1.6-0.3c0.7-0.1,1.2-0.3,1.6-0.6
			c0.7-0.4,1.2-0.8,1.6-1.3c0.4-0.4,0.7-1,1.1-1.8c1.8-4,3.8-8.5,5.9-13.4c2.2-5,4.1-9.4,5.8-13.3h2l11.9,27.4
			c0.2,0.6,0.5,1.1,0.9,1.4c0.3,0.4,0.8,0.7,1.3,1.1c0.4,0.2,0.9,0.4,1.5,0.5s1.1,0.2,1.6,0.2v1.7H673.9z M659.5,207.6l-5.4-12.3
			l-5.3,12.3H659.5z"/>
		<path class="st1" d="M703.8,211.1l-0.8,9.4h-27.9V219c0.4,0,1-0.1,1.7-0.2c0.8-0.1,1.3-0.2,1.6-0.3c0.5-0.2,0.9-0.5,1.1-0.9
			c0.2-0.4,0.3-0.9,0.3-1.4v-22.7c0-0.5-0.1-1-0.3-1.3c-0.2-0.4-0.6-0.7-1.1-0.9c-0.4-0.2-0.9-0.4-1.6-0.5c-0.7-0.2-1.3-0.3-1.7-0.3
			v-1.6h15.1v1.6c-0.5,0-1.1,0.1-1.8,0.2c-0.7,0.1-1.3,0.3-1.6,0.4c-0.6,0.2-1,0.5-1.2,0.9s-0.3,0.9-0.3,1.4v21.3
			c0,1,0.1,1.7,0.2,2.3c0.1,0.5,0.4,1,0.8,1.3c0.4,0.3,1,0.4,1.7,0.5c0.8,0.1,1.8,0.1,3.2,0.1c0.6,0,1.3,0,1.9,0
			c0.7,0,1.3-0.1,1.9-0.2c0.6-0.1,1.1-0.2,1.6-0.4s0.9-0.4,1.1-0.6c0.7-0.7,1.5-1.7,2.4-3.1c0.9-1.4,1.5-2.5,1.9-3.4h1.8V211.1z"/>
		<path class="st1" d="M734.4,221.3c-2.1,0-4.2-0.4-6.1-1.1c-1.9-0.7-3.7-1.8-5.2-3.2s-2.7-3.1-3.6-5.1c-0.9-2-1.3-4.3-1.3-6.8
			s0.4-4.8,1.3-6.9c0.9-2.1,2.1-3.8,3.6-5.3s3.3-2.6,5.4-3.4c2.1-0.8,4.3-1.2,6.7-1.2c1.8,0,3.3,0.2,4.8,0.6
			c1.4,0.4,2.8,0.9,4.1,1.6l1-1.5h2l0.2,11.3h-2.1c-0.3-1.1-0.7-2.3-1.2-3.6s-1.2-2.4-1.9-3.3c-0.8-1-1.8-1.8-2.9-2.4
			c-1.1-0.6-2.4-0.9-3.8-0.9c-1.6,0-3.1,0.3-4.5,1c-1.4,0.6-2.6,1.6-3.6,2.8s-1.7,2.7-2.3,4.6c-0.6,1.9-0.8,3.9-0.8,6.2
			c0,2,0.3,3.9,0.9,5.6c0.6,1.7,1.4,3.2,2.5,4.5s2.3,2.3,3.8,3s3.1,1.1,4.9,1.1c1.4,0,2.6-0.2,3.7-0.6c1.1-0.4,2.1-0.9,3-1.5
			c0.8-0.7,1.6-1.4,2.2-2.2c0.6-0.8,1.2-1.7,1.6-2.7l1.9,0.8c-1.4,3.1-3.4,5.4-5.7,6.7C740.5,220.7,737.7,221.3,734.4,221.3z"/>
		<path class="st1" d="M780.6,192.6c1.6,1.5,2.8,3.2,3.7,5.3s1.3,4.4,1.3,6.9s-0.5,4.8-1.4,6.9c-0.9,2.1-2.2,3.8-3.8,5.3
			c-1.6,1.4-3.4,2.5-5.4,3.3s-4.3,1.2-6.6,1.2c-2.5,0-4.8-0.4-6.9-1.2c-2.1-0.8-3.9-2-5.4-3.5c-1.5-1.4-2.7-3.2-3.6-5.3
			s-1.3-4.3-1.3-6.6c0-2.6,0.5-4.9,1.4-6.9s2.2-3.8,3.8-5.2c1.6-1.5,3.4-2.6,5.5-3.4c2.1-0.8,4.3-1.2,6.6-1.2c2.4,0,4.6,0.4,6.7,1.2
			C777.2,190,779.1,191.1,780.6,192.6z M776.8,215.1c0.9-1.4,1.6-2.9,2.1-4.6c0.4-1.7,0.6-3.6,0.6-5.8s-0.2-4.2-0.7-6
			s-1.2-3.4-2.1-4.7c-0.9-1.3-2.1-2.3-3.5-3s-3-1.1-4.8-1.1c-2,0-3.7,0.4-5.1,1.2c-1.4,0.8-2.6,1.9-3.4,3.3
			c-0.8,1.3-1.5,2.9-1.9,4.6c-0.4,1.8-0.6,3.6-0.6,5.5c0,2.1,0.2,4.1,0.7,5.8c0.4,1.7,1.1,3.3,2.1,4.6c0.9,1.3,2,2.3,3.4,3.1
			c1.4,0.7,3,1.1,4.9,1.1c1.8,0,3.4-0.4,4.9-1.1C774.8,217.5,775.9,216.4,776.8,215.1z"/>
		<path class="st1" d="M826.2,190.4c-0.5,0-1.2,0.1-2.1,0.3c-0.9,0.2-1.6,0.4-2.2,0.7c-0.6,0.3-1,1.1-1.2,2.1
			c-0.2,1.1-0.3,2.4-0.3,3.9v13.8c0,1.8-0.4,3.3-1.2,4.6s-1.9,2.4-3.2,3.2s-2.7,1.4-4.2,1.7c-1.5,0.4-2.9,0.5-4.2,0.5
			c-2.1,0-4.1-0.3-5.7-0.7c-1.7-0.5-3.1-1.2-4.2-2c-1.1-0.9-2-1.8-2.5-2.9c-0.6-1.1-0.9-2.2-0.9-3.4v-18.8c0-0.5-0.1-1-0.3-1.3
			s-0.6-0.7-1.2-1c-0.4-0.2-1-0.4-1.6-0.5c-0.7-0.1-1.2-0.2-1.6-0.2v-1.6h14.9v1.6c-0.5,0-1.1,0.1-1.8,0.2c-0.7,0.1-1.2,0.2-1.6,0.3
			c-0.6,0.2-1,0.5-1.1,0.9c-0.2,0.4-0.3,0.9-0.3,1.4v17.5c0,0.9,0.1,1.7,0.3,2.7c0.2,0.9,0.6,1.8,1.2,2.6c0.7,0.8,1.5,1.5,2.7,2
			c1.1,0.5,2.7,0.8,4.6,0.8c1.8,0,3.4-0.3,4.6-0.8c1.3-0.5,2.2-1.2,3-2.1c0.7-0.8,1.2-1.6,1.5-2.5s0.4-1.8,0.4-2.7v-13
			c0-1.7-0.1-3-0.4-4.1c-0.3-1.1-0.7-1.7-1.2-2.1c-0.6-0.4-1.4-0.7-2.4-0.9s-1.8-0.3-2.3-0.4v-1.6h14.6L826.2,190.4L826.2,190.4z"/>
		<path class="st1" d="M863.8,220.6h-9.6c-2.1-3-4-5.5-5.8-7.7c-1.7-2.2-3.6-4.4-5.6-6.7h-3.7v10.1c0,0.5,0.1,1,0.3,1.4
			s0.6,0.7,1.2,0.9c0.3,0.1,0.8,0.2,1.6,0.3s1.4,0.1,1.9,0.2v1.6H829V219c0.4,0,1-0.1,1.7-0.2c0.8-0.1,1.3-0.2,1.6-0.3
			c0.5-0.2,0.9-0.5,1.1-0.9c0.2-0.4,0.3-0.9,0.3-1.4v-23c0-0.5-0.1-1-0.3-1.4s-0.6-0.7-1.2-0.9c-0.4-0.1-1-0.3-1.6-0.4
			c-0.7-0.1-1.2-0.2-1.7-0.2v-1.6h16.5c1.5,0,2.9,0.1,4.3,0.4c1.3,0.3,2.5,0.7,3.6,1.3c1,0.6,1.9,1.4,2.5,2.3c0.6,1,0.9,2.1,0.9,3.5
			c0,1.2-0.2,2.3-0.6,3.2c-0.4,0.9-1,1.8-1.9,2.4c-0.8,0.6-1.7,1.2-2.7,1.7c-1.1,0.5-2.2,0.9-3.5,1.2c1.8,2.1,3.2,3.8,4.4,5.2
			s2.6,3.1,4.3,5.2c0.7,0.9,1.4,1.6,2,2s1.2,0.8,1.8,1c0.4,0.2,1,0.3,1.6,0.4c0.7,0.1,1.2,0.2,1.6,0.2v1.9H863.8z M850.6,196.9
			c0-1.9-0.6-3.4-1.9-4.6c-1.2-1.1-3-1.7-5.3-1.7h-4.3v13.6h3.3c2.3,0,4.2-0.7,5.8-2C849.8,201,850.6,199.2,850.6,196.9z"/>
		<path class="st1" d="M880.8,220.6h-16.1V219c0.5,0,1.1-0.1,2-0.1s1.5-0.1,1.8-0.3c0.6-0.2,1-0.5,1.2-0.8s0.4-0.8,0.4-1.4v-23
			c0-0.5-0.1-1-0.3-1.3s-0.6-0.6-1.3-0.9c-0.5-0.2-1.1-0.3-1.9-0.5c-0.8-0.2-1.4-0.3-1.9-0.3v-1.6h16.1v1.6c-0.5,0-1.1,0.1-1.9,0.2
			c-0.7,0.1-1.3,0.2-1.9,0.4c-0.6,0.2-1.1,0.5-1.3,0.9s-0.3,0.9-0.3,1.3v23c0,0.5,0.1,0.9,0.4,1.3c0.2,0.4,0.7,0.7,1.2,0.9
			c0.3,0.1,0.9,0.3,1.7,0.4c0.8,0.1,1.5,0.2,2,0.2L880.8,220.6L880.8,220.6z"/>
		<path class="st1" d="M915.2,211.2l-0.7,9.4h-29.6V219c0.5,0,1.2-0.1,2-0.2c0.8-0.1,1.4-0.2,1.6-0.3c0.5-0.2,0.9-0.5,1.1-0.9
			c0.2-0.4,0.3-0.8,0.3-1.4v-22.8c0-0.5-0.1-0.9-0.3-1.3c-0.2-0.4-0.6-0.7-1.2-0.9c-0.5-0.2-1.1-0.4-1.8-0.5
			c-0.8-0.1-1.4-0.2-1.8-0.3v-1.6h27.6v7.7h-1.9c-0.3-1.1-1.1-2.3-2.2-3.6c-1.1-1.3-2.2-2-3.2-2.1c-0.5-0.1-1.1-0.1-1.9-0.1
			c-0.7,0-1.5,0-2.5,0h-5.6v12.6h4c1.3,0,2.2-0.1,2.8-0.3s1.1-0.6,1.6-1.1c0.4-0.4,0.7-1,0.9-1.7c0.3-0.7,0.4-1.4,0.5-2h1.9v12.4
			h-1.9c-0.1-0.7-0.2-1.5-0.5-2.3s-0.6-1.4-0.9-1.7c-0.5-0.6-1.1-1-1.8-1.1s-1.5-0.3-2.6-0.3h-4v9.5c0,1,0.1,1.7,0.2,2.3
			c0.2,0.6,0.4,1,0.9,1.3c0.4,0.3,1,0.5,1.8,0.5c0.8,0.1,1.8,0.1,3.2,0.1c0.6,0,1.3,0,2.2,0s1.7,0,2.3-0.1s1.3-0.2,2-0.3
			c0.7-0.2,1.2-0.4,1.4-0.6c0.8-0.7,1.6-1.8,2.4-3.3c0.8-1.5,1.4-2.5,1.6-3.2h2.1V211.2z"/>
		<path class="st1" d="M953.7,220.6H944c-2.1-3-4-5.5-5.8-7.7c-1.7-2.2-3.6-4.4-5.6-6.7H929v10.1c0,0.5,0.1,1,0.3,1.4
			s0.6,0.7,1.2,0.9c0.3,0.1,0.8,0.2,1.6,0.3s1.4,0.1,1.9,0.2v1.6h-15.1V219c0.4,0,1-0.1,1.7-0.2c0.8-0.1,1.3-0.2,1.6-0.3
			c0.5-0.2,0.9-0.5,1.1-0.9c0.2-0.4,0.3-0.9,0.3-1.4v-23c0-0.5-0.1-1-0.3-1.4s-0.6-0.7-1.2-0.9c-0.4-0.1-1-0.3-1.6-0.4
			c-0.7-0.1-1.2-0.2-1.7-0.2v-1.6h16.5c1.5,0,2.9,0.1,4.3,0.4c1.3,0.3,2.5,0.7,3.6,1.3c1,0.6,1.9,1.4,2.5,2.3c0.6,1,0.9,2.1,0.9,3.5
			c0,1.2-0.2,2.3-0.6,3.2c-0.4,0.9-1,1.8-1.9,2.4c-0.8,0.6-1.7,1.2-2.7,1.7c-1.1,0.5-2.2,0.9-3.5,1.2c1.8,2.1,3.2,3.8,4.4,5.2
			s2.6,3.1,4.3,5.2c0.7,0.9,1.4,1.6,2,2s1.2,0.8,1.8,1c0.4,0.2,1,0.3,1.6,0.4s1.2,0.2,1.6,0.2v1.9H953.7z M940.4,196.9
			c0-1.9-0.6-3.4-1.9-4.6c-1.2-1.1-3-1.7-5.3-1.7H929v13.6h3.3c2.3,0,4.2-0.7,5.8-2C939.7,201,940.4,199.2,940.4,196.9z"/>
	</g>
</g>
<g>
	<g>
		<path class="st1" d="M1432.4-1199.9h25.3v158.6h-25.3V-1199.9z"/>
		<g>
			<polygon class="st1" points="1360.2,-1189.1 1360.2,-1133.3 1421.7,-1133.3 			"/>
			<polygon class="st1" points="1360.2,-1106.4 1360.2,-1051.7 1421.2,-1106.4 			"/>
			<polygon class="st1" points="1332.3,-1041.3 1332.3,-1199.6 1239.5,-1199.6 1321.7,-1120.5 1239.5,-1041.3 			"/>
		</g>
	</g>
</g>
<g>
	<g>
		<path class="st0" d="M1726.6-1199.9h25.3v158.6h-25.3V-1199.9z"/>
		<g>
			<polygon class="st0" points="1654.4,-1189.1 1654.4,-1133.3 1715.8,-1133.3 			"/>
			<polygon class="st0" points="1654.4,-1106.4 1654.4,-1051.7 1715.4,-1106.4 			"/>
			<polygon class="st0" points="1626.4,-1041.3 1626.4,-1199.6 1533.7,-1199.6 1615.8,-1120.5 1533.7,-1041.3 			"/>
		</g>
	</g>
</g>
<rect y="-1561.1" class="st1" width="1024" height="250"/>
<g>
	<g>
		<path class="st1" d="M827.4-1481c-28.8,0-52.2,23.4-52.2,52.2c0,28.8,23.4,52.2,52.2,52.2c9.8,0,18.9-2.7,26.7-7.4v7.4h25.5v-54
			h-0.1C878.6-1458.5,855.6-1481,827.4-1481z M827.4-1402c-14.7,0-26.7-12-26.7-26.7s12-26.7,26.7-26.7s26.7,12,26.7,26.7
			C854.1-1414,842.1-1402,827.4-1402z"/>
		<path class="st1" d="M937-1481c-26.3,0-47.7,21.4-47.7,47.7v56.8h25.5v-56.8c0-12.2,9.9-22.2,22.2-22.2s22.2,9.9,22.2,22.2v56.8
			h25.5v-56.8C984.7-1459.6,963.3-1481,937-1481z"/>
		<path class="st1" d="M352.9-1481c-26.3,0-47.7,21.4-47.7,47.7v56.8h25.5v-56.8c0-12.2,9.9-22.2,22.2-22.2
			c12.2,0,22.2,9.9,22.2,22.2v56.8h25.5v-56.8C400.6-1459.6,379.2-1481,352.9-1481z"/>
		<path class="st1" d="M488.8-1473.5c-7.8-4.7-16.9-7.4-26.7-7.4c-28.8,0-52.2,23.4-52.2,52.2c0,28.8,23.4,52.2,52.2,52.2
			c27.8,0,50.6-21.9,52.1-49.3h0.1v-110.1h-25.5L488.8-1473.5L488.8-1473.5z M462.1-1402c-14.7,0-26.7-12-26.7-26.7
			s12-26.7,26.7-26.7s26.7,12,26.7,26.7C488.8-1414,476.9-1402,462.1-1402z"/>
		<path class="st1" d="M270.2-1481h25.5v104.5h-25.5V-1481z"/>
		<path class="st1" d="M295.7-1506v17.9h-25.5L295.7-1506z"/>
		<path class="st1" d="M231.9-1535.1h25.3v158.6h-25.3L231.9-1535.1L231.9-1535.1z"/>
		<path class="st1" d="M602.7-1428.7c0,14.7-12,26.7-26.7,26.7s-26.7-12-26.7-26.7v-52.2h-25.5v52.2c0,28.8,23.4,52.2,52.2,52.2
			c9.8,0,18.9-2.7,26.7-7.4v7.4h25.5V-1481h-25.5V-1428.7z"/>
		<path class="st1" d="M669.7-1443.1c-3.4,0-6.1-2.7-6.1-6.1s2.7-6.1,6.1-6.1c1.6,0,2.8,0.6,3.5,1.1s1.3,1.1,1.7,1.8l21.5-13.7
			c-2.3-3.6-5.2-6.6-8.7-9.1c-5.3-3.7-11.5-5.6-18-5.6c-17.4,0-31.6,14.2-31.6,31.6s14.2,31.6,31.6,31.6c4.3,0,7.8,3.5,7.8,7.8
			s-3.5,7.8-7.8,7.8c-3.4,0-6.3-2.2-7.4-5.4l-24.3,8c4.5,13.7,17.2,22.9,31.7,22.9c18.4,0,33.3-14.9,33.3-33.3
			C703-1428.2,688.1-1443.1,669.7-1443.1z"/>
		<path class="st1" d="M752.8-1402c-4.4,0-7.9-3.5-7.9-7.9v-45.4h25v-25.5h-25v-34.3h-25.5v34.3h-13.1v25.5h13.1v45.4
			c0,18.4,15,33.4,33.4,33.4c6.7,0,13.2-2,18.7-5.7l-14.3-21.2C755.9-1402.5,754.4-1402,752.8-1402z"/>
		<g>
			<polygon class="st1" points="159.7,-1524.2 159.7,-1468.4 221.2,-1468.4 			"/>
			<polygon class="st1" points="159.7,-1441.5 159.7,-1386.8 220.7,-1441.5 			"/>
			<polygon class="st1" points="131.7,-1376.5 131.7,-1534.8 39,-1534.8 121.2,-1455.6 39,-1376.5 			"/>
		</g>
	</g>
	<g>
		<g>
			<path class="st1" d="M535.8-1332h-10.9v-1.1c0.3,0,0.7-0.1,1.3-0.1s1-0.1,1.2-0.2c0.4-0.1,0.6-0.3,0.8-0.5s0.3-0.5,0.3-0.9v-15.6
				c0-0.4-0.1-0.6-0.2-0.9c-0.1-0.2-0.4-0.4-0.9-0.6c-0.3-0.1-0.8-0.2-1.3-0.3c-0.5-0.1-0.9-0.2-1.3-0.2v-1.1h10.9v1.1
				c-0.4,0-0.8,0-1.3,0.1s-0.9,0.1-1.3,0.3c-0.4,0.1-0.7,0.3-0.9,0.6c-0.1,0.3-0.2,0.6-0.2,0.9v15.6c0,0.3,0.1,0.6,0.2,0.9
				c0.2,0.3,0.4,0.5,0.8,0.6c0.2,0.1,0.6,0.2,1.2,0.3c0.5,0.1,1,0.2,1.4,0.2v0.9H535.8z"/>
			<path class="st1" d="M563.6-1352.5c-0.3,0-0.8,0.1-1.5,0.2c-0.7,0.2-1.1,0.3-1.4,0.5c-0.4,0.3-0.7,0.7-0.8,1.5
				c-0.1,0.7-0.2,1.6-0.2,2.7v15.8h-1.5l-14.7-17.6v11.1c0,1.2,0.1,2.2,0.3,2.9c0.2,0.7,0.4,1.1,0.8,1.4c0.3,0.2,0.8,0.4,1.6,0.6
				s1.4,0.3,1.6,0.3v1.1H538v-1.1c0.3,0,0.8-0.1,1.6-0.3c0.7-0.2,1.2-0.3,1.4-0.5c0.4-0.3,0.7-0.7,0.8-1.3c0.1-0.6,0.2-1.6,0.2-3
				v-10.6c0-0.5-0.1-0.9-0.3-1.4s-0.4-0.8-0.7-1.1c-0.4-0.3-1-0.6-1.7-0.9c-0.7-0.2-1.3-0.4-1.7-0.4v-1.1h6.9l13.6,16.4v-10.2
				c0-1.3-0.1-2.2-0.3-2.9c-0.2-0.7-0.4-1.1-0.8-1.3c-0.3-0.2-0.8-0.4-1.6-0.6c-0.7-0.2-1.3-0.3-1.6-0.3v-1.1h9.8L563.6-1352.5
				L563.6-1352.5z"/>
			<path class="st1" d="M585.3-1347.7h-1.2c-0.1-0.4-0.3-0.8-0.6-1.3s-0.6-1-0.9-1.4c-0.3-0.5-0.7-0.9-1.1-1.2
				c-0.4-0.3-0.8-0.5-1.2-0.6c-0.4,0-0.8-0.1-1.3-0.1s-1,0-1.5,0h-1v17.2c0,0.3,0.1,0.6,0.2,0.9c0.2,0.3,0.4,0.5,0.8,0.6
				c0.2,0.1,0.6,0.2,1.3,0.3c0.7,0.1,1.2,0.2,1.5,0.2v1.1H569v-1.1c0.3,0,0.8-0.1,1.5-0.1c0.7-0.1,1.1-0.1,1.4-0.2
				c0.4-0.1,0.7-0.3,0.8-0.6s0.3-0.6,0.3-1v-17.3h-1c-0.4,0-0.8,0-1.3,0s-1,0-1.5,0.1c-0.4,0-0.8,0.2-1.2,0.6s-0.8,0.8-1.1,1.2
				c-0.3,0.5-0.6,0.9-0.9,1.4c-0.3,0.5-0.4,0.9-0.5,1.3h-1.2v-5.8h21.1L585.3-1347.7L585.3-1347.7z"/>
			<path class="st1" d="M607.5-1338.4l-0.5,6.3h-20v-1.1c0.3,0,0.8-0.1,1.4-0.1c0.6-0.1,0.9-0.1,1.1-0.2c0.4-0.2,0.6-0.3,0.8-0.6
				c0.1-0.2,0.2-0.6,0.2-0.9v-15.5c0-0.3-0.1-0.6-0.2-0.9c-0.1-0.3-0.4-0.5-0.8-0.6c-0.3-0.1-0.7-0.2-1.2-0.3
				c-0.5-0.1-0.9-0.2-1.2-0.2v-1.1h18.7v5.2h-1.3c-0.2-0.8-0.7-1.6-1.5-2.4s-1.5-1.3-2.2-1.4c-0.4,0-0.8-0.1-1.3-0.1s-1,0-1.7,0H594
				v8.6h2.7c0.9,0,1.5-0.1,1.9-0.2s0.8-0.4,1.1-0.7c0.2-0.3,0.5-0.7,0.6-1.2c0.2-0.5,0.3-1,0.4-1.4h1.3v8.4h-1.3
				c0-0.5-0.2-1-0.4-1.5s-0.4-0.9-0.6-1.2c-0.4-0.4-0.8-0.7-1.2-0.8c-0.5-0.1-1-0.2-1.8-0.2H594v6.4c0,0.6,0,1.2,0.2,1.5
				c0.1,0.4,0.3,0.7,0.6,0.8c0.3,0.2,0.7,0.3,1.2,0.4s1.2,0.1,2.2,0.1c0.4,0,0.9,0,1.5,0s1.1,0,1.6-0.1c0.4,0,0.9-0.1,1.3-0.2
				c0.5-0.1,0.8-0.3,1-0.4c0.5-0.5,1.1-1.2,1.6-2.2c0.6-1,0.9-1.7,1.1-2.2L607.5-1338.4L607.5-1338.4z"/>
			<path class="st1" d="M633.5-1332H627c-1.4-2-2.7-3.8-3.9-5.2c-1.2-1.5-2.4-3-3.8-4.5h-2.5v6.8c0,0.4,0.1,0.7,0.2,0.9
				c0.1,0.3,0.4,0.5,0.8,0.6c0.2,0.1,0.6,0.1,1.1,0.2s0.9,0.1,1.3,0.1v1.1H610v-1.1c0.3,0,0.7-0.1,1.2-0.1s0.9-0.1,1.1-0.2
				c0.3-0.1,0.6-0.3,0.7-0.6c0.2-0.3,0.2-0.6,0.2-1v-15.6c0-0.4-0.1-0.7-0.2-0.9c-0.1-0.3-0.4-0.5-0.8-0.6c-0.3-0.1-0.7-0.2-1.1-0.3
				c-0.5-0.1-0.8-0.1-1.2-0.1v-1.1h11.2c1,0,2,0.1,2.9,0.3s1.7,0.5,2.4,0.9s1.3,0.9,1.7,1.6s0.6,1.4,0.6,2.4c0,0.8-0.1,1.6-0.4,2.2
				c-0.3,0.6-0.7,1.2-1.3,1.7c-0.5,0.4-1.1,0.8-1.8,1.1c-0.7,0.3-1.5,0.6-2.4,0.8c1.2,1.4,2.2,2.6,3,3.5c0.8,1,1.8,2.1,2.9,3.5
				c0.5,0.6,1,1.1,1.4,1.3c0.4,0.3,0.8,0.5,1.2,0.7c0.3,0.1,0.7,0.2,1.1,0.3c0.4,0.1,0.8,0.1,1.1,0.1L633.5-1332L633.5-1332z
				 M624.6-1348.1c0-1.3-0.4-2.3-1.3-3.1c-0.8-0.8-2-1.1-3.6-1.1h-2.9v9.2h2.2c1.6,0,2.9-0.4,3.9-1.3
				C624-1345.3,624.6-1346.5,624.6-1348.1z"/>
			<path class="st1" d="M659.3-1352.5c-0.3,0-0.8,0.1-1.5,0.2c-0.7,0.2-1.1,0.3-1.4,0.5c-0.4,0.3-0.7,0.7-0.8,1.5
				c-0.1,0.7-0.2,1.6-0.2,2.7v15.8h-1.5l-14.7-17.6v11.1c0,1.2,0.1,2.2,0.3,2.9c0.2,0.7,0.4,1.1,0.8,1.4c0.3,0.2,0.8,0.4,1.6,0.6
				s1.4,0.3,1.6,0.3v1.1h-9.9v-1.1c0.3,0,0.8-0.1,1.6-0.3c0.7-0.2,1.2-0.3,1.4-0.5c0.4-0.3,0.7-0.7,0.8-1.3c0.1-0.6,0.2-1.6,0.2-3
				v-10.6c0-0.5-0.1-0.9-0.3-1.4s-0.4-0.8-0.7-1.1c-0.4-0.3-1-0.6-1.7-0.9c-0.7-0.2-1.3-0.4-1.7-0.4v-1.1h6.9l13.6,16.4v-10.2
				c0-1.3-0.1-2.2-0.3-2.9c-0.2-0.7-0.4-1.1-0.8-1.3c-0.3-0.2-0.8-0.4-1.6-0.6c-0.7-0.2-1.3-0.3-1.6-0.3v-1.1h9.8v1.2H659.3z"/>
			<path class="st1" d="M683.8-1332h-10.1v-1.1c0.9-0.1,1.6-0.2,2.2-0.3c0.6-0.2,0.9-0.3,0.9-0.6c0-0.1,0-0.2,0-0.3
				c0-0.1-0.1-0.2-0.1-0.3l-2-4.8h-8.5c-0.3,0.7-0.6,1.3-0.8,1.8s-0.4,1-0.5,1.5c-0.1,0.4-0.2,0.8-0.3,1.1c-0.1,0.3-0.1,0.5-0.1,0.7
				c0,0.4,0.4,0.7,1.1,0.9c0.7,0.2,1.5,0.4,2.4,0.4v1.1h-9.1v-1.1c0.3,0,0.7-0.1,1.1-0.2c0.4-0.1,0.8-0.2,1.1-0.4
				c0.5-0.3,0.8-0.6,1.1-0.9c0.2-0.3,0.5-0.7,0.7-1.2c1.2-2.7,2.6-5.7,4-9.1c1.5-3.4,2.8-6.4,3.9-9h1.4l8.1,18.6
				c0.2,0.4,0.4,0.7,0.6,1c0.2,0.2,0.5,0.5,0.9,0.7c0.3,0.1,0.6,0.3,1,0.4s0.8,0.2,1.1,0.2v0.9H683.8z M674.1-1340.8l-3.7-8.4
				l-3.6,8.4H674.1z"/>
			<path class="st1" d="M704.3-1347.7h-1.2c-0.1-0.4-0.3-0.8-0.6-1.3s-0.6-1-0.9-1.4c-0.3-0.5-0.7-0.9-1.1-1.2
				c-0.4-0.3-0.8-0.5-1.2-0.6c-0.4,0-0.8-0.1-1.3-0.1s-1,0-1.5,0h-1v17.2c0,0.3,0.1,0.6,0.2,0.9c0.2,0.3,0.4,0.5,0.8,0.6
				c0.2,0.1,0.6,0.2,1.3,0.3c0.7,0.1,1.2,0.2,1.5,0.2v1.1h-11.4v-1.1c0.3,0,0.8-0.1,1.5-0.1c0.7-0.1,1.1-0.1,1.4-0.2
				c0.4-0.1,0.7-0.3,0.8-0.6s0.3-0.6,0.3-1v-17.3h-1c-0.4,0-0.8,0-1.3,0s-1,0-1.5,0.1c-0.4,0-0.8,0.2-1.2,0.6s-0.8,0.8-1.1,1.2
				c-0.3,0.5-0.6,0.9-0.9,1.4c-0.3,0.5-0.4,0.9-0.5,1.3h-1.2v-5.8h21.1L704.3-1347.7L704.3-1347.7z"/>
			<path class="st1" d="M716.8-1332h-10.9v-1.1c0.3,0,0.7-0.1,1.3-0.1s1-0.1,1.2-0.2c0.4-0.1,0.6-0.3,0.8-0.5s0.3-0.5,0.3-0.9v-15.6
				c0-0.4-0.1-0.6-0.2-0.9c-0.1-0.2-0.4-0.4-0.9-0.6c-0.3-0.1-0.8-0.2-1.3-0.3c-0.5-0.1-0.9-0.2-1.3-0.2v-1.1h10.9v1.1
				c-0.4,0-0.8,0-1.3,0.1s-0.9,0.1-1.3,0.3c-0.4,0.1-0.7,0.3-0.9,0.6c-0.1,0.3-0.2,0.6-0.2,0.9v15.6c0,0.3,0.1,0.6,0.2,0.9
				c0.2,0.3,0.4,0.5,0.8,0.6c0.2,0.1,0.6,0.2,1.2,0.3c0.5,0.1,1,0.2,1.4,0.2v0.9H716.8z"/>
			<path class="st1" d="M739.4-1351c1.1,1,1.9,2.2,2.5,3.6s0.9,2.9,0.9,4.6s-0.3,3.3-0.9,4.7c-0.6,1.4-1.5,2.6-2.6,3.6
				s-2.3,1.7-3.7,2.2s-2.9,0.8-4.5,0.8c-1.7,0-3.2-0.3-4.7-0.8c-1.4-0.6-2.6-1.3-3.7-2.3c-1-1-1.8-2.2-2.4-3.6s-0.9-2.9-0.9-4.5
				c0-1.7,0.3-3.3,0.9-4.7c0.6-1.4,1.5-2.6,2.5-3.6c1.1-1,2.3-1.7,3.7-2.3c1.4-0.5,2.9-0.8,4.4-0.8c1.6,0,3.1,0.3,4.5,0.8
				C737.1-1352.7,738.3-1352,739.4-1351z M736.8-1335.8c0.6-0.9,1.1-2,1.4-3.1c0.3-1.2,0.4-2.5,0.4-3.9c0-1.5-0.2-2.8-0.5-4.1
				c-0.3-1.2-0.8-2.3-1.4-3.2c-0.6-0.9-1.4-1.5-2.4-2c-0.9-0.5-2-0.7-3.2-0.7c-1.4,0-2.5,0.3-3.5,0.8c-1,0.6-1.7,1.3-2.3,2.2
				c-0.6,0.9-1,1.9-1.3,3.1s-0.4,2.4-0.4,3.8c0,1.5,0.1,2.8,0.4,3.9c0.3,1.2,0.8,2.2,1.4,3.1c0.6,0.9,1.4,1.6,2.3,2.1
				c0.9,0.5,2,0.7,3.3,0.7c1.2,0,2.3-0.3,3.3-0.8C735.4-1334.1,736.2-1334.8,736.8-1335.8z"/>
			<path class="st1" d="M770.6-1352.5c-0.3,0-0.8,0.1-1.5,0.2c-0.7,0.2-1.1,0.3-1.4,0.5c-0.4,0.3-0.7,0.7-0.8,1.5
				c-0.1,0.7-0.2,1.6-0.2,2.7v15.8h-1.5l-14.7-17.6v11.1c0,1.2,0.1,2.2,0.3,2.9c0.2,0.7,0.4,1.1,0.8,1.4c0.3,0.2,0.8,0.4,1.6,0.6
				s1.4,0.3,1.6,0.3v1.1h-9.9v-1.1c0.3,0,0.8-0.1,1.6-0.3c0.7-0.2,1.2-0.3,1.4-0.5c0.4-0.3,0.7-0.7,0.8-1.3c0.1-0.6,0.2-1.6,0.2-3
				v-10.6c0-0.5-0.1-0.9-0.3-1.4s-0.4-0.8-0.7-1.1c-0.4-0.3-1-0.6-1.7-0.9c-0.7-0.2-1.3-0.4-1.7-0.4v-1.1h6.9l13.6,16.4v-10.2
				c0-1.3-0.1-2.2-0.3-2.9c-0.2-0.7-0.4-1.1-0.8-1.3c-0.3-0.2-0.8-0.4-1.6-0.6c-0.7-0.2-1.3-0.3-1.6-0.3v-1.1h9.8v1.2H770.6z"/>
			<path class="st1" d="M795.1-1332H785v-1.1c0.9-0.1,1.6-0.2,2.2-0.3c0.6-0.2,0.9-0.3,0.9-0.6c0-0.1,0-0.2,0-0.3
				c0-0.1-0.1-0.2-0.1-0.3l-2-4.8h-8.5c-0.3,0.7-0.6,1.3-0.8,1.8s-0.4,1-0.5,1.5c-0.1,0.4-0.2,0.8-0.3,1.1s-0.1,0.5-0.1,0.7
				c0,0.4,0.4,0.7,1.1,0.9c0.7,0.2,1.5,0.4,2.4,0.4v1.1h-9.1v-1.1c0.3,0,0.7-0.1,1.1-0.2c0.4-0.1,0.8-0.2,1.1-0.4
				c0.5-0.3,0.8-0.6,1.1-0.9c0.2-0.3,0.5-0.7,0.7-1.2c1.2-2.7,2.6-5.7,4-9.1c1.5-3.4,2.8-6.4,3.9-9h1.4l8.1,18.6
				c0.2,0.4,0.4,0.7,0.6,1c0.2,0.2,0.5,0.5,0.9,0.7c0.3,0.1,0.6,0.3,1,0.4s0.8,0.2,1.1,0.2v0.9H795.1z M785.4-1340.8l-3.7-8.4
				l-3.6,8.4H785.4z"/>
			<path class="st1" d="M815.4-1338.4l-0.5,6.4H796v-1.1c0.3,0,0.7-0.1,1.2-0.1s0.9-0.1,1.1-0.2c0.3-0.1,0.6-0.3,0.7-0.6
				c0.2-0.3,0.2-0.6,0.2-1v-15.4c0-0.3-0.1-0.6-0.2-0.9c-0.1-0.3-0.4-0.5-0.8-0.6c-0.3-0.1-0.6-0.2-1.1-0.4
				c-0.5-0.1-0.9-0.2-1.2-0.2v-1.1h10.2v1.1c-0.3,0-0.7,0.1-1.2,0.2s-0.9,0.2-1.1,0.2c-0.4,0.1-0.6,0.3-0.8,0.6
				c-0.1,0.3-0.2,0.6-0.2,0.9v14.5c0,0.7,0,1.2,0.1,1.6s0.2,0.7,0.5,0.9c0.3,0.2,0.7,0.3,1.2,0.4s1.2,0.1,2.2,0.1c0.4,0,0.9,0,1.3,0
				c0.5,0,0.9-0.1,1.3-0.1c0.4-0.1,0.8-0.1,1.1-0.3c0.3-0.1,0.6-0.2,0.7-0.4c0.5-0.5,1-1.2,1.6-2.1s1-1.7,1.3-2.3L815.4-1338.4
				L815.4-1338.4z"/>
			<path class="st1" d="M836.1-1331.5c-1.4,0-2.8-0.3-4.1-0.8s-2.5-1.2-3.5-2.2s-1.8-2.1-2.4-3.5c-0.6-1.4-0.9-2.9-0.9-4.6
				s0.3-3.3,0.9-4.7c0.6-1.4,1.4-2.6,2.5-3.6c1-1,2.3-1.8,3.7-2.3s2.9-0.8,4.5-0.8c1.2,0,2.3,0.1,3.2,0.4c1,0.3,1.9,0.6,2.8,1.1
				l0.7-1h1.4l0.2,7.7h-1.4c-0.2-0.7-0.5-1.6-0.8-2.4c-0.4-0.9-0.8-1.6-1.3-2.2c-0.5-0.7-1.2-1.2-1.9-1.6s-1.6-0.6-2.6-0.6
				c-1.1,0-2.1,0.2-3.1,0.7c-0.9,0.4-1.8,1.1-2.5,1.9s-1.2,1.9-1.5,3.1c-0.4,1.3-0.6,2.7-0.6,4.2c0,1.4,0.2,2.6,0.6,3.8
				c0.4,1.1,1,2.2,1.7,3c0.7,0.9,1.6,1.5,2.6,2s2.1,0.7,3.3,0.7c0.9,0,1.8-0.1,2.5-0.4c0.8-0.3,1.4-0.6,2-1s1.1-1,1.5-1.5
				c0.4-0.6,0.8-1.2,1.1-1.8l1.3,0.5c-1,2.1-2.3,3.7-3.9,4.6C840.2-1332,838.3-1331.5,836.1-1331.5z"/>
			<path class="st1" d="M867.4-1351c1.1,1,1.9,2.2,2.5,3.6s0.9,2.9,0.9,4.6s-0.3,3.3-0.9,4.7c-0.6,1.4-1.5,2.6-2.6,3.6
				s-2.3,1.7-3.7,2.2s-2.9,0.8-4.5,0.8c-1.7,0-3.2-0.3-4.7-0.8c-1.4-0.6-2.6-1.3-3.7-2.3c-1-1-1.8-2.2-2.4-3.6s-0.9-2.9-0.9-4.5
				c0-1.7,0.3-3.3,0.9-4.7c0.6-1.4,1.5-2.6,2.5-3.6c1.1-1,2.3-1.7,3.7-2.3c1.4-0.5,2.9-0.8,4.4-0.8c1.6,0,3.1,0.3,4.5,0.8
				C865.1-1352.7,866.4-1352,867.4-1351z M864.9-1335.8c0.6-0.9,1.1-2,1.4-3.1c0.3-1.2,0.4-2.5,0.4-3.9c0-1.5-0.2-2.8-0.5-4.1
				c-0.3-1.2-0.8-2.3-1.4-3.2c-0.6-0.9-1.4-1.5-2.4-2c-0.9-0.5-2-0.7-3.2-0.7c-1.4,0-2.5,0.3-3.5,0.8c-1,0.6-1.7,1.3-2.3,2.2
				c-0.6,0.9-1,1.9-1.3,3.1s-0.4,2.4-0.4,3.8c0,1.5,0.1,2.8,0.4,3.9c0.3,1.2,0.8,2.2,1.4,3.1c0.6,0.9,1.4,1.6,2.3,2.1
				c0.9,0.5,2,0.7,3.3,0.7c1.2,0,2.3-0.3,3.3-0.8C863.4-1334.1,864.2-1334.8,864.9-1335.8z"/>
			<path class="st1" d="M898.3-1352.5c-0.3,0-0.8,0.1-1.4,0.2c-0.6,0.1-1.1,0.3-1.5,0.5s-0.7,0.7-0.8,1.4c-0.1,0.7-0.2,1.6-0.2,2.7
				v9.4c0,1.2-0.3,2.2-0.8,3.1c-0.6,0.9-1.3,1.6-2.2,2.2c-0.9,0.5-1.8,0.9-2.8,1.2c-1,0.2-1.9,0.4-2.9,0.4c-1.5,0-2.8-0.2-3.9-0.5
				c-1.1-0.3-2.1-0.8-2.9-1.4c-0.8-0.6-1.3-1.2-1.7-2c-0.4-0.7-0.6-1.5-0.6-2.3v-12.7c0-0.4-0.1-0.6-0.2-0.9
				c-0.1-0.2-0.4-0.5-0.8-0.7c-0.3-0.1-0.6-0.3-1.1-0.3c-0.4-0.1-0.8-0.1-1.1-0.2v-1.1h10.1v1.1c-0.3,0-0.7,0.1-1.2,0.1
				c-0.5,0.1-0.8,0.2-1.1,0.2c-0.4,0.1-0.6,0.3-0.8,0.6c-0.1,0.3-0.2,0.6-0.2,0.9v11.9c0,0.6,0.1,1.2,0.2,1.8
				c0.1,0.6,0.4,1.2,0.8,1.8c0.4,0.6,1,1,1.8,1.4s1.8,0.5,3.1,0.5c1.2,0,2.3-0.2,3.1-0.5c0.8-0.4,1.5-0.8,2-1.4
				c0.5-0.5,0.8-1.1,1-1.7s0.3-1.2,0.3-1.8v-8.8c0-1.1-0.1-2-0.3-2.7s-0.4-1.2-0.8-1.4c-0.4-0.3-0.9-0.5-1.6-0.6s-1.2-0.2-1.6-0.2
				v-1.1h9.9v0.9H898.3z"/>
			<path class="st1" d="M923.8-1332h-6.5c-1.4-2-2.7-3.8-3.9-5.2c-1.2-1.5-2.4-3-3.8-4.5h-2.5v6.8c0,0.4,0.1,0.7,0.2,0.9
				c0.1,0.3,0.4,0.5,0.8,0.6c0.2,0.1,0.6,0.1,1.1,0.2s0.9,0.1,1.3,0.1v1.1h-10.2v-1.1c0.3,0,0.7-0.1,1.2-0.1s0.9-0.1,1.1-0.2
				c0.3-0.1,0.6-0.3,0.7-0.6c0.2-0.3,0.2-0.6,0.2-1v-15.6c0-0.4-0.1-0.7-0.2-0.9c-0.1-0.3-0.4-0.5-0.8-0.6c-0.3-0.1-0.7-0.2-1.1-0.3
				c-0.5-0.1-0.8-0.1-1.2-0.1v-1.1h11.2c1,0,2,0.1,2.9,0.3s1.7,0.5,2.4,0.9s1.3,0.9,1.7,1.6s0.6,1.4,0.6,2.4c0,0.8-0.1,1.6-0.4,2.2
				c-0.3,0.6-0.7,1.2-1.3,1.7c-0.5,0.4-1.1,0.8-1.8,1.1c-0.7,0.3-1.5,0.6-2.4,0.8c1.2,1.4,2.2,2.6,3,3.5c0.8,1,1.8,2.1,2.9,3.5
				c0.5,0.6,1,1.1,1.4,1.3c0.4,0.3,0.8,0.5,1.2,0.7c0.3,0.1,0.7,0.2,1.1,0.3c0.4,0.1,0.8,0.1,1.1,0.1V-1332z M914.8-1348.1
				c0-1.3-0.4-2.3-1.3-3.1c-0.8-0.8-2-1.1-3.6-1.1H907v9.2h2.2c1.6,0,2.9-0.4,3.9-1.3C914.3-1345.3,914.8-1346.5,914.8-1348.1z"/>
			<path class="st1" d="M935.3-1332h-10.9v-1.1c0.3,0,0.7-0.1,1.3-0.1s1-0.1,1.2-0.2c0.4-0.1,0.6-0.3,0.8-0.5s0.3-0.5,0.3-0.9v-15.6
				c0-0.4-0.1-0.6-0.2-0.9c-0.1-0.2-0.4-0.4-0.9-0.6c-0.3-0.1-0.8-0.2-1.3-0.3c-0.5-0.1-0.9-0.2-1.3-0.2v-1.1h10.9v1.1
				c-0.4,0-0.8,0-1.3,0.1s-0.9,0.1-1.3,0.3c-0.4,0.1-0.7,0.3-0.9,0.6c-0.1,0.3-0.2,0.6-0.2,0.9v15.6c0,0.3,0.1,0.6,0.2,0.9
				c0.2,0.3,0.4,0.5,0.8,0.6c0.2,0.1,0.6,0.2,1.2,0.3c0.5,0.1,1,0.2,1.4,0.2v0.9H935.3z"/>
			<path class="st1" d="M958.6-1338.4l-0.5,6.3H938v-1.1c0.3,0,0.8-0.1,1.4-0.1c0.6-0.1,0.9-0.1,1.1-0.2c0.4-0.2,0.6-0.3,0.8-0.6
				c0.1-0.2,0.2-0.6,0.2-0.9v-15.5c0-0.3-0.1-0.6-0.2-0.9c-0.1-0.3-0.4-0.5-0.8-0.6c-0.3-0.1-0.7-0.2-1.2-0.3
				c-0.5-0.1-0.9-0.2-1.2-0.2v-1.1h18.7v5.2h-1.3c-0.2-0.8-0.7-1.6-1.5-2.4c-0.8-0.9-1.5-1.3-2.2-1.4c-0.4,0-0.8-0.1-1.3-0.1
				s-1,0-1.7,0H945v8.6h2.7c0.9,0,1.5-0.1,1.9-0.2s0.8-0.4,1.1-0.7c0.2-0.3,0.5-0.7,0.6-1.2c0.2-0.5,0.3-1,0.4-1.4h1.3v8.4h-1.3
				c0-0.5-0.2-1-0.4-1.5s-0.4-0.9-0.6-1.2c-0.4-0.4-0.8-0.7-1.2-0.8c-0.5-0.1-1-0.2-1.8-0.2H945v6.4c0,0.6,0,1.2,0.2,1.5
				c0.1,0.4,0.3,0.7,0.6,0.8c0.3,0.2,0.7,0.3,1.2,0.4s1.2,0.1,2.2,0.1c0.4,0,0.9,0,1.5,0s1.1,0,1.6-0.1c0.4,0,0.9-0.1,1.3-0.2
				c0.5-0.1,0.8-0.3,1-0.4c0.5-0.5,1.1-1.2,1.6-2.2c0.6-1,0.9-1.7,1.1-2.2L958.6-1338.4L958.6-1338.4z"/>
			<path class="st1" d="M984.7-1332h-6.5c-1.4-2-2.7-3.8-3.9-5.2c-1.2-1.5-2.4-3-3.8-4.5H968v6.8c0,0.4,0.1,0.7,0.2,0.9
				c0.1,0.3,0.4,0.5,0.8,0.6c0.2,0.1,0.6,0.1,1.1,0.2s0.9,0.1,1.3,0.1v1.1h-10.2v-1.1c0.3,0,0.7-0.1,1.2-0.1s0.9-0.1,1.1-0.2
				c0.3-0.1,0.6-0.3,0.7-0.6c0.2-0.3,0.2-0.6,0.2-1v-15.6c0-0.4-0.1-0.7-0.2-0.9c-0.1-0.3-0.4-0.5-0.8-0.6c-0.3-0.1-0.7-0.2-1.1-0.3
				c-0.5-0.1-0.8-0.1-1.2-0.1v-1.1h11.2c1,0,2,0.1,2.9,0.3s1.7,0.5,2.4,0.9s1.3,0.9,1.7,1.6s0.6,1.4,0.6,2.4c0,0.8-0.1,1.6-0.4,2.2
				c-0.3,0.6-0.7,1.2-1.3,1.7c-0.5,0.4-1.1,0.8-1.8,1.1c-0.7,0.3-1.5,0.6-2.4,0.8c1.2,1.4,2.2,2.6,3,3.5c0.8,1,1.8,2.1,2.9,3.5
				c0.5,0.6,1,1.1,1.4,1.3c0.4,0.3,0.8,0.5,1.2,0.7c0.3,0.1,0.7,0.2,1.1,0.3c0.4,0.1,0.8,0.1,1.1,0.1V-1332z M975.7-1348.1
				c0-1.3-0.4-2.3-1.3-3.1c-0.8-0.8-2-1.1-3.6-1.1H968v9.2h2.2c1.6,0,2.9-0.4,3.9-1.3C975.2-1345.3,975.7-1346.5,975.7-1348.1z"/>
		</g>
	</g>
</g>
<g>
	<g>
		<path class="st1" d="M827.4-524.3c-28.8,0-52.2,23.4-52.2,52.2c0,28.8,23.4,52.2,52.2,52.2c9.8,0,18.9-2.7,26.7-7.4v7.4h25.5v-54
			h-0.1C878.6-501.8,855.6-524.3,827.4-524.3z M827.4-445.4c-14.7,0-26.7-12-26.7-26.7s12-26.7,26.7-26.7s26.7,12,26.7,26.7
			C854.1-457.4,842.1-445.4,827.4-445.4z"/>
		<path class="st1" d="M937-524.3c-26.3,0-47.7,21.4-47.7,47.7v56.8h25.5v-56.8c0-12.2,9.9-22.2,22.2-22.2s22.2,9.9,22.2,22.2v56.8
			h25.5v-56.8C984.7-502.9,963.3-524.3,937-524.3z"/>
		<path class="st1" d="M352.9-524.3c-26.3,0-47.7,21.4-47.7,47.7v56.8h25.5v-56.8c0-12.2,9.9-22.2,22.2-22.2
			c12.2,0,22.2,9.9,22.2,22.2v56.8h25.5v-56.8C400.6-502.9,379.2-524.3,352.9-524.3z"/>
		<path class="st1" d="M488.8-516.9c-7.8-4.7-16.9-7.4-26.7-7.4c-28.8,0-52.2,23.4-52.2,52.2c0,28.8,23.4,52.2,52.2,52.2
			c27.8,0,50.6-21.9,52.1-49.3h0.1v-110.1h-25.5L488.8-516.9L488.8-516.9z M462.1-445.4c-14.7,0-26.7-12-26.7-26.7
			s12-26.7,26.7-26.7s26.7,12,26.7,26.7C488.8-457.4,476.9-445.4,462.1-445.4z"/>
		<path class="st1" d="M270.2-524.3h25.5v104.5h-25.5V-524.3z"/>
		<path class="st1" d="M295.7-549.3v17.9h-25.5"/>
		<path class="st1" d="M231.9-578.4h25.3v158.6h-25.3L231.9-578.4L231.9-578.4z"/>
		<path class="st1" d="M602.7-472.1c0,14.7-12,26.7-26.7,26.7s-26.7-12-26.7-26.7v-52.2h-25.5v52.2c0,28.8,23.4,52.2,52.2,52.2
			c9.8,0,18.9-2.7,26.7-7.4v7.4h25.5v-104.5h-25.5V-472.1z"/>
		<path class="st1" d="M669.7-486.5c-3.4,0-6.1-2.7-6.1-6.1s2.7-6.1,6.1-6.1c1.6,0,2.8,0.6,3.5,1.1s1.3,1.1,1.7,1.8l21.5-13.7
			c-2.3-3.6-5.2-6.6-8.7-9.1c-5.3-3.7-11.5-5.6-18-5.6c-17.4,0-31.6,14.2-31.6,31.6s14.2,31.6,31.6,31.6c4.3,0,7.8,3.5,7.8,7.8
			s-3.5,7.8-7.8,7.8c-3.4,0-6.3-2.2-7.4-5.4l-24.3,8c4.5,13.7,17.2,22.9,31.7,22.9c18.4,0,33.3-14.9,33.3-33.3
			C703-471.5,688.1-486.5,669.7-486.5z"/>
		<path class="st1" d="M752.8-445.4c-4.4,0-7.9-3.5-7.9-7.9v-45.4h25v-25.5h-25v-34.3h-25.5v34.3h-13.1v25.5h13.1v45.4
			c0,18.4,15,33.4,33.4,33.4c6.7,0,13.2-2,18.7-5.7l-14.3-21.2C755.9-445.8,754.4-445.4,752.8-445.4z"/>
		<g>
			<polygon class="st1" points="159.7,-567.6 159.7,-511.8 221.2,-511.8 			"/>
			<polygon class="st1" points="159.7,-484.9 159.7,-430.2 220.7,-484.9 			"/>
			<polygon class="st1" points="131.7,-419.8 131.7,-578.1 39,-578.1 121.2,-499 39,-419.8 			"/>
		</g>
	</g>
	<g>
		<g>
			<path class="st1" d="M535.8-375.4h-10.9v-1.1c0.3,0,0.7-0.1,1.3-0.1s1-0.1,1.2-0.2c0.4-0.1,0.6-0.3,0.8-0.5s0.3-0.5,0.3-0.9
				v-15.6c0-0.4-0.1-0.6-0.2-0.9c-0.1-0.2-0.4-0.4-0.9-0.6c-0.3-0.1-0.8-0.2-1.3-0.3c-0.5-0.1-0.9-0.2-1.3-0.2v-1.1h10.9v1.1
				c-0.4,0-0.8,0-1.3,0.1s-0.9,0.1-1.3,0.2c-0.4,0.1-0.7,0.3-0.9,0.6c-0.1,0.3-0.2,0.6-0.2,0.9v15.6c0,0.3,0.1,0.6,0.2,0.9
				c0.2,0.3,0.4,0.5,0.8,0.6c0.2,0.1,0.6,0.2,1.2,0.3c0.5,0.1,1,0.2,1.4,0.2v1H535.8z"/>
			<path class="st1" d="M563.6-395.8c-0.3,0-0.8,0.1-1.5,0.2c-0.7,0.2-1.1,0.3-1.4,0.5c-0.4,0.3-0.7,0.7-0.8,1.5
				c-0.1,0.7-0.2,1.6-0.2,2.7v15.8h-1.5l-14.7-17.6v11.1c0,1.2,0.1,2.2,0.3,2.9c0.2,0.7,0.4,1.1,0.8,1.4c0.3,0.2,0.8,0.4,1.6,0.6
				s1.4,0.3,1.6,0.3v1.1H538v-1.1c0.3,0,0.8-0.1,1.6-0.3c0.7-0.2,1.2-0.3,1.4-0.5c0.4-0.3,0.7-0.7,0.8-1.3c0.1-0.6,0.2-1.6,0.2-3
				v-10.6c0-0.5-0.1-0.9-0.3-1.4s-0.4-0.8-0.7-1.1c-0.4-0.3-1-0.6-1.7-0.9c-0.7-0.2-1.3-0.4-1.7-0.4v-1.1h6.9l13.6,16.4v-10.2
				c0-1.3-0.1-2.2-0.3-2.9c-0.2-0.7-0.4-1.1-0.8-1.3c-0.3-0.2-0.8-0.4-1.6-0.6c-0.7-0.2-1.3-0.3-1.6-0.3v-1.1h9.8L563.6-395.8
				L563.6-395.8z"/>
			<path class="st1" d="M585.3-391.1h-1.2c-0.1-0.4-0.3-0.8-0.6-1.3s-0.6-1-0.9-1.4c-0.3-0.5-0.7-0.9-1.1-1.2
				c-0.4-0.3-0.8-0.5-1.2-0.6c-0.4,0-0.8-0.1-1.3-0.1s-1,0-1.5,0h-1v17.2c0,0.3,0.1,0.6,0.2,0.9c0.2,0.3,0.4,0.5,0.8,0.6
				c0.2,0.1,0.6,0.2,1.3,0.3c0.7,0.1,1.2,0.2,1.5,0.2v1.1H569v-1.1c0.3,0,0.8-0.1,1.5-0.1c0.7-0.1,1.1-0.1,1.4-0.2
				c0.4-0.1,0.7-0.3,0.8-0.6s0.3-0.6,0.3-1v-17.3h-1c-0.4,0-0.8,0-1.3,0s-1,0-1.5,0.1c-0.4,0-0.8,0.2-1.2,0.6s-0.8,0.8-1.1,1.2
				c-0.3,0.5-0.6,0.9-0.9,1.4c-0.3,0.5-0.4,0.9-0.5,1.3h-1.2v-5.8h21.1L585.3-391.1L585.3-391.1z"/>
			<path class="st1" d="M607.5-381.7l-0.5,6.3h-20v-1.1c0.3,0,0.8-0.1,1.4-0.1c0.6-0.1,0.9-0.1,1.1-0.2c0.4-0.2,0.6-0.3,0.8-0.6
				c0.1-0.2,0.2-0.6,0.2-0.9v-15.5c0-0.3-0.1-0.6-0.2-0.9c-0.1-0.3-0.4-0.5-0.8-0.6c-0.3-0.1-0.7-0.2-1.2-0.3
				c-0.5-0.1-0.9-0.2-1.2-0.2v-1.1h18.7v5.2h-1.3c-0.2-0.8-0.7-1.6-1.5-2.4c-0.8-0.9-1.5-1.3-2.2-1.4c-0.4,0-0.8-0.1-1.3-0.1
				s-1,0-1.7,0H594v8.6h2.7c0.9,0,1.5-0.1,1.9-0.2s0.8-0.4,1.1-0.7c0.2-0.3,0.5-0.7,0.6-1.2c0.2-0.5,0.3-1,0.4-1.4h1.3v8.4h-1.3
				c0-0.5-0.2-1-0.4-1.5s-0.4-0.9-0.6-1.2c-0.4-0.4-0.8-0.7-1.2-0.8c-0.5-0.1-1-0.2-1.8-0.2H594v6.4c0,0.6,0,1.2,0.2,1.5
				c0.1,0.4,0.3,0.7,0.6,0.8c0.3,0.2,0.7,0.3,1.2,0.4s1.2,0.1,2.2,0.1c0.4,0,0.9,0,1.5,0s1.1,0,1.6-0.1c0.4,0,0.9-0.1,1.3-0.2
				c0.5-0.1,0.8-0.2,1-0.4c0.5-0.5,1.1-1.2,1.6-2.2c0.6-1,0.9-1.7,1.1-2.2L607.5-381.7L607.5-381.7z"/>
			<path class="st1" d="M633.5-375.4H627c-1.4-2-2.7-3.8-3.9-5.2c-1.2-1.5-2.4-3-3.8-4.5h-2.5v6.8c0,0.4,0.1,0.7,0.2,0.9
				c0.1,0.3,0.4,0.5,0.8,0.6c0.2,0.1,0.6,0.1,1.1,0.2s0.9,0.1,1.3,0.1v1.1H610v-1.1c0.3,0,0.7-0.1,1.2-0.1s0.9-0.1,1.1-0.2
				c0.3-0.1,0.6-0.3,0.7-0.6c0.2-0.3,0.2-0.6,0.2-1V-394c0-0.4-0.1-0.7-0.2-0.9c-0.1-0.3-0.4-0.5-0.8-0.6c-0.3-0.1-0.7-0.2-1.1-0.2
				c-0.5-0.1-0.8-0.1-1.2-0.1v-1.1h11.2c1,0,2,0.1,2.9,0.3c0.9,0.2,1.7,0.5,2.4,0.9s1.3,0.9,1.7,1.6s0.6,1.4,0.6,2.4
				c0,0.8-0.1,1.6-0.4,2.2c-0.3,0.6-0.7,1.2-1.3,1.7c-0.5,0.4-1.1,0.8-1.8,1.1c-0.7,0.3-1.5,0.6-2.4,0.8c1.2,1.4,2.2,2.6,3,3.5
				c0.8,1,1.8,2.1,2.9,3.5c0.5,0.6,1,1.1,1.4,1.3c0.4,0.3,0.8,0.5,1.2,0.7c0.3,0.1,0.7,0.2,1.1,0.3c0.4,0.1,0.8,0.1,1.1,0.1
				L633.5-375.4L633.5-375.4z M624.6-391.4c0-1.3-0.4-2.3-1.3-3.1c-0.8-0.8-2-1.1-3.6-1.1h-2.9v9.2h2.2c1.6,0,2.9-0.4,3.9-1.3
				C624-388.7,624.6-389.9,624.6-391.4z"/>
			<path class="st1" d="M659.3-395.8c-0.3,0-0.8,0.1-1.5,0.2c-0.7,0.2-1.1,0.3-1.4,0.5c-0.4,0.3-0.7,0.7-0.8,1.5
				c-0.1,0.7-0.2,1.6-0.2,2.7v15.8h-1.5l-14.7-17.6v11.1c0,1.2,0.1,2.2,0.3,2.9c0.2,0.7,0.4,1.1,0.8,1.4c0.3,0.2,0.8,0.4,1.6,0.6
				s1.4,0.3,1.6,0.3v1.1h-9.9v-1.1c0.3,0,0.8-0.1,1.6-0.3c0.7-0.2,1.2-0.3,1.4-0.5c0.4-0.3,0.7-0.7,0.8-1.3c0.1-0.6,0.2-1.6,0.2-3
				v-10.6c0-0.5-0.1-0.9-0.3-1.4s-0.4-0.8-0.7-1.1c-0.4-0.3-1-0.6-1.7-0.9c-0.7-0.2-1.3-0.4-1.7-0.4v-1.1h6.9l13.6,16.4v-10.2
				c0-1.3-0.1-2.2-0.3-2.9c-0.2-0.7-0.4-1.1-0.8-1.3c-0.3-0.2-0.8-0.4-1.6-0.6c-0.7-0.2-1.3-0.3-1.6-0.3v-1.1h9.8v1.2H659.3z"/>
			<path class="st1" d="M683.8-375.4h-10.1v-1.1c0.9-0.1,1.6-0.2,2.2-0.3c0.6-0.2,0.9-0.3,0.9-0.6c0-0.1,0-0.2,0-0.3
				s-0.1-0.2-0.1-0.3l-2-4.8h-8.5c-0.3,0.7-0.6,1.3-0.8,1.8s-0.4,1-0.5,1.5c-0.1,0.4-0.2,0.8-0.3,1.1c-0.1,0.3-0.1,0.5-0.1,0.7
				c0,0.4,0.4,0.7,1.1,0.9c0.7,0.2,1.5,0.4,2.4,0.4v1.1h-9.1v-1.1c0.3,0,0.7-0.1,1.1-0.2c0.4-0.1,0.8-0.2,1.1-0.4
				c0.5-0.3,0.8-0.6,1.1-0.9c0.2-0.3,0.5-0.7,0.7-1.2c1.2-2.7,2.6-5.7,4-9.1c1.5-3.4,2.8-6.4,3.9-9h1.4l8.1,18.6
				c0.2,0.4,0.4,0.7,0.6,1c0.2,0.2,0.5,0.5,0.9,0.7c0.3,0.1,0.6,0.3,1,0.4s0.8,0.2,1.1,0.2v0.9H683.8z M674.1-384.2l-3.7-8.4
				l-3.6,8.4H674.1z"/>
			<path class="st1" d="M704.3-391.1h-1.2c-0.1-0.4-0.3-0.8-0.6-1.3s-0.6-1-0.9-1.4c-0.3-0.5-0.7-0.9-1.1-1.2
				c-0.4-0.3-0.8-0.5-1.2-0.6c-0.4,0-0.8-0.1-1.3-0.1s-1,0-1.5,0h-1v17.2c0,0.3,0.1,0.6,0.2,0.9c0.2,0.3,0.4,0.5,0.8,0.6
				c0.2,0.1,0.6,0.2,1.3,0.3c0.7,0.1,1.2,0.2,1.5,0.2v1.1h-11.4v-1.1c0.3,0,0.8-0.1,1.5-0.1c0.7-0.1,1.1-0.1,1.4-0.2
				c0.4-0.1,0.7-0.3,0.8-0.6s0.3-0.6,0.3-1v-17.3h-1c-0.4,0-0.8,0-1.3,0s-1,0-1.5,0.1c-0.4,0-0.8,0.2-1.2,0.6s-0.8,0.8-1.1,1.2
				c-0.3,0.5-0.6,0.9-0.9,1.4c-0.3,0.5-0.4,0.9-0.5,1.3h-1.2v-5.8h21.1L704.3-391.1L704.3-391.1z"/>
			<path class="st1" d="M716.8-375.4h-10.9v-1.1c0.3,0,0.7-0.1,1.3-0.1s1-0.1,1.2-0.2c0.4-0.1,0.6-0.3,0.8-0.5s0.3-0.5,0.3-0.9
				v-15.6c0-0.4-0.1-0.6-0.2-0.9c-0.1-0.2-0.4-0.4-0.9-0.6c-0.3-0.1-0.8-0.2-1.3-0.3c-0.5-0.1-0.9-0.2-1.3-0.2v-1.1h10.9v1.1
				c-0.4,0-0.8,0-1.3,0.1s-0.9,0.1-1.3,0.2c-0.4,0.1-0.7,0.3-0.9,0.6c-0.1,0.3-0.2,0.6-0.2,0.9v15.6c0,0.3,0.1,0.6,0.2,0.9
				c0.2,0.3,0.4,0.5,0.8,0.6c0.2,0.1,0.6,0.2,1.2,0.3c0.5,0.1,1,0.2,1.4,0.2v1H716.8z"/>
			<path class="st1" d="M739.4-394.4c1.1,1,1.9,2.2,2.5,3.6s0.9,2.9,0.9,4.6s-0.3,3.3-0.9,4.7c-0.6,1.4-1.5,2.6-2.6,3.6
				s-2.3,1.7-3.7,2.2s-2.9,0.8-4.5,0.8c-1.7,0-3.2-0.3-4.7-0.8c-1.4-0.6-2.6-1.3-3.7-2.3c-1-1-1.8-2.2-2.4-3.6s-0.9-2.9-0.9-4.5
				c0-1.7,0.3-3.3,0.9-4.7c0.6-1.4,1.5-2.6,2.5-3.6c1.1-1,2.3-1.7,3.7-2.3c1.4-0.5,2.9-0.8,4.4-0.8c1.6,0,3.1,0.3,4.5,0.8
				S738.3-395.3,739.4-394.4z M736.8-379.1c0.6-0.9,1.1-2,1.4-3.1c0.3-1.2,0.4-2.5,0.4-3.9c0-1.5-0.2-2.8-0.5-4.1
				c-0.3-1.2-0.8-2.3-1.4-3.2c-0.6-0.9-1.4-1.5-2.4-2c-0.9-0.5-2-0.7-3.2-0.7c-1.4,0-2.5,0.3-3.5,0.8c-1,0.6-1.7,1.3-2.3,2.2
				c-0.6,0.9-1,1.9-1.3,3.1s-0.4,2.4-0.4,3.8c0,1.5,0.1,2.8,0.4,3.9c0.3,1.2,0.8,2.2,1.4,3.1c0.6,0.9,1.4,1.6,2.3,2.1
				c0.9,0.5,2,0.7,3.3,0.7c1.2,0,2.3-0.3,3.3-0.8C735.4-377.5,736.2-378.2,736.8-379.1z"/>
			<path class="st1" d="M770.6-395.8c-0.3,0-0.8,0.1-1.5,0.2c-0.7,0.2-1.1,0.3-1.4,0.5c-0.4,0.3-0.7,0.7-0.8,1.5
				c-0.1,0.7-0.2,1.6-0.2,2.7v15.8h-1.5l-14.7-17.6v11.1c0,1.2,0.1,2.2,0.3,2.9c0.2,0.7,0.4,1.1,0.8,1.4c0.3,0.2,0.8,0.4,1.6,0.6
				s1.4,0.3,1.6,0.3v1.1h-9.9v-1.1c0.3,0,0.8-0.1,1.6-0.3c0.7-0.2,1.2-0.3,1.4-0.5c0.4-0.3,0.7-0.7,0.8-1.3c0.1-0.6,0.2-1.6,0.2-3
				v-10.6c0-0.5-0.1-0.9-0.3-1.4s-0.4-0.8-0.7-1.1c-0.4-0.3-1-0.6-1.7-0.9c-0.7-0.2-1.3-0.4-1.7-0.4v-1.1h6.9l13.6,16.4v-10.2
				c0-1.3-0.1-2.2-0.3-2.9c-0.2-0.7-0.4-1.1-0.8-1.3c-0.3-0.2-0.8-0.4-1.6-0.6c-0.7-0.2-1.3-0.3-1.6-0.3v-1.1h9.8v1.2H770.6z"/>
			<path class="st1" d="M795.1-375.4H785v-1.1c0.9-0.1,1.6-0.2,2.2-0.3c0.6-0.2,0.9-0.3,0.9-0.6c0-0.1,0-0.2,0-0.3
				c0-0.1-0.1-0.2-0.1-0.3l-2-4.8h-8.5c-0.3,0.7-0.6,1.3-0.8,1.8s-0.4,1-0.5,1.5c-0.1,0.4-0.2,0.8-0.3,1.1s-0.1,0.5-0.1,0.7
				c0,0.4,0.4,0.7,1.1,0.9c0.7,0.2,1.5,0.4,2.4,0.4v1.1h-9.1v-1.1c0.3,0,0.7-0.1,1.1-0.2c0.4-0.1,0.8-0.2,1.1-0.4
				c0.5-0.3,0.8-0.6,1.1-0.9c0.2-0.3,0.5-0.7,0.7-1.2c1.2-2.7,2.6-5.7,4-9.1c1.5-3.4,2.8-6.4,3.9-9h1.4l8.1,18.6
				c0.2,0.4,0.4,0.7,0.6,1c0.2,0.2,0.5,0.5,0.9,0.7c0.3,0.1,0.6,0.3,1,0.4s0.8,0.2,1.1,0.2v0.9H795.1z M785.4-384.2l-3.7-8.4
				l-3.6,8.4H785.4z"/>
			<path class="st1" d="M815.4-381.8l-0.5,6.4H796v-1.1c0.3,0,0.7-0.1,1.2-0.1s0.9-0.1,1.1-0.2c0.3-0.1,0.6-0.3,0.7-0.6
				c0.2-0.3,0.2-0.6,0.2-1v-15.4c0-0.3-0.1-0.6-0.2-0.9c-0.1-0.3-0.4-0.5-0.8-0.6c-0.3-0.1-0.6-0.2-1.1-0.4
				c-0.5-0.1-0.9-0.2-1.2-0.2v-1.1h10.2v1.1c-0.3,0-0.7,0.1-1.2,0.2s-0.9,0.2-1.1,0.2c-0.4,0.1-0.6,0.3-0.8,0.6
				c-0.1,0.3-0.2,0.6-0.2,0.9v14.5c0,0.7,0,1.2,0.1,1.6s0.2,0.7,0.5,0.9c0.3,0.2,0.7,0.3,1.2,0.4s1.2,0.1,2.2,0.1c0.4,0,0.9,0,1.3,0
				c0.5,0,0.9-0.1,1.3-0.1c0.4-0.1,0.8-0.1,1.1-0.2s0.6-0.2,0.7-0.4c0.5-0.5,1-1.2,1.6-2.1s1-1.7,1.3-2.3h1.3V-381.8z"/>
			<path class="st1" d="M836.1-374.9c-1.4,0-2.8-0.3-4.1-0.8s-2.5-1.2-3.5-2.2s-1.8-2.1-2.4-3.5c-0.6-1.4-0.9-2.9-0.9-4.6
				s0.3-3.3,0.9-4.7c0.6-1.4,1.4-2.6,2.5-3.6c1-1,2.3-1.8,3.7-2.3s2.9-0.8,4.5-0.8c1.2,0,2.3,0.1,3.2,0.4c1,0.3,1.9,0.6,2.8,1.1
				l0.7-1h1.4l0.2,7.7h-1.4c-0.2-0.7-0.5-1.6-0.8-2.4c-0.4-0.9-0.8-1.6-1.3-2.2c-0.5-0.7-1.2-1.2-1.9-1.6s-1.6-0.6-2.6-0.6
				c-1.1,0-2.1,0.2-3.1,0.7c-0.9,0.4-1.8,1.1-2.5,1.9s-1.2,1.9-1.5,3.1c-0.4,1.3-0.6,2.7-0.6,4.2c0,1.4,0.2,2.6,0.6,3.8
				c0.4,1.1,1,2.2,1.7,3c0.7,0.9,1.6,1.5,2.6,2s2.1,0.7,3.3,0.7c0.9,0,1.8-0.1,2.5-0.4c0.8-0.3,1.4-0.6,2-1s1.1-1,1.5-1.5
				c0.4-0.6,0.8-1.2,1.1-1.8l1.3,0.5c-1,2.1-2.3,3.7-3.9,4.6C840.2-375.3,838.3-374.9,836.1-374.9z"/>
			<path class="st1" d="M867.4-394.4c1.1,1,1.9,2.2,2.5,3.6s0.9,2.9,0.9,4.6s-0.3,3.3-0.9,4.7c-0.6,1.4-1.5,2.6-2.6,3.6
				s-2.3,1.7-3.7,2.2s-2.9,0.8-4.5,0.8c-1.7,0-3.2-0.3-4.7-0.8c-1.4-0.6-2.6-1.3-3.7-2.3c-1-1-1.8-2.2-2.4-3.6s-0.9-2.9-0.9-4.5
				c0-1.7,0.3-3.3,0.9-4.7c0.6-1.4,1.5-2.6,2.5-3.6c1.1-1,2.3-1.7,3.7-2.3c1.4-0.5,2.9-0.8,4.4-0.8c1.6,0,3.1,0.3,4.5,0.8
				S866.4-395.3,867.4-394.4z M864.9-379.1c0.6-0.9,1.1-2,1.4-3.1c0.3-1.2,0.4-2.5,0.4-3.9c0-1.5-0.2-2.8-0.5-4.1
				c-0.3-1.2-0.8-2.3-1.4-3.2c-0.6-0.9-1.4-1.5-2.4-2c-0.9-0.5-2-0.7-3.2-0.7c-1.4,0-2.5,0.3-3.5,0.8c-1,0.6-1.7,1.3-2.3,2.2
				c-0.6,0.9-1,1.9-1.3,3.1s-0.4,2.4-0.4,3.8c0,1.5,0.1,2.8,0.4,3.9c0.3,1.2,0.8,2.2,1.4,3.1c0.6,0.9,1.4,1.6,2.3,2.1
				c0.9,0.5,2,0.7,3.3,0.7c1.2,0,2.3-0.3,3.3-0.8S864.2-378.2,864.9-379.1z"/>
			<path class="st1" d="M898.3-395.8c-0.3,0-0.8,0.1-1.4,0.2c-0.6,0.1-1.1,0.3-1.5,0.5s-0.7,0.7-0.8,1.4c-0.1,0.7-0.2,1.6-0.2,2.7
				v9.4c0,1.2-0.3,2.2-0.8,3.1c-0.6,0.9-1.3,1.6-2.2,2.2c-0.9,0.5-1.8,0.9-2.8,1.2c-1,0.2-1.9,0.4-2.9,0.4c-1.5,0-2.8-0.2-3.9-0.5
				c-1.1-0.3-2.1-0.8-2.9-1.4c-0.8-0.6-1.3-1.2-1.7-2c-0.4-0.7-0.6-1.5-0.6-2.3v-12.7c0-0.4-0.1-0.6-0.2-0.9
				c-0.1-0.2-0.4-0.5-0.8-0.7c-0.3-0.1-0.6-0.3-1.1-0.3c-0.4-0.1-0.8-0.1-1.1-0.2v-1.1h10.1v1.1c-0.3,0-0.7,0.1-1.2,0.1
				c-0.5,0.1-0.8,0.2-1.1,0.2c-0.4,0.1-0.6,0.3-0.8,0.6c-0.1,0.3-0.2,0.6-0.2,0.9v11.9c0,0.6,0.1,1.2,0.2,1.8
				c0.1,0.6,0.4,1.2,0.8,1.8c0.4,0.6,1,1,1.8,1.4s1.8,0.5,3.1,0.5c1.2,0,2.3-0.2,3.1-0.5c0.8-0.4,1.5-0.8,2-1.4
				c0.5-0.5,0.8-1.1,1-1.7s0.3-1.2,0.3-1.8v-8.8c0-1.1-0.1-2-0.3-2.7s-0.4-1.2-0.8-1.4c-0.4-0.3-0.9-0.5-1.6-0.6
				c-0.7-0.1-1.2-0.2-1.6-0.2v-1.1h9.9v0.9H898.3z"/>
			<path class="st1" d="M923.8-375.4h-6.5c-1.4-2-2.7-3.8-3.9-5.2c-1.2-1.5-2.4-3-3.8-4.5h-2.5v6.8c0,0.4,0.1,0.7,0.2,0.9
				c0.1,0.3,0.4,0.5,0.8,0.6c0.2,0.1,0.6,0.1,1.1,0.2s0.9,0.1,1.3,0.1v1.1h-10.2v-1.1c0.3,0,0.7-0.1,1.2-0.1s0.9-0.1,1.1-0.2
				c0.3-0.1,0.6-0.3,0.7-0.6c0.2-0.3,0.2-0.6,0.2-1V-394c0-0.4-0.1-0.7-0.2-0.9c-0.1-0.3-0.4-0.5-0.8-0.6c-0.3-0.1-0.7-0.2-1.1-0.2
				c-0.5-0.1-0.8-0.1-1.2-0.1v-1.1h11.2c1,0,2,0.1,2.9,0.3c0.9,0.2,1.7,0.5,2.4,0.9s1.3,0.9,1.7,1.6s0.6,1.4,0.6,2.4
				c0,0.8-0.1,1.6-0.4,2.2c-0.3,0.6-0.7,1.2-1.3,1.7c-0.5,0.4-1.1,0.8-1.8,1.1c-0.7,0.3-1.5,0.6-2.4,0.8c1.2,1.4,2.2,2.6,3,3.5
				c0.8,1,1.8,2.1,2.9,3.5c0.5,0.6,1,1.1,1.4,1.3c0.4,0.3,0.8,0.5,1.2,0.7c0.3,0.1,0.7,0.2,1.1,0.3c0.4,0.1,0.8,0.1,1.1,0.1V-375.4z
				 M914.8-391.4c0-1.3-0.4-2.3-1.3-3.1c-0.8-0.8-2-1.1-3.6-1.1H907v9.2h2.2c1.6,0,2.9-0.4,3.9-1.3
				C914.3-388.7,914.8-389.9,914.8-391.4z"/>
			<path class="st1" d="M935.3-375.4h-10.9v-1.1c0.3,0,0.7-0.1,1.3-0.1s1-0.1,1.2-0.2c0.4-0.1,0.6-0.3,0.8-0.5s0.3-0.5,0.3-0.9
				v-15.6c0-0.4-0.1-0.6-0.2-0.9c-0.1-0.2-0.4-0.4-0.9-0.6c-0.3-0.1-0.8-0.2-1.3-0.3c-0.5-0.1-0.9-0.2-1.3-0.2v-1.1h10.9v1.1
				c-0.4,0-0.8,0-1.3,0.1s-0.9,0.1-1.3,0.2c-0.4,0.1-0.7,0.3-0.9,0.6c-0.1,0.3-0.2,0.6-0.2,0.9v15.6c0,0.3,0.1,0.6,0.2,0.9
				c0.2,0.3,0.4,0.5,0.8,0.6c0.2,0.1,0.6,0.2,1.2,0.3c0.5,0.1,1,0.2,1.4,0.2v1H935.3z"/>
			<path class="st1" d="M958.6-381.7l-0.5,6.3H938v-1.1c0.3,0,0.8-0.1,1.4-0.1c0.6-0.1,0.9-0.1,1.1-0.2c0.4-0.2,0.6-0.3,0.8-0.6
				c0.1-0.2,0.2-0.6,0.2-0.9v-15.5c0-0.3-0.1-0.6-0.2-0.9c-0.1-0.3-0.4-0.5-0.8-0.6c-0.3-0.1-0.7-0.2-1.2-0.3
				c-0.5-0.1-0.9-0.2-1.2-0.2v-1.1h18.7v5.2h-1.3c-0.2-0.8-0.7-1.6-1.5-2.4c-0.8-0.9-1.5-1.3-2.2-1.4c-0.4,0-0.8-0.1-1.3-0.1
				s-1,0-1.7,0H945v8.6h2.7c0.9,0,1.5-0.1,1.9-0.2s0.8-0.4,1.1-0.7c0.2-0.3,0.5-0.7,0.6-1.2c0.2-0.5,0.3-1,0.4-1.4h1.3v8.4h-1.3
				c0-0.5-0.2-1-0.4-1.5s-0.4-0.9-0.6-1.2c-0.4-0.4-0.8-0.7-1.2-0.8c-0.5-0.1-1-0.2-1.8-0.2H945v6.4c0,0.6,0,1.2,0.2,1.5
				c0.1,0.4,0.3,0.7,0.6,0.8c0.3,0.2,0.7,0.3,1.2,0.4s1.2,0.1,2.2,0.1c0.4,0,0.9,0,1.5,0s1.1,0,1.6-0.1c0.4,0,0.9-0.1,1.3-0.2
				c0.5-0.1,0.8-0.2,1-0.4c0.5-0.5,1.1-1.2,1.6-2.2c0.6-1,0.9-1.7,1.1-2.2L958.6-381.7L958.6-381.7z"/>
			<path class="st1" d="M984.7-375.4h-6.5c-1.4-2-2.7-3.8-3.9-5.2c-1.2-1.5-2.4-3-3.8-4.5H968v6.8c0,0.4,0.1,0.7,0.2,0.9
				c0.1,0.3,0.4,0.5,0.8,0.6c0.2,0.1,0.6,0.1,1.1,0.2s0.9,0.1,1.3,0.1v1.1h-10.2v-1.1c0.3,0,0.7-0.1,1.2-0.1s0.9-0.1,1.1-0.2
				c0.3-0.1,0.6-0.3,0.7-0.6c0.2-0.3,0.2-0.6,0.2-1V-394c0-0.4-0.1-0.7-0.2-0.9c-0.1-0.3-0.4-0.5-0.8-0.6c-0.3-0.1-0.7-0.2-1.1-0.2
				c-0.5-0.1-0.8-0.1-1.2-0.1v-1.1h11.2c1,0,2,0.1,2.9,0.3c0.9,0.2,1.7,0.5,2.4,0.9s1.3,0.9,1.7,1.6s0.6,1.4,0.6,2.4
				c0,0.8-0.1,1.6-0.4,2.2c-0.3,0.6-0.7,1.2-1.3,1.7c-0.5,0.4-1.1,0.8-1.8,1.1c-0.7,0.3-1.5,0.6-2.4,0.8c1.2,1.4,2.2,2.6,3,3.5
				c0.8,1,1.8,2.1,2.9,3.5c0.5,0.6,1,1.1,1.4,1.3c0.4,0.3,0.8,0.5,1.2,0.7c0.3,0.1,0.7,0.2,1.1,0.3s0.8,0.1,1.1,0.1V-375.4z
				 M975.7-391.4c0-1.3-0.4-2.3-1.3-3.1c-0.8-0.8-2-1.1-3.6-1.1H968v9.2h2.2c1.6,0,2.9-0.4,3.9-1.3
				C975.2-388.7,975.7-389.9,975.7-391.4z"/>
		</g>
	</g>
</g>
<g>
	<circle class="st3" cx="-920.4" cy="-920.5" r="430"/>
	<circle class="st4" cx="-608.6" cy="-1339.1" r="140.5"/>
	<circle class="st4" cx="-608.6" cy="-524.2" r="140.5"/>
	<circle class="st4" cx="-424.6" cy="-780" r="140.5"/>
	<circle class="st4" cx="-424.6" cy="-1087.9" r="140.5"/>
</g>
</svg>
