<?xml version="1.0" encoding="utf-8"?>
<!-- Generator: Adobe Illustrator 21.1.0, SVG Export Plug-In . SVG Version: 6.00 Build 0)  -->
<svg version="1.1" id="Layer_1" xmlns="http://www.w3.org/2000/svg" xmlns:xlink="http://www.w3.org/1999/xlink" x="0px" y="0px"
	 viewBox="0 0 295.7 73.3" style="enable-background:new 0 0 295.7 73.3;" xml:space="preserve">
<style type="text/css">
	.st0{fill:#0574B5;}
	.st1{fill:#FFFFFF;}
	.st2{fill:#EF8843;}
	.st3{fill:#4A4A4A;}
	.st4{fill:#A09F9F;}
	.st5{fill:#444545;}
	.st6{fill:#FFD287;}
	.st7{fill:#F3BD6B;}
	.st8{fill:#DEA354;}
	.st9{fill:#B1C2B3;}
	.st10{fill:#FFFAD8;}
	.st11{fill:#E2D6A0;}
	.st12{fill:#231F20;}
	.st13{fill:#EAF3D8;}
	.st14{fill:#F2F2F2;}
	.st15{opacity:0.2;fill:#FFFFFF;}
	.st16{opacity:0.8;}
</style>
<g>
	<g>
		<polygon class="st2" points="285.6,53.3 85.9,53.3 78.8,60.8 85.9,68.4 285.6,68.4 292.7,60.8 		"/>
		<polygon class="st0" points="254.8,6.1 16.8,6.1 3.2,29.7 16.8,53.3 254.8,53.3 268.5,29.7 		"/>
		<g>
			<polygon class="st2" points="85.4,2.7 46.1,2.7 26.5,36.7 46.1,70.7 85.4,70.7 105,36.7 			"/>
		</g>
		<g>
			<path class="st2" d="M245.2,48.4H113.7c-0.3,0-0.5-0.2-0.5-0.5c0-0.3,0.2-0.5,0.5-0.5h131.5c0.3,0,0.5,0.2,0.5,0.5
				C245.7,48.2,245.5,48.4,245.2,48.4z"/>
		</g>
		<g>
			<path class="st2" d="M266,10.6h-72.9c-0.3,0-0.5-0.2-0.5-0.5s0.2-0.5,0.5-0.5H266c0.3,0,0.5,0.2,0.5,0.5S266.3,10.6,266,10.6z"/>
		</g>
	</g>
	<g>
		<path d="M102.8,17.7h-1.7v-4.2h1.6c0.9,0,1.3,0.5,1.3,1.1c0,0.5-0.3,0.8-0.7,1c0.4,0.1,0.8,0.5,0.8,1
			C104.2,17.2,103.7,17.7,102.8,17.7z M102.7,14.1h-0.8v1.2h0.8c0.4,0,0.7-0.2,0.7-0.6C103.4,14.3,103.1,14.1,102.7,14.1z
			 M102.7,15.8h-0.9v1.3h0.9c0.5,0,0.7-0.2,0.7-0.6C103.5,16.1,103.2,15.8,102.7,15.8z"/>
		<path d="M106.4,17.7c-0.9,0-1.6-0.7-1.6-1.7c0-1,0.7-1.7,1.6-1.7c0.9,0,1.6,0.7,1.6,1.6c0,0.1,0,0.2,0,0.3h-2.5
			c0,0.5,0.4,0.9,0.9,0.9c0.4,0,0.7-0.2,0.8-0.5h0.7C107.7,17.3,107.2,17.7,106.4,17.7z M105.4,15.7h1.8c0-0.5-0.4-0.8-0.9-0.8
			C105.9,14.9,105.5,15.2,105.4,15.7z"/>
		<path d="M109.8,17.7c-0.8,0-1.3-0.5-1.4-1.1h0.7c0,0.3,0.3,0.5,0.7,0.5c0.4,0,0.6-0.2,0.6-0.4c0-0.6-1.9-0.3-1.9-1.5
			c0-0.5,0.5-1,1.3-1c0.8,0,1.2,0.4,1.3,1.1h-0.7c0-0.3-0.2-0.5-0.6-0.5c-0.4,0-0.6,0.1-0.6,0.4c0,0.7,1.9,0.3,1.9,1.5
			C111.1,17.3,110.6,17.7,109.8,17.7z"/>
		<path d="M112,14.9h-0.4v-0.6h0.4v-0.8h0.7v0.8h0.8v0.6h-0.8v1.8c0,0.2,0.1,0.3,0.4,0.3h0.4v0.6h-0.5c-0.6,0-1-0.2-1-0.9V14.9z"/>
		<path d="M115.6,13.5h0.7v4.2h-0.7V13.5z"/>
		<path d="M119.6,15.8c0-0.6-0.3-0.9-0.8-0.9c-0.5,0-0.8,0.3-0.8,0.9v1.8h-0.7v-3.3h0.7v0.4c0.2-0.3,0.6-0.4,1-0.4
			c0.8,0,1.4,0.5,1.4,1.4v1.9h-0.7V15.8z"/>
		<path d="M121.2,14.9h-0.4v-0.6h0.4v-0.8h0.7v0.8h0.8v0.6h-0.8v1.8c0,0.2,0.1,0.3,0.4,0.3h0.4v0.6h-0.5c-0.6,0-1-0.2-1-0.9V14.9z"
			/>
		<path d="M124.8,17.7c-0.9,0-1.6-0.7-1.6-1.7c0-1,0.7-1.7,1.6-1.7c0.9,0,1.6,0.7,1.6,1.6c0,0.1,0,0.2,0,0.3h-2.5
			c0,0.5,0.4,0.9,0.9,0.9c0.4,0,0.7-0.2,0.8-0.5h0.7C126.1,17.3,125.6,17.7,124.8,17.7z M123.8,15.7h1.8c0-0.5-0.4-0.8-0.9-0.8
			C124.3,14.9,123.9,15.2,123.8,15.7z"/>
		<path d="M127.7,17.7h-0.7v-3.3h0.7v0.5c0.2-0.3,0.5-0.5,1-0.5V15h-0.2c-0.5,0-0.8,0.2-0.8,0.9V17.7z"/>
		<path d="M131.7,15.8c0-0.6-0.3-0.9-0.8-0.9c-0.5,0-0.8,0.3-0.8,0.9v1.8h-0.7v-3.3h0.7v0.4c0.2-0.3,0.6-0.4,1-0.4
			c0.8,0,1.4,0.5,1.4,1.4v1.9h-0.7V15.8z"/>
		<path d="M134.6,14.3c0.6,0,0.9,0.3,1.1,0.5v-0.5h0.7v3.3h-0.7v-0.5c-0.2,0.3-0.6,0.5-1.2,0.5c-0.9,0-1.5-0.7-1.5-1.7
			S133.7,14.3,134.6,14.3z M134.7,14.9c-0.5,0-1,0.4-1,1.1c0,0.7,0.5,1.1,1,1.1c0.5,0,1-0.4,1-1.1C135.7,15.3,135.2,14.9,134.7,14.9
			z"/>
		<path d="M137.4,14.9H137v-0.6h0.4v-0.8h0.7v0.8h0.8v0.6h-0.8v1.8c0,0.2,0.1,0.3,0.4,0.3h0.4v0.6h-0.5c-0.6,0-1-0.2-1-0.9V14.9z"/>
		<path d="M139.5,13.5c0-0.2,0.2-0.4,0.4-0.4c0.2,0,0.4,0.2,0.4,0.4s-0.2,0.4-0.4,0.4C139.7,13.9,139.5,13.7,139.5,13.5z
			 M139.6,14.4h0.7v3.3h-0.7V14.4z"/>
		<path d="M142.6,17.7c-0.9,0-1.7-0.7-1.7-1.7c0-1,0.7-1.7,1.7-1.7s1.7,0.7,1.7,1.7C144.3,17,143.5,17.7,142.6,17.7z M142.6,17.1
			c0.5,0,1-0.4,1-1.1c0-0.7-0.5-1.1-1-1.1c-0.5,0-1,0.4-1,1.1C141.6,16.8,142.1,17.1,142.6,17.1z"/>
		<path d="M147.3,15.8c0-0.6-0.3-0.9-0.8-0.9c-0.5,0-0.8,0.3-0.8,0.9v1.8H145v-3.3h0.7v0.4c0.2-0.3,0.6-0.4,1-0.4
			c0.8,0,1.4,0.5,1.4,1.4v1.9h-0.7V15.8z"/>
		<path d="M150.2,14.3c0.6,0,0.9,0.3,1.1,0.5v-0.5h0.7v3.3h-0.7v-0.5c-0.2,0.3-0.6,0.5-1.2,0.5c-0.9,0-1.5-0.7-1.5-1.7
			S149.3,14.3,150.2,14.3z M150.3,14.9c-0.5,0-1,0.4-1,1.1c0,0.7,0.5,1.1,1,1.1c0.5,0,1-0.4,1-1.1C151.3,15.3,150.8,14.9,150.3,14.9
			z"/>
		<path d="M152.9,13.2h0.7v4.4h-0.7V13.2z"/>
		<path d="M157.3,17.7c-0.8,0-1.3-0.5-1.4-1.1h0.7c0,0.3,0.3,0.5,0.7,0.5c0.4,0,0.6-0.2,0.6-0.4c0-0.6-1.9-0.3-1.9-1.5
			c0-0.5,0.5-1,1.3-1c0.8,0,1.2,0.4,1.3,1.1h-0.7c0-0.3-0.2-0.5-0.6-0.5c-0.4,0-0.6,0.1-0.6,0.4c0,0.7,1.9,0.3,1.9,1.5
			C158.5,17.3,158,17.7,157.3,17.7z"/>
		<path d="M159.3,13.2h0.7v1.5c0.2-0.3,0.6-0.4,1-0.4c0.7,0,1.3,0.5,1.3,1.4v1.9h-0.7v-1.8c0-0.6-0.3-0.9-0.8-0.9
			c-0.5,0-0.8,0.3-0.8,0.9v1.8h-0.7V13.2z"/>
		<path d="M163.1,13.5c0-0.2,0.2-0.4,0.4-0.4c0.2,0,0.4,0.2,0.4,0.4s-0.2,0.4-0.4,0.4C163.3,13.9,163.1,13.7,163.1,13.5z
			 M163.2,14.4h0.7v3.3h-0.7V14.4z"/>
		<path d="M166.6,14.3c0.9,0,1.6,0.7,1.6,1.7s-0.7,1.7-1.6,1.7c-0.5,0-0.9-0.3-1.2-0.5v2.1h-0.7v-4.9h0.7v0.5
			C165.6,14.6,166,14.3,166.6,14.3z M166.4,14.9c-0.5,0-1,0.4-1,1.1c0,0.7,0.5,1.1,1,1.1c0.5,0,1-0.4,1-1.1
			C167.4,15.3,166.9,14.9,166.4,14.9z"/>
		<path d="M170.7,14.3c0.9,0,1.6,0.7,1.6,1.7s-0.7,1.7-1.6,1.7c-0.5,0-0.9-0.3-1.2-0.5v2.1h-0.7v-4.9h0.7v0.5
			C169.7,14.6,170.1,14.3,170.7,14.3z M170.5,14.9c-0.5,0-1,0.4-1,1.1c0,0.7,0.5,1.1,1,1.1c0.5,0,1-0.4,1-1.1
			C171.5,15.3,171,14.9,170.5,14.9z"/>
		<path d="M172.8,13.5c0-0.2,0.2-0.4,0.4-0.4c0.2,0,0.4,0.2,0.4,0.4s-0.2,0.4-0.4,0.4C173,13.9,172.8,13.7,172.8,13.5z M172.9,14.4
			h0.7v3.3h-0.7V14.4z"/>
		<path d="M176.8,15.8c0-0.6-0.3-0.9-0.8-0.9c-0.5,0-0.8,0.3-0.8,0.9v1.8h-0.7v-3.3h0.7v0.4c0.2-0.3,0.6-0.4,1-0.4
			c0.8,0,1.4,0.5,1.4,1.4v1.9h-0.7V15.8z"/>
		<path d="M179.7,14.3c0.5,0,0.9,0.3,1.1,0.5v-0.5h0.7v3.4c0,0.9-0.6,1.6-1.6,1.6c-0.9,0-1.5-0.4-1.6-1.2h0.7
			c0.1,0.3,0.5,0.6,0.9,0.6c0.5,0,0.9-0.3,0.9-1v-0.6c-0.2,0.3-0.6,0.6-1.1,0.6c-0.9,0-1.6-0.7-1.6-1.7S178.8,14.3,179.7,14.3z
			 M179.8,14.9c-0.5,0-1,0.4-1,1.1c0,0.7,0.5,1.1,1,1.1c0.5,0,1-0.4,1-1.1C180.8,15.3,180.4,14.9,179.8,14.9z"/>
		<path d="M187.4,14.3c0.9,0,1.6,0.7,1.6,1.7s-0.7,1.7-1.6,1.7c-0.5,0-0.9-0.3-1.2-0.5v2.1h-0.7v-4.9h0.7v0.5
			C186.4,14.6,186.8,14.3,187.4,14.3z M187.2,14.9c-0.5,0-1,0.4-1,1.1c0,0.7,0.5,1.1,1,1.1c0.5,0,1-0.4,1-1.1
			C188.2,15.3,187.8,14.9,187.2,14.9z"/>
		<path d="M190.3,17.7h-0.7v-3.3h0.7v0.5c0.2-0.3,0.5-0.5,1-0.5V15h-0.2c-0.5,0-0.8,0.2-0.8,0.9V17.7z"/>
		<path d="M191.8,13.5c0-0.2,0.2-0.4,0.4-0.4c0.2,0,0.4,0.2,0.4,0.4s-0.2,0.4-0.4,0.4C192,13.9,191.8,13.7,191.8,13.5z M191.9,14.4
			h0.7v3.3h-0.7V14.4z"/>
		<path d="M194.9,14.3c0.8,0,1.3,0.4,1.5,1.1h-0.7c-0.1-0.3-0.4-0.5-0.8-0.5c-0.6,0-0.9,0.4-0.9,1.1c0,0.7,0.4,1.1,0.9,1.1
			c0.4,0,0.7-0.2,0.8-0.5h0.7c-0.2,0.6-0.7,1.1-1.5,1.1c-0.9,0-1.6-0.7-1.6-1.7C193.3,15,194,14.3,194.9,14.3z"/>
		<path d="M198.5,17.7c-0.9,0-1.6-0.7-1.6-1.7c0-1,0.7-1.7,1.6-1.7c0.9,0,1.6,0.7,1.6,1.6c0,0.1,0,0.2,0,0.3h-2.5
			c0,0.5,0.4,0.9,0.9,0.9c0.4,0,0.7-0.2,0.8-0.5h0.7C199.9,17.3,199.3,17.7,198.5,17.7z M197.6,15.7h1.8c0-0.5-0.4-0.8-0.9-0.8
			C198,14.9,197.7,15.2,197.6,15.7z"/>
		<path d="M202,17.7c-0.8,0-1.3-0.5-1.4-1.1h0.7c0,0.3,0.3,0.5,0.7,0.5c0.4,0,0.6-0.2,0.6-0.4c0-0.6-1.9-0.3-1.9-1.5
			c0-0.5,0.5-1,1.3-1c0.8,0,1.2,0.4,1.3,1.1h-0.7c0-0.3-0.2-0.5-0.6-0.5c-0.4,0-0.6,0.1-0.6,0.4c0,0.7,1.9,0.3,1.9,1.5
			C203.3,17.3,202.8,17.7,202,17.7z"/>
		<path d="M205.5,13.5c0-0.2,0.2-0.4,0.4-0.4c0.2,0,0.4,0.2,0.4,0.4s-0.2,0.4-0.4,0.4C205.7,13.9,205.5,13.7,205.5,13.5z
			 M205.6,14.4h0.7v3.3h-0.7V14.4z"/>
		<path d="M209.5,15.8c0-0.6-0.3-0.9-0.8-0.9c-0.5,0-0.8,0.3-0.8,0.9v1.8h-0.7v-3.3h0.7v0.4c0.2-0.3,0.6-0.4,1-0.4
			c0.8,0,1.4,0.5,1.4,1.4v1.9h-0.7V15.8z"/>
		<path d="M212.6,13.5h0.7v4.2h-0.7V13.5z"/>
		<path d="M216.5,15.8c0-0.6-0.3-0.9-0.8-0.9c-0.5,0-0.8,0.3-0.8,0.9v1.8h-0.7v-3.3h0.7v0.4c0.2-0.3,0.6-0.4,1-0.4
			c0.8,0,1.4,0.5,1.4,1.4v1.9h-0.7V15.8z"/>
		<path d="M219.4,14.3c0.4,0,0.9,0.2,1.1,0.5v-1.6h0.7v4.4h-0.7v-0.5c-0.2,0.3-0.6,0.6-1.1,0.6c-0.9,0-1.6-0.7-1.6-1.7
			S218.5,14.3,219.4,14.3z M219.6,14.9c-0.5,0-1,0.4-1,1.1c0,0.7,0.5,1.1,1,1.1c0.5,0,1-0.4,1-1.1C220.6,15.3,220.1,14.9,219.6,14.9
			z"/>
		<path d="M222.1,13.5c0-0.2,0.2-0.4,0.4-0.4c0.2,0,0.4,0.2,0.4,0.4s-0.2,0.4-0.4,0.4C222.3,13.9,222.1,13.7,222.1,13.5z
			 M222.2,14.4h0.7v3.3h-0.7V14.4z"/>
		<path d="M225.1,14.3c0.6,0,0.9,0.3,1.1,0.5v-0.5h0.7v3.3h-0.7v-0.5c-0.2,0.3-0.6,0.5-1.2,0.5c-0.9,0-1.5-0.7-1.5-1.7
			S224.2,14.3,225.1,14.3z M225.2,14.9c-0.5,0-1,0.4-1,1.1c0,0.7,0.5,1.1,1,1.1c0.5,0,1-0.4,1-1.1C226.2,15.3,225.7,14.9,225.2,14.9
			z"/>
	</g>
	<g>
		<g>
			<path class="st1" d="M113.2,32.6h-5.4v-2.2l5.1-7.2h3.1v7.1h1.3v2.4H116v2.1h-2.7V32.6z M113.4,30.2v-4.1l-2.7,4.1H113.4z"/>
			<path class="st1" d="M121.6,31.2c0.2,0.8,0.6,1.3,1.5,1.3c1.2,0,1.6-1,1.6-3.2c-0.5,0.7-1.3,1-2.3,1c-2,0-3.5-1.2-3.5-3.7
				c0-2.4,1.5-3.9,4-3.9c3.3,0,4.3,2.3,4.3,5.8c0,4-0.9,6.2-4.1,6.2c-2.5,0-3.8-1.7-3.9-3.5H121.6z M124.4,26.7c0-1-0.6-1.6-1.5-1.6
				c-0.9,0-1.5,0.6-1.5,1.6c0,0.9,0.5,1.5,1.6,1.5C123.8,28.2,124.4,27.6,124.4,26.7z"/>
			<path class="st1" d="M133,22.7c3.3,0,4.5,2.5,4.5,5.9c0,3.5-1.2,6-4.5,6c-3.3,0-4.5-2.5-4.5-6C128.5,25.2,129.6,22.7,133,22.7z
				 M133,25.3c-1.6,0-1.8,1.6-1.8,3.4c0,1.9,0.2,3.4,1.8,3.4c1.6,0,1.8-1.5,1.8-3.4C134.8,26.9,134.6,25.3,133,25.3z"/>
			<path class="st1" d="M142.6,19.5h2.6L141,37.7h-2.6L142.6,19.5z"/>
			<path class="st1" d="M149.1,29.7v5h-2.7V23.4h2.7v4.9l3.7-4.9h3.2l-4.4,5.5l4.5,5.7h-3.3L149.1,29.7z"/>
			<path class="st1" d="M168,27h-3c-0.4-0.8-1.2-1.2-2.2-1.2c-1.8,0-2.9,1.2-2.9,3.2c0,2.1,1.2,3.3,3.2,3.3c1.4,0,2.3-0.7,2.7-2
				h-3.5v-2h6v2.5c-0.6,1.9-2.4,3.9-5.4,3.9c-3.4,0-5.7-2.4-5.7-5.7c0-3.4,2.4-5.7,5.7-5.7C165.5,23.3,167.5,24.7,168,27z"/>
		</g>
		<g>
			<g>
				<path class="st1" d="M174.7,28h-1.1v-2.3h1.1v-2.2h2.7v2.2h1.8V28h-1.8v3.6c0,0.5,0.2,0.8,0.8,0.8h1v2.3h-1.4
					c-1.9,0-3.2-0.8-3.2-3.1V28z"/>
				<path class="st1" d="M184.9,34.8c-2.6,0-4.6-1.8-4.6-4.6s2-4.6,4.6-4.6c2.6,0,4.6,1.8,4.6,4.6S187.5,34.8,184.9,34.8z
					 M184.9,32.4c1,0,1.9-0.7,1.9-2.2c0-1.5-0.9-2.2-1.9-2.2c-1,0-1.9,0.7-1.9,2.2C183,31.7,183.9,32.4,184.9,32.4z"/>
				<path class="st1" d="M194.3,23.4h2.7v6.7c0,1.3,0.7,2.1,2,2.1c1.3,0,2-0.8,2-2.1v-6.7h2.7v6.7c0,3.1-2.2,4.6-4.8,4.6
					c-2.6,0-4.6-1.5-4.6-4.6V23.4z"/>
				<path class="st1" d="M209.7,34.8c-2.4,0-4.3-1.2-4.4-3.5h2.9c0.1,0.9,0.6,1.3,1.4,1.3c0.8,0,1.3-0.4,1.3-1.1
					c0-2.1-5.6-1-5.6-4.9c0-2.1,1.7-3.3,4.1-3.3c2.4,0,4.1,1.2,4.2,3.4h-3c0-0.7-0.6-1.2-1.3-1.2c-0.7,0-1.2,0.3-1.2,1
					c0,2,5.6,1.1,5.6,4.8C213.8,33.2,212.4,34.8,209.7,34.8z"/>
				<path class="st1" d="M222.5,32.7h-4.2l-0.7,2h-2.9l4.1-11.2h3.2l4.1,11.2h-2.9L222.5,32.7z M220.4,26.4l-1.4,4.1h2.8L220.4,26.4
					z"/>
			</g>
		</g>
	</g>
	<g>
		<path d="M182.9,40.9h-0.3v-0.5h0.3v-0.2c0-0.6,0.3-0.9,1-0.9v0.5c-0.3,0-0.5,0.1-0.5,0.4v0.2h0.5v0.5h-0.5v2.3h-0.6V40.9z"/>
		<path d="M185.7,43.2c-0.8,0-1.4-0.6-1.4-1.4c0-0.9,0.6-1.4,1.4-1.4c0.8,0,1.4,0.6,1.4,1.4C187.1,42.6,186.5,43.2,185.7,43.2z
			 M185.7,42.7c0.4,0,0.8-0.3,0.8-0.9c0-0.6-0.4-0.9-0.8-0.9c-0.4,0-0.8,0.3-0.8,0.9C184.9,42.4,185.3,42.7,185.7,42.7z"/>
		<path d="M188.3,43.2h-0.6v-2.8h0.6v0.4c0.2-0.3,0.4-0.4,0.8-0.4v0.6h-0.1c-0.4,0-0.7,0.2-0.7,0.8V43.2z"/>
		<path d="M192,40.4c0.5,0,0.8,0.2,1,0.4v-0.4h0.6v2.8H193v-0.4c-0.2,0.2-0.5,0.5-1,0.5c-0.7,0-1.3-0.6-1.3-1.4
			C190.7,40.9,191.3,40.4,192,40.4z M192.1,40.9c-0.4,0-0.8,0.3-0.8,0.9s0.4,0.9,0.8,0.9c0.4,0,0.8-0.3,0.8-0.9
			C193,41.2,192.6,40.9,192.1,40.9z"/>
		<path d="M195.8,40.4c0.7,0,1.3,0.6,1.3,1.4c0,0.9-0.6,1.4-1.3,1.4c-0.5,0-0.8-0.2-1-0.4v0.4h-0.6v-3.7h0.6v1.4
			C195,40.6,195.4,40.4,195.8,40.4z M195.7,40.9c-0.4,0-0.8,0.3-0.8,0.9c0,0.6,0.4,0.9,0.8,0.9c0.4,0,0.8-0.3,0.8-0.9
			S196.1,40.9,195.7,40.9z"/>
		<path d="M198.9,43.2c-0.8,0-1.4-0.6-1.4-1.4c0-0.9,0.6-1.4,1.4-1.4c0.8,0,1.4,0.6,1.4,1.4C200.3,42.6,199.7,43.2,198.9,43.2z
			 M198.9,42.7c0.4,0,0.8-0.3,0.8-0.9c0-0.6-0.4-0.9-0.8-0.9c-0.4,0-0.8,0.3-0.8,0.9C198.1,42.4,198.4,42.7,198.9,42.7z"/>
		<path d="M201.2,40.4l0.8,2.2l0.8-2.2h0.6l-1.1,2.8h-0.7l-1-2.8H201.2z"/>
		<path d="M204.9,43.2c-0.8,0-1.4-0.6-1.4-1.4c0-0.9,0.6-1.4,1.4-1.4c0.8,0,1.3,0.5,1.3,1.4c0,0.1,0,0.2,0,0.3h-2.1
			c0,0.5,0.4,0.7,0.8,0.7c0.4,0,0.5-0.2,0.7-0.4h0.6C206,42.8,205.6,43.2,204.9,43.2z M204.2,41.5h1.5c0-0.4-0.3-0.7-0.8-0.7
			C204.5,40.8,204.2,41.1,204.2,41.5z"/>
		<path d="M208,42.7c0.9-0.8,1.8-1.4,1.8-2.1c0-0.4-0.2-0.6-0.6-0.6c-0.4,0-0.6,0.3-0.6,0.7H208c0-0.8,0.5-1.2,1.2-1.2
			c0.7,0,1.2,0.4,1.2,1.1c0,0.9-0.9,1.6-1.5,2.1h1.6v0.5H208V42.7z"/>
		<path d="M213.3,39.5V40h-1.7v1c0.1-0.2,0.4-0.3,0.8-0.3c0.9,0,1.2,0.7,1.2,1.2c0,0.7-0.4,1.3-1.3,1.3c-0.8,0-1.2-0.4-1.3-1h0.6
			c0.1,0.3,0.3,0.5,0.7,0.5c0.5,0,0.7-0.3,0.7-0.8c0-0.5-0.2-0.7-0.7-0.7c-0.3,0-0.6,0.2-0.7,0.5h-0.5v-2.1H213.3z"/>
		<path d="M215.5,39.5h0.6v2.2l1-1.2h0.8l-1.3,1.4l1.3,1.4h-0.8l-1-1.2v1.2h-0.6V39.5z"/>
		<path d="M219.4,40.4c0.5,0,0.8,0.2,1,0.4v-0.4h0.6v2.8c0,0.8-0.5,1.3-1.3,1.3c-0.7,0-1.3-0.4-1.4-1h0.6c0.1,0.3,0.4,0.5,0.8,0.5
			c0.4,0,0.8-0.3,0.8-0.8v-0.5c-0.2,0.2-0.5,0.5-1,0.5c-0.7,0-1.3-0.6-1.3-1.4C218.1,40.9,218.7,40.4,219.4,40.4z M219.5,40.9
			c-0.4,0-0.8,0.3-0.8,0.9s0.4,0.9,0.8,0.9c0.4,0,0.8-0.3,0.8-0.9C220.4,41.2,219.9,40.9,219.5,40.9z"/>
		<path d="M222.7,43.2c-0.7,0-1.1-0.4-1.2-0.9h0.6c0,0.2,0.2,0.4,0.6,0.4c0.3,0,0.5-0.1,0.5-0.3c0-0.5-1.6-0.2-1.6-1.2
			c0-0.4,0.4-0.8,1.1-0.8c0.6,0,1,0.3,1.1,0.9h-0.6c0-0.2-0.2-0.4-0.5-0.4c-0.3,0-0.5,0.1-0.5,0.3c0,0.6,1.6,0.2,1.6,1.2
			C223.7,42.9,223.3,43.2,222.7,43.2z"/>
		<path d="M226.8,40.4c0.5,0,0.8,0.2,1,0.4v-0.4h0.6v2.8h-0.6v-0.4c-0.2,0.2-0.5,0.5-1,0.5c-0.7,0-1.3-0.6-1.3-1.4
			C225.5,40.9,226,40.4,226.8,40.4z M226.9,40.9c-0.4,0-0.8,0.3-0.8,0.9s0.4,0.9,0.8,0.9c0.4,0,0.8-0.3,0.8-0.9
			C227.7,41.2,227.3,40.9,226.9,40.9z"/>
		<path d="M231,41.6c0-0.5-0.3-0.8-0.7-0.8c-0.4,0-0.7,0.3-0.7,0.8v1.5H229v-2.8h0.6v0.3c0.2-0.2,0.5-0.4,0.8-0.4
			c0.6,0,1.1,0.4,1.1,1.2v1.6H231V41.6z"/>
		<path d="M233.4,40.4c0.4,0,0.7,0.2,1,0.4v-1.3h0.6v3.7h-0.6v-0.4c-0.2,0.3-0.5,0.5-1,0.5c-0.7,0-1.3-0.6-1.3-1.4
			C232.1,40.9,232.7,40.4,233.4,40.4z M233.5,40.9c-0.4,0-0.8,0.3-0.8,0.9s0.4,0.9,0.8,0.9c0.4,0,0.8-0.3,0.8-0.9
			C234.3,41.2,233.9,40.9,233.5,40.9z"/>
		<path d="M238.1,40.4c0.5,0,0.8,0.2,1,0.4v-0.4h0.6v2.8H239v-0.4c-0.2,0.2-0.5,0.5-1,0.5c-0.7,0-1.3-0.6-1.3-1.4
			C236.8,40.9,237.4,40.4,238.1,40.4z M238.2,40.9c-0.4,0-0.8,0.3-0.8,0.9s0.4,0.9,0.8,0.9c0.4,0,0.8-0.3,0.8-0.9
			C239,41.2,238.6,40.9,238.2,40.9z"/>
		<path d="M241.9,40.4c0.7,0,1.3,0.6,1.3,1.4c0,0.9-0.6,1.4-1.3,1.4c-0.5,0-0.8-0.2-1-0.4v0.4h-0.6v-3.7h0.6v1.4
			C241.1,40.6,241.5,40.4,241.9,40.4z M241.8,40.9c-0.4,0-0.8,0.3-0.8,0.9c0,0.6,0.4,0.9,0.8,0.9c0.4,0,0.8-0.3,0.8-0.9
			S242.2,40.9,241.8,40.9z"/>
		<path d="M244.9,43.2c-0.8,0-1.4-0.6-1.4-1.4c0-0.9,0.6-1.4,1.4-1.4s1.4,0.6,1.4,1.4C246.4,42.6,245.7,43.2,244.9,43.2z
			 M244.9,42.7c0.4,0,0.8-0.3,0.8-0.9c0-0.6-0.4-0.9-0.8-0.9c-0.4,0-0.8,0.3-0.8,0.9C244.1,42.4,244.5,42.7,244.9,42.7z"/>
		<path d="M247.2,40.4l0.8,2.2l0.8-2.2h0.6l-1.1,2.8h-0.7l-1-2.8H247.2z"/>
		<path d="M251,43.2c-0.8,0-1.4-0.6-1.4-1.4c0-0.9,0.6-1.4,1.4-1.4c0.8,0,1.3,0.5,1.3,1.4c0,0.1,0,0.2,0,0.3h-2.1
			c0,0.5,0.4,0.7,0.8,0.7c0.4,0,0.5-0.2,0.7-0.4h0.6C252.1,42.8,251.7,43.2,251,43.2z M250.2,41.5h1.5c0-0.4-0.3-0.7-0.8-0.7
			C250.6,40.8,250.3,41.1,250.2,41.5z"/>
		<path d="M253.1,43.2c-0.2,0-0.4-0.2-0.4-0.4s0.2-0.4,0.4-0.4c0.2,0,0.4,0.2,0.4,0.4S253.3,43.2,253.1,43.2z"/>
	</g>
	<g>
		<path class="st5" d="M101.4,57.9v2.9h-0.5l-1.4-2.1v2.1H99v-2.9h0.5l1.4,2.1v-2.1H101.4z"/>
		<path class="st5" d="M103,60.8c-0.6,0-1.1-0.5-1.1-1.2s0.5-1.2,1.2-1.2c0.7,0,1.2,0.5,1.2,1.2S103.7,60.8,103,60.8z M103,60.4
			c0.4,0,0.7-0.3,0.7-0.8s-0.3-0.8-0.7-0.8c-0.4,0-0.7,0.2-0.7,0.8S102.7,60.4,103,60.4z"/>
		<path class="st5" d="M104.7,58.9h-0.3v-0.4h0.3v-0.6h0.5v0.6h0.6v0.4h-0.6v1.3c0,0.2,0.1,0.2,0.3,0.2h0.3v0.4h-0.4
			c-0.4,0-0.7-0.2-0.7-0.6V58.9z"/>
		<path class="st5" d="M107.2,60.8c-0.7,0-1.1-0.5-1.1-1.2s0.5-1.2,1.1-1.2c0.7,0,1.1,0.5,1.1,1.1c0,0.1,0,0.2,0,0.2h-1.7
			c0,0.4,0.3,0.6,0.6,0.6c0.3,0,0.5-0.1,0.5-0.3h0.5C108.1,60.5,107.7,60.8,107.2,60.8z M106.5,59.4h1.3c0-0.4-0.3-0.6-0.6-0.6
			C106.8,58.9,106.6,59.1,106.5,59.4z"/>
		<path class="st5" d="M109,59.1c-0.2,0-0.3-0.1-0.3-0.3c0-0.2,0.1-0.3,0.3-0.3c0.2,0,0.3,0.1,0.3,0.3C109.3,59,109.1,59.1,109,59.1
			z M109,60.8c-0.2,0-0.3-0.1-0.3-0.3s0.1-0.3,0.3-0.3c0.2,0,0.3,0.1,0.3,0.3S109.1,60.8,109,60.8z"/>
		<path class="st1" d="M110.9,57.9h0.5v2.9h-0.5V57.9z"/>
		<path class="st1" d="M112,58.9h-0.3v-0.4h0.3v-0.2c0-0.5,0.3-0.8,0.9-0.8V58c-0.3,0-0.4,0.1-0.4,0.4v0.2h0.4v0.4h-0.4v1.9H112
			V58.9z"/>
		<path class="st1" d="M115.3,58.5c0.4,0,0.7,0.2,0.8,0.4v-0.3h0.5v2.3h-0.5v-0.3c-0.1,0.2-0.4,0.4-0.8,0.4c-0.6,0-1.1-0.5-1.1-1.2
			C114.2,58.9,114.7,58.5,115.3,58.5z M115.4,58.9c-0.4,0-0.7,0.3-0.7,0.8c0,0.5,0.3,0.8,0.7,0.8c0.4,0,0.7-0.3,0.7-0.8
			C116.1,59.2,115.8,58.9,115.4,58.9z"/>
		<path class="st1" d="M118.8,59.5c0-0.4-0.2-0.6-0.6-0.6c-0.3,0-0.6,0.2-0.6,0.6v1.3h-0.5v-2.3h0.5v0.3c0.2-0.2,0.4-0.3,0.7-0.3
			c0.5,0,0.9,0.3,0.9,1v1.3h-0.5V59.5z"/>
		<path class="st1" d="M121.5,58.5h0.5l-1.4,3.4h-0.5l0.5-1.1l-0.9-2.2h0.5l0.6,1.7L121.5,58.5z"/>
		<path class="st1" d="M124.3,58.5c0.6,0,0.9,0.3,1.1,0.8h-0.5c-0.1-0.2-0.3-0.4-0.5-0.4c-0.4,0-0.6,0.3-0.6,0.8
			c0,0.5,0.3,0.8,0.6,0.8c0.3,0,0.5-0.1,0.5-0.4h0.5c-0.1,0.4-0.5,0.8-1.1,0.8c-0.7,0-1.1-0.5-1.1-1.2
			C123.2,58.9,123.7,58.5,124.3,58.5z"/>
		<path class="st1" d="M127.9,60.8h-0.5v-0.3c-0.1,0.2-0.4,0.3-0.7,0.3c-0.5,0-0.9-0.3-0.9-1v-1.3h0.5v1.3c0,0.4,0.2,0.6,0.6,0.6
			c0.3,0,0.6-0.2,0.6-0.6v-1.3h0.5V60.8z"/>
		<path class="st1" d="M129.4,60.8c-0.5,0-0.9-0.3-1-0.7h0.5c0,0.2,0.2,0.3,0.5,0.3c0.3,0,0.4-0.1,0.4-0.3c0-0.4-1.3-0.2-1.3-1
			c0-0.4,0.3-0.7,0.9-0.7c0.5,0,0.9,0.3,0.9,0.7h-0.5c0-0.2-0.2-0.3-0.4-0.3c-0.3,0-0.4,0.1-0.4,0.3c0,0.5,1.3,0.2,1.3,1
			C130.3,60.5,129.9,60.8,129.4,60.8z"/>
		<path class="st1" d="M130.8,58.9h-0.3v-0.4h0.3v-0.6h0.5v0.6h0.6v0.4h-0.6v1.3c0,0.2,0.1,0.2,0.3,0.2h0.3v0.4h-0.4
			c-0.4,0-0.7-0.2-0.7-0.6V58.9z"/>
		<path class="st1" d="M133.3,60.8c-0.6,0-1.1-0.5-1.1-1.2s0.5-1.2,1.2-1.2c0.7,0,1.2,0.5,1.2,1.2S133.9,60.8,133.3,60.8z
			 M133.3,60.4c0.4,0,0.7-0.3,0.7-0.8s-0.3-0.8-0.7-0.8c-0.4,0-0.7,0.2-0.7,0.8S132.9,60.4,133.3,60.4z"/>
		<path class="st1" d="M138.2,59.5c0-0.4-0.2-0.6-0.6-0.6c-0.3,0-0.6,0.2-0.6,0.6v1.3h-0.5v-1.3c0-0.4-0.2-0.6-0.6-0.6
			c-0.3,0-0.6,0.2-0.6,0.6v1.3h-0.5v-2.3h0.5v0.3c0.2-0.2,0.4-0.3,0.7-0.3c0.4,0,0.7,0.2,0.8,0.5c0.1-0.3,0.5-0.5,0.8-0.5
			c0.5,0,0.9,0.3,0.9,1v1.3h-0.5V59.5z"/>
		<path class="st1" d="M141.3,58.5c0.6,0,0.9,0.3,1.1,0.8h-0.5c-0.1-0.2-0.3-0.4-0.5-0.4c-0.4,0-0.6,0.3-0.6,0.8
			c0,0.5,0.3,0.8,0.6,0.8c0.3,0,0.5-0.1,0.5-0.4h0.5c-0.1,0.4-0.5,0.8-1.1,0.8c-0.7,0-1.1-0.5-1.1-1.2
			C140.2,58.9,140.6,58.5,141.3,58.5z"/>
		<path class="st1" d="M142.8,57.7h0.5v1c0.2-0.2,0.4-0.3,0.7-0.3c0.5,0,0.9,0.3,0.9,1v1.3h-0.5v-1.3c0-0.4-0.2-0.6-0.6-0.6
			c-0.3,0-0.6,0.2-0.6,0.6v1.3h-0.5V57.7z"/>
		<path class="st1" d="M146.4,58.5c0.4,0,0.7,0.2,0.8,0.4v-0.3h0.5v2.3h-0.5v-0.3c-0.1,0.2-0.4,0.4-0.8,0.4c-0.6,0-1.1-0.5-1.1-1.2
			C145.3,58.9,145.8,58.5,146.4,58.5z M146.5,58.9c-0.4,0-0.7,0.3-0.7,0.8c0,0.5,0.3,0.8,0.7,0.8c0.4,0,0.7-0.3,0.7-0.8
			C147.2,59.2,146.9,58.9,146.5,58.9z"/>
		<path class="st1" d="M148.8,60.8h-0.5v-2.3h0.5v0.3c0.1-0.2,0.4-0.4,0.7-0.4V59h-0.1c-0.3,0-0.6,0.1-0.6,0.6V60.8z"/>
		<path class="st1" d="M150.8,58.5c0.4,0,0.7,0.2,0.8,0.4v-0.3h0.5v2.3c0,0.6-0.4,1.1-1.1,1.1c-0.6,0-1.1-0.3-1.1-0.8h0.5
			c0.1,0.2,0.3,0.4,0.6,0.4c0.4,0,0.6-0.2,0.6-0.7v-0.4c-0.1,0.2-0.4,0.4-0.8,0.4c-0.6,0-1.1-0.5-1.1-1.2
			C149.7,58.9,150.2,58.5,150.8,58.5z M150.9,58.9c-0.4,0-0.7,0.3-0.7,0.8c0,0.5,0.3,0.8,0.7,0.8c0.4,0,0.7-0.3,0.7-0.8
			C151.6,59.2,151.3,58.9,150.9,58.9z"/>
		<path class="st1" d="M153.7,60.8c-0.7,0-1.1-0.5-1.1-1.2s0.5-1.2,1.1-1.2c0.7,0,1.1,0.5,1.1,1.1c0,0.1,0,0.2,0,0.2H153
			c0,0.4,0.3,0.6,0.6,0.6c0.3,0,0.5-0.1,0.5-0.3h0.5C154.6,60.5,154.2,60.8,153.7,60.8z M153,59.4h1.3c0-0.4-0.3-0.6-0.6-0.6
			C153.3,58.9,153.1,59.1,153,59.4z"/>
		<path class="st1" d="M156.1,60.8c-0.5,0-0.9-0.3-1-0.7h0.5c0,0.2,0.2,0.3,0.5,0.3c0.3,0,0.4-0.1,0.4-0.3c0-0.4-1.3-0.2-1.3-1
			c0-0.4,0.3-0.7,0.9-0.7c0.5,0,0.9,0.3,0.9,0.7h-0.5c0-0.2-0.2-0.3-0.4-0.3c-0.3,0-0.4,0.1-0.4,0.3c0,0.5,1.3,0.2,1.3,1
			C157,60.5,156.6,60.8,156.1,60.8z"/>
		<path class="st1" d="M158.5,57.9c0-0.2,0.1-0.3,0.3-0.3c0.2,0,0.3,0.1,0.3,0.3c0,0.2-0.1,0.3-0.3,0.3
			C158.6,58.2,158.5,58.1,158.5,57.9z M158.5,58.5h0.5v2.3h-0.5V58.5z"/>
		<path class="st1" d="M162.9,59.5c0-0.4-0.2-0.6-0.6-0.6c-0.3,0-0.6,0.2-0.6,0.6v1.3h-0.5v-1.3c0-0.4-0.2-0.6-0.6-0.6
			c-0.3,0-0.6,0.2-0.6,0.6v1.3h-0.5v-2.3h0.5v0.3c0.2-0.2,0.4-0.3,0.7-0.3c0.4,0,0.7,0.2,0.8,0.5c0.1-0.3,0.5-0.5,0.8-0.5
			c0.5,0,0.9,0.3,0.9,1v1.3h-0.5V59.5z"/>
		<path class="st1" d="M165.2,58.5c0.6,0,1.1,0.5,1.1,1.2c0,0.7-0.5,1.2-1.1,1.2c-0.4,0-0.6-0.2-0.8-0.4v1.4h-0.5v-3.4h0.5v0.3
			C164.6,58.7,164.8,58.5,165.2,58.5z M165.1,58.9c-0.4,0-0.7,0.3-0.7,0.8c0,0.5,0.3,0.8,0.7,0.8c0.4,0,0.7-0.3,0.7-0.8
			C165.8,59.2,165.5,58.9,165.1,58.9z"/>
		<path class="st1" d="M167.7,60.8c-0.6,0-1.1-0.5-1.1-1.2s0.5-1.2,1.2-1.2c0.7,0,1.2,0.5,1.2,1.2S168.4,60.8,167.7,60.8z
			 M167.7,60.4c0.4,0,0.7-0.3,0.7-0.8s-0.3-0.8-0.7-0.8c-0.4,0-0.7,0.2-0.7,0.8S167.4,60.4,167.7,60.4z"/>
		<path class="st1" d="M170.2,60.8c-0.5,0-0.9-0.3-1-0.7h0.5c0,0.2,0.2,0.3,0.5,0.3c0.3,0,0.4-0.1,0.4-0.3c0-0.4-1.3-0.2-1.3-1
			c0-0.4,0.3-0.7,0.9-0.7c0.5,0,0.9,0.3,0.9,0.7h-0.5c0-0.2-0.2-0.3-0.4-0.3c-0.3,0-0.4,0.1-0.4,0.3c0,0.5,1.3,0.2,1.3,1
			C171.1,60.5,170.8,60.8,170.2,60.8z"/>
		<path class="st1" d="M172.6,60.8c-0.7,0-1.1-0.5-1.1-1.2s0.5-1.2,1.1-1.2c0.7,0,1.1,0.5,1.1,1.1c0,0.1,0,0.2,0,0.2h-1.7
			c0,0.4,0.3,0.6,0.6,0.6c0.3,0,0.5-0.1,0.5-0.3h0.5C173.5,60.5,173.1,60.8,172.6,60.8z M171.9,59.4h1.3c0-0.4-0.3-0.6-0.6-0.6
			C172.2,58.9,172,59.1,171.9,59.4z"/>
		<path class="st1" d="M175.1,58.5c0.3,0,0.6,0.1,0.8,0.4v-1.1h0.5v3.1h-0.5v-0.3c-0.1,0.2-0.4,0.4-0.8,0.4c-0.6,0-1.1-0.5-1.1-1.2
			C174,58.9,174.5,58.5,175.1,58.5z M175.2,58.9c-0.4,0-0.7,0.3-0.7,0.8c0,0.5,0.3,0.8,0.7,0.8c0.4,0,0.7-0.3,0.7-0.8
			C175.9,59.2,175.5,58.9,175.2,58.9z"/>
		<path class="st1" d="M179,60.8c-0.6,0-1.1-0.5-1.1-1.2s0.5-1.2,1.2-1.2c0.7,0,1.2,0.5,1.2,1.2S179.7,60.8,179,60.8z M179,60.4
			c0.4,0,0.7-0.3,0.7-0.8s-0.3-0.8-0.7-0.8c-0.4,0-0.7,0.2-0.7,0.8S178.7,60.4,179,60.4z"/>
		<path class="st1" d="M182.3,59.5c0-0.4-0.2-0.6-0.6-0.6c-0.3,0-0.6,0.2-0.6,0.6v1.3h-0.5v-2.3h0.5v0.3c0.2-0.2,0.4-0.3,0.7-0.3
			c0.5,0,0.9,0.3,0.9,1v1.3h-0.5V59.5z"/>
		<path class="st1" d="M185.4,58.5c0.4,0,0.7,0.2,0.8,0.4v-0.3h0.5v2.3h-0.5v-0.3c-0.1,0.2-0.4,0.4-0.8,0.4c-0.6,0-1.1-0.5-1.1-1.2
			C184.3,58.9,184.8,58.5,185.4,58.5z M185.5,58.9c-0.4,0-0.7,0.3-0.7,0.8c0,0.5,0.3,0.8,0.7,0.8c0.4,0,0.7-0.3,0.7-0.8
			C186.2,59.2,185.8,58.9,185.5,58.9z"/>
		<path class="st1" d="M189.2,60.8c-0.5,0-0.9-0.3-1-0.7h0.5c0,0.2,0.2,0.3,0.5,0.3c0.3,0,0.4-0.1,0.4-0.3c0-0.4-1.3-0.2-1.3-1
			c0-0.4,0.3-0.7,0.9-0.7c0.5,0,0.9,0.3,0.9,0.7h-0.5c0-0.2-0.2-0.3-0.4-0.3c-0.3,0-0.4,0.1-0.4,0.3c0,0.5,1.3,0.2,1.3,1
			C190,60.5,189.7,60.8,189.2,60.8z"/>
		<path class="st1" d="M190.5,57.7h0.5v1c0.2-0.2,0.4-0.3,0.7-0.3c0.5,0,0.9,0.3,0.9,1v1.3h-0.5v-1.3c0-0.4-0.2-0.6-0.6-0.6
			c-0.3,0-0.6,0.2-0.6,0.6v1.3h-0.5V57.7z"/>
		<path class="st1" d="M193.2,57.9c0-0.2,0.1-0.3,0.3-0.3c0.2,0,0.3,0.1,0.3,0.3c0,0.2-0.1,0.3-0.3,0.3
			C193.3,58.2,193.2,58.1,193.2,57.9z M193.2,58.5h0.5v2.3h-0.5V58.5z"/>
		<path class="st1" d="M195.6,58.5c0.6,0,1.1,0.5,1.1,1.2c0,0.7-0.5,1.2-1.1,1.2c-0.4,0-0.6-0.2-0.8-0.4v1.4h-0.5v-3.4h0.5v0.3
			C194.9,58.7,195.2,58.5,195.6,58.5z M195.5,58.9c-0.4,0-0.7,0.3-0.7,0.8c0,0.5,0.3,0.8,0.7,0.8c0.4,0,0.7-0.3,0.7-0.8
			C196.2,59.2,195.8,58.9,195.5,58.9z"/>
		<path class="st1" d="M200.4,59.5c0-0.4-0.2-0.6-0.6-0.6c-0.3,0-0.6,0.2-0.6,0.6v1.3h-0.5v-1.3c0-0.4-0.2-0.6-0.6-0.6
			c-0.3,0-0.6,0.2-0.6,0.6v1.3h-0.5v-2.3h0.5v0.3c0.2-0.2,0.4-0.3,0.7-0.3c0.4,0,0.7,0.2,0.8,0.5c0.1-0.3,0.5-0.5,0.8-0.5
			c0.5,0,0.9,0.3,0.9,1v1.3h-0.5V59.5z"/>
		<path class="st1" d="M202.4,60.8c-0.7,0-1.1-0.5-1.1-1.2s0.5-1.2,1.1-1.2c0.7,0,1.1,0.5,1.1,1.1c0,0.1,0,0.2,0,0.2h-1.7
			c0,0.4,0.3,0.6,0.6,0.6c0.3,0,0.5-0.1,0.5-0.3h0.5C203.3,60.5,203,60.8,202.4,60.8z M201.8,59.4h1.3c0-0.4-0.3-0.6-0.6-0.6
			C202.1,58.9,201.8,59.1,201.8,59.4z"/>
		<path class="st1" d="M205.6,59.5c0-0.4-0.2-0.6-0.6-0.6c-0.3,0-0.6,0.2-0.6,0.6v1.3H204v-2.3h0.5v0.3c0.2-0.2,0.4-0.3,0.7-0.3
			c0.5,0,0.9,0.3,0.9,1v1.3h-0.5V59.5z"/>
		<path class="st1" d="M206.8,58.9h-0.3v-0.4h0.3v-0.6h0.5v0.6h0.6v0.4h-0.6v1.3c0,0.2,0.1,0.2,0.3,0.2h0.3v0.4h-0.4
			c-0.4,0-0.7-0.2-0.7-0.6V58.9z"/>
		<path class="st1" d="M208.2,60.2h0.5l-0.5,1.1h-0.3L208.2,60.2z"/>
		<path class="st1" d="M210.2,57.7h0.5v1c0.2-0.2,0.4-0.3,0.7-0.3c0.5,0,0.9,0.3,0.9,1v1.3h-0.5v-1.3c0-0.4-0.2-0.6-0.6-0.6
			c-0.3,0-0.6,0.2-0.6,0.6v1.3h-0.5V57.7z"/>
		<path class="st1" d="M213.8,58.5c0.4,0,0.7,0.2,0.8,0.4v-0.3h0.5v2.3h-0.5v-0.3c-0.1,0.2-0.4,0.4-0.8,0.4c-0.6,0-1.1-0.5-1.1-1.2
			C212.8,58.9,213.2,58.5,213.8,58.5z M213.9,58.9c-0.4,0-0.7,0.3-0.7,0.8c0,0.5,0.3,0.8,0.7,0.8c0.4,0,0.7-0.3,0.7-0.8
			C214.6,59.2,214.3,58.9,213.9,58.9z"/>
		<path class="st1" d="M216.6,60.8c-0.5,0-0.9-0.3-1-0.7h0.5c0,0.2,0.2,0.3,0.5,0.3c0.3,0,0.4-0.1,0.4-0.3c0-0.4-1.3-0.2-1.3-1
			c0-0.4,0.3-0.7,0.9-0.7c0.5,0,0.9,0.3,0.9,0.7h-0.5c0-0.2-0.2-0.3-0.4-0.3c-0.3,0-0.4,0.1-0.4,0.3c0,0.5,1.3,0.2,1.3,1
			C217.4,60.5,217.1,60.8,216.6,60.8z"/>
		<path class="st1" d="M219.1,58.9h-0.3v-0.4h0.3v-0.6h0.5v0.6h0.6v0.4h-0.6v1.3c0,0.2,0.1,0.2,0.3,0.2h0.3v0.4h-0.4
			c-0.4,0-0.7-0.2-0.7-0.6V58.9z"/>
		<path class="st1" d="M221.5,60.8c-0.6,0-1.1-0.5-1.1-1.2s0.5-1.2,1.2-1.2c0.7,0,1.2,0.5,1.2,1.2S222.2,60.8,221.5,60.8z
			 M221.5,60.4c0.4,0,0.7-0.3,0.7-0.8s-0.3-0.8-0.7-0.8c-0.4,0-0.7,0.2-0.7,0.8S221.2,60.4,221.5,60.4z"/>
		<path class="st1" d="M225.5,58.5c0.6,0,1.1,0.5,1.1,1.2c0,0.7-0.5,1.2-1.1,1.2c-0.4,0-0.6-0.2-0.8-0.4v0.3h-0.5v-3.1h0.5v1.1
			C224.9,58.6,225.2,58.5,225.5,58.5z M225.4,58.9c-0.4,0-0.7,0.3-0.7,0.8c0,0.5,0.3,0.8,0.7,0.8c0.4,0,0.7-0.3,0.7-0.8
			C226.1,59.2,225.8,58.9,225.4,58.9z"/>
		<path class="st1" d="M228.1,60.8c-0.7,0-1.1-0.5-1.1-1.2s0.5-1.2,1.1-1.2c0.7,0,1.1,0.5,1.1,1.1c0,0.1,0,0.2,0,0.2h-1.7
			c0,0.4,0.3,0.6,0.6,0.6c0.3,0,0.5-0.1,0.5-0.3h0.5C229,60.5,228.6,60.8,228.1,60.8z M227.4,59.4h1.3c0-0.4-0.3-0.6-0.6-0.6
			C227.7,58.9,227.5,59.1,227.4,59.4z"/>
		<path class="st1" d="M232,58.5c0.6,0,1.1,0.5,1.1,1.2c0,0.7-0.5,1.2-1.1,1.2c-0.4,0-0.6-0.2-0.8-0.4v1.4h-0.5v-3.4h0.5v0.3
			C231.3,58.7,231.6,58.5,232,58.5z M231.9,58.9c-0.4,0-0.7,0.3-0.7,0.8c0,0.5,0.3,0.8,0.7,0.8c0.4,0,0.7-0.3,0.7-0.8
			C232.6,59.2,232.2,58.9,231.9,58.9z"/>
		<path class="st1" d="M234.4,58.5c0.4,0,0.7,0.2,0.8,0.4v-0.3h0.5v2.3h-0.5v-0.3c-0.1,0.2-0.4,0.4-0.8,0.4c-0.6,0-1.1-0.5-1.1-1.2
			C233.4,58.9,233.8,58.5,234.4,58.5z M234.5,58.9c-0.4,0-0.7,0.3-0.7,0.8c0,0.5,0.3,0.8,0.7,0.8c0.4,0,0.7-0.3,0.7-0.8
			C235.2,59.2,234.9,58.9,234.5,58.9z"/>
		<path class="st1" d="M236.3,57.9c0-0.2,0.1-0.3,0.3-0.3c0.2,0,0.3,0.1,0.3,0.3c0,0.2-0.1,0.3-0.3,0.3
			C236.4,58.2,236.3,58.1,236.3,57.9z M236.3,58.5h0.5v2.3h-0.5V58.5z"/>
		<path class="st1" d="M238.3,58.5c0.3,0,0.6,0.1,0.8,0.4v-1.1h0.5v3.1h-0.5v-0.3c-0.1,0.2-0.4,0.4-0.8,0.4c-0.6,0-1.1-0.5-1.1-1.2
			C237.3,58.9,237.7,58.5,238.3,58.5z M238.4,58.9c-0.4,0-0.7,0.3-0.7,0.8c0,0.5,0.3,0.8,0.7,0.8c0.4,0,0.7-0.3,0.7-0.8
			C239.1,59.2,238.8,58.9,238.4,58.9z"/>
		<path class="st1" d="M242.6,58.5c0.6,0,1.1,0.5,1.1,1.2c0,0.7-0.5,1.2-1.1,1.2c-0.4,0-0.6-0.2-0.8-0.4v0.3h-0.5v-3.1h0.5v1.1
			C241.9,58.6,242.2,58.5,242.6,58.5z M242.5,58.9c-0.4,0-0.7,0.3-0.7,0.8c0,0.5,0.3,0.8,0.7,0.8c0.4,0,0.7-0.3,0.7-0.8
			C243.2,59.2,242.8,58.9,242.5,58.9z"/>
		<path class="st1" d="M245.7,58.5h0.5l-1.4,3.4h-0.5l0.5-1.1l-0.9-2.2h0.5l0.6,1.7L245.7,58.5z"/>
		<path class="st1" d="M247.7,58.9h-0.3v-0.4h0.3v-0.6h0.5v0.6h0.6v0.4h-0.6v1.3c0,0.2,0.1,0.2,0.3,0.2h0.3v0.4h-0.4
			c-0.4,0-0.7-0.2-0.7-0.6V58.9z"/>
		<path class="st1" d="M249.1,57.7h0.5v1c0.2-0.2,0.4-0.3,0.7-0.3c0.5,0,0.9,0.3,0.9,1v1.3h-0.5v-1.3c0-0.4-0.2-0.6-0.6-0.6
			c-0.3,0-0.6,0.2-0.6,0.6v1.3h-0.5V57.7z"/>
		<path class="st1" d="M252.8,60.8c-0.7,0-1.1-0.5-1.1-1.2s0.5-1.2,1.1-1.2c0.7,0,1.1,0.5,1.1,1.1c0,0.1,0,0.2,0,0.2h-1.7
			c0,0.4,0.3,0.6,0.6,0.6c0.3,0,0.5-0.1,0.5-0.3h0.5C253.7,60.5,253.4,60.8,252.8,60.8z M252.2,59.4h1.3c0-0.4-0.3-0.6-0.6-0.6
			C252.5,58.9,252.2,59.1,252.2,59.4z"/>
		<path class="st1" d="M255.9,60.8h-0.5v-2.3h0.5v0.3c0.1-0.2,0.4-0.4,0.7-0.4V59h-0.1c-0.3,0-0.6,0.1-0.6,0.6V60.8z"/>
		<path class="st1" d="M258,60.8c-0.7,0-1.1-0.5-1.1-1.2s0.5-1.2,1.1-1.2c0.7,0,1.1,0.5,1.1,1.1c0,0.1,0,0.2,0,0.2h-1.7
			c0,0.4,0.3,0.6,0.6,0.6c0.3,0,0.5-0.1,0.5-0.3h0.5C258.9,60.5,258.6,60.8,258,60.8z M257.4,59.4h1.3c0-0.4-0.3-0.6-0.6-0.6
			C257.7,58.9,257.4,59.1,257.4,59.4z"/>
		<path class="st1" d="M260.6,58.5c0.6,0,0.9,0.3,1.1,0.8h-0.5c-0.1-0.2-0.3-0.4-0.5-0.4c-0.4,0-0.6,0.3-0.6,0.8
			c0,0.5,0.3,0.8,0.6,0.8c0.3,0,0.5-0.1,0.5-0.4h0.5c-0.1,0.4-0.5,0.8-1.1,0.8c-0.7,0-1.1-0.5-1.1-1.2
			C259.4,58.9,259.9,58.5,260.6,58.5z"/>
		<path class="st1" d="M263.1,60.8c-0.7,0-1.1-0.5-1.1-1.2s0.5-1.2,1.1-1.2c0.7,0,1.1,0.5,1.1,1.1c0,0.1,0,0.2,0,0.2h-1.7
			c0,0.4,0.3,0.6,0.6,0.6c0.3,0,0.5-0.1,0.5-0.3h0.5C264,60.5,263.6,60.8,263.1,60.8z M262.4,59.4h1.3c0-0.4-0.3-0.6-0.6-0.6
			C262.7,58.9,262.5,59.1,262.4,59.4z"/>
		<path class="st1" d="M264.6,57.9c0-0.2,0.1-0.3,0.3-0.3c0.2,0,0.3,0.1,0.3,0.3c0,0.2-0.1,0.3-0.3,0.3
			C264.7,58.2,264.6,58.1,264.6,57.9z M264.6,58.5h0.5v2.3h-0.5V58.5z"/>
		<path class="st1" d="M266,58.5l0.6,1.9l0.6-1.9h0.5l-0.9,2.3h-0.6l-0.9-2.3H266z"/>
		<path class="st1" d="M269.1,60.8c-0.7,0-1.1-0.5-1.1-1.2s0.5-1.2,1.1-1.2c0.7,0,1.1,0.5,1.1,1.1c0,0.1,0,0.2,0,0.2h-1.7
			c0,0.4,0.3,0.6,0.6,0.6c0.3,0,0.5-0.1,0.5-0.3h0.5C270,60.5,269.7,60.8,269.1,60.8z M268.5,59.4h1.3c0-0.4-0.3-0.6-0.6-0.6
			C268.8,58.9,268.5,59.1,268.5,59.4z"/>
		<path class="st1" d="M271.2,60.8h-0.5v-2.3h0.5v0.3c0.1-0.2,0.4-0.4,0.7-0.4V59h-0.1c-0.3,0-0.6,0.1-0.6,0.6V60.8z"/>
		<path class="st1" d="M274.3,60.8c-0.6,0-1.1-0.5-1.1-1.2s0.5-1.2,1.2-1.2s1.2,0.5,1.2,1.2S275,60.8,274.3,60.8z M274.3,60.4
			c0.4,0,0.7-0.3,0.7-0.8s-0.3-0.8-0.7-0.8c-0.4,0-0.7,0.2-0.7,0.8S274,60.4,274.3,60.4z"/>
		<path class="st1" d="M277.6,59.5c0-0.4-0.2-0.6-0.6-0.6c-0.3,0-0.6,0.2-0.6,0.6v1.3H276v-2.3h0.5v0.3c0.2-0.2,0.4-0.3,0.7-0.3
			c0.5,0,0.9,0.3,0.9,1v1.3h-0.5V59.5z"/>
		<path class="st1" d="M278.7,57.7h0.5v3.1h-0.5V57.7z"/>
		<path class="st1" d="M281.3,58.5h0.5l-1.4,3.4h-0.5l0.5-1.1l-0.9-2.2h0.5l0.6,1.7L281.3,58.5z"/>
		<path class="st1" d="M282.4,60.8c-0.2,0-0.3-0.1-0.3-0.3s0.1-0.3,0.3-0.3c0.2,0,0.3,0.1,0.3,0.3S282.5,60.8,282.4,60.8z"/>
		<path class="st1" d="M112.7,64.5h-1.4v1.3h-0.5v-2.9h0.5v1.2h1.4v-1.2h0.5v2.9h-0.5V64.5z"/>
		<path class="st1" d="M113.7,62.9c0-0.2,0.1-0.3,0.3-0.3c0.2,0,0.3,0.1,0.3,0.3c0,0.2-0.1,0.3-0.3,0.3
			C113.9,63.2,113.7,63,113.7,62.9z M113.8,63.5h0.5v2.3h-0.5V63.5z"/>
		<path class="st1" d="M116.5,64.5c0-0.4-0.2-0.6-0.6-0.6c-0.3,0-0.6,0.2-0.6,0.6v1.3h-0.5v-2.3h0.5v0.3c0.2-0.2,0.4-0.3,0.7-0.3
			c0.5,0,0.9,0.3,0.9,1v1.3h-0.5V64.5z"/>
		<path class="st1" d="M118.5,63.4c0.3,0,0.6,0.1,0.8,0.4v-1.1h0.5v3.1h-0.5v-0.3c-0.1,0.2-0.4,0.4-0.8,0.4c-0.6,0-1.1-0.5-1.1-1.2
			S117.9,63.4,118.5,63.4z M118.6,63.9c-0.4,0-0.7,0.3-0.7,0.8c0,0.5,0.3,0.8,0.7,0.8c0.4,0,0.7-0.3,0.7-0.8
			C119.3,64.1,119,63.9,118.6,63.9z"/>
		<path class="st1" d="M122.5,65.8H122v-0.3c-0.1,0.2-0.4,0.3-0.7,0.3c-0.5,0-0.9-0.3-0.9-1v-1.3h0.5v1.3c0,0.4,0.2,0.6,0.6,0.6
			c0.3,0,0.6-0.2,0.6-0.6v-1.3h0.5V65.8z"/>
		<path class="st1" d="M123.9,65.8c-0.5,0-0.9-0.3-1-0.7h0.5c0,0.2,0.2,0.3,0.5,0.3c0.3,0,0.4-0.1,0.4-0.3c0-0.4-1.3-0.2-1.3-1
			c0-0.4,0.3-0.7,0.9-0.7c0.5,0,0.9,0.3,0.9,0.7h-0.5c0-0.2-0.2-0.3-0.4-0.3c-0.3,0-0.4,0.1-0.4,0.3c0,0.5,1.3,0.2,1.3,1
			C124.8,65.5,124.4,65.8,123.9,65.8z"/>
		<path class="st1" d="M125.4,63.9h-0.3v-0.4h0.3v-0.6h0.5v0.6h0.6v0.4h-0.6v1.3c0,0.2,0.1,0.2,0.3,0.2h0.3v0.4H126
			c-0.4,0-0.7-0.2-0.7-0.6V63.9z"/>
		<path class="st1" d="M127.7,63.4c0.4,0,0.7,0.2,0.8,0.4v-0.3h0.5v2.3h-0.5v-0.3c-0.1,0.2-0.4,0.4-0.8,0.4c-0.6,0-1.1-0.5-1.1-1.2
			S127.1,63.4,127.7,63.4z M127.8,63.9c-0.4,0-0.7,0.3-0.7,0.8c0,0.5,0.3,0.8,0.7,0.8c0.4,0,0.7-0.3,0.7-0.8
			C128.5,64.1,128.2,63.9,127.8,63.9z"/>
		<path class="st1" d="M131.3,64.5c0-0.4-0.2-0.6-0.6-0.6c-0.3,0-0.6,0.2-0.6,0.6v1.3h-0.5v-2.3h0.5v0.3c0.2-0.2,0.4-0.3,0.7-0.3
			c0.5,0,0.9,0.3,0.9,1v1.3h-0.5V64.5z"/>
		<path class="st1" d="M133.4,62.9h0.5v2.9h-0.5V62.9z"/>
		<path class="st1" d="M136.1,64.5c0-0.4-0.2-0.6-0.6-0.6c-0.3,0-0.6,0.2-0.6,0.6v1.3h-0.5v-2.3h0.5v0.3c0.2-0.2,0.4-0.3,0.7-0.3
			c0.5,0,0.9,0.3,0.9,1v1.3h-0.5V64.5z"/>
		<path class="st1" d="M137.3,63.9H137v-0.4h0.3v-0.6h0.5v0.6h0.6v0.4h-0.6v1.3c0,0.2,0.1,0.2,0.3,0.2h0.3v0.4h-0.4
			c-0.4,0-0.7-0.2-0.7-0.6V63.9z"/>
		<path class="st1" d="M139.7,65.8c-0.7,0-1.1-0.5-1.1-1.2c0-0.7,0.5-1.2,1.1-1.2c0.7,0,1.1,0.5,1.1,1.1c0,0.1,0,0.2,0,0.2h-1.7
			c0,0.4,0.3,0.6,0.6,0.6c0.3,0,0.5-0.1,0.5-0.3h0.5C140.6,65.5,140.3,65.8,139.7,65.8z M139.1,64.4h1.3c0-0.4-0.3-0.6-0.6-0.6
			C139.4,63.8,139.1,64.1,139.1,64.4z"/>
		<path class="st1" d="M141.8,65.8h-0.5v-2.3h0.5v0.3c0.1-0.2,0.4-0.4,0.7-0.4v0.5h-0.1c-0.3,0-0.6,0.1-0.6,0.6V65.8z"/>
		<path class="st1" d="M144.5,64.5c0-0.4-0.2-0.6-0.6-0.6c-0.3,0-0.6,0.2-0.6,0.6v1.3h-0.5v-2.3h0.5v0.3c0.2-0.2,0.4-0.3,0.7-0.3
			c0.5,0,0.9,0.3,0.9,1v1.3h-0.5V64.5z"/>
		<path class="st1" d="M146.5,63.4c0.4,0,0.7,0.2,0.8,0.4v-0.3h0.5v2.3h-0.5v-0.3c-0.1,0.2-0.4,0.4-0.8,0.4c-0.6,0-1.1-0.5-1.1-1.2
			S145.9,63.4,146.5,63.4z M146.6,63.9c-0.4,0-0.7,0.3-0.7,0.8c0,0.5,0.3,0.8,0.7,0.8c0.4,0,0.7-0.3,0.7-0.8
			C147.3,64.1,146.9,63.9,146.6,63.9z"/>
		<path class="st1" d="M148.4,63.9h-0.3v-0.4h0.3v-0.6h0.5v0.6h0.6v0.4h-0.6v1.3c0,0.2,0.1,0.2,0.3,0.2h0.3v0.4h-0.4
			c-0.4,0-0.7-0.2-0.7-0.6V63.9z"/>
		<path class="st1" d="M149.8,62.9c0-0.2,0.1-0.3,0.3-0.3c0.2,0,0.3,0.1,0.3,0.3c0,0.2-0.1,0.3-0.3,0.3
			C150,63.2,149.8,63,149.8,62.9z M149.9,63.5h0.5v2.3h-0.5V63.5z"/>
		<path class="st1" d="M152,65.8c-0.6,0-1.1-0.5-1.1-1.2c0-0.7,0.5-1.2,1.2-1.2c0.7,0,1.2,0.5,1.2,1.2
			C153.2,65.3,152.6,65.8,152,65.8z M152,65.4c0.4,0,0.7-0.3,0.7-0.8c0-0.5-0.3-0.8-0.7-0.8c-0.4,0-0.7,0.2-0.7,0.8
			C151.3,65.1,151.6,65.4,152,65.4z"/>
		<path class="st1" d="M155.3,64.5c0-0.4-0.2-0.6-0.6-0.6c-0.3,0-0.6,0.2-0.6,0.6v1.3h-0.5v-2.3h0.5v0.3c0.2-0.2,0.4-0.3,0.7-0.3
			c0.5,0,0.9,0.3,0.9,1v1.3h-0.5V64.5z"/>
		<path class="st1" d="M157.2,63.4c0.4,0,0.7,0.2,0.8,0.4v-0.3h0.5v2.3H158v-0.3c-0.1,0.2-0.4,0.4-0.8,0.4c-0.6,0-1.1-0.5-1.1-1.2
			S156.6,63.4,157.2,63.4z M157.3,63.9c-0.4,0-0.7,0.3-0.7,0.8c0,0.5,0.3,0.8,0.7,0.8c0.4,0,0.7-0.3,0.7-0.8
			C158,64.1,157.7,63.9,157.3,63.9z"/>
		<path class="st1" d="M159.1,62.7h0.5v3.1h-0.5V62.7z"/>
		<path class="st1" d="M162.6,62.8c0.6,0,1.1,0.3,1.3,0.9h-0.6c-0.2-0.3-0.4-0.5-0.8-0.5c-0.6,0-1,0.4-1,1.1c0,0.7,0.4,1.1,1,1.1
			c0.3,0,0.6-0.1,0.8-0.5h0.6c-0.2,0.6-0.7,0.9-1.3,0.9c-0.8,0-1.5-0.6-1.5-1.5C161.1,63.5,161.8,62.8,162.6,62.8z"/>
		<path class="st1" d="M165.5,65.8c-0.6,0-1.1-0.5-1.1-1.2c0-0.7,0.5-1.2,1.2-1.2s1.2,0.5,1.2,1.2C166.7,65.3,166.2,65.8,165.5,65.8
			z M165.5,65.4c0.4,0,0.7-0.3,0.7-0.8c0-0.5-0.3-0.8-0.7-0.8c-0.4,0-0.7,0.2-0.7,0.8C164.8,65.1,165.1,65.4,165.5,65.4z"/>
		<path class="st1" d="M169.2,65.8h-0.5v-0.3c-0.1,0.2-0.4,0.3-0.7,0.3c-0.5,0-0.9-0.3-0.9-1v-1.3h0.5v1.3c0,0.4,0.2,0.6,0.6,0.6
			c0.3,0,0.6-0.2,0.6-0.6v-1.3h0.5V65.8z"/>
		<path class="st1" d="M170.3,65.8h-0.5v-2.3h0.5v0.3c0.1-0.2,0.4-0.4,0.7-0.4v0.5h-0.1c-0.3,0-0.6,0.1-0.6,0.6V65.8z"/>
		<path class="st1" d="M171.4,62.9c0-0.2,0.1-0.3,0.3-0.3c0.2,0,0.3,0.1,0.3,0.3c0,0.2-0.1,0.3-0.3,0.3
			C171.5,63.2,171.4,63,171.4,62.9z M171.4,63.5h0.5v2.3h-0.5V63.5z"/>
		<path class="st1" d="M173.5,65.8c-0.7,0-1.1-0.5-1.1-1.2c0-0.7,0.5-1.2,1.1-1.2c0.7,0,1.1,0.5,1.1,1.1c0,0.1,0,0.2,0,0.2h-1.7
			c0,0.4,0.3,0.6,0.6,0.6c0.3,0,0.5-0.1,0.5-0.3h0.5C174.4,65.5,174.1,65.8,173.5,65.8z M172.9,64.4h1.3c0-0.4-0.3-0.6-0.6-0.6
			C173.2,63.8,172.9,64.1,172.9,64.4z"/>
		<path class="st1" d="M175.5,65.8h-0.5v-2.3h0.5v0.3c0.1-0.2,0.4-0.4,0.7-0.4v0.5h-0.1c-0.3,0-0.6,0.1-0.6,0.6V65.8z"/>
		<path class="st1" d="M177.7,62.9c0-0.2,0.1-0.3,0.3-0.3c0.2,0,0.3,0.1,0.3,0.3c0,0.2-0.1,0.3-0.3,0.3
			C177.8,63.2,177.7,63,177.7,62.9z M177.7,63.5h0.5v2.3h-0.5V63.5z"/>
		<path class="st1" d="M179.7,65.8c-0.5,0-0.9-0.3-1-0.7h0.5c0,0.2,0.2,0.3,0.5,0.3c0.3,0,0.4-0.1,0.4-0.3c0-0.4-1.3-0.2-1.3-1
			c0-0.4,0.3-0.7,0.9-0.7c0.5,0,0.9,0.3,0.9,0.7H180c0-0.2-0.2-0.3-0.4-0.3c-0.3,0-0.4,0.1-0.4,0.3c0,0.5,1.3,0.2,1.3,1
			C180.5,65.5,180.2,65.8,179.7,65.8z"/>
		<path class="st1" d="M183.7,64.5c0-0.4-0.2-0.6-0.6-0.6c-0.3,0-0.6,0.2-0.6,0.6v1.3h-0.5v-2.3h0.5v0.3c0.2-0.2,0.4-0.3,0.7-0.3
			c0.5,0,0.9,0.3,0.9,1v1.3h-0.5V64.5z"/>
		<path class="st1" d="M185.8,65.8c-0.6,0-1.1-0.5-1.1-1.2c0-0.7,0.5-1.2,1.2-1.2s1.2,0.5,1.2,1.2C187,65.3,186.5,65.8,185.8,65.8z
			 M185.8,65.4c0.4,0,0.7-0.3,0.7-0.8c0-0.5-0.3-0.8-0.7-0.8c-0.4,0-0.7,0.2-0.7,0.8C185.1,65.1,185.4,65.4,185.8,65.4z"/>
		<path class="st1" d="M187.5,63.9h-0.3v-0.4h0.3v-0.6h0.5v0.6h0.6v0.4H188v1.3c0,0.2,0.1,0.2,0.3,0.2h0.3v0.4h-0.4
			c-0.4,0-0.7-0.2-0.7-0.6V63.9z"/>
		<path class="st1" d="M190.5,65.8h-0.5v-2.3h0.5v0.3c0.1-0.2,0.4-0.4,0.7-0.4v0.5h-0.1c-0.3,0-0.6,0.1-0.6,0.6V65.8z"/>
		<path class="st1" d="M192.6,65.8c-0.7,0-1.1-0.5-1.1-1.2c0-0.7,0.5-1.2,1.1-1.2c0.7,0,1.1,0.5,1.1,1.1c0,0.1,0,0.2,0,0.2H192
			c0,0.4,0.3,0.6,0.6,0.6c0.3,0,0.5-0.1,0.5-0.3h0.5C193.6,65.5,193.2,65.8,192.6,65.8z M192,64.4h1.3c0-0.4-0.3-0.6-0.6-0.6
			C192.3,63.8,192,64.1,192,64.4z"/>
		<path class="st1" d="M195,65.8c-0.5,0-0.9-0.3-1-0.7h0.5c0,0.2,0.2,0.3,0.5,0.3c0.3,0,0.4-0.1,0.4-0.3c0-0.4-1.3-0.2-1.3-1
			c0-0.4,0.3-0.7,0.9-0.7c0.5,0,0.9,0.3,0.9,0.7h-0.5c0-0.2-0.2-0.3-0.4-0.3c-0.3,0-0.4,0.1-0.4,0.3c0,0.5,1.3,0.2,1.3,1
			C195.9,65.5,195.6,65.8,195,65.8z"/>
		<path class="st1" d="M197.7,63.4c0.6,0,1.1,0.5,1.1,1.2s-0.5,1.2-1.1,1.2c-0.4,0-0.6-0.2-0.8-0.4v1.4h-0.5v-3.4h0.5v0.3
			C197,63.6,197.3,63.4,197.7,63.4z M197.6,63.9c-0.4,0-0.7,0.3-0.7,0.8c0,0.5,0.3,0.8,0.7,0.8c0.4,0,0.7-0.3,0.7-0.8
			C198.3,64.1,197.9,63.9,197.6,63.9z"/>
		<path class="st1" d="M200.2,65.8c-0.6,0-1.1-0.5-1.1-1.2c0-0.7,0.5-1.2,1.2-1.2c0.7,0,1.2,0.5,1.2,1.2
			C201.4,65.3,200.9,65.8,200.2,65.8z M200.2,65.4c0.4,0,0.7-0.3,0.7-0.8c0-0.5-0.3-0.8-0.7-0.8c-0.4,0-0.7,0.2-0.7,0.8
			C199.6,65.1,199.9,65.4,200.2,65.4z"/>
		<path class="st1" d="M203.5,64.5c0-0.4-0.2-0.6-0.6-0.6c-0.3,0-0.6,0.2-0.6,0.6v1.3h-0.5v-2.3h0.5v0.3c0.2-0.2,0.4-0.3,0.7-0.3
			c0.5,0,0.9,0.3,0.9,1v1.3h-0.5V64.5z"/>
		<path class="st1" d="M205.4,65.8c-0.5,0-0.9-0.3-1-0.7h0.5c0,0.2,0.2,0.3,0.5,0.3c0.3,0,0.4-0.1,0.4-0.3c0-0.4-1.3-0.2-1.3-1
			c0-0.4,0.3-0.7,0.9-0.7c0.5,0,0.9,0.3,0.9,0.7h-0.5c0-0.2-0.2-0.3-0.4-0.3c-0.3,0-0.4,0.1-0.4,0.3c0,0.5,1.3,0.2,1.3,1
			C206.3,65.5,205.9,65.8,205.4,65.8z"/>
		<path class="st1" d="M206.7,62.9c0-0.2,0.1-0.3,0.3-0.3c0.2,0,0.3,0.1,0.3,0.3c0,0.2-0.1,0.3-0.3,0.3
			C206.8,63.2,206.7,63,206.7,62.9z M206.8,63.5h0.5v2.3h-0.5V63.5z"/>
		<path class="st1" d="M209.1,63.4c0.6,0,1.1,0.5,1.1,1.2s-0.5,1.2-1.1,1.2c-0.4,0-0.6-0.2-0.8-0.4v0.3h-0.5v-3.1h0.5v1.1
			C208.5,63.6,208.8,63.4,209.1,63.4z M209,63.9c-0.4,0-0.7,0.3-0.7,0.8c0,0.5,0.3,0.8,0.7,0.8c0.4,0,0.7-0.3,0.7-0.8
			C209.7,64.1,209.4,63.9,209,63.9z"/>
		<path class="st1" d="M210.7,62.7h0.5v3.1h-0.5V62.7z"/>
		<path class="st1" d="M212.8,65.8c-0.7,0-1.1-0.5-1.1-1.2c0-0.7,0.5-1.2,1.1-1.2c0.7,0,1.1,0.5,1.1,1.1c0,0.1,0,0.2,0,0.2h-1.7
			c0,0.4,0.3,0.6,0.6,0.6c0.3,0,0.5-0.1,0.5-0.3h0.5C213.7,65.5,213.3,65.8,212.8,65.8z M212.1,64.4h1.3c0-0.4-0.3-0.6-0.6-0.6
			C212.4,63.8,212.2,64.1,212.1,64.4z"/>
		<path class="st1" d="M216.4,65.8c-0.6,0-1.1-0.5-1.1-1.2c0-0.7,0.5-1.2,1.2-1.2s1.2,0.5,1.2,1.2C217.6,65.3,217,65.8,216.4,65.8z
			 M216.4,65.4c0.4,0,0.7-0.3,0.7-0.8c0-0.5-0.3-0.8-0.7-0.8c-0.4,0-0.7,0.2-0.7,0.8C215.7,65.1,216,65.4,216.4,65.4z"/>
		<path class="st1" d="M219.7,64.5c0-0.4-0.2-0.6-0.6-0.6c-0.3,0-0.6,0.2-0.6,0.6v1.3H218v-2.3h0.5v0.3c0.2-0.2,0.4-0.3,0.7-0.3
			c0.5,0,0.9,0.3,0.9,1v1.3h-0.5V64.5z"/>
		<path class="st1" d="M221.7,62.9c0-0.2,0.1-0.3,0.3-0.3c0.2,0,0.3,0.1,0.3,0.3c0,0.2-0.1,0.3-0.3,0.3
			C221.9,63.2,221.7,63,221.7,62.9z M221.8,63.5h0.5v2.3h-0.5V63.5z"/>
		<path class="st1" d="M223,63.9h-0.3v-0.4h0.3v-0.6h0.5v0.6h0.6v0.4h-0.6v1.3c0,0.2,0.1,0.2,0.3,0.2h0.3v0.4h-0.4
			c-0.4,0-0.7-0.2-0.7-0.6V63.9z"/>
		<path class="st1" d="M224.6,65.8c-0.2,0-0.3-0.1-0.3-0.3s0.1-0.3,0.3-0.3c0.2,0,0.3,0.1,0.3,0.3S224.8,65.8,224.6,65.8z"/>
	</g>
	<g>
		<path class="st1" d="M88.3,28.4c0,0,3.8,2.9,0.2,9.1L88.3,28.4z"/>
		<polygon class="st6" points="88.7,26.1 88.7,48.1 65.3,42.6 65.3,19.3 		"/>
		<polygon class="st7" points="65.3,19.3 49.2,28.1 49.2,49.8 65.3,42.6 		"/>
		<polygon class="st8" points="49.2,49.8 69.2,54.3 88.7,48.1 65.3,42.6 		"/>
		<path class="st1" d="M53.8,37.2c0,0,0.1,1.8,1.5,1.6c1.5-0.1,3.8-6.8,3.8-11.2s-1.4-5.6-4.6-4.8S36.9,33.7,36.9,33.7
			s1.1,2.6,5.3,2.1c0,0,1.2,2.6,5.3,1.8c0,0,1.7,1.6,3.5,0.9C52.1,38.2,53.8,37.2,53.8,37.2z"/>
		<path class="st9" d="M42.2,35.8l6.9-4l-6.6,4.4C42.5,36.3,42.4,36.2,42.2,35.8z"/>
		<polygon class="st9" points="47.5,37.7 52.1,34.9 47.7,37.9 		"/>
		<path class="st9" d="M53.8,37.2c0,0,0.8-0.4,1.6-1.2c0,0-0.4,0.8-1.5,1.5L53.8,37.2z"/>
		<polygon class="st10" points="75.5,22.2 75.5,45 58.3,51.8 62.8,52.9 80.8,46.3 80.8,23.8 		"/>
		<polygon class="st11" points="58.3,51.8 75.5,45 80.8,46.3 62.8,52.9 		"/>
		<path class="st12" d="M87.7,48.1L65.3,43l-15.1,6.8c0,0,13.7-4.2,19.5-4.1c5.8,0.2,12.4,2.1,13.3,3.6L87.7,48.1z"/>
		<path class="st12" d="M55.2,39c0,0-1.4,0.3-1.5-1.6c0,0-1.7,1.2-3,1.5c-1.3,0.3-1.4-0.1-1.4-0.1v1.6c0,0,1.4,0.5,3.9-1.3
			C53.2,39.1,53.8,39.9,55.2,39z"/>
		<path class="st12" d="M54.8,39.1c0,0-1.1,0.1-1.2-1.3c0,0-2.2,1.7-4.1,1.4v0.5c0,0,2.1,0.4,3.8-1.3C53.3,38.4,53.5,39.5,54.8,39.1
			z"/>
		<path class="st12" d="M64.7,42.3V20.2l-5.5,3.1c0,0,2.8-0.3,3.6,7.4c0.8,7.7,0.8,12.1,0.8,12.1L64.7,42.3z"/>
		<path class="st13" d="M48.8,31.6L42,35.5c0,0-3.2,0.5-4.6-1.7l2.2-1.4c0,0-0.4,1.5,1.3,1.9C42.6,34.6,48.8,31.6,48.8,31.6z"/>
		<path class="st13" d="M43.1,36.4c0,0,1.9,1.8,4.4,1l4.5-2.8c0,0-4.6,3-7.5,0.9L43.1,36.4z"/>
		<path class="st13" d="M48.3,37.9c0,0,1.1,0.8,2.2,0.5s3.5-1.5,4.9-2.7c0,0-3.6,2.2-5.6,1.3L48.3,37.9z"/>
		<path class="st13" d="M55.6,36.2c0,0-0.8,1.1-1.5,1.3c0,0,0.2,1.1,1.3,1s3.1-5.3,3.4-8.4c0,0-1.6,5.8-2.7,6.7
			C55,37.8,55.6,36.2,55.6,36.2z"/>
		<path class="st13" d="M43.1,36.4l6.1-4.1l-5.5,4.6C43.7,36.8,43.3,36.7,43.1,36.4z"/>
		<polygon class="st13" points="52.3,35.2 48.3,37.9 48.7,38.1 		"/>
		<path class="st13" d="M55.6,36.2c0,0-0.9,1.2-1.5,1.3c0,0,0,0.2,0.3,0.6C54.4,38.1,55.6,37.3,55.6,36.2z"/>
		<path class="st13" d="M88.9,30.8v5.4c0,0,1-1.8,1-3.6C89.8,32.7,89.1,32.6,88.9,30.8z"/>
		<path class="st13" d="M89.1,33.1v2.4c0,0,0.4-0.9,0.5-1.6C89.6,33.9,89.2,33.7,89.1,33.1z"/>
		<path class="st14" d="M73.1,13.7l-1.4-0.4c0,0-0.1-1.8-1.8-2.1c-1.6-0.3-1.8,1.6-1.8,1.6s-1.2-0.6-1.8,0.8c0,0-1.4-0.3-1.9,1.3
			l-1.8,1L73.1,13.7z"/>
		<path class="st15" d="M49.8,22.4L48.4,22c0,0-0.1-1.8-1.8-2.1c-1.6-0.3-1.8,1.6-1.8,1.6s-1.2-0.6-1.8,0.8c0,0-1.4-0.3-1.9,1.3
			l-1.8,1L49.8,22.4z"/>
	</g>
	<g class="st16">
		<polygon class="st0" points="70.5,37.2 70.3,38.9 72.2,39.1 		"/>
		<polygon class="st0" points="70.2,39.7 70.1,41.4 72.1,39.9 		"/>
		<polygon class="st0" points="69.1,41.7 69.7,36.8 66.8,36.5 69.1,39.2 66.3,41.4 		"/>
	</g>
</g>
</svg>
