<?xml version="1.0" encoding="utf-8"?>
<!-- Generator: Adobe Illustrator 21.1.0, SVG Export Plug-In . SVG Version: 6.00 Build 0)  -->
<svg version="1.1" id="Layer_1" xmlns="http://www.w3.org/2000/svg" xmlns:xlink="http://www.w3.org/1999/xlink" x="0px" y="0px"
	 viewBox="0 0 961.1 240" style="enable-background:new 0 0 961.1 240;" xml:space="preserve">
<style type="text/css">
	.st0{fill:#0574B5;}
	.st1{fill:#FFFFFF;}
	.st2{fill:#EF8843;}
	.st3{fill:#4A4A4A;}
	.st4{fill:#A09F9F;}
</style>
<rect y="603" class="st0" width="1024" height="250"/>
<rect y="405" class="st1" width="1024" height="250"/>
<g>
	<g>
		<path class="st0" d="M796.4,61.2c-28.8,0-52.2,23.4-52.2,52.2s23.4,52.2,52.2,52.2c9.8,0,18.9-2.7,26.7-7.4v7.4h25.5v-54h-0.1
			C847.6,83.6,824.6,61.2,796.4,61.2z M796.4,140.1c-14.7,0-26.7-12-26.7-26.7s12-26.7,26.7-26.7c14.7,0,26.7,12,26.7,26.7
			S811.1,140.1,796.4,140.1z"/>
		<path class="st0" d="M906,61.2c-26.3,0-47.7,21.4-47.7,47.7v56.8h25.5v-56.8c0-12.2,9.9-22.2,22.2-22.2s22.2,9.9,22.2,22.2v56.8
			h25.5v-56.8C953.7,82.6,932.3,61.2,906,61.2z"/>
		<path class="st0" d="M321.9,61.2c-26.3,0-47.7,21.4-47.7,47.7v56.8h25.5v-56.8c0-12.2,9.9-22.2,22.2-22.2
			c12.2,0,22.2,9.9,22.2,22.2v56.8h25.5v-56.8C369.6,82.6,348.2,61.2,321.9,61.2z"/>
		<path class="st0" d="M457.8,68.6c-7.8-4.7-16.9-7.4-26.7-7.4c-28.8,0-52.2,23.4-52.2,52.2s23.4,52.2,52.2,52.2
			c27.8,0,50.6-21.9,52.1-49.3h0.1V6.2h-25.5V68.6z M431.1,140.1c-14.7,0-26.7-12-26.7-26.7s12-26.7,26.7-26.7
			c14.7,0,26.7,12,26.7,26.7S445.9,140.1,431.1,140.1z"/>
		<path class="st0" d="M239.2,61.2h25.5v104.5h-25.5V61.2z"/>
		<path class="st2" d="M264.7,36.1V54h-25.5"/>
		<path class="st0" d="M200.9,7h25.3v158.6h-25.3V7z"/>
		<path class="st0" d="M571.7,113.4c0,14.7-12,26.7-26.7,26.7c-14.7,0-26.7-12-26.7-26.7V61.2h-25.5v52.2
			c0,28.8,23.4,52.2,52.2,52.2c9.8,0,18.9-2.7,26.7-7.4v7.4h25.5V61.2h-25.5V113.4z"/>
		<path class="st0" d="M638.7,99c-3.4,0-6.1-2.7-6.1-6.1c0-3.4,2.7-6.1,6.1-6.1c1.6,0,2.8,0.6,3.5,1.1c0.7,0.5,1.3,1.1,1.7,1.8
			l21.5-13.7c-2.3-3.6-5.2-6.6-8.7-9.1c-5.3-3.7-11.5-5.6-18-5.6c-17.4,0-31.6,14.2-31.6,31.6c0,17.4,14.2,31.6,31.6,31.6
			c4.3,0,7.8,3.5,7.8,7.8c0,4.3-3.5,7.8-7.8,7.8c-3.4,0-6.3-2.2-7.4-5.4l-24.3,8c4.5,13.7,17.2,22.9,31.7,22.9
			c18.4,0,33.3-14.9,33.3-33.3C672,113.9,657.1,99,638.7,99z"/>
		<path class="st0" d="M721.8,140.1c-4.4,0-7.9-3.5-7.9-7.9V86.8h25V61.2h-25V27h-25.5v34.3h-13.1v25.5h13.1v45.4
			c0,18.4,15,33.4,33.4,33.4c6.7,0,13.2-2,18.7-5.7l-14.3-21.2C724.9,139.6,723.4,140.1,721.8,140.1z"/>
		<g>
			<polygon class="st0" points="128.7,17.9 128.7,73.7 190.2,73.7 			"/>
			<polygon class="st0" points="128.7,100.6 128.7,155.3 189.7,100.6 			"/>
			<polygon class="st0" points="100.7,165.6 100.7,7.4 8,7.4 90.2,86.5 8,165.6 			"/>
		</g>
	</g>
	<g>
		<path class="st1" d="M291.2,220.6h-16.1V219c0.5,0,1.1-0.1,2-0.1s1.5-0.1,1.8-0.3c0.6-0.2,1-0.5,1.2-0.8c0.2-0.3,0.4-0.8,0.4-1.4
			v-23c0-0.5-0.1-1-0.3-1.3c-0.2-0.3-0.6-0.6-1.3-0.9c-0.5-0.2-1.1-0.3-1.9-0.5c-0.8-0.2-1.4-0.3-1.9-0.3v-1.6h16.1v1.6
			c-0.5,0-1.1,0.1-1.9,0.2c-0.7,0.1-1.3,0.2-1.9,0.4c-0.6,0.2-1.1,0.5-1.3,0.9s-0.3,0.9-0.3,1.3v23c0,0.5,0.1,0.9,0.4,1.3
			c0.2,0.4,0.7,0.7,1.2,0.9c0.3,0.1,0.9,0.3,1.7,0.4c0.8,0.1,1.5,0.2,2,0.2V220.6z"/>
		<path class="st1" d="M332.3,190.4c-0.5,0-1.2,0.1-2.2,0.4c-1,0.2-1.7,0.5-2.1,0.7c-0.6,0.4-1,1.1-1.2,2.1c-0.2,1.1-0.3,2.4-0.3,4
			v23.3h-2.2l-21.6-26v16.4c0,1.8,0.1,3.2,0.4,4.2c0.3,1,0.7,1.7,1.2,2.1c0.4,0.3,1.2,0.6,2.4,0.9c1.2,0.3,2,0.4,2.4,0.4v1.6h-14.6
			V219c0.5,0,1.2-0.2,2.3-0.4c1.1-0.3,1.7-0.5,2-0.7c0.6-0.4,1-1.1,1.2-1.9s0.3-2.3,0.3-4.4v-15.6c0-0.7-0.1-1.4-0.4-2.1
			c-0.3-0.7-0.6-1.2-1.1-1.6c-0.6-0.5-1.4-0.9-2.5-1.3c-1-0.4-1.9-0.5-2.5-0.6v-1.6H304L324,213v-15.1c0-1.9-0.1-3.3-0.4-4.3
			c-0.3-1-0.7-1.7-1.2-2c-0.5-0.3-1.2-0.6-2.3-0.8c-1.1-0.3-1.9-0.4-2.4-0.4v-1.6h14.5V190.4z"/>
		<path class="st1" d="M364.2,197.4h-1.7c-0.2-0.5-0.4-1.2-0.8-1.9s-0.8-1.4-1.3-2.1c-0.5-0.7-1.1-1.3-1.7-1.8
			c-0.6-0.5-1.2-0.8-1.7-0.9c-0.5-0.1-1.2-0.1-2-0.1c-0.8,0-1.5,0-2.2,0h-1.5V216c0,0.5,0.1,0.9,0.4,1.4c0.2,0.4,0.6,0.7,1.2,0.9
			c0.3,0.1,0.9,0.2,1.9,0.4c1,0.2,1.7,0.3,2.3,0.3v1.6h-16.8V219c0.5,0,1.2-0.1,2.1-0.2s1.6-0.2,2-0.3c0.6-0.2,1-0.5,1.2-0.8
			s0.4-0.9,0.4-1.5v-25.6h-1.5c-0.5,0-1.2,0-1.9,0c-0.8,0-1.5,0.1-2.2,0.1c-0.6,0.1-1.1,0.4-1.7,0.9c-0.6,0.5-1.1,1.1-1.7,1.8
			c-0.5,0.7-0.9,1.4-1.3,2.1c-0.4,0.8-0.7,1.4-0.8,1.9h-1.8v-8.6h31.1V197.4z"/>
		<path class="st1" d="M397,211.2l-0.7,9.4h-29.6V219c0.5,0,1.2-0.1,2-0.2c0.8-0.1,1.4-0.2,1.6-0.3c0.5-0.2,0.9-0.5,1.1-0.9
			c0.2-0.4,0.3-0.8,0.3-1.4v-22.8c0-0.5-0.1-0.9-0.3-1.3c-0.2-0.4-0.6-0.7-1.2-0.9c-0.5-0.2-1.1-0.4-1.8-0.5
			c-0.8-0.1-1.4-0.2-1.8-0.3v-1.6h27.6v7.7h-1.9c-0.3-1.1-1.1-2.3-2.2-3.6c-1.1-1.3-2.2-2-3.2-2.1c-0.5-0.1-1.1-0.1-1.9-0.1
			c-0.7,0-1.5,0-2.5,0h-5.6v12.6h4c1.3,0,2.2-0.1,2.8-0.3c0.6-0.2,1.1-0.6,1.6-1.1c0.4-0.4,0.7-1,0.9-1.7c0.3-0.7,0.4-1.4,0.5-2h1.9
			v12.4H387c-0.1-0.7-0.2-1.5-0.5-2.3c-0.3-0.8-0.6-1.4-0.9-1.7c-0.5-0.6-1.1-1-1.8-1.1c-0.7-0.2-1.5-0.3-2.6-0.3h-4v9.5
			c0,1,0.1,1.7,0.2,2.3c0.2,0.6,0.4,1,0.9,1.3c0.4,0.3,1,0.5,1.8,0.5c0.8,0.1,1.8,0.1,3.2,0.1c0.6,0,1.3,0,2.2,0
			c0.9,0,1.7,0,2.3-0.1c0.6-0.1,1.3-0.2,2-0.3c0.7-0.2,1.2-0.4,1.4-0.6c0.8-0.7,1.6-1.8,2.4-3.3c0.8-1.5,1.4-2.5,1.6-3.2H397z"/>
		<path class="st1" d="M435.4,220.6h-9.6c-2.1-3-4-5.5-5.8-7.7c-1.7-2.2-3.6-4.4-5.6-6.7h-3.7v10.1c0,0.5,0.1,1,0.3,1.4
			c0.2,0.4,0.6,0.7,1.2,0.9c0.3,0.1,0.8,0.2,1.6,0.3c0.8,0.1,1.4,0.1,1.9,0.2v1.6h-15.1V219c0.4,0,1-0.1,1.7-0.2
			c0.8-0.1,1.3-0.2,1.6-0.3c0.5-0.2,0.9-0.5,1.1-0.9c0.2-0.4,0.3-0.9,0.3-1.4v-23c0-0.5-0.1-1-0.3-1.4s-0.6-0.7-1.2-0.9
			c-0.4-0.1-1-0.3-1.6-0.4c-0.7-0.1-1.2-0.2-1.7-0.2v-1.6h16.5c1.5,0,2.9,0.1,4.3,0.4c1.3,0.3,2.5,0.7,3.6,1.3
			c1,0.6,1.9,1.4,2.5,2.3c0.6,1,0.9,2.1,0.9,3.5c0,1.2-0.2,2.3-0.6,3.2c-0.4,0.9-1,1.8-1.9,2.4c-0.8,0.6-1.7,1.2-2.7,1.7
			c-1.1,0.5-2.2,0.9-3.5,1.2c1.8,2.1,3.2,3.8,4.4,5.2c1.2,1.4,2.6,3.1,4.3,5.2c0.7,0.9,1.4,1.6,2,2c0.6,0.4,1.2,0.8,1.8,1
			c0.4,0.2,1,0.3,1.6,0.4s1.2,0.2,1.6,0.2V220.6z M422.2,196.9c0-1.9-0.6-3.4-1.9-4.6c-1.2-1.1-3-1.7-5.3-1.7h-4.3v13.6h3.3
			c2.3,0,4.2-0.7,5.8-2C421.4,201,422.2,199.2,422.2,196.9z"/>
		<path class="st1" d="M473.4,190.4c-0.5,0-1.2,0.1-2.2,0.4c-1,0.2-1.7,0.5-2.1,0.7c-0.6,0.4-1,1.1-1.2,2.1c-0.2,1.1-0.3,2.4-0.3,4
			v23.3h-2.2l-21.6-26v16.4c0,1.8,0.1,3.2,0.4,4.2c0.3,1,0.7,1.7,1.2,2.1c0.4,0.3,1.2,0.6,2.4,0.9c1.2,0.3,2,0.4,2.4,0.4v1.6h-14.6
			V219c0.5,0,1.2-0.2,2.3-0.4c1.1-0.3,1.7-0.5,2-0.7c0.6-0.4,1-1.1,1.2-1.9s0.3-2.3,0.3-4.4v-15.6c0-0.7-0.1-1.4-0.4-2.1
			c-0.3-0.7-0.6-1.2-1.1-1.6c-0.6-0.5-1.4-0.9-2.5-1.3c-1-0.4-1.9-0.5-2.5-0.6v-1.6h10.2l20.1,24.2v-15.1c0-1.9-0.1-3.3-0.4-4.3
			c-0.3-1-0.7-1.7-1.2-2c-0.5-0.3-1.2-0.6-2.3-0.8c-1.1-0.3-1.9-0.4-2.4-0.4v-1.6h14.5V190.4z"/>
		<path class="st1" d="M509.6,220.6h-14.8V219c1.3-0.1,2.4-0.2,3.3-0.4c0.9-0.2,1.3-0.5,1.3-0.8c0-0.1,0-0.3-0.1-0.5
			c0-0.2-0.1-0.4-0.1-0.5l-3-7.1h-12.5c-0.5,1-0.9,2-1.1,2.7c-0.3,0.8-0.6,1.5-0.8,2.1c-0.2,0.6-0.4,1.2-0.5,1.6
			c-0.1,0.4-0.1,0.7-0.1,1c0,0.6,0.5,1.1,1.6,1.4c1.1,0.3,2.2,0.5,3.6,0.6v1.6h-13.4V219c0.4,0,1-0.1,1.6-0.3
			c0.7-0.1,1.2-0.3,1.6-0.6c0.7-0.4,1.2-0.8,1.6-1.3c0.4-0.4,0.7-1,1.1-1.8c1.8-4,3.8-8.5,5.9-13.4c2.2-5,4.1-9.4,5.8-13.3h2
			l11.9,27.4c0.2,0.6,0.5,1.1,0.9,1.4c0.3,0.4,0.8,0.7,1.3,1.1c0.4,0.2,0.9,0.4,1.5,0.5c0.6,0.1,1.1,0.2,1.6,0.2V220.6z
			 M495.2,207.6l-5.4-12.3l-5.3,12.3H495.2z"/>
		<path class="st1" d="M539.9,197.4h-1.7c-0.2-0.5-0.4-1.2-0.8-1.9c-0.4-0.7-0.8-1.4-1.3-2.1c-0.5-0.7-1.1-1.3-1.7-1.8
			c-0.6-0.5-1.2-0.8-1.7-0.9c-0.5-0.1-1.2-0.1-2-0.1c-0.8,0-1.5,0-2.2,0H527V216c0,0.5,0.1,0.9,0.4,1.4c0.2,0.4,0.6,0.7,1.2,0.9
			c0.3,0.1,0.9,0.2,1.9,0.4c1,0.2,1.7,0.3,2.3,0.3v1.6h-16.8V219c0.5,0,1.2-0.1,2.1-0.2c1-0.1,1.6-0.2,2-0.3c0.6-0.2,1-0.5,1.2-0.8
			s0.4-0.9,0.4-1.5v-25.6h-1.5c-0.5,0-1.2,0-1.9,0c-0.8,0-1.5,0.1-2.2,0.1c-0.6,0.1-1.1,0.4-1.7,0.9c-0.6,0.5-1.1,1.1-1.7,1.8
			c-0.5,0.7-0.9,1.4-1.3,2.1c-0.4,0.8-0.7,1.4-0.8,1.9h-1.8v-8.6h31.1V197.4z"/>
		<path class="st1" d="M558.3,220.6h-16.1V219c0.5,0,1.1-0.1,2-0.1s1.5-0.1,1.8-0.3c0.6-0.2,1-0.5,1.2-0.8c0.2-0.3,0.4-0.8,0.4-1.4
			v-23c0-0.5-0.1-1-0.3-1.3c-0.2-0.3-0.6-0.6-1.3-0.9c-0.5-0.2-1.1-0.3-1.9-0.5c-0.8-0.2-1.4-0.3-1.9-0.3v-1.6h16.1v1.6
			c-0.5,0-1.1,0.1-1.9,0.2c-0.7,0.1-1.3,0.2-1.9,0.4c-0.6,0.2-1.1,0.5-1.3,0.9s-0.3,0.9-0.3,1.3v23c0,0.5,0.1,0.9,0.4,1.3
			c0.2,0.4,0.7,0.7,1.2,0.9c0.3,0.1,0.9,0.3,1.7,0.4c0.8,0.1,1.5,0.2,2,0.2V220.6z"/>
		<path class="st1" d="M591.6,192.6c1.6,1.5,2.8,3.2,3.7,5.3c0.9,2.1,1.3,4.4,1.3,6.9c0,2.5-0.5,4.8-1.4,6.9
			c-0.9,2.1-2.2,3.8-3.8,5.3c-1.6,1.4-3.4,2.5-5.4,3.3s-4.3,1.2-6.6,1.2c-2.5,0-4.8-0.4-6.9-1.2c-2.1-0.8-3.9-2-5.4-3.5
			c-1.5-1.4-2.7-3.2-3.6-5.3s-1.3-4.3-1.3-6.6c0-2.6,0.5-4.9,1.4-6.9c0.9-2,2.2-3.8,3.8-5.2c1.6-1.5,3.4-2.6,5.5-3.4
			c2.1-0.8,4.3-1.2,6.6-1.2c2.4,0,4.6,0.4,6.7,1.2C588.3,190,590.1,191.1,591.6,192.6z M587.9,215.1c0.9-1.4,1.6-2.9,2.1-4.6
			c0.4-1.7,0.6-3.6,0.6-5.8c0-2.2-0.2-4.2-0.7-6c-0.5-1.8-1.2-3.4-2.1-4.7c-0.9-1.3-2.1-2.3-3.5-3c-1.4-0.7-3-1.1-4.8-1.1
			c-2,0-3.7,0.4-5.1,1.2c-1.4,0.8-2.6,1.9-3.4,3.3c-0.8,1.3-1.5,2.9-1.9,4.6c-0.4,1.8-0.6,3.6-0.6,5.5c0,2.1,0.2,4.1,0.7,5.8
			c0.4,1.7,1.1,3.3,2.1,4.6c0.9,1.3,2,2.3,3.4,3.1c1.4,0.7,3,1.1,4.9,1.1c1.8,0,3.4-0.4,4.9-1.1C585.8,217.5,587,216.4,587.9,215.1z
			"/>
		<path class="st1" d="M637.7,190.4c-0.5,0-1.2,0.1-2.2,0.4c-1,0.2-1.7,0.5-2.1,0.7c-0.6,0.4-1,1.1-1.2,2.1c-0.2,1.1-0.3,2.4-0.3,4
			v23.3h-2.2l-21.6-26v16.4c0,1.8,0.1,3.2,0.4,4.2c0.3,1,0.7,1.7,1.2,2.1c0.4,0.3,1.2,0.6,2.4,0.9c1.2,0.3,2,0.4,2.4,0.4v1.6h-14.6
			V219c0.5,0,1.2-0.2,2.3-0.4c1.1-0.3,1.7-0.5,2-0.7c0.6-0.4,1-1.1,1.2-1.9s0.3-2.3,0.3-4.4v-15.6c0-0.7-0.1-1.4-0.4-2.1
			c-0.3-0.7-0.6-1.2-1.1-1.6c-0.6-0.5-1.4-0.9-2.5-1.3c-1-0.4-1.9-0.5-2.5-0.6v-1.6h10.2l20.1,24.2v-15.1c0-1.9-0.1-3.3-0.4-4.3
			c-0.3-1-0.7-1.7-1.2-2c-0.5-0.3-1.2-0.6-2.3-0.8c-1.1-0.3-1.9-0.4-2.4-0.4v-1.6h14.5V190.4z"/>
		<path class="st1" d="M673.9,220.6h-14.8V219c1.3-0.1,2.4-0.2,3.3-0.4c0.9-0.2,1.3-0.5,1.3-0.8c0-0.1,0-0.3-0.1-0.5
			s-0.1-0.4-0.1-0.5l-3-7.1h-12.5c-0.5,1-0.9,2-1.1,2.7c-0.3,0.8-0.6,1.5-0.8,2.1c-0.2,0.6-0.4,1.2-0.5,1.6c-0.1,0.4-0.1,0.7-0.1,1
			c0,0.6,0.5,1.1,1.6,1.4c1.1,0.3,2.2,0.5,3.6,0.6v1.6h-13.4V219c0.4,0,1-0.1,1.6-0.3c0.7-0.1,1.2-0.3,1.6-0.6
			c0.7-0.4,1.2-0.8,1.6-1.3c0.4-0.4,0.7-1,1.1-1.8c1.8-4,3.8-8.5,5.9-13.4c2.2-5,4.1-9.4,5.8-13.3h2l11.9,27.4
			c0.2,0.6,0.5,1.1,0.9,1.4c0.3,0.4,0.8,0.7,1.3,1.1c0.4,0.2,0.9,0.4,1.5,0.5c0.6,0.1,1.1,0.2,1.6,0.2V220.6z M659.5,207.6
			l-5.4-12.3l-5.3,12.3H659.5z"/>
		<path class="st1" d="M703.8,211.1l-0.8,9.4h-27.9V219c0.4,0,1-0.1,1.7-0.2c0.8-0.1,1.3-0.2,1.6-0.3c0.5-0.2,0.9-0.5,1.1-0.9
			c0.2-0.4,0.3-0.9,0.3-1.4v-22.7c0-0.5-0.1-1-0.3-1.3c-0.2-0.4-0.6-0.7-1.1-0.9c-0.4-0.2-0.9-0.4-1.6-0.5c-0.7-0.2-1.3-0.3-1.7-0.3
			v-1.6h15.1v1.6c-0.5,0-1.1,0.1-1.8,0.2c-0.7,0.1-1.3,0.3-1.6,0.4c-0.6,0.2-1,0.5-1.2,0.9c-0.2,0.4-0.3,0.9-0.3,1.4v21.3
			c0,1,0.1,1.7,0.2,2.3c0.1,0.5,0.4,1,0.8,1.3c0.4,0.3,1,0.4,1.7,0.5c0.8,0.1,1.8,0.1,3.2,0.1c0.6,0,1.3,0,1.9,0
			c0.7,0,1.3-0.1,1.9-0.2c0.6-0.1,1.1-0.2,1.6-0.4c0.5-0.2,0.9-0.4,1.1-0.6c0.7-0.7,1.5-1.7,2.4-3.1c0.9-1.4,1.5-2.5,1.9-3.4H703.8z
			"/>
		<path class="st1" d="M734.4,221.3c-2.1,0-4.2-0.4-6.1-1.1c-1.9-0.7-3.7-1.8-5.2-3.2c-1.5-1.4-2.7-3.1-3.6-5.1
			c-0.9-2-1.3-4.3-1.3-6.8s0.4-4.8,1.3-6.9c0.9-2.1,2.1-3.8,3.6-5.3c1.5-1.5,3.3-2.6,5.4-3.4c2.1-0.8,4.3-1.2,6.7-1.2
			c1.8,0,3.3,0.2,4.8,0.6c1.4,0.4,2.8,0.9,4.1,1.6l1-1.5h2l0.2,11.3h-2.1c-0.3-1.1-0.7-2.3-1.2-3.6c-0.5-1.3-1.2-2.4-1.9-3.3
			c-0.8-1-1.8-1.8-2.9-2.4c-1.1-0.6-2.4-0.9-3.8-0.9c-1.6,0-3.1,0.3-4.5,1c-1.4,0.6-2.6,1.6-3.6,2.8c-1,1.2-1.7,2.7-2.3,4.6
			c-0.6,1.9-0.8,3.9-0.8,6.2c0,2,0.3,3.9,0.9,5.6c0.6,1.7,1.4,3.2,2.5,4.5c1.1,1.3,2.3,2.3,3.8,3c1.5,0.7,3.1,1.1,4.9,1.1
			c1.4,0,2.6-0.2,3.7-0.6c1.1-0.4,2.1-0.9,3-1.5c0.8-0.7,1.6-1.4,2.2-2.2c0.6-0.8,1.2-1.7,1.6-2.7l1.9,0.8c-1.4,3.1-3.4,5.4-5.7,6.7
			C740.5,220.7,737.7,221.3,734.4,221.3z"/>
		<path class="st1" d="M780.6,192.6c1.6,1.5,2.8,3.2,3.7,5.3c0.9,2.1,1.3,4.4,1.3,6.9c0,2.5-0.5,4.8-1.4,6.9
			c-0.9,2.1-2.2,3.8-3.8,5.3c-1.6,1.4-3.4,2.5-5.4,3.3s-4.3,1.2-6.6,1.2c-2.5,0-4.8-0.4-6.9-1.2c-2.1-0.8-3.9-2-5.4-3.5
			c-1.5-1.4-2.7-3.2-3.6-5.3s-1.3-4.3-1.3-6.6c0-2.6,0.5-4.9,1.4-6.9c0.9-2,2.2-3.8,3.8-5.2c1.6-1.5,3.4-2.6,5.5-3.4
			c2.1-0.8,4.3-1.2,6.6-1.2c2.4,0,4.6,0.4,6.7,1.2C777.2,190,779.1,191.1,780.6,192.6z M776.8,215.1c0.9-1.4,1.6-2.9,2.1-4.6
			c0.4-1.7,0.6-3.6,0.6-5.8c0-2.2-0.2-4.2-0.7-6c-0.5-1.8-1.2-3.4-2.1-4.7c-0.9-1.3-2.1-2.3-3.5-3c-1.4-0.7-3-1.1-4.8-1.1
			c-2,0-3.7,0.4-5.1,1.2c-1.4,0.8-2.6,1.9-3.4,3.3c-0.8,1.3-1.5,2.9-1.9,4.6c-0.4,1.8-0.6,3.6-0.6,5.5c0,2.1,0.2,4.1,0.7,5.8
			c0.4,1.7,1.1,3.3,2.1,4.6c0.9,1.3,2,2.3,3.4,3.1c1.4,0.7,3,1.1,4.9,1.1c1.8,0,3.4-0.4,4.9-1.1
			C774.8,217.5,775.9,216.4,776.8,215.1z"/>
		<path class="st1" d="M826.2,190.4c-0.5,0-1.2,0.1-2.1,0.3c-0.9,0.2-1.6,0.4-2.2,0.7c-0.6,0.3-1,1.1-1.2,2.1
			c-0.2,1.1-0.3,2.4-0.3,3.9v13.8c0,1.8-0.4,3.3-1.2,4.6s-1.9,2.4-3.2,3.2c-1.3,0.8-2.7,1.4-4.2,1.7c-1.5,0.4-2.9,0.5-4.2,0.5
			c-2.1,0-4.1-0.3-5.7-0.7c-1.7-0.5-3.1-1.2-4.2-2c-1.1-0.9-2-1.8-2.5-2.9c-0.6-1.1-0.9-2.2-0.9-3.4v-18.8c0-0.5-0.1-1-0.3-1.3
			c-0.2-0.3-0.6-0.7-1.2-1c-0.4-0.2-1-0.4-1.6-0.5c-0.7-0.1-1.2-0.2-1.6-0.2v-1.6h14.9v1.6c-0.5,0-1.1,0.1-1.8,0.2
			c-0.7,0.1-1.2,0.2-1.6,0.3c-0.6,0.2-1,0.5-1.1,0.9c-0.2,0.4-0.3,0.9-0.3,1.4v17.5c0,0.9,0.1,1.7,0.3,2.7c0.2,0.9,0.6,1.8,1.2,2.6
			c0.7,0.8,1.5,1.5,2.7,2c1.1,0.5,2.7,0.8,4.6,0.8c1.8,0,3.4-0.3,4.6-0.8c1.3-0.5,2.2-1.2,3-2.1c0.7-0.8,1.2-1.6,1.5-2.5
			c0.3-0.9,0.4-1.8,0.4-2.7v-13c0-1.7-0.1-3-0.4-4.1c-0.3-1.1-0.7-1.7-1.2-2.1c-0.6-0.4-1.4-0.7-2.4-0.9c-1-0.2-1.8-0.3-2.3-0.4
			v-1.6h14.6V190.4z"/>
		<path class="st1" d="M863.8,220.6h-9.6c-2.1-3-4-5.5-5.8-7.7c-1.7-2.2-3.6-4.4-5.6-6.7h-3.7v10.1c0,0.5,0.1,1,0.3,1.4
			c0.2,0.4,0.6,0.7,1.2,0.9c0.3,0.1,0.8,0.2,1.6,0.3s1.4,0.1,1.9,0.2v1.6H829V219c0.4,0,1-0.1,1.7-0.2c0.8-0.1,1.3-0.2,1.6-0.3
			c0.5-0.2,0.9-0.5,1.1-0.9c0.2-0.4,0.3-0.9,0.3-1.4v-23c0-0.5-0.1-1-0.3-1.4c-0.2-0.4-0.6-0.7-1.2-0.9c-0.4-0.1-1-0.3-1.6-0.4
			c-0.7-0.1-1.2-0.2-1.7-0.2v-1.6h16.5c1.5,0,2.9,0.1,4.3,0.4c1.3,0.3,2.5,0.7,3.6,1.3c1,0.6,1.9,1.4,2.5,2.3c0.6,1,0.9,2.1,0.9,3.5
			c0,1.2-0.2,2.3-0.6,3.2c-0.4,0.9-1,1.8-1.9,2.4c-0.8,0.6-1.7,1.2-2.7,1.7c-1.1,0.5-2.2,0.9-3.5,1.2c1.8,2.1,3.2,3.8,4.4,5.2
			c1.2,1.4,2.6,3.1,4.3,5.2c0.7,0.9,1.4,1.6,2,2c0.6,0.4,1.2,0.8,1.8,1c0.4,0.2,1,0.3,1.6,0.4c0.7,0.1,1.2,0.2,1.6,0.2V220.6z
			 M850.6,196.9c0-1.9-0.6-3.4-1.9-4.6c-1.2-1.1-3-1.7-5.3-1.7h-4.3v13.6h3.3c2.3,0,4.2-0.7,5.8-2
			C849.8,201,850.6,199.2,850.6,196.9z"/>
		<path class="st1" d="M880.8,220.6h-16.1V219c0.5,0,1.1-0.1,2-0.1s1.5-0.1,1.8-0.3c0.6-0.2,1-0.5,1.2-0.8c0.2-0.3,0.4-0.8,0.4-1.4
			v-23c0-0.5-0.1-1-0.3-1.3c-0.2-0.3-0.6-0.6-1.3-0.9c-0.5-0.2-1.1-0.3-1.9-0.5c-0.8-0.2-1.4-0.3-1.9-0.3v-1.6h16.1v1.6
			c-0.5,0-1.1,0.1-1.9,0.2c-0.7,0.1-1.3,0.2-1.9,0.4c-0.6,0.2-1.1,0.5-1.3,0.9s-0.3,0.9-0.3,1.3v23c0,0.5,0.1,0.9,0.4,1.3
			c0.2,0.4,0.7,0.7,1.2,0.9c0.3,0.1,0.9,0.3,1.7,0.4c0.8,0.1,1.5,0.2,2,0.2V220.6z"/>
		<path class="st1" d="M915.2,211.2l-0.7,9.4h-29.6V219c0.5,0,1.2-0.1,2-0.2c0.8-0.1,1.4-0.2,1.6-0.3c0.5-0.2,0.9-0.5,1.1-0.9
			c0.2-0.4,0.3-0.8,0.3-1.4v-22.8c0-0.5-0.1-0.9-0.3-1.3c-0.2-0.4-0.6-0.7-1.2-0.9c-0.5-0.2-1.1-0.4-1.8-0.5
			c-0.8-0.1-1.4-0.2-1.8-0.3v-1.6h27.6v7.7h-1.9c-0.3-1.1-1.1-2.3-2.2-3.6c-1.1-1.3-2.2-2-3.2-2.1c-0.5-0.1-1.1-0.1-1.9-0.1
			c-0.7,0-1.5,0-2.5,0h-5.6v12.6h4c1.3,0,2.2-0.1,2.8-0.3c0.6-0.2,1.1-0.6,1.6-1.1c0.4-0.4,0.7-1,0.9-1.7c0.3-0.7,0.4-1.4,0.5-2h1.9
			v12.4h-1.9c-0.1-0.7-0.2-1.5-0.5-2.3c-0.3-0.8-0.6-1.4-0.9-1.7c-0.5-0.6-1.1-1-1.8-1.1s-1.5-0.3-2.6-0.3h-4v9.5
			c0,1,0.1,1.7,0.2,2.3c0.2,0.6,0.4,1,0.9,1.3c0.4,0.3,1,0.5,1.8,0.5c0.8,0.1,1.8,0.1,3.2,0.1c0.6,0,1.3,0,2.2,0
			c0.9,0,1.7,0,2.3-0.1c0.6-0.1,1.3-0.2,2-0.3c0.7-0.2,1.2-0.4,1.4-0.6c0.8-0.7,1.6-1.8,2.4-3.3c0.8-1.5,1.4-2.5,1.6-3.2H915.2z"/>
		<path class="st1" d="M953.7,220.6H944c-2.1-3-4-5.5-5.8-7.7c-1.7-2.2-3.6-4.4-5.6-6.7H929v10.1c0,0.5,0.1,1,0.3,1.4
			c0.2,0.4,0.6,0.7,1.2,0.9c0.3,0.1,0.8,0.2,1.6,0.3s1.4,0.1,1.9,0.2v1.6h-15.1V219c0.4,0,1-0.1,1.7-0.2c0.8-0.1,1.3-0.2,1.6-0.3
			c0.5-0.2,0.9-0.5,1.1-0.9c0.2-0.4,0.3-0.9,0.3-1.4v-23c0-0.5-0.1-1-0.3-1.4c-0.2-0.4-0.6-0.7-1.2-0.9c-0.4-0.1-1-0.3-1.6-0.4
			c-0.7-0.1-1.2-0.2-1.7-0.2v-1.6h16.5c1.5,0,2.9,0.1,4.3,0.4c1.3,0.3,2.5,0.7,3.6,1.3c1,0.6,1.9,1.4,2.5,2.3c0.6,1,0.9,2.1,0.9,3.5
			c0,1.2-0.2,2.3-0.6,3.2c-0.4,0.9-1,1.8-1.9,2.4c-0.8,0.6-1.7,1.2-2.7,1.7c-1.1,0.5-2.2,0.9-3.5,1.2c1.8,2.1,3.2,3.8,4.4,5.2
			c1.2,1.4,2.6,3.1,4.3,5.2c0.7,0.9,1.4,1.6,2,2c0.6,0.4,1.2,0.8,1.8,1c0.4,0.2,1,0.3,1.6,0.4s1.2,0.2,1.6,0.2V220.6z M940.4,196.9
			c0-1.9-0.6-3.4-1.9-4.6c-1.2-1.1-3-1.7-5.3-1.7H929v13.6h3.3c2.3,0,4.2-0.7,5.8-2C939.7,201,940.4,199.2,940.4,196.9z"/>
	</g>
</g>
<g>
	<g>
		<path class="st1" d="M1432.4,7.5h25.3v158.6h-25.3V7.5z"/>
		<g>
			<polygon class="st1" points="1360.2,18.4 1360.2,74.2 1421.7,74.2 			"/>
			<polygon class="st1" points="1360.2,101.1 1360.2,155.8 1421.2,101.1 			"/>
			<polygon class="st1" points="1332.3,166.1 1332.3,7.9 1239.5,7.9 1321.7,87 1239.5,166.1 			"/>
		</g>
	</g>
</g>
<g>
	<g>
		<path class="st0" d="M1726.6,7.5h25.3v158.6h-25.3V7.5z"/>
		<g>
			<polygon class="st0" points="1654.4,18.4 1654.4,74.2 1715.8,74.2 			"/>
			<polygon class="st0" points="1654.4,101.1 1654.4,155.8 1715.4,101.1 			"/>
			<polygon class="st0" points="1626.4,166.1 1626.4,7.9 1533.7,7.9 1615.8,87 1533.7,166.1 			"/>
		</g>
	</g>
</g>
<rect y="-353.6" class="st1" width="1024" height="250"/>
<g>
	<g>
		<path class="st1" d="M827.4-273.5c-28.8,0-52.2,23.4-52.2,52.2s23.4,52.2,52.2,52.2c9.8,0,18.9-2.7,26.7-7.4v7.4h25.5v-54h-0.1
			C878.6-251,855.6-273.5,827.4-273.5z M827.4-194.5c-14.7,0-26.7-12-26.7-26.7c0-14.7,12-26.7,26.7-26.7c14.7,0,26.7,12,26.7,26.7
			C854.1-206.5,842.1-194.5,827.4-194.5z"/>
		<path class="st1" d="M937-273.5c-26.3,0-47.7,21.4-47.7,47.7v56.8h25.5v-56.8c0-12.2,9.9-22.2,22.2-22.2s22.2,9.9,22.2,22.2v56.8
			h25.5v-56.8C984.7-252.1,963.3-273.5,937-273.5z"/>
		<path class="st1" d="M352.9-273.5c-26.3,0-47.7,21.4-47.7,47.7v56.8h25.5v-56.8c0-12.2,9.9-22.2,22.2-22.2
			c12.2,0,22.2,9.9,22.2,22.2v56.8h25.5v-56.8C400.6-252.1,379.2-273.5,352.9-273.5z"/>
		<path class="st1" d="M488.8-266.1c-7.8-4.7-16.9-7.4-26.7-7.4c-28.8,0-52.2,23.4-52.2,52.2s23.4,52.2,52.2,52.2
			c27.8,0,50.6-21.9,52.1-49.3h0.1v-110.1h-25.5V-266.1z M462.1-194.5c-14.7,0-26.7-12-26.7-26.7c0-14.7,12-26.7,26.7-26.7
			c14.7,0,26.7,12,26.7,26.7C488.8-206.5,476.9-194.5,462.1-194.5z"/>
		<path class="st1" d="M270.2-273.5h25.5V-169h-25.5V-273.5z"/>
		<path class="st1" d="M295.7-298.5v17.9h-25.5L295.7-298.5z"/>
		<path class="st1" d="M231.9-327.6h25.3V-169h-25.3V-327.6z"/>
		<path class="st1" d="M602.7-221.2c0,14.7-12,26.7-26.7,26.7c-14.7,0-26.7-12-26.7-26.7v-52.2h-25.5v52.2
			c0,28.8,23.4,52.2,52.2,52.2c9.8,0,18.9-2.7,26.7-7.4v7.4h25.5v-104.5h-25.5V-221.2z"/>
		<path class="st1" d="M669.7-235.7c-3.4,0-6.1-2.7-6.1-6.1c0-3.4,2.7-6.1,6.1-6.1c1.6,0,2.8,0.6,3.5,1.1c0.7,0.5,1.3,1.1,1.7,1.8
			l21.5-13.7c-2.3-3.6-5.2-6.6-8.7-9.1c-5.3-3.7-11.5-5.6-18-5.6c-17.4,0-31.6,14.2-31.6,31.6c0,17.4,14.2,31.6,31.6,31.6
			c4.3,0,7.8,3.5,7.8,7.8c0,4.3-3.5,7.8-7.8,7.8c-3.4,0-6.3-2.2-7.4-5.4l-24.3,8c4.5,13.7,17.2,22.9,31.7,22.9
			c18.4,0,33.3-14.9,33.3-33.3C703-220.7,688.1-235.7,669.7-235.7z"/>
		<path class="st1" d="M752.8-194.5c-4.4,0-7.9-3.5-7.9-7.9v-45.4h25v-25.5h-25v-34.3h-25.5v34.3h-13.1v25.5h13.1v45.4
			c0,18.4,15,33.4,33.4,33.4c6.7,0,13.2-2,18.7-5.7l-14.3-21.2C755.9-195,754.4-194.5,752.8-194.5z"/>
		<g>
			<polygon class="st1" points="159.7,-316.7 159.7,-261 221.2,-261 			"/>
			<polygon class="st1" points="159.7,-234.1 159.7,-179.4 220.7,-234.1 			"/>
			<polygon class="st1" points="131.7,-169 131.7,-327.3 39,-327.3 121.2,-248.1 39,-169 			"/>
		</g>
	</g>
	<g>
		<g>
			<path class="st1" d="M535.8-124.6h-10.9v-1.1c0.3,0,0.7-0.1,1.3-0.1c0.6,0,1-0.1,1.2-0.2c0.4-0.1,0.6-0.3,0.8-0.5
				c0.2-0.2,0.3-0.5,0.3-0.9V-143c0-0.4-0.1-0.6-0.2-0.9c-0.1-0.2-0.4-0.4-0.9-0.6c-0.3-0.1-0.8-0.2-1.3-0.3
				c-0.5-0.1-0.9-0.2-1.3-0.2v-1.1h10.9v1.1c-0.4,0-0.8,0-1.3,0.1c-0.5,0.1-0.9,0.1-1.3,0.2c-0.4,0.1-0.7,0.3-0.9,0.6
				c-0.1,0.3-0.2,0.6-0.2,0.9v15.6c0,0.3,0.1,0.6,0.2,0.9c0.2,0.3,0.4,0.5,0.8,0.6c0.2,0.1,0.6,0.2,1.2,0.3c0.5,0.1,1,0.2,1.4,0.2
				V-124.6z"/>
			<path class="st1" d="M563.6-145c-0.3,0-0.8,0.1-1.5,0.2c-0.7,0.2-1.1,0.3-1.4,0.5c-0.4,0.3-0.7,0.7-0.8,1.5
				c-0.1,0.7-0.2,1.6-0.2,2.7v15.8h-1.5l-14.7-17.6v11.1c0,1.2,0.1,2.2,0.3,2.9c0.2,0.7,0.4,1.1,0.8,1.4c0.3,0.2,0.8,0.4,1.6,0.6
				c0.8,0.2,1.4,0.3,1.6,0.3v1.1H538v-1.1c0.3,0,0.8-0.1,1.6-0.3c0.7-0.2,1.2-0.3,1.4-0.5c0.4-0.3,0.7-0.7,0.8-1.3
				c0.1-0.6,0.2-1.6,0.2-3v-10.6c0-0.5-0.1-0.9-0.3-1.4c-0.2-0.5-0.4-0.8-0.7-1.1c-0.4-0.3-1-0.6-1.7-0.9c-0.7-0.2-1.3-0.4-1.7-0.4
				v-1.1h6.9l13.6,16.4v-10.2c0-1.3-0.1-2.2-0.3-2.9c-0.2-0.7-0.4-1.1-0.8-1.3c-0.3-0.2-0.8-0.4-1.6-0.6c-0.7-0.2-1.3-0.3-1.6-0.3
				v-1.1h9.8V-145z"/>
			<path class="st1" d="M585.3-140.2h-1.2c-0.1-0.4-0.3-0.8-0.6-1.3c-0.3-0.5-0.6-1-0.9-1.4c-0.3-0.5-0.7-0.9-1.1-1.2
				c-0.4-0.3-0.8-0.5-1.2-0.6c-0.4,0-0.8-0.1-1.3-0.1c-0.5,0-1,0-1.5,0h-1v17.2c0,0.3,0.1,0.6,0.2,0.9c0.2,0.3,0.4,0.5,0.8,0.6
				c0.2,0.1,0.6,0.2,1.3,0.3c0.7,0.1,1.2,0.2,1.5,0.2v1.1H569v-1.1c0.3,0,0.8-0.1,1.5-0.1c0.7-0.1,1.1-0.1,1.4-0.2
				c0.4-0.1,0.7-0.3,0.8-0.6s0.3-0.6,0.3-1v-17.3h-1c-0.4,0-0.8,0-1.3,0c-0.5,0-1,0-1.5,0.1c-0.4,0-0.8,0.2-1.2,0.6
				c-0.4,0.4-0.8,0.8-1.1,1.2c-0.3,0.5-0.6,0.9-0.9,1.4c-0.3,0.5-0.4,0.9-0.5,1.3h-1.2v-5.8h21.1V-140.2z"/>
			<path class="st1" d="M607.5-130.9l-0.5,6.3H587v-1.1c0.3,0,0.8-0.1,1.4-0.1c0.6-0.1,0.9-0.1,1.1-0.2c0.4-0.2,0.6-0.3,0.8-0.6
				c0.1-0.2,0.2-0.6,0.2-0.9V-143c0-0.3-0.1-0.6-0.2-0.9c-0.1-0.3-0.4-0.5-0.8-0.6c-0.3-0.1-0.7-0.2-1.2-0.3
				c-0.5-0.1-0.9-0.2-1.2-0.2v-1.1h18.7v5.2h-1.3c-0.2-0.8-0.7-1.6-1.5-2.4c-0.8-0.9-1.5-1.3-2.2-1.4c-0.4,0-0.8-0.1-1.3-0.1
				c-0.5,0-1,0-1.7,0h-3.8v8.6h2.7c0.9,0,1.5-0.1,1.9-0.2c0.4-0.1,0.8-0.4,1.1-0.7c0.2-0.3,0.5-0.7,0.6-1.2c0.2-0.5,0.3-1,0.4-1.4
				h1.3v8.4h-1.3c0-0.5-0.2-1-0.4-1.5c-0.2-0.5-0.4-0.9-0.6-1.2c-0.4-0.4-0.8-0.7-1.2-0.8c-0.5-0.1-1-0.2-1.8-0.2h-2.7v6.4
				c0,0.6,0,1.2,0.2,1.5c0.1,0.4,0.3,0.7,0.6,0.8c0.3,0.2,0.7,0.3,1.2,0.4s1.2,0.1,2.2,0.1c0.4,0,0.9,0,1.5,0c0.6,0,1.1,0,1.6-0.1
				c0.4,0,0.9-0.1,1.3-0.2c0.5-0.1,0.8-0.2,1-0.4c0.5-0.5,1.1-1.2,1.6-2.2c0.6-1,0.9-1.7,1.1-2.2H607.5z"/>
			<path class="st1" d="M633.5-124.6H627c-1.4-2-2.7-3.8-3.9-5.2c-1.2-1.5-2.4-3-3.8-4.5h-2.5v6.8c0,0.4,0.1,0.7,0.2,0.9
				c0.1,0.3,0.4,0.5,0.8,0.6c0.2,0.1,0.6,0.1,1.1,0.2c0.5,0.1,0.9,0.1,1.3,0.1v1.1H610v-1.1c0.3,0,0.7-0.1,1.2-0.1
				c0.5,0,0.9-0.1,1.1-0.2c0.3-0.1,0.6-0.3,0.7-0.6c0.2-0.3,0.2-0.6,0.2-1V-143c0-0.4-0.1-0.7-0.2-0.9c-0.1-0.3-0.4-0.5-0.8-0.6
				c-0.3-0.1-0.7-0.2-1.1-0.2c-0.5-0.1-0.8-0.1-1.2-0.1v-1.1h11.2c1,0,2,0.1,2.9,0.3c0.9,0.2,1.7,0.5,2.4,0.9
				c0.7,0.4,1.3,0.9,1.7,1.6c0.4,0.7,0.6,1.4,0.6,2.4c0,0.8-0.1,1.6-0.4,2.2c-0.3,0.6-0.7,1.2-1.3,1.7c-0.5,0.4-1.1,0.8-1.8,1.1
				c-0.7,0.3-1.5,0.6-2.4,0.8c1.2,1.4,2.2,2.6,3,3.5c0.8,1,1.8,2.1,2.9,3.5c0.5,0.6,1,1.1,1.4,1.3c0.4,0.3,0.8,0.5,1.2,0.7
				c0.3,0.1,0.7,0.2,1.1,0.3c0.4,0.1,0.8,0.1,1.1,0.1V-124.6z M624.6-140.6c0-1.3-0.4-2.3-1.3-3.1c-0.8-0.8-2-1.1-3.6-1.1h-2.9v9.2
				h2.2c1.6,0,2.9-0.4,3.9-1.3C624-137.8,624.6-139.1,624.6-140.6z"/>
			<path class="st1" d="M659.3-145c-0.3,0-0.8,0.1-1.5,0.2c-0.7,0.2-1.1,0.3-1.4,0.5c-0.4,0.3-0.7,0.7-0.8,1.5
				c-0.1,0.7-0.2,1.6-0.2,2.7v15.8h-1.5l-14.7-17.6v11.1c0,1.2,0.1,2.2,0.3,2.9c0.2,0.7,0.4,1.1,0.8,1.4c0.3,0.2,0.8,0.4,1.6,0.6
				c0.8,0.2,1.4,0.3,1.6,0.3v1.1h-9.9v-1.1c0.3,0,0.8-0.1,1.6-0.3c0.7-0.2,1.2-0.3,1.4-0.5c0.4-0.3,0.7-0.7,0.8-1.3s0.2-1.6,0.2-3
				v-10.6c0-0.5-0.1-0.9-0.3-1.4c-0.2-0.5-0.4-0.8-0.7-1.1c-0.4-0.3-1-0.6-1.7-0.9c-0.7-0.2-1.3-0.4-1.7-0.4v-1.1h6.9l13.6,16.4
				v-10.2c0-1.3-0.1-2.2-0.3-2.9c-0.2-0.7-0.4-1.1-0.8-1.3c-0.3-0.2-0.8-0.4-1.6-0.6c-0.7-0.2-1.3-0.3-1.6-0.3v-1.1h9.8V-145z"/>
			<path class="st1" d="M683.8-124.6h-10.1v-1.1c0.9-0.1,1.6-0.2,2.2-0.3c0.6-0.2,0.9-0.3,0.9-0.6c0-0.1,0-0.2,0-0.3
				c0-0.1-0.1-0.2-0.1-0.3l-2-4.8h-8.5c-0.3,0.7-0.6,1.3-0.8,1.8c-0.2,0.5-0.4,1-0.5,1.5c-0.1,0.4-0.2,0.8-0.3,1.1
				c-0.1,0.3-0.1,0.5-0.1,0.7c0,0.4,0.4,0.7,1.1,0.9c0.7,0.2,1.5,0.4,2.4,0.4v1.1h-9.1v-1.1c0.3,0,0.7-0.1,1.1-0.2
				c0.4-0.1,0.8-0.2,1.1-0.4c0.5-0.3,0.8-0.6,1.1-0.9c0.2-0.3,0.5-0.7,0.7-1.2c1.2-2.7,2.6-5.7,4-9.1c1.5-3.4,2.8-6.4,3.9-9h1.4
				l8.1,18.6c0.2,0.4,0.4,0.7,0.6,1c0.2,0.2,0.5,0.5,0.9,0.7c0.3,0.1,0.6,0.3,1,0.4c0.4,0.1,0.8,0.2,1.1,0.2V-124.6z M674.1-133.4
				l-3.7-8.4l-3.6,8.4H674.1z"/>
			<path class="st1" d="M704.3-140.2h-1.2c-0.1-0.4-0.3-0.8-0.6-1.3c-0.3-0.5-0.6-1-0.9-1.4c-0.3-0.5-0.7-0.9-1.1-1.2
				c-0.4-0.3-0.8-0.5-1.2-0.6c-0.4,0-0.8-0.1-1.3-0.1c-0.5,0-1,0-1.5,0h-1v17.2c0,0.3,0.1,0.6,0.2,0.9c0.2,0.3,0.4,0.5,0.8,0.6
				c0.2,0.1,0.6,0.2,1.3,0.3c0.7,0.1,1.2,0.2,1.5,0.2v1.1h-11.4v-1.1c0.3,0,0.8-0.1,1.5-0.1c0.7-0.1,1.1-0.1,1.4-0.2
				c0.4-0.1,0.7-0.3,0.8-0.6s0.3-0.6,0.3-1v-17.3h-1c-0.4,0-0.8,0-1.3,0c-0.5,0-1,0-1.5,0.1c-0.4,0-0.8,0.2-1.2,0.6
				c-0.4,0.4-0.8,0.8-1.1,1.2c-0.3,0.5-0.6,0.9-0.9,1.4c-0.3,0.5-0.4,0.9-0.5,1.3h-1.2v-5.8h21.1V-140.2z"/>
			<path class="st1" d="M716.8-124.6h-10.9v-1.1c0.3,0,0.7-0.1,1.3-0.1c0.6,0,1-0.1,1.2-0.2c0.4-0.1,0.6-0.3,0.8-0.5
				c0.2-0.2,0.3-0.5,0.3-0.9V-143c0-0.4-0.1-0.6-0.2-0.9c-0.1-0.2-0.4-0.4-0.9-0.6c-0.3-0.1-0.8-0.2-1.3-0.3
				c-0.5-0.1-0.9-0.2-1.3-0.2v-1.1h10.9v1.1c-0.4,0-0.8,0-1.3,0.1c-0.5,0.1-0.9,0.1-1.3,0.2c-0.4,0.1-0.7,0.3-0.9,0.6
				c-0.1,0.3-0.2,0.6-0.2,0.9v15.6c0,0.3,0.1,0.6,0.2,0.9c0.2,0.3,0.4,0.5,0.8,0.6c0.2,0.1,0.6,0.2,1.2,0.3c0.5,0.1,1,0.2,1.4,0.2
				V-124.6z"/>
			<path class="st1" d="M739.4-143.5c1.1,1,1.9,2.2,2.5,3.6c0.6,1.4,0.9,2.9,0.9,4.6c0,1.7-0.3,3.3-0.9,4.7
				c-0.6,1.4-1.5,2.6-2.6,3.6c-1.1,1-2.3,1.7-3.7,2.2c-1.4,0.5-2.9,0.8-4.5,0.8c-1.7,0-3.2-0.3-4.7-0.8c-1.4-0.6-2.6-1.3-3.7-2.3
				c-1-1-1.8-2.2-2.4-3.6c-0.6-1.4-0.9-2.9-0.9-4.5c0-1.7,0.3-3.3,0.9-4.7c0.6-1.4,1.5-2.6,2.5-3.6c1.1-1,2.3-1.7,3.7-2.3
				c1.4-0.5,2.9-0.8,4.4-0.8c1.6,0,3.1,0.3,4.5,0.8S738.3-144.5,739.4-143.5z M736.8-128.3c0.6-0.9,1.1-2,1.4-3.1
				c0.3-1.2,0.4-2.5,0.4-3.9c0-1.5-0.2-2.8-0.5-4.1c-0.3-1.2-0.8-2.3-1.4-3.2c-0.6-0.9-1.4-1.5-2.4-2c-0.9-0.5-2-0.7-3.2-0.7
				c-1.4,0-2.5,0.3-3.5,0.8c-1,0.6-1.7,1.3-2.3,2.2c-0.6,0.9-1,1.9-1.3,3.1c-0.3,1.2-0.4,2.4-0.4,3.8c0,1.5,0.1,2.8,0.4,3.9
				c0.3,1.2,0.8,2.2,1.4,3.1c0.6,0.9,1.4,1.6,2.3,2.1c0.9,0.5,2,0.7,3.3,0.7c1.2,0,2.3-0.3,3.3-0.8
				C735.4-126.7,736.2-127.4,736.8-128.3z"/>
			<path class="st1" d="M770.6-145c-0.3,0-0.8,0.1-1.5,0.2c-0.7,0.2-1.1,0.3-1.4,0.5c-0.4,0.3-0.7,0.7-0.8,1.5
				c-0.1,0.7-0.2,1.6-0.2,2.7v15.8h-1.5l-14.7-17.6v11.1c0,1.2,0.1,2.2,0.3,2.9c0.2,0.7,0.4,1.1,0.8,1.4c0.3,0.2,0.8,0.4,1.6,0.6
				c0.8,0.2,1.4,0.3,1.6,0.3v1.1h-9.9v-1.1c0.3,0,0.8-0.1,1.6-0.3c0.7-0.2,1.2-0.3,1.4-0.5c0.4-0.3,0.7-0.7,0.8-1.3
				c0.1-0.6,0.2-1.6,0.2-3v-10.6c0-0.5-0.1-0.9-0.3-1.4c-0.2-0.5-0.4-0.8-0.7-1.1c-0.4-0.3-1-0.6-1.7-0.9c-0.7-0.2-1.3-0.4-1.7-0.4
				v-1.1h6.9l13.6,16.4v-10.2c0-1.3-0.1-2.2-0.3-2.9c-0.2-0.7-0.4-1.1-0.8-1.3c-0.3-0.2-0.8-0.4-1.6-0.6c-0.7-0.2-1.3-0.3-1.6-0.3
				v-1.1h9.8V-145z"/>
			<path class="st1" d="M795.1-124.6h-10.1v-1.1c0.9-0.1,1.6-0.2,2.2-0.3c0.6-0.2,0.9-0.3,0.9-0.6c0-0.1,0-0.2,0-0.3
				c0-0.1-0.1-0.2-0.1-0.3l-2-4.8h-8.5c-0.3,0.7-0.6,1.3-0.8,1.8c-0.2,0.5-0.4,1-0.5,1.5c-0.1,0.4-0.2,0.8-0.3,1.1
				c-0.1,0.3-0.1,0.5-0.1,0.7c0,0.4,0.4,0.7,1.1,0.9c0.7,0.2,1.5,0.4,2.4,0.4v1.1h-9.1v-1.1c0.3,0,0.7-0.1,1.1-0.2
				c0.4-0.1,0.8-0.2,1.1-0.4c0.5-0.3,0.8-0.6,1.1-0.9c0.2-0.3,0.5-0.7,0.7-1.2c1.2-2.7,2.6-5.7,4-9.1c1.5-3.4,2.8-6.4,3.9-9h1.4
				l8.1,18.6c0.2,0.4,0.4,0.7,0.6,1c0.2,0.2,0.5,0.5,0.9,0.7c0.3,0.1,0.6,0.3,1,0.4c0.4,0.1,0.8,0.2,1.1,0.2V-124.6z M785.4-133.4
				l-3.7-8.4l-3.6,8.4H785.4z"/>
			<path class="st1" d="M815.4-131l-0.5,6.4H796v-1.1c0.3,0,0.7-0.1,1.2-0.1c0.5,0,0.9-0.1,1.1-0.2c0.3-0.1,0.6-0.3,0.7-0.6
				c0.2-0.3,0.2-0.6,0.2-1v-15.4c0-0.3-0.1-0.6-0.2-0.9c-0.1-0.3-0.4-0.5-0.8-0.6c-0.3-0.1-0.6-0.2-1.1-0.4
				c-0.5-0.1-0.9-0.2-1.2-0.2v-1.1h10.2v1.1c-0.3,0-0.7,0.1-1.2,0.2c-0.5,0.1-0.9,0.2-1.1,0.2c-0.4,0.1-0.6,0.3-0.8,0.6
				c-0.1,0.3-0.2,0.6-0.2,0.9v14.5c0,0.7,0,1.2,0.1,1.6c0.1,0.4,0.2,0.7,0.5,0.9c0.3,0.2,0.7,0.3,1.2,0.4c0.5,0.1,1.2,0.1,2.2,0.1
				c0.4,0,0.9,0,1.3,0c0.5,0,0.9-0.1,1.3-0.1c0.4-0.1,0.8-0.1,1.1-0.2c0.3-0.1,0.6-0.2,0.7-0.4c0.5-0.5,1-1.2,1.6-2.1
				c0.6-0.9,1-1.7,1.3-2.3H815.4z"/>
			<path class="st1" d="M836.1-124c-1.4,0-2.8-0.3-4.1-0.8c-1.3-0.5-2.5-1.2-3.5-2.2c-1-1-1.8-2.1-2.4-3.5c-0.6-1.4-0.9-2.9-0.9-4.6
				c0-1.7,0.3-3.3,0.9-4.7c0.6-1.4,1.4-2.6,2.5-3.6c1-1,2.3-1.8,3.7-2.3c1.4-0.5,2.9-0.8,4.5-0.8c1.2,0,2.3,0.1,3.2,0.4
				c1,0.3,1.9,0.6,2.8,1.1l0.7-1h1.4l0.2,7.7h-1.4c-0.2-0.7-0.5-1.6-0.8-2.4c-0.4-0.9-0.8-1.6-1.3-2.2c-0.5-0.7-1.2-1.2-1.9-1.6
				c-0.7-0.4-1.6-0.6-2.6-0.6c-1.1,0-2.1,0.2-3.1,0.7s-1.8,1.1-2.5,1.9c-0.7,0.8-1.2,1.9-1.5,3.1c-0.4,1.3-0.6,2.7-0.6,4.2
				c0,1.4,0.2,2.6,0.6,3.8c0.4,1.1,1,2.2,1.7,3c0.7,0.9,1.6,1.5,2.6,2c1,0.5,2.1,0.7,3.3,0.7c0.9,0,1.8-0.1,2.5-0.4
				c0.8-0.3,1.4-0.6,2-1c0.6-0.4,1.1-1,1.5-1.5c0.4-0.6,0.8-1.2,1.1-1.8l1.3,0.5c-1,2.1-2.3,3.7-3.9,4.6
				C840.2-124.5,838.3-124,836.1-124z"/>
			<path class="st1" d="M867.4-143.5c1.1,1,1.9,2.2,2.5,3.6c0.6,1.4,0.9,2.9,0.9,4.6c0,1.7-0.3,3.3-0.9,4.7
				c-0.6,1.4-1.5,2.6-2.6,3.6c-1.1,1-2.3,1.7-3.7,2.2c-1.4,0.5-2.9,0.8-4.5,0.8c-1.7,0-3.2-0.3-4.7-0.8c-1.4-0.6-2.6-1.3-3.7-2.3
				c-1-1-1.8-2.2-2.4-3.6c-0.6-1.4-0.9-2.9-0.9-4.5c0-1.7,0.3-3.3,0.9-4.7c0.6-1.4,1.5-2.6,2.5-3.6c1.1-1,2.3-1.7,3.7-2.3
				c1.4-0.5,2.9-0.8,4.4-0.8c1.6,0,3.1,0.3,4.5,0.8S866.4-144.5,867.4-143.5z M864.9-128.3c0.6-0.9,1.1-2,1.4-3.1
				c0.3-1.2,0.4-2.5,0.4-3.9c0-1.5-0.2-2.8-0.5-4.1c-0.3-1.2-0.8-2.3-1.4-3.2c-0.6-0.9-1.4-1.5-2.4-2c-0.9-0.5-2-0.7-3.2-0.7
				c-1.4,0-2.5,0.3-3.5,0.8c-1,0.6-1.7,1.3-2.3,2.2c-0.6,0.9-1,1.9-1.3,3.1c-0.3,1.2-0.4,2.4-0.4,3.8c0,1.5,0.1,2.8,0.4,3.9
				c0.3,1.2,0.8,2.2,1.4,3.1c0.6,0.9,1.4,1.6,2.3,2.1c0.9,0.5,2,0.7,3.3,0.7c1.2,0,2.3-0.3,3.3-0.8S864.2-127.4,864.9-128.3z"/>
			<path class="st1" d="M898.3-145c-0.3,0-0.8,0.1-1.4,0.2c-0.6,0.1-1.1,0.3-1.5,0.5c-0.4,0.2-0.7,0.7-0.8,1.4
				c-0.1,0.7-0.2,1.6-0.2,2.7v9.4c0,1.2-0.3,2.2-0.8,3.1c-0.6,0.9-1.3,1.6-2.2,2.2c-0.9,0.5-1.8,0.9-2.8,1.2c-1,0.2-1.9,0.4-2.9,0.4
				c-1.5,0-2.8-0.2-3.9-0.5c-1.1-0.3-2.1-0.8-2.9-1.4c-0.8-0.6-1.3-1.2-1.7-2c-0.4-0.7-0.6-1.5-0.6-2.3V-143c0-0.4-0.1-0.6-0.2-0.9
				c-0.1-0.2-0.4-0.5-0.8-0.7c-0.3-0.1-0.6-0.3-1.1-0.3c-0.4-0.1-0.8-0.1-1.1-0.2v-1.1h10.1v1.1c-0.3,0-0.7,0.1-1.2,0.1
				c-0.5,0.1-0.8,0.2-1.1,0.2c-0.4,0.1-0.6,0.3-0.8,0.6c-0.1,0.3-0.2,0.6-0.2,0.9v11.9c0,0.6,0.1,1.2,0.2,1.8
				c0.1,0.6,0.4,1.2,0.8,1.8c0.4,0.6,1,1,1.8,1.4c0.8,0.4,1.8,0.5,3.1,0.5c1.2,0,2.3-0.2,3.1-0.5c0.8-0.4,1.5-0.8,2-1.4
				c0.5-0.5,0.8-1.1,1-1.7c0.2-0.6,0.3-1.2,0.3-1.8v-8.8c0-1.1-0.1-2-0.3-2.7c-0.2-0.7-0.4-1.2-0.8-1.4c-0.4-0.3-0.9-0.5-1.6-0.6
				c-0.7-0.1-1.2-0.2-1.6-0.2v-1.1h9.9V-145z"/>
			<path class="st1" d="M923.8-124.6h-6.5c-1.4-2-2.7-3.8-3.9-5.2c-1.2-1.5-2.4-3-3.8-4.5h-2.5v6.8c0,0.4,0.1,0.7,0.2,0.9
				c0.1,0.3,0.4,0.5,0.8,0.6c0.2,0.1,0.6,0.1,1.1,0.2c0.5,0.1,0.9,0.1,1.3,0.1v1.1h-10.2v-1.1c0.3,0,0.7-0.1,1.2-0.1
				c0.5,0,0.9-0.1,1.1-0.2c0.3-0.1,0.6-0.3,0.7-0.6c0.2-0.3,0.2-0.6,0.2-1V-143c0-0.4-0.1-0.7-0.2-0.9c-0.1-0.3-0.4-0.5-0.8-0.6
				c-0.3-0.1-0.7-0.2-1.1-0.2c-0.5-0.1-0.8-0.1-1.2-0.1v-1.1h11.2c1,0,2,0.1,2.9,0.3c0.9,0.2,1.7,0.5,2.4,0.9
				c0.7,0.4,1.3,0.9,1.7,1.6c0.4,0.7,0.6,1.4,0.6,2.4c0,0.8-0.1,1.6-0.4,2.2c-0.3,0.6-0.7,1.2-1.3,1.7c-0.5,0.4-1.1,0.8-1.8,1.1
				c-0.7,0.3-1.5,0.6-2.4,0.8c1.2,1.4,2.2,2.6,3,3.5c0.8,1,1.8,2.1,2.9,3.5c0.5,0.6,1,1.1,1.4,1.3c0.4,0.3,0.8,0.5,1.2,0.7
				c0.3,0.1,0.7,0.2,1.1,0.3c0.4,0.1,0.8,0.1,1.1,0.1V-124.6z M914.8-140.6c0-1.3-0.4-2.3-1.3-3.1c-0.8-0.8-2-1.1-3.6-1.1h-2.9v9.2
				h2.2c1.6,0,2.9-0.4,3.9-1.3C914.3-137.8,914.8-139.1,914.8-140.6z"/>
			<path class="st1" d="M935.3-124.6h-10.9v-1.1c0.3,0,0.7-0.1,1.3-0.1c0.6,0,1-0.1,1.2-0.2c0.4-0.1,0.6-0.3,0.8-0.5
				c0.2-0.2,0.3-0.5,0.3-0.9V-143c0-0.4-0.1-0.6-0.2-0.9c-0.1-0.2-0.4-0.4-0.9-0.6c-0.3-0.1-0.8-0.2-1.3-0.3
				c-0.5-0.1-0.9-0.2-1.3-0.2v-1.1h10.9v1.1c-0.4,0-0.8,0-1.3,0.1c-0.5,0.1-0.9,0.1-1.3,0.2c-0.4,0.1-0.7,0.3-0.9,0.6
				c-0.1,0.3-0.2,0.6-0.2,0.9v15.6c0,0.3,0.1,0.6,0.2,0.9c0.2,0.3,0.4,0.5,0.8,0.6c0.2,0.1,0.6,0.2,1.2,0.3c0.5,0.1,1,0.2,1.4,0.2
				V-124.6z"/>
			<path class="st1" d="M958.6-130.9l-0.5,6.3h-20.1v-1.1c0.3,0,0.8-0.1,1.4-0.1c0.6-0.1,0.9-0.1,1.1-0.2c0.4-0.2,0.6-0.3,0.8-0.6
				c0.1-0.2,0.2-0.6,0.2-0.9V-143c0-0.3-0.1-0.6-0.2-0.9s-0.4-0.5-0.8-0.6c-0.3-0.1-0.7-0.2-1.2-0.3c-0.5-0.1-0.9-0.2-1.2-0.2v-1.1
				h18.7v5.2h-1.3c-0.2-0.8-0.7-1.6-1.5-2.4c-0.8-0.9-1.5-1.3-2.2-1.4c-0.4,0-0.8-0.1-1.3-0.1c-0.5,0-1,0-1.7,0h-3.8v8.6h2.7
				c0.9,0,1.5-0.1,1.9-0.2c0.4-0.1,0.8-0.4,1.1-0.7c0.2-0.3,0.5-0.7,0.6-1.2c0.2-0.5,0.3-1,0.4-1.4h1.3v8.4h-1.3
				c0-0.5-0.2-1-0.4-1.5c-0.2-0.5-0.4-0.9-0.6-1.2c-0.4-0.4-0.8-0.7-1.2-0.8c-0.5-0.1-1-0.2-1.8-0.2h-2.7v6.4c0,0.6,0,1.2,0.2,1.5
				c0.1,0.4,0.3,0.7,0.6,0.8c0.3,0.2,0.7,0.3,1.2,0.4s1.2,0.1,2.2,0.1c0.4,0,0.9,0,1.5,0c0.6,0,1.1,0,1.6-0.1c0.4,0,0.9-0.1,1.3-0.2
				c0.5-0.1,0.8-0.2,1-0.4c0.5-0.5,1.1-1.2,1.6-2.2c0.6-1,0.9-1.7,1.1-2.2H958.6z"/>
			<path class="st1" d="M984.7-124.6h-6.5c-1.4-2-2.7-3.8-3.9-5.2c-1.2-1.5-2.4-3-3.8-4.5H968v6.8c0,0.4,0.1,0.7,0.2,0.9
				s0.4,0.5,0.8,0.6c0.2,0.1,0.6,0.1,1.1,0.2s0.9,0.1,1.3,0.1v1.1h-10.2v-1.1c0.3,0,0.7-0.1,1.2-0.1c0.5,0,0.9-0.1,1.1-0.2
				c0.3-0.1,0.6-0.3,0.7-0.6c0.2-0.3,0.2-0.6,0.2-1V-143c0-0.4-0.1-0.7-0.2-0.9c-0.1-0.3-0.4-0.5-0.8-0.6c-0.3-0.1-0.7-0.2-1.1-0.2
				c-0.5-0.1-0.8-0.1-1.2-0.1v-1.1h11.2c1,0,2,0.1,2.9,0.3c0.9,0.2,1.7,0.5,2.4,0.9c0.7,0.4,1.3,0.9,1.7,1.6
				c0.4,0.7,0.6,1.4,0.6,2.4c0,0.8-0.1,1.6-0.4,2.2c-0.3,0.6-0.7,1.2-1.3,1.7c-0.5,0.4-1.1,0.8-1.8,1.1c-0.7,0.3-1.5,0.6-2.4,0.8
				c1.2,1.4,2.2,2.6,3,3.5c0.8,1,1.8,2.1,2.9,3.5c0.5,0.6,1,1.1,1.4,1.3c0.4,0.3,0.8,0.5,1.2,0.7c0.3,0.1,0.7,0.2,1.1,0.3
				c0.4,0.1,0.8,0.1,1.1,0.1V-124.6z M975.7-140.6c0-1.3-0.4-2.3-1.3-3.1c-0.8-0.8-2-1.1-3.6-1.1H968v9.2h2.2c1.6,0,2.9-0.4,3.9-1.3
				C975.2-137.8,975.7-139.1,975.7-140.6z"/>
		</g>
	</g>
</g>
<g>
	<g>
		<path class="st1" d="M827.4,683.2c-28.8,0-52.2,23.4-52.2,52.2s23.4,52.2,52.2,52.2c9.8,0,18.9-2.7,26.7-7.4v7.4h25.5v-54h-0.1
			C878.6,705.6,855.6,683.2,827.4,683.2z M827.4,762.1c-14.7,0-26.7-12-26.7-26.7c0-14.7,12-26.7,26.7-26.7
			c14.7,0,26.7,12,26.7,26.7C854.1,750.1,842.1,762.1,827.4,762.1z"/>
		<path class="st1" d="M937,683.2c-26.3,0-47.7,21.4-47.7,47.7v56.8h25.5v-56.8c0-12.2,9.9-22.2,22.2-22.2s22.2,9.9,22.2,22.2v56.8
			h25.5v-56.8C984.7,704.6,963.3,683.2,937,683.2z"/>
		<path class="st1" d="M352.9,683.2c-26.3,0-47.7,21.4-47.7,47.7v56.8h25.5v-56.8c0-12.2,9.9-22.2,22.2-22.2
			c12.2,0,22.2,9.9,22.2,22.2v56.8h25.5v-56.8C400.6,704.6,379.2,683.2,352.9,683.2z"/>
		<path class="st1" d="M488.8,690.6c-7.8-4.7-16.9-7.4-26.7-7.4c-28.8,0-52.2,23.4-52.2,52.2s23.4,52.2,52.2,52.2
			c27.8,0,50.6-21.9,52.1-49.3h0.1V628.2h-25.5V690.6z M462.1,762.1c-14.7,0-26.7-12-26.7-26.7c0-14.7,12-26.7,26.7-26.7
			c14.7,0,26.7,12,26.7,26.7C488.8,750.1,476.9,762.1,462.1,762.1z"/>
		<path class="st1" d="M270.2,683.2h25.5v104.5h-25.5V683.2z"/>
		<path class="st1" d="M295.7,658.1V676h-25.5"/>
		<path class="st1" d="M231.9,629h25.3v158.6h-25.3V629z"/>
		<path class="st1" d="M602.7,735.4c0,14.7-12,26.7-26.7,26.7c-14.7,0-26.7-12-26.7-26.7v-52.2h-25.5v52.2
			c0,28.8,23.4,52.2,52.2,52.2c9.8,0,18.9-2.7,26.7-7.4v7.4h25.5V683.2h-25.5V735.4z"/>
		<path class="st1" d="M669.7,721c-3.4,0-6.1-2.7-6.1-6.1c0-3.4,2.7-6.1,6.1-6.1c1.6,0,2.8,0.6,3.5,1.1c0.7,0.5,1.3,1.1,1.7,1.8
			l21.5-13.7c-2.3-3.6-5.2-6.6-8.7-9.1c-5.3-3.7-11.5-5.6-18-5.6c-17.4,0-31.6,14.2-31.6,31.6c0,17.4,14.2,31.6,31.6,31.6
			c4.3,0,7.8,3.5,7.8,7.8c0,4.3-3.5,7.8-7.8,7.8c-3.4,0-6.3-2.2-7.4-5.4l-24.3,8c4.5,13.7,17.2,22.9,31.7,22.9
			c18.4,0,33.3-14.9,33.3-33.3C703,735.9,688.1,721,669.7,721z"/>
		<path class="st1" d="M752.8,762.1c-4.4,0-7.9-3.5-7.9-7.9v-45.4h25v-25.5h-25V649h-25.5v34.3h-13.1v25.5h13.1v45.4
			c0,18.4,15,33.4,33.4,33.4c6.7,0,13.2-2,18.7-5.7l-14.3-21.2C755.9,761.6,754.4,762.1,752.8,762.1z"/>
		<g>
			<polygon class="st1" points="159.7,639.9 159.7,695.7 221.2,695.7 			"/>
			<polygon class="st1" points="159.7,722.6 159.7,777.3 220.7,722.6 			"/>
			<polygon class="st1" points="131.7,787.6 131.7,629.4 39,629.4 121.2,708.5 39,787.6 			"/>
		</g>
	</g>
	<g>
		<g>
			<path class="st1" d="M535.8,832.1h-10.9V831c0.3,0,0.7-0.1,1.3-0.1c0.6,0,1-0.1,1.2-0.2c0.4-0.1,0.6-0.3,0.8-0.5
				c0.2-0.2,0.3-0.5,0.3-0.9v-15.6c0-0.4-0.1-0.6-0.2-0.9c-0.1-0.2-0.4-0.4-0.9-0.6c-0.3-0.1-0.8-0.2-1.3-0.3
				c-0.5-0.1-0.9-0.2-1.3-0.2v-1.1h10.9v1.1c-0.4,0-0.8,0-1.3,0.1c-0.5,0.1-0.9,0.1-1.3,0.2c-0.4,0.1-0.7,0.3-0.9,0.6
				c-0.1,0.3-0.2,0.6-0.2,0.9v15.6c0,0.3,0.1,0.6,0.2,0.9c0.2,0.3,0.4,0.5,0.8,0.6c0.2,0.1,0.6,0.2,1.2,0.3c0.5,0.1,1,0.2,1.4,0.2
				V832.1z"/>
			<path class="st1" d="M563.6,811.6c-0.3,0-0.8,0.1-1.5,0.2c-0.7,0.2-1.1,0.3-1.4,0.5c-0.4,0.3-0.7,0.7-0.8,1.5
				c-0.1,0.7-0.2,1.6-0.2,2.7v15.8h-1.5l-14.7-17.6v11.1c0,1.2,0.1,2.2,0.3,2.9c0.2,0.7,0.4,1.1,0.8,1.4c0.3,0.2,0.8,0.4,1.6,0.6
				c0.8,0.2,1.4,0.3,1.6,0.3v1.1H538V831c0.3,0,0.8-0.1,1.6-0.3c0.7-0.2,1.2-0.3,1.4-0.5c0.4-0.3,0.7-0.7,0.8-1.3
				c0.1-0.6,0.2-1.6,0.2-3v-10.6c0-0.5-0.1-0.9-0.3-1.4c-0.2-0.5-0.4-0.8-0.7-1.1c-0.4-0.3-1-0.6-1.7-0.9c-0.7-0.2-1.3-0.4-1.7-0.4
				v-1.1h6.9l13.6,16.4v-10.2c0-1.3-0.1-2.2-0.3-2.9c-0.2-0.7-0.4-1.1-0.8-1.3c-0.3-0.2-0.8-0.4-1.6-0.6c-0.7-0.2-1.3-0.3-1.6-0.3
				v-1.1h9.8V811.6z"/>
			<path class="st1" d="M585.3,816.4h-1.2c-0.1-0.4-0.3-0.8-0.6-1.3c-0.3-0.5-0.6-1-0.9-1.4c-0.3-0.5-0.7-0.9-1.1-1.2
				c-0.4-0.3-0.8-0.5-1.2-0.6c-0.4,0-0.8-0.1-1.3-0.1c-0.5,0-1,0-1.5,0h-1V829c0,0.3,0.1,0.6,0.2,0.9c0.2,0.3,0.4,0.5,0.8,0.6
				c0.2,0.1,0.6,0.2,1.3,0.3c0.7,0.1,1.2,0.2,1.5,0.2v1.1H569V831c0.3,0,0.8-0.1,1.5-0.1c0.7-0.1,1.1-0.1,1.4-0.2
				c0.4-0.1,0.7-0.3,0.8-0.6s0.3-0.6,0.3-1v-17.3h-1c-0.4,0-0.8,0-1.3,0c-0.5,0-1,0-1.5,0.1c-0.4,0-0.8,0.2-1.2,0.6
				c-0.4,0.4-0.8,0.8-1.1,1.2c-0.3,0.5-0.6,0.9-0.9,1.4c-0.3,0.5-0.4,0.9-0.5,1.3h-1.2v-5.8h21.1V816.4z"/>
			<path class="st1" d="M607.5,825.7l-0.5,6.3H587V831c0.3,0,0.8-0.1,1.4-0.1c0.6-0.1,0.9-0.1,1.1-0.2c0.4-0.2,0.6-0.3,0.8-0.6
				c0.1-0.2,0.2-0.6,0.2-0.9v-15.5c0-0.3-0.1-0.6-0.2-0.9c-0.1-0.3-0.4-0.5-0.8-0.6c-0.3-0.1-0.7-0.2-1.2-0.3
				c-0.5-0.1-0.9-0.2-1.2-0.2v-1.1h18.7v5.2h-1.3c-0.2-0.8-0.7-1.6-1.5-2.4c-0.8-0.9-1.5-1.3-2.2-1.4c-0.4,0-0.8-0.1-1.3-0.1
				c-0.5,0-1,0-1.7,0h-3.8v8.6h2.7c0.9,0,1.5-0.1,1.9-0.2c0.4-0.1,0.8-0.4,1.1-0.7c0.2-0.3,0.5-0.7,0.6-1.2c0.2-0.5,0.3-1,0.4-1.4
				h1.3v8.4h-1.3c0-0.5-0.2-1-0.4-1.5c-0.2-0.5-0.4-0.9-0.6-1.2c-0.4-0.4-0.8-0.7-1.2-0.8c-0.5-0.1-1-0.2-1.8-0.2h-2.7v6.4
				c0,0.6,0,1.2,0.2,1.5c0.1,0.4,0.3,0.7,0.6,0.8c0.3,0.2,0.7,0.3,1.2,0.4s1.2,0.1,2.2,0.1c0.4,0,0.9,0,1.5,0c0.6,0,1.1,0,1.6-0.1
				c0.4,0,0.9-0.1,1.3-0.2c0.5-0.1,0.8-0.3,1-0.4c0.5-0.5,1.1-1.2,1.6-2.2c0.6-1,0.9-1.7,1.1-2.2H607.5z"/>
			<path class="st1" d="M633.5,832.1H627c-1.4-2-2.7-3.8-3.9-5.2c-1.2-1.5-2.4-3-3.8-4.5h-2.5v6.8c0,0.4,0.1,0.7,0.2,0.9
				c0.1,0.3,0.4,0.5,0.8,0.6c0.2,0.1,0.6,0.1,1.1,0.2c0.5,0.1,0.9,0.1,1.3,0.1v1.1H610V831c0.3,0,0.7-0.1,1.2-0.1
				c0.5,0,0.9-0.1,1.1-0.2c0.3-0.1,0.6-0.3,0.7-0.6c0.2-0.3,0.2-0.6,0.2-1v-15.6c0-0.4-0.1-0.7-0.2-0.9c-0.1-0.3-0.4-0.5-0.8-0.6
				c-0.3-0.1-0.7-0.2-1.1-0.3c-0.5-0.1-0.8-0.1-1.2-0.1v-1.1h11.2c1,0,2,0.1,2.9,0.3c0.9,0.2,1.7,0.5,2.4,0.9
				c0.7,0.4,1.3,0.9,1.7,1.6c0.4,0.7,0.6,1.4,0.6,2.4c0,0.8-0.1,1.6-0.4,2.2c-0.3,0.6-0.7,1.2-1.3,1.7c-0.5,0.4-1.1,0.8-1.8,1.1
				c-0.7,0.3-1.5,0.6-2.4,0.8c1.2,1.4,2.2,2.6,3,3.5c0.8,1,1.8,2.1,2.9,3.5c0.5,0.6,1,1.1,1.4,1.3c0.4,0.3,0.8,0.5,1.2,0.7
				c0.3,0.1,0.7,0.2,1.1,0.3c0.4,0.1,0.8,0.1,1.1,0.1V832.1z M624.6,816.1c0-1.3-0.4-2.3-1.3-3.1c-0.8-0.8-2-1.1-3.6-1.1h-2.9v9.2
				h2.2c1.6,0,2.9-0.4,3.9-1.3C624,818.8,624.6,817.6,624.6,816.1z"/>
			<path class="st1" d="M659.3,811.6c-0.3,0-0.8,0.1-1.5,0.2c-0.7,0.2-1.1,0.3-1.4,0.5c-0.4,0.3-0.7,0.7-0.8,1.5
				c-0.1,0.7-0.2,1.6-0.2,2.7v15.8h-1.5l-14.7-17.6v11.1c0,1.2,0.1,2.2,0.3,2.9c0.2,0.7,0.4,1.1,0.8,1.4c0.3,0.2,0.8,0.4,1.6,0.6
				c0.8,0.2,1.4,0.3,1.6,0.3v1.1h-9.9V831c0.3,0,0.8-0.1,1.6-0.3c0.7-0.2,1.2-0.3,1.4-0.5c0.4-0.3,0.7-0.7,0.8-1.3s0.2-1.6,0.2-3
				v-10.6c0-0.5-0.1-0.9-0.3-1.4c-0.2-0.5-0.4-0.8-0.7-1.1c-0.4-0.3-1-0.6-1.7-0.9c-0.7-0.2-1.3-0.4-1.7-0.4v-1.1h6.9l13.6,16.4
				v-10.2c0-1.3-0.1-2.2-0.3-2.9c-0.2-0.7-0.4-1.1-0.8-1.3c-0.3-0.2-0.8-0.4-1.6-0.6c-0.7-0.2-1.3-0.3-1.6-0.3v-1.1h9.8V811.6z"/>
			<path class="st1" d="M683.8,832.1h-10.1V831c0.9-0.1,1.6-0.2,2.2-0.3c0.6-0.2,0.9-0.3,0.9-0.6c0-0.1,0-0.2,0-0.3
				s-0.1-0.2-0.1-0.3l-2-4.8h-8.5c-0.3,0.7-0.6,1.3-0.8,1.8c-0.2,0.5-0.4,1-0.5,1.5c-0.1,0.4-0.2,0.8-0.3,1.1
				c-0.1,0.3-0.1,0.5-0.1,0.7c0,0.4,0.4,0.7,1.1,0.9c0.7,0.2,1.5,0.4,2.4,0.4v1.1h-9.1V831c0.3,0,0.7-0.1,1.1-0.2
				c0.4-0.1,0.8-0.2,1.1-0.4c0.5-0.3,0.8-0.6,1.1-0.9c0.2-0.3,0.5-0.7,0.7-1.2c1.2-2.7,2.6-5.7,4-9.1c1.5-3.4,2.8-6.4,3.9-9h1.4
				l8.1,18.6c0.2,0.4,0.4,0.7,0.6,1c0.2,0.2,0.5,0.5,0.9,0.7c0.3,0.1,0.6,0.3,1,0.4c0.4,0.1,0.8,0.2,1.1,0.2V832.1z M674.1,823.3
				l-3.7-8.4l-3.6,8.4H674.1z"/>
			<path class="st1" d="M704.3,816.4h-1.2c-0.1-0.4-0.3-0.8-0.6-1.3c-0.3-0.5-0.6-1-0.9-1.4c-0.3-0.5-0.7-0.9-1.1-1.2
				c-0.4-0.3-0.8-0.5-1.2-0.6c-0.4,0-0.8-0.1-1.3-0.1c-0.5,0-1,0-1.5,0h-1V829c0,0.3,0.1,0.6,0.2,0.9c0.2,0.3,0.4,0.5,0.8,0.6
				c0.2,0.1,0.6,0.2,1.3,0.3c0.7,0.1,1.2,0.2,1.5,0.2v1.1h-11.4V831c0.3,0,0.8-0.1,1.5-0.1c0.7-0.1,1.1-0.1,1.4-0.2
				c0.4-0.1,0.7-0.3,0.8-0.6s0.3-0.6,0.3-1v-17.3h-1c-0.4,0-0.8,0-1.3,0c-0.5,0-1,0-1.5,0.1c-0.4,0-0.8,0.2-1.2,0.6
				c-0.4,0.4-0.8,0.8-1.1,1.2c-0.3,0.5-0.6,0.9-0.9,1.4c-0.3,0.5-0.4,0.9-0.5,1.3h-1.2v-5.8h21.1V816.4z"/>
			<path class="st1" d="M716.8,832.1h-10.9V831c0.3,0,0.7-0.1,1.3-0.1c0.6,0,1-0.1,1.2-0.2c0.4-0.1,0.6-0.3,0.8-0.5
				c0.2-0.2,0.3-0.5,0.3-0.9v-15.6c0-0.4-0.1-0.6-0.2-0.9c-0.1-0.2-0.4-0.4-0.9-0.6c-0.3-0.1-0.8-0.2-1.3-0.3
				c-0.5-0.1-0.9-0.2-1.3-0.2v-1.1h10.9v1.1c-0.4,0-0.8,0-1.3,0.1c-0.5,0.1-0.9,0.1-1.3,0.2c-0.4,0.1-0.7,0.3-0.9,0.6
				c-0.1,0.3-0.2,0.6-0.2,0.9v15.6c0,0.3,0.1,0.6,0.2,0.9c0.2,0.3,0.4,0.5,0.8,0.6c0.2,0.1,0.6,0.2,1.2,0.3c0.5,0.1,1,0.2,1.4,0.2
				V832.1z"/>
			<path class="st1" d="M739.4,813.1c1.1,1,1.9,2.2,2.5,3.6c0.6,1.4,0.9,2.9,0.9,4.6c0,1.7-0.3,3.3-0.9,4.7
				c-0.6,1.4-1.5,2.6-2.6,3.6c-1.1,1-2.3,1.7-3.7,2.2c-1.4,0.5-2.9,0.8-4.5,0.8c-1.7,0-3.2-0.3-4.7-0.8c-1.4-0.6-2.6-1.3-3.7-2.3
				c-1-1-1.8-2.2-2.4-3.6s-0.9-2.9-0.9-4.5c0-1.7,0.3-3.3,0.9-4.7c0.6-1.4,1.5-2.6,2.5-3.6c1.1-1,2.3-1.7,3.7-2.3
				c1.4-0.5,2.9-0.8,4.4-0.8c1.6,0,3.1,0.3,4.5,0.8C737.1,811.4,738.3,812.1,739.4,813.1z M736.8,828.4c0.6-0.9,1.1-2,1.4-3.1
				c0.3-1.2,0.4-2.5,0.4-3.9c0-1.5-0.2-2.8-0.5-4.1c-0.3-1.2-0.8-2.3-1.4-3.2c-0.6-0.9-1.4-1.5-2.4-2c-0.9-0.5-2-0.7-3.2-0.7
				c-1.4,0-2.5,0.3-3.5,0.8c-1,0.6-1.7,1.3-2.3,2.2c-0.6,0.9-1,1.9-1.3,3.1c-0.3,1.2-0.4,2.4-0.4,3.8c0,1.5,0.1,2.8,0.4,3.9
				c0.3,1.2,0.8,2.2,1.4,3.1c0.6,0.9,1.4,1.6,2.3,2.1c0.9,0.5,2,0.7,3.3,0.7c1.2,0,2.3-0.3,3.3-0.8
				C735.4,830,736.2,829.3,736.8,828.4z"/>
			<path class="st1" d="M770.6,811.6c-0.3,0-0.8,0.1-1.5,0.2c-0.7,0.2-1.1,0.3-1.4,0.5c-0.4,0.3-0.7,0.7-0.8,1.5
				c-0.1,0.7-0.2,1.6-0.2,2.7v15.8h-1.5l-14.7-17.6v11.1c0,1.2,0.1,2.2,0.3,2.9c0.2,0.7,0.4,1.1,0.8,1.4c0.3,0.2,0.8,0.4,1.6,0.6
				c0.8,0.2,1.4,0.3,1.6,0.3v1.1h-9.9V831c0.3,0,0.8-0.1,1.6-0.3c0.7-0.2,1.2-0.3,1.4-0.5c0.4-0.3,0.7-0.7,0.8-1.3
				c0.1-0.6,0.2-1.6,0.2-3v-10.6c0-0.5-0.1-0.9-0.3-1.4c-0.2-0.5-0.4-0.8-0.7-1.1c-0.4-0.3-1-0.6-1.7-0.9c-0.7-0.2-1.3-0.4-1.7-0.4
				v-1.1h6.9L765,827v-10.2c0-1.3-0.1-2.2-0.3-2.9c-0.2-0.7-0.4-1.1-0.8-1.3c-0.3-0.2-0.8-0.4-1.6-0.6c-0.7-0.2-1.3-0.3-1.6-0.3
				v-1.1h9.8V811.6z"/>
			<path class="st1" d="M795.1,832.1h-10.1V831c0.9-0.1,1.6-0.2,2.2-0.3c0.6-0.2,0.9-0.3,0.9-0.6c0-0.1,0-0.2,0-0.3
				c0-0.1-0.1-0.2-0.1-0.3l-2-4.8h-8.5c-0.3,0.7-0.6,1.3-0.8,1.8c-0.2,0.5-0.4,1-0.5,1.5c-0.1,0.4-0.2,0.8-0.3,1.1
				c-0.1,0.3-0.1,0.5-0.1,0.7c0,0.4,0.4,0.7,1.1,0.9c0.7,0.2,1.5,0.4,2.4,0.4v1.1h-9.1V831c0.3,0,0.7-0.1,1.1-0.2
				c0.4-0.1,0.8-0.2,1.1-0.4c0.5-0.3,0.8-0.6,1.1-0.9c0.2-0.3,0.5-0.7,0.7-1.2c1.2-2.7,2.6-5.7,4-9.1c1.5-3.4,2.8-6.4,3.9-9h1.4
				l8.1,18.6c0.2,0.4,0.4,0.7,0.6,1c0.2,0.2,0.5,0.5,0.9,0.7c0.3,0.1,0.6,0.3,1,0.4c0.4,0.1,0.8,0.2,1.1,0.2V832.1z M785.4,823.3
				l-3.7-8.4l-3.6,8.4H785.4z"/>
			<path class="st1" d="M815.4,825.7l-0.5,6.4H796V831c0.3,0,0.7-0.1,1.2-0.1c0.5,0,0.9-0.1,1.1-0.2c0.3-0.1,0.6-0.3,0.7-0.6
				c0.2-0.3,0.2-0.6,0.2-1v-15.4c0-0.3-0.1-0.6-0.2-0.9c-0.1-0.3-0.4-0.5-0.8-0.6c-0.3-0.1-0.6-0.2-1.1-0.4
				c-0.5-0.1-0.9-0.2-1.2-0.2v-1.1h10.2v1.1c-0.3,0-0.7,0.1-1.2,0.2c-0.5,0.1-0.9,0.2-1.1,0.2c-0.4,0.1-0.6,0.3-0.8,0.6
				c-0.1,0.3-0.2,0.6-0.2,0.9v14.5c0,0.7,0,1.2,0.1,1.6c0.1,0.4,0.2,0.7,0.5,0.9c0.3,0.2,0.7,0.3,1.2,0.4c0.5,0.1,1.2,0.1,2.2,0.1
				c0.4,0,0.9,0,1.3,0c0.5,0,0.9-0.1,1.3-0.1c0.4-0.1,0.8-0.1,1.1-0.2c0.3-0.1,0.6-0.2,0.7-0.4c0.5-0.5,1-1.2,1.6-2.1
				c0.6-0.9,1-1.7,1.3-2.3H815.4z"/>
			<path class="st1" d="M836.1,832.6c-1.4,0-2.8-0.3-4.1-0.8c-1.3-0.5-2.5-1.2-3.5-2.2c-1-1-1.8-2.1-2.4-3.5
				c-0.6-1.4-0.9-2.9-0.9-4.6s0.3-3.3,0.9-4.7c0.6-1.4,1.4-2.6,2.5-3.6c1-1,2.3-1.8,3.7-2.3c1.4-0.5,2.9-0.8,4.5-0.8
				c1.2,0,2.3,0.1,3.2,0.4c1,0.3,1.9,0.6,2.8,1.1l0.7-1h1.4l0.2,7.7h-1.4c-0.2-0.7-0.5-1.6-0.8-2.4c-0.4-0.9-0.8-1.6-1.3-2.2
				c-0.5-0.7-1.2-1.2-1.9-1.6c-0.7-0.4-1.6-0.6-2.6-0.6c-1.1,0-2.1,0.2-3.1,0.7c-0.9,0.4-1.8,1.1-2.5,1.9c-0.7,0.8-1.2,1.9-1.5,3.1
				c-0.4,1.3-0.6,2.7-0.6,4.2c0,1.4,0.2,2.6,0.6,3.8c0.4,1.1,1,2.2,1.7,3c0.7,0.9,1.6,1.5,2.6,2c1,0.5,2.1,0.7,3.3,0.7
				c0.9,0,1.8-0.1,2.5-0.4c0.8-0.3,1.4-0.6,2-1c0.6-0.4,1.1-1,1.5-1.5c0.4-0.6,0.8-1.2,1.1-1.8l1.3,0.5c-1,2.1-2.3,3.7-3.9,4.6
				C840.2,832.1,838.3,832.6,836.1,832.6z"/>
			<path class="st1" d="M867.4,813.1c1.1,1,1.9,2.2,2.5,3.6c0.6,1.4,0.9,2.9,0.9,4.6c0,1.7-0.3,3.3-0.9,4.7
				c-0.6,1.4-1.5,2.6-2.6,3.6c-1.1,1-2.3,1.7-3.7,2.2c-1.4,0.5-2.9,0.8-4.5,0.8c-1.7,0-3.2-0.3-4.7-0.8c-1.4-0.6-2.6-1.3-3.7-2.3
				c-1-1-1.8-2.2-2.4-3.6s-0.9-2.9-0.9-4.5c0-1.7,0.3-3.3,0.9-4.7c0.6-1.4,1.5-2.6,2.5-3.6c1.1-1,2.3-1.7,3.7-2.3
				c1.4-0.5,2.9-0.8,4.4-0.8c1.6,0,3.1,0.3,4.5,0.8C865.1,811.4,866.4,812.1,867.4,813.1z M864.9,828.4c0.6-0.9,1.1-2,1.4-3.1
				c0.3-1.2,0.4-2.5,0.4-3.9c0-1.5-0.2-2.8-0.5-4.1c-0.3-1.2-0.8-2.3-1.4-3.2c-0.6-0.9-1.4-1.5-2.4-2c-0.9-0.5-2-0.7-3.2-0.7
				c-1.4,0-2.5,0.3-3.5,0.8c-1,0.6-1.7,1.3-2.3,2.2c-0.6,0.9-1,1.9-1.3,3.1c-0.3,1.2-0.4,2.4-0.4,3.8c0,1.5,0.1,2.8,0.4,3.9
				c0.3,1.2,0.8,2.2,1.4,3.1c0.6,0.9,1.4,1.6,2.3,2.1c0.9,0.5,2,0.7,3.3,0.7c1.2,0,2.3-0.3,3.3-0.8
				C863.4,830,864.2,829.3,864.9,828.4z"/>
			<path class="st1" d="M898.3,811.6c-0.3,0-0.8,0.1-1.4,0.2c-0.6,0.1-1.1,0.3-1.5,0.5c-0.4,0.2-0.7,0.7-0.8,1.4
				c-0.1,0.7-0.2,1.6-0.2,2.7v9.4c0,1.2-0.3,2.2-0.8,3.1c-0.6,0.9-1.3,1.6-2.2,2.2c-0.9,0.5-1.8,0.9-2.8,1.2c-1,0.2-1.9,0.4-2.9,0.4
				c-1.5,0-2.8-0.2-3.9-0.5c-1.1-0.3-2.1-0.8-2.9-1.4c-0.8-0.6-1.3-1.2-1.7-2c-0.4-0.7-0.6-1.5-0.6-2.3v-12.7c0-0.4-0.1-0.6-0.2-0.9
				c-0.1-0.2-0.4-0.5-0.8-0.7c-0.3-0.1-0.6-0.3-1.1-0.3c-0.4-0.1-0.8-0.1-1.1-0.2v-1.1h10.1v1.1c-0.3,0-0.7,0.1-1.2,0.1
				c-0.5,0.1-0.8,0.2-1.1,0.2c-0.4,0.1-0.6,0.3-0.8,0.6c-0.1,0.3-0.2,0.6-0.2,0.9v11.9c0,0.6,0.1,1.2,0.2,1.8
				c0.1,0.6,0.4,1.2,0.8,1.8c0.4,0.6,1,1,1.8,1.4c0.8,0.4,1.8,0.5,3.1,0.5c1.2,0,2.3-0.2,3.1-0.5c0.8-0.4,1.5-0.8,2-1.4
				c0.5-0.5,0.8-1.1,1-1.7c0.2-0.6,0.3-1.2,0.3-1.8v-8.8c0-1.1-0.1-2-0.3-2.7c-0.2-0.7-0.4-1.2-0.8-1.4c-0.4-0.3-0.9-0.5-1.6-0.6
				c-0.7-0.1-1.2-0.2-1.6-0.2v-1.1h9.9V811.6z"/>
			<path class="st1" d="M923.8,832.1h-6.5c-1.4-2-2.7-3.8-3.9-5.2c-1.2-1.5-2.4-3-3.8-4.5h-2.5v6.8c0,0.4,0.1,0.7,0.2,0.9
				c0.1,0.3,0.4,0.5,0.8,0.6c0.2,0.1,0.6,0.1,1.1,0.2c0.5,0.1,0.9,0.1,1.3,0.1v1.1h-10.2V831c0.3,0,0.7-0.1,1.2-0.1
				c0.5,0,0.9-0.1,1.1-0.2c0.3-0.1,0.6-0.3,0.7-0.6c0.2-0.3,0.2-0.6,0.2-1v-15.6c0-0.4-0.1-0.7-0.2-0.9c-0.1-0.3-0.4-0.5-0.8-0.6
				c-0.3-0.1-0.7-0.2-1.1-0.3c-0.5-0.1-0.8-0.1-1.2-0.1v-1.1h11.2c1,0,2,0.1,2.9,0.3c0.9,0.2,1.7,0.5,2.4,0.9
				c0.7,0.4,1.3,0.9,1.7,1.6c0.4,0.7,0.6,1.4,0.6,2.4c0,0.8-0.1,1.6-0.4,2.2c-0.3,0.6-0.7,1.2-1.3,1.7c-0.5,0.4-1.1,0.8-1.8,1.1
				c-0.7,0.3-1.5,0.6-2.4,0.8c1.2,1.4,2.2,2.6,3,3.5c0.8,1,1.8,2.1,2.9,3.5c0.5,0.6,1,1.1,1.4,1.3c0.4,0.3,0.8,0.5,1.2,0.7
				c0.3,0.1,0.7,0.2,1.1,0.3c0.4,0.1,0.8,0.1,1.1,0.1V832.1z M914.8,816.1c0-1.3-0.4-2.3-1.3-3.1c-0.8-0.8-2-1.1-3.6-1.1h-2.9v9.2
				h2.2c1.6,0,2.9-0.4,3.9-1.3C914.3,818.8,914.8,817.6,914.8,816.1z"/>
			<path class="st1" d="M935.3,832.1h-10.9V831c0.3,0,0.7-0.1,1.3-0.1c0.6,0,1-0.1,1.2-0.2c0.4-0.1,0.6-0.3,0.8-0.5
				c0.2-0.2,0.3-0.5,0.3-0.9v-15.6c0-0.4-0.1-0.6-0.2-0.9c-0.1-0.2-0.4-0.4-0.9-0.6c-0.3-0.1-0.8-0.2-1.3-0.3
				c-0.5-0.1-0.9-0.2-1.3-0.2v-1.1h10.9v1.1c-0.4,0-0.8,0-1.3,0.1c-0.5,0.1-0.9,0.1-1.3,0.2c-0.4,0.1-0.7,0.3-0.9,0.6
				c-0.1,0.3-0.2,0.6-0.2,0.9v15.6c0,0.3,0.1,0.6,0.2,0.9c0.2,0.3,0.4,0.5,0.8,0.6c0.2,0.1,0.6,0.2,1.2,0.3c0.5,0.1,1,0.2,1.4,0.2
				V832.1z"/>
			<path class="st1" d="M958.6,825.7l-0.5,6.3h-20.1V831c0.3,0,0.8-0.1,1.4-0.1c0.6-0.1,0.9-0.1,1.1-0.2c0.4-0.2,0.6-0.3,0.8-0.6
				c0.1-0.2,0.2-0.6,0.2-0.9v-15.5c0-0.3-0.1-0.6-0.2-0.9c-0.1-0.3-0.4-0.5-0.8-0.6c-0.3-0.1-0.7-0.2-1.2-0.3
				c-0.5-0.1-0.9-0.2-1.2-0.2v-1.1h18.7v5.2h-1.3c-0.2-0.8-0.7-1.6-1.5-2.4c-0.8-0.9-1.5-1.3-2.2-1.4c-0.4,0-0.8-0.1-1.3-0.1
				c-0.5,0-1,0-1.7,0h-3.8v8.6h2.7c0.9,0,1.5-0.1,1.9-0.2c0.4-0.1,0.8-0.4,1.1-0.7c0.2-0.3,0.5-0.7,0.6-1.2c0.2-0.5,0.3-1,0.4-1.4
				h1.3v8.4h-1.3c0-0.5-0.2-1-0.4-1.5c-0.2-0.5-0.4-0.9-0.6-1.2c-0.4-0.4-0.8-0.7-1.2-0.8c-0.5-0.1-1-0.2-1.8-0.2h-2.7v6.4
				c0,0.6,0,1.2,0.2,1.5c0.1,0.4,0.3,0.7,0.6,0.8c0.3,0.2,0.7,0.3,1.2,0.4s1.2,0.1,2.2,0.1c0.4,0,0.9,0,1.5,0c0.6,0,1.1,0,1.6-0.1
				c0.4,0,0.9-0.1,1.3-0.2c0.5-0.1,0.8-0.3,1-0.4c0.5-0.5,1.1-1.2,1.6-2.2c0.6-1,0.9-1.7,1.1-2.2H958.6z"/>
			<path class="st1" d="M984.7,832.1h-6.5c-1.4-2-2.7-3.8-3.9-5.2c-1.2-1.5-2.4-3-3.8-4.5H968v6.8c0,0.4,0.1,0.7,0.2,0.9
				c0.1,0.3,0.4,0.5,0.8,0.6c0.2,0.1,0.6,0.1,1.1,0.2c0.5,0.1,0.9,0.1,1.3,0.1v1.1h-10.2V831c0.3,0,0.7-0.1,1.2-0.1
				c0.5,0,0.9-0.1,1.1-0.2c0.3-0.1,0.6-0.3,0.7-0.6c0.2-0.3,0.2-0.6,0.2-1v-15.6c0-0.4-0.1-0.7-0.2-0.9c-0.1-0.3-0.4-0.5-0.8-0.6
				c-0.3-0.1-0.7-0.2-1.1-0.3c-0.5-0.1-0.8-0.1-1.2-0.1v-1.1h11.2c1,0,2,0.1,2.9,0.3c0.9,0.2,1.7,0.5,2.4,0.9
				c0.7,0.4,1.3,0.9,1.7,1.6c0.4,0.7,0.6,1.4,0.6,2.4c0,0.8-0.1,1.6-0.4,2.2c-0.3,0.6-0.7,1.2-1.3,1.7c-0.5,0.4-1.1,0.8-1.8,1.1
				c-0.7,0.3-1.5,0.6-2.4,0.8c1.2,1.4,2.2,2.6,3,3.5c0.8,1,1.8,2.1,2.9,3.5c0.5,0.6,1,1.1,1.4,1.3c0.4,0.3,0.8,0.5,1.2,0.7
				c0.3,0.1,0.7,0.2,1.1,0.3c0.4,0.1,0.8,0.1,1.1,0.1V832.1z M975.7,816.1c0-1.3-0.4-2.3-1.3-3.1c-0.8-0.8-2-1.1-3.6-1.1H968v9.2
				h2.2c1.6,0,2.9-0.4,3.9-1.3C975.2,818.8,975.7,817.6,975.7,816.1z"/>
		</g>
	</g>
</g>
<g>
	<circle class="st3" cx="-920.4" cy="287" r="430"/>
	<circle class="st4" cx="-608.6" cy="-131.6" r="140.5"/>
	<circle class="st4" cx="-608.6" cy="683.2" r="140.5"/>
	<circle class="st4" cx="-424.6" cy="427.5" r="140.5"/>
	<circle class="st4" cx="-424.6" cy="119.6" r="140.5"/>
</g>
</svg>
