<svg xmlns="http://www.w3.org/2000/svg" width="386.877" height="340.119" viewBox="0 0 386.877 340.119">
  <g id="live-chat" transform="translate(0 -30.94)">
    <path id="Path_390" data-name="Path 390" d="M352.875,121.705H329.132c-20.193-47.947-64.658-82.791-115.847-89.446A146.967,146.967,0,0,0,80.107,84.326,148.6,148.6,0,0,0,57.35,121.705H34a34.041,34.041,0,0,0-34,34v45.337a34.041,34.041,0,0,0,34,34H80.55l-4.87-14.865C61.5,176.882,69.482,132.64,97.563,98.8A124.594,124.594,0,0,1,210.341,54.729c45.524,5.93,85.039,38.125,100.7,82.041l.1.255a98.18,98.18,0,0,1,5.313,20.7,124.759,124.759,0,0,1-5.589,62.129l-.05.135A124.433,124.433,0,0,1,193.66,303.054a34,34,0,1,0,33.782,34V321.771a147.154,147.154,0,0,0,101.542-86.723h23.89a34.041,34.041,0,0,0,34-34V155.707A34.04,34.04,0,0,0,352.875,121.705Z" transform="translate(0 0)" fill="#0078bc"/>
    <path id="Path_391" data-name="Path 391" d="M121,272.409v22.669H223.009a101.994,101.994,0,1,0-80.226-38.995A22.537,22.537,0,0,1,121,272.409Zm136.012-90.674H279.68V204.4H257.012Zm-45.337,0h22.669V204.4H211.674Zm-45.337,0h22.669V204.4H166.337Z" transform="translate(-29.57 -14.692)" fill="#0078bc"/>
  </g>
</svg>
