<?xml version="1.0" encoding="utf-8"?>
<!-- Generator: Adobe Illustrator 21.1.0, SVG Export Plug-In . SVG Version: 6.00 Build 0)  -->
<svg version="1.1" xmlns="http://www.w3.org/2000/svg" xmlns:xlink="http://www.w3.org/1999/xlink" x="0px" y="0px"
	 viewBox="0 0 694.4 528.7" style="enable-background:new 0 0 694.4 528.7;" xml:space="preserve">
<style type="text/css">
	.st0{fill-rule:evenodd;clip-rule:evenodd;fill:#FEFEFE;}
	.st1{fill-rule:evenodd;clip-rule:evenodd;fill:#1C1B17;}
	.st2{fill-rule:evenodd;clip-rule:evenodd;fill:#FECC00;stroke:#FEFEFE;stroke-width:0.5669;stroke-miterlimit:22.9256;}
	.st3{fill-rule:evenodd;clip-rule:evenodd;fill:#FECC00;}
	.st4{fill-rule:evenodd;clip-rule:evenodd;fill:#F50000;}
	.st5{fill-rule:evenodd;clip-rule:evenodd;fill:#1C1B17;stroke:#1C1B17;stroke-width:0.5669;stroke-miterlimit:22.9256;}
	.st6{fill-rule:evenodd;clip-rule:evenodd;fill:#1C1B17;stroke:#1C1B17;stroke-width:0.216;stroke-miterlimit:22.9256;}
	.st7{fill:#1C1B17;}
	.st8{fill-rule:evenodd;clip-rule:evenodd;fill:#FEFEFE;stroke:#FEFEFE;stroke-width:0.5669;stroke-miterlimit:22.9256;}
	.st9{fill-rule:evenodd;clip-rule:evenodd;fill:#FFFFFF;}
	.st10{fill-rule:evenodd;clip-rule:evenodd;fill:#FFFFFF;stroke:#FEFEFE;stroke-width:0.5669;stroke-miterlimit:22.9256;}
	.st11{fill-rule:evenodd;clip-rule:evenodd;fill:#222222;}
	.st12{fill-rule:evenodd;clip-rule:evenodd;fill:#FDEC19;}
</style>
<g id="Направляющие_для_монтажной_области">
</g>
<g id="Слой_1">
	<g>
		<g>
			<path class="st9" d="M348.7,283.3c61.3,0,111.3-50,111.3-111.3c0-61.3-50-111.3-111.3-111.3c-61.3,0-111.3,50-111.3,111.3
				C237.4,233.4,287.4,283.3,348.7,283.3z"/>
			<path class="st4" d="M348.7,44.7c-70.4,0-127.4,57-127.4,127.4c0,70.4,57,127.4,127.4,127.4c70.4,0,127.4-57,127.4-127.4
				C476.1,101.7,419.1,44.7,348.7,44.7L348.7,44.7z M282.6,92.1c18-14.9,41-23.8,66.1-23.8c57.3,0,103.8,46.5,103.8,103.8
				c0,25.1-8.9,48.2-23.8,66.1L282.6,92.1L282.6,92.1z M414.8,252.1c-18,14.9-41,23.8-66.1,23.8c-57.3,0-103.8-46.5-103.8-103.8
				c0-25.1,8.9-48.2,23.8-66.1L414.8,252.1z"/>
		</g>
		<g>
			<g>
				<path class="st10" d="M266.1,462.5c32.8,0,59.5-26.7,59.5-59.5c0-32.8-26.7-59.5-59.5-59.5c-32.8,0-59.5,26.7-59.5,59.5
					C206.6,435.8,233.3,462.5,266.1,462.5z"/>
				<path class="st1" d="M292.5,371.5c-0.6,0.2-1.2,0.2-1.7,0.1c-0.4-0.1-0.8-0.4-1.1-0.7c-0.5-0.6-0.8-1.3-1.1-2
					c-0.3-0.7-0.5-1.5-0.8-2.3c-0.5-1.1-0.9-1.6-1.6-2.6c-0.4-0.5-0.9-1-1.7-1.4c-1.9-0.9-2.6,6.3-2.7,7.3c-0.2,2.2-0.6,4.1,0.2,6.2
					c0.3,0.8,0.9,1.6,0.8,2.5c-0.1,1.3-2.6,4.7-3.5,6c-0.4,0.6-0.9,1.3-1.2,1.9c-1.5,2.5-4.8,3.6-7.8,3.9c-5.5,0.5-11,0.5-16.5,0.9
					c-1.6,0.1-3.3,0.1-4.9,0.4c-1.9,0.4-3.9,0.8-5.7,1.6c-2.8,1.2-4.6,2.2-5.9,3.4c-8,2.8-7.8,10.7-12.6,15.8
					c-2,2.1-4.7,3.8-6.5,3.2c-1-0.3-1.6-0.7-2.1-0.5c-0.2,0.1-0.3,0.1-0.3,0.4c-0.1,0.3,0,0.4,0,0.7c0.3,3.3,2.9,6.5,10.3,4.1
					c4.1-1.3,5.2-3.6,6.6-6.9c-0.1,1.1-0.1,2.1-0.1,2.6c0,0.3-0.3,3.2-0.3,3.2c-0.5,0.6-1,1.4-1.6,1.9c-0.4,0.4-0.9,0.6-1.4,0.9
					c-0.3,0.2-0.6,0.3-0.8,0.6c-0.2,0.2-0.3,0.5-0.3,0.7c-0.1,0.4-0.1,0.8,0,1.2c0.1,1.7,0.3,3.5,0.5,5.2c0.1,0.9,0.4,1.7,0.5,2.6
					c0,0,0.8,2.7,0.9,2.8c0.1,0.2,1,1.9,1,1.9c0.4,0.2,0.8,0.4,1.3,0.5c0.5,0.1,1.1,0,1.7,0c0.3,0,0.5,0,0.8-0.1
					c0.2-0.1,0.2-0.3,0.4-0.4c0.2-0.1,0.4,0.1,0.6,0.1c0.3,0,0.6-0.1,0.8-0.3c0.2-0.2,0.1-0.5,0.1-0.8c0-0.3-0.1-0.6-0.2-0.9
					c-0.1-0.3-0.3-0.6-0.5-0.9c0,0-0.6-0.3-0.8-0.3c-0.2,0-1.4-0.1-1.4-0.1c-0.2-0.3-0.5-0.5-0.6-0.8c-0.2-0.5-0.2-1-0.3-1.5
					c-0.1-0.5-0.4-1-0.4-1.5c0-0.5,0-1,0.2-1.5c0.1-0.5,0.3-1.1,0.7-1.5c0.1-0.2,1.9-2.1,2.7-2.9c0,0.2,0.1,0.5,0.1,0.7
					c0.1,0.9,0.3,1.7,0.5,2.6c0,0,0.8,2.7,0.9,2.8c0.1,0.2,1,1.9,1,1.9c0.4,0.2,0.8,0.4,1.3,0.5c0.5,0.1,1.1,0,1.7,0
					c0.3,0,0.5,0,0.8-0.1c0.2-0.1,0.2-0.3,0.4-0.4c0.2-0.1,0.4,0.1,0.6,0.1c0.3,0,0.6-0.1,0.8-0.3c0.2-0.2,0.1-0.5,0.1-0.8
					c0-0.3-0.1-0.6-0.2-0.9c-0.1-0.3-0.3-0.6-0.5-0.9c0,0-0.6-0.3-0.8-0.3c-0.2,0-1.4-0.1-1.4-0.1c-0.2-0.3-0.5-0.5-0.6-0.8
					c-0.2-0.5-0.2-1-0.3-1.5c-0.1-0.5-0.4-1-0.4-1.5c0-0.5,0-1,0.2-1.5c0.1-0.5,0.3-1.1,0.7-1.5l0.6-0.7c3.1-1.3,6.2-2.7,9.8-6.4
					c0.6-0.6,4.1-5.3,4.2-5.3c1.6,0,9.9,10.8,20,5.3c0,0,0.7-0.6,0.6-0.1c-0.1,0.4,0.3,3,0.3,3c0.3,1.5,0.6,2.9,0.9,4.4
					c0,0,0.3,3.3,0.3,3.7c0,0.4,0.1,4,0.1,4c0,0.5,0,1.1,0.1,1.6c0.2,0.7,0.7,1.2,1,1.8c0.4,0.7,0.8,1.3,1.1,2
					c0.3,0.6,0.4,1.3,0.6,1.9c0.1,0.4,0.3,0.7,0.5,1.1c0.3,0.4,0.6,0.9,1,1.2c0.6,0.4,1.1,0.5,1.6,0.5c0.6,0.1,1.1,0,1.7,0.1
					c0.6,0.1,0.6,0.4,1.7,0.3c0.3,0,0.5-0.1,0.7-0.2c0.2-0.1,0.3-0.2,0.4-0.3c1.1,0.5,1.6-0.1,1.5-1.2c0,0-0.4-0.7-0.7-0.8
					c-0.3-0.2-1.4-0.9-1.4-0.9c-0.4-0.3-0.7-0.6-1.1-0.8c-0.3-0.2-0.7-0.2-1.1-0.2c0,0-0.3-0.2-0.4-0.3c-0.1-0.2-1.3-2-1.3-2
					c-0.3-0.6-0.8-1-1-1.7c-0.2-0.7,0-1.5,0-2.3c0-1.2,0.1-2.3,0.1-3.5c0-1.9-0.1-3.9,0-5.8c0-0.9,0-1.9,0.3-2.8
					c0.2-0.3,0.9-0.8,1.1-0.4c0.3,0.9-0.2,1.8-0.3,2.7c-0.1,1-0.2,2-0.2,3.1c0,0.8,0.1,1.7,0.1,2.5c0,0.5-0.1,1-0.1,1.6
					c-0.1,0.6-0.1,1.3-0.2,1.9c0,0.5,0,1,0.4,1.4c0.1,0.1,0.4,0.1,0.5,0.1c0,0,0.4,0.6,0.4,0.8c0.1,0.2,0.6,1,0.6,1.4
					c0.1,0.4,0.6,1.2,0.6,1.2c0.2,0.5,0.4,1.1,0.7,1.6c0.3,0.7,0.7,1.1,1.4,1.3c0.3,0.1,1.4,0.4,1.6,0.5c0.2,0.1,1.2,0.2,1.4,0.2
					c0.2,0,0.3,0,0.4,0c0.5-0.1,0.2-0.5,0.7-0.4c1,0.1,1.3,0.3,1.8-0.7c0.3-0.6,0.5-1-0.1-1.6c-0.3-0.3-0.7-0.4-1-0.6
					c-0.4-0.2-0.7-0.5-1.1-0.6c-0.5-0.1-1.1,0-1.6-0.1c-0.4-0.1-0.9-0.2-1.1-0.5c-0.6-1-1-2.1-1.3-3.2c-0.1-0.5-0.1-1,0-1.5
					c0.1-1,0.4-1.9,0.5-2.8c0.1-0.9,0.2-1.7,0.3-2.6c0.2-1.2,0.5-2.5,0.8-3.7c0.3-1.2,0.7-2.5,1.1-3.7c0.3-0.9,0.7-1.9,1.2-2.7
					c0.6-0.9,1.5-1.6,2.2-2.5c0.5-0.7,1.1-1.3,1.4-2.1c0.4-1.2,0.4-2.6,0.5-3.9c0.4-2.9,0.7-5,1.3-7.9c0,0,0.9-1.7,1-2.3
					c0.1-0.6,0.5-3,0.5-3c0.2-0.8,0.2-1.7,0.5-2.4c1-2.9,1-1,1-4.3c0-0.2-0.5-1.9-0.5-1.9c-0.1-0.5-0.3-1.1-0.3-1.6
					c0-0.5,0.1-1,0.1-1.5c0.1-0.4,0.2-0.7,0.3-1.1c0,0,0.3-1,0.4-1.3c0.1-0.3,0.7-1.9,0.7-1.9c0.1-0.5,0.3-1,0.3-1.5
					c0.1-0.6,0-1.1,0-1.7c0-0.5-0.1-1-0.1-1.5c0-0.7,0.2-1.3,0.2-2c0-0.9-0.2-1.9-0.4-2.8c-0.1-0.6-0.2-1.2-0.4-1.7
					c-0.1-0.4-0.3-0.8-0.5-1.2c-0.1-0.2-0.3-0.4-0.5-0.5c-0.2-0.1-0.4,0-0.6,0.1c-0.3,0.1-0.6,0.3-0.8,0.6c-1,0.9-1.3,1.6-1.9,2.7
					c-0.6,1.3-1.1,2.3-1.8,3.6c0,0-0.5,0.9-0.6,1C293.5,370.6,292.6,371.5,292.5,371.5z"/>
				<path class="st11" d="M266.1,334.9c-37.6,0-68.1,30.5-68.1,68.1c0,37.6,30.5,68.1,68.1,68.1c37.6,0,68.1-30.5,68.1-68.1
					C334.2,365.4,303.7,334.9,266.1,334.9L266.1,334.9z M230.7,360.3c9.6-7.9,21.9-12.7,35.4-12.7c30.6,0,55.5,24.8,55.5,55.5
					c0,13.4-4.8,25.8-12.7,35.4L230.7,360.3L230.7,360.3z M301.4,445.8c-9.6,7.9-21.9,12.7-35.4,12.7c-30.7,0-55.5-24.8-55.5-55.5
					c0-13.4,4.8-25.8,12.7-35.4L301.4,445.8z"/>
			</g>
			<g>
				<path class="st10" d="M98.2,462.5c32.8,0,59.5-26.7,59.5-59.5c0-32.8-26.7-59.5-59.5-59.5S38.7,370.3,38.7,403
					C38.7,435.8,65.4,462.5,98.2,462.5z"/>
				<g>
					<path class="st1" d="M97.6,426.3c-5-1.5-10-3-15-4.5c-1.1-1.7-2.7-4.2-3.3-5c-4.6-7-8.1-17.7-4.1-25.7
						c2.1-4.3,8.5-9.2,12.9-15.2c0.8-1.1,1.5-2.2,2.1-3.3c1.6-2.8,3.7-8.2,3.5-12.5c-0.2-3.8-1-3.3-2.1-5.4c16,5.8,22.8,20,18.7,36
						c-0.4,1.6-2.7,6.1-5.2,10.1C97.5,413.2,95.7,411.7,97.6,426.3z"/>
					<path class="st1" d="M101.4,416.4c2.2-8.3,8.2-9.4,12-20.3c1-2.8,1.1-7.3,1.4-10.4c13.4,11.4,7.7,23.8,0.4,36.2
						c-4.6,1.5-9.2,3-13.8,4.6C101,423.3,100.6,419.4,101.4,416.4z"/>
					<polygon class="st1" points="124.5,435.2 71.7,422.3 71.7,433.6 124.5,446.5 					"/>
					<polygon class="st1" points="98.8,441.5 78.1,436.4 71.8,438 71.8,448.1 					"/>
					<polygon class="st1" points="102.4,428.3 123.4,433.5 124.5,433.2 124.5,422.9 					"/>
				</g>
				<path class="st11" d="M98.2,334.9c-37.6,0-68.1,30.5-68.1,68.1c0,37.6,30.5,68.1,68.1,68.1c37.6,0,68.1-30.5,68.1-68.1
					C166.3,365.4,135.8,334.9,98.2,334.9L98.2,334.9z M62.9,360.3c9.6-7.9,21.9-12.7,35.4-12.7c30.7,0,55.5,24.8,55.5,55.5
					c0,13.4-4.8,25.8-12.7,35.4L62.9,360.3L62.9,360.3z M133.6,445.8c-9.6,7.9-21.9,12.7-35.4,12.7c-30.7,0-55.5-24.8-55.5-55.5
					c0-13.4,4.8-25.8,12.7-35.4L133.6,445.8z"/>
			</g>
			<g>
				<path class="st10" d="M433.9,465.2c32.8,0,59.5-26.7,59.5-59.5c0-32.8-26.7-59.5-59.5-59.5c-32.8,0-59.5,26.7-59.5,59.5
					C374.4,438.5,401.1,465.2,433.9,465.2z"/>
				<g>
					<g>
						<rect x="401.8" y="414.6" class="st1" width="78.9" height="12.8"/>
						<rect x="395.8" y="414.6" class="st1" width="3.8" height="12.8"/>
						<rect x="388.3" y="414.6" class="st1" width="3.8" height="12.8"/>
					</g>
					<path class="st1" d="M456.4,379.3c0.4-1.8,0.6-3.6,0.6-5.3c0-10.2-7.7-15.2-23.1-15.2c-2.5,0-4.9,0.2-7.2,0.4
						c14.4,1.2,21.5,6,21.5,14.4c0,0.8-0.1,1.6-0.2,2.4c-3.7,21.1-58.9,5.7-62.8,23.3c-0.3,0.9-0.4,1.7-0.4,2.6c0,3.7,1.6,6.7,4.6,9
						c-1-1.7-1.6-3.4-1.6-4.8c0-0.8,0.2-1.4,0.5-2.1c1.2-2.5,4.5-4.2,9.8-5.1C415.6,395.9,451.2,401.2,456.4,379.3z"/>
				</g>
				<path class="st11" d="M433.9,337.6c-37.6,0-68.1,30.5-68.1,68.1c0,37.6,30.5,68.1,68.1,68.1c37.6,0,68.1-30.5,68.1-68.1
					C502,368.1,471.5,337.6,433.9,337.6L433.9,337.6z M398.5,363c9.6-7.9,21.9-12.7,35.4-12.7c30.7,0,55.5,24.8,55.5,55.5
					c0,13.4-4.8,25.8-12.7,35.4L398.5,363L398.5,363z M469.2,448.5c-9.6,7.9-21.9,12.7-35.4,12.7c-30.7,0-55.5-24.8-55.5-55.5
					c0-13.4,4.8-25.8,12.7-35.4L469.2,448.5z"/>
			</g>
			<g>
				<path class="st10" d="M601.7,465.8c32.8,0,59.5-26.7,59.5-59.5c0-32.8-26.7-59.5-59.5-59.5c-32.8,0-59.5,26.7-59.5,59.5
					C542.2,439.1,568.9,465.8,601.7,465.8z"/>
				<g>
					<path class="st1" d="M590.7,453.4c-2.6-20.4-0.7-41.6,10.9-64.5c0.8,0.6,1.7,1.1,2.7,1.4c-12.7,20.3-15,40.7-12.4,62.9
						L590.7,453.4z"/>
					<g>
						<path class="st1" d="M590.3,367c2.8-3.4,7.8-3.8,11.2-1c2.3,1.9,3.2,4.7,2.8,7.4c-1.6,0.5-3,1.4-4.1,2.8
							c-0.9,1.1-1.5,2.3-1.8,3.6c-2.4,0.6-5,0.1-7-1.6C587.9,375.4,587.5,370.4,590.3,367z"/>
						<path class="st1" d="M587.6,392.7c-2.2-3.8-0.9-8.7,2.8-10.9c2.4-1.4,5.3-1.4,7.6-0.2c-0.1,2.6,1,5.3,3.2,7.1
							c0.4,0.3,0.7,0.6,1.1,0.8c-0.2,2.5-1.6,4.8-3.9,6.1C594.7,397.7,589.8,396.5,587.6,392.7z"/>
						<path class="st1" d="M610.9,403.8c-4.3,0.8-8.5-2.1-9.2-6.4c-0.5-2.7,0.5-5.4,2.3-7.2c2.9,1,6.2,0.4,8.6-1.6
							c2.4,1,4.2,3.2,4.7,5.9C618.1,398.8,615.2,403,610.9,403.8z"/>
						<path class="st1" d="M628.6,385.3c-0.7,4.3-4.8,7.2-9.2,6.5c-2.6-0.4-4.7-2.1-5.8-4.4c2.1-2.6,2.5-6,1.3-8.8
							c1.8-1.9,4.4-2.9,7.2-2.4C626.4,376.9,629.3,381,628.6,385.3z"/>
						<path class="st1" d="M617.3,362c3.8,2.2,5.1,7,3,10.8c-1.3,2.3-3.6,3.7-6,4c-0.5-0.7-1-1.3-1.6-1.8c-1.8-1.5-3.9-2.1-6-2
							c-1.4-2.4-1.5-5.4-0.1-8C608.6,361.2,613.5,359.8,617.3,362z"/>
					</g>
					<path class="st1" d="M564.7,400.7c15.2-6.4,24.2,8.2,25.5,15.9l-0.1,0l0,0c-4.3-8.1-10.7-12.4-18.4-14.7
						c7.7,2.8,13.5,7.5,16.4,14.8C563.4,416.9,576.7,406.7,564.7,400.7z"/>
					<path class="st1" d="M624.2,410.8c-19.2-8-30.5,10.4-32.1,20l0.2,0l0,0c5.4-10.2,13.5-15.7,23.1-18.6
						c-9.7,3.5-17,9.4-20.7,18.7C625.7,431.3,609,418.4,624.2,410.8z"/>
				</g>
				<path class="st11" d="M601.7,338.2c-37.6,0-68.1,30.5-68.1,68.1s30.5,68.1,68.1,68.1c37.6,0,68.1-30.5,68.1-68.1
					S639.3,338.2,601.7,338.2L601.7,338.2z M566.4,363.5c9.6-7.9,21.9-12.7,35.4-12.7c30.7,0,55.5,24.8,55.5,55.5
					c0,13.4-4.8,25.8-12.7,35.4L566.4,363.5L566.4,363.5z M637.1,449.1c-9.6,7.9-21.9,12.7-35.4,12.7c-30.7,0-55.5-24.8-55.5-55.5
					c0-13.4,4.8-25.8,12.7-35.4L637.1,449.1z"/>
			</g>
		</g>
	</g>
</g>
</svg>
