<?xml version="1.0" encoding="utf-8"?>
<!-- Generator: Adobe Illustrator 21.1.0, SVG Export Plug-In . SVG Version: 6.00 Build 0)  -->
<svg version="1.1" xmlns="http://www.w3.org/2000/svg" xmlns:xlink="http://www.w3.org/1999/xlink" x="0px" y="0px"
	 viewBox="0 0 694.4 528.7" style="enable-background:new 0 0 694.4 528.7;" xml:space="preserve">
<style type="text/css">
	.st0{fill-rule:evenodd;clip-rule:evenodd;fill:#FEFEFE;}
	.st1{fill-rule:evenodd;clip-rule:evenodd;fill:#1C1B17;}
	.st2{fill-rule:evenodd;clip-rule:evenodd;fill:#FECC00;stroke:#FEFEFE;stroke-width:0.5669;stroke-miterlimit:22.9256;}
	.st3{fill-rule:evenodd;clip-rule:evenodd;fill:#FECC00;}
	.st4{fill-rule:evenodd;clip-rule:evenodd;fill:#F50000;}
	.st5{fill-rule:evenodd;clip-rule:evenodd;fill:#1C1B17;stroke:#1C1B17;stroke-width:0.5669;stroke-miterlimit:22.9256;}
	.st6{fill-rule:evenodd;clip-rule:evenodd;fill:#1C1B17;stroke:#1C1B17;stroke-width:0.216;stroke-miterlimit:22.9256;}
	.st7{fill:#1C1B17;}
	.st8{fill-rule:evenodd;clip-rule:evenodd;fill:#FEFEFE;stroke:#FEFEFE;stroke-width:0.5669;stroke-miterlimit:22.9256;}
	.st9{fill-rule:evenodd;clip-rule:evenodd;fill:#FFFFFF;}
	.st10{fill-rule:evenodd;clip-rule:evenodd;fill:#FFFFFF;stroke:#FEFEFE;stroke-width:0.5669;stroke-miterlimit:22.9256;}
	.st11{fill-rule:evenodd;clip-rule:evenodd;fill:#FDEC19;}
</style>
<g id="Направляющие_для_монтажной_области">
</g>
<g id="Слой_1">
	<circle class="st0" cx="1156" cy="355.7" r="39.4"/>
	<path class="st1" d="M926,660.8v-18.6h4.3c1.4,0,2.4,0.4,3,1.3c0.5,0.9,0.8,2.2,0.8,3.9v0.4c0,1.8-0.3,3.2-0.8,4.2
		c-0.5,1-1.5,1.4-2.9,1.4h-1.5v7.3H926L926,660.8z M928.8,651.2h1c0.6,0,1-0.2,1.2-0.7c0.2-0.5,0.3-1.3,0.3-2.6v-0.4
		c0-1.1-0.1-1.9-0.3-2.4c-0.2-0.5-0.6-0.7-1.1-0.7h-1V651.2L928.8,651.2z M939.7,652.1l-0.9,0v8.8h-2.8v-18.6h4.7
		c1,0,1.7,0.2,2.2,0.6c0.5,0.4,0.8,0.9,0.9,1.6c0.2,0.7,0.2,1.6,0.2,2.7c0,1.1-0.1,2-0.4,2.6c-0.2,0.6-0.7,1-1.3,1.2
		c0.6,0.1,1.1,0.5,1.3,1.3c0.3,0.8,0.4,2.3,0.4,4.7c0,2.4,0,3.7,0.1,3.8h-2.8c-0.1-0.1-0.1-2.4-0.1-6.7c0-0.8-0.1-1.4-0.3-1.6
		C940.7,652.2,940.3,652.1,939.7,652.1L939.7,652.1z M938.8,649.9h1.1c0.4,0,0.6-0.1,0.8-0.2c0.2-0.2,0.3-0.4,0.4-0.8
		c0.1-0.4,0.1-1,0.1-1.8v-0.1c0-1-0.1-1.7-0.3-2c-0.2-0.3-0.6-0.5-1.2-0.5h-1V649.9L938.8,649.9z M949.2,655.7
		c0,1.1,0.1,1.9,0.2,2.3c0.2,0.4,0.5,0.6,1,0.6c0.5,0,0.9-0.2,1-0.7c0.2-0.4,0.2-1.2,0.2-2.3V647c0-0.9-0.1-1.5-0.2-1.9
		c-0.2-0.4-0.5-0.6-1-0.6c-0.5,0-0.8,0.2-1,0.6c-0.2,0.4-0.3,1-0.3,1.9V655.7L949.2,655.7z M954.6,655.6c0,1.8-0.3,3.2-1,4.1
		c-0.6,0.9-1.7,1.3-3.1,1.3c-1.4,0-2.5-0.5-3.1-1.3c-0.7-0.9-1-2.3-1-4.1v-8.5c0-3.4,1.4-5.1,4.2-5.1c1.4,0,2.5,0.4,3.1,1.3
		c0.6,0.9,0.9,2.1,0.9,3.8V655.6L954.6,655.6z M957.2,660.8v-18.6h2.8v7.5h2.5v-7.5h2.8v18.6h-2.8v-8.6H960v8.6H957.2L957.2,660.8z
		 M968.3,660.8v-18.6h2.8v18.6H968.3L968.3,660.8z M981.9,647c0,2-0.5,3.2-1.6,3.7c1.3,0.4,2,1.9,2,4.4v0.5c0,1.9-0.3,3.2-1,4
		c-0.6,0.8-1.7,1.2-3.1,1.2h-4.1v-18.6h4c1.4,0,2.4,0.3,2.9,1c0.6,0.6,0.9,1.7,0.9,3.2V647L981.9,647z M976.9,658.6h1
		c0.6,0,1-0.2,1.2-0.6c0.2-0.4,0.3-1.1,0.3-2.1v-1.5c0-0.9-0.1-1.6-0.3-2c-0.2-0.4-0.5-0.6-1.1-0.6h-1.2V658.6L976.9,658.6z
		 M976.9,649.8h1c0.5,0,0.8-0.2,1-0.5c0.2-0.3,0.2-0.9,0.2-1.9v-1.1c0-0.7-0.1-1.2-0.3-1.4c-0.2-0.2-0.5-0.4-1-0.4h-1V649.8
		L976.9,649.8z M984.6,660.8v-18.6h2.8v18.6H984.6L984.6,660.8z M991.3,660.8v-16.1h-2.2v-2.4h7.1v2.4h-2.1v16.1H991.3L991.3,660.8z
		 M997.9,660.8v-18.6h2.8v18.6H997.9L997.9,660.8z M1006.2,655.7c0,1.1,0.1,1.9,0.2,2.3c0.2,0.4,0.5,0.6,1,0.6c0.5,0,0.9-0.2,1-0.7
		c0.2-0.4,0.2-1.2,0.2-2.3V647c0-0.9-0.1-1.5-0.2-1.9c-0.2-0.4-0.5-0.6-1-0.6c-0.5,0-0.8,0.2-1,0.6c-0.2,0.4-0.3,1-0.3,1.9V655.7
		L1006.2,655.7z M1011.6,655.6c0,1.8-0.3,3.2-1,4.1c-0.6,0.9-1.7,1.3-3.1,1.3c-1.4,0-2.5-0.5-3.1-1.3c-0.7-0.9-1-2.3-1-4.1v-8.5
		c0-3.4,1.4-5.1,4.2-5.1c1.4,0,2.5,0.4,3.1,1.3c0.6,0.9,0.9,2.1,0.9,3.8V655.6L1011.6,655.6z M1014.2,660.8v-18.6h2.2l3.9,11.2
		l-0.2-5.1v-6.1h2.5v18.6h-2l-4-11.5l0.2,4.9v6.7H1014.2L1014.2,660.8z M1029,655.6v-1.7h2.7v1.9c0,1,0.1,1.8,0.3,2.2
		c0.2,0.4,0.5,0.6,1,0.6c0.5,0,0.8-0.2,1-0.5c0.2-0.3,0.2-0.9,0.2-1.7c0-0.8-0.1-1.5-0.4-2c-0.3-0.6-0.7-1.2-1.3-1.8l-1.4-1.4
		c-0.6-0.7-1.1-1.4-1.5-2.1c-0.4-0.7-0.5-1.5-0.5-2.5c0-1.5,0.3-2.7,0.9-3.4c0.6-0.7,1.6-1.1,3.1-1.1c1.4,0,2.4,0.4,2.9,1.3
		c0.5,0.9,0.8,2.1,0.8,3.8v1.2h-2.6v-1.3c0-0.9-0.1-1.5-0.2-1.9c-0.2-0.4-0.4-0.6-0.9-0.6c-0.4,0-0.8,0.1-1,0.4
		c-0.2,0.3-0.3,0.7-0.3,1.3c0,0.6,0.1,1.1,0.3,1.4c0.2,0.4,0.6,0.8,1.1,1.4l1.5,1.7c0.8,0.8,1.3,1.7,1.7,2.5
		c0.4,0.9,0.6,1.8,0.6,2.8c0,1.7-0.3,3-0.9,3.9c-0.6,0.8-1.6,1.2-3.1,1.2c-1.5,0-2.5-0.5-3.1-1.4
		C1029.2,658.7,1029,657.4,1029,655.6L1029,655.6z M1039,660.8v-18.6h2.8v18.6H1039L1039,660.8z M1048.2,661c-1.2,0-2.1-0.5-2.7-1.4
		c-0.7-0.9-1-2.3-1-4.3v-8.1c0-1.7,0.3-3,1-3.9c0.7-0.9,1.7-1.4,3.2-1.4c1.8,0,3,0.7,3.5,2c0.3,0.8,0.4,1.9,0.4,3.3v1.3h-2.6v-1.9
		c0-0.9-0.1-1.5-0.3-1.8c-0.2-0.3-0.5-0.5-1-0.5c-0.5,0-0.8,0.2-1.1,0.6c-0.2,0.4-0.3,1.1-0.3,2.2v8.1c0,1.2,0.1,2.1,0.3,2.5
		c0.2,0.5,0.5,0.7,1.1,0.7c0.5,0,0.9-0.3,1.1-0.8c0.2-0.5,0.3-1.4,0.3-2.6v-2.5h-1.4v-2.1h3.9v10.2h-1.3l-0.4-1.8
		c-0.1,0.6-0.5,1.1-1,1.5C1049.4,660.8,1048.9,661,1048.2,661L1048.2,661z M1055.3,660.8v-18.6h2.2l3.9,11.2l-0.2-5.1v-6.1h2.5v18.6
		h-2l-4-11.5l0.2,4.9v6.7H1055.3L1055.3,660.8z M1066.2,655.6v-1.7h2.7v1.9c0,1,0.1,1.8,0.3,2.2c0.2,0.4,0.5,0.6,1,0.6
		c0.5,0,0.8-0.2,1-0.5c0.2-0.3,0.2-0.9,0.2-1.7c0-0.8-0.1-1.5-0.4-2c-0.3-0.6-0.7-1.2-1.3-1.8l-1.4-1.4c-0.6-0.7-1.1-1.4-1.5-2.1
		c-0.4-0.7-0.5-1.5-0.5-2.5c0-1.5,0.3-2.7,0.9-3.4c0.6-0.7,1.6-1.1,3.1-1.1c1.4,0,2.4,0.4,2.9,1.3c0.5,0.9,0.8,2.1,0.8,3.8v1.2h-2.6
		v-1.3c0-0.9-0.1-1.5-0.2-1.9c-0.2-0.4-0.5-0.6-0.9-0.6s-0.8,0.1-1,0.4c-0.2,0.3-0.3,0.7-0.3,1.3c0,0.6,0.1,1.1,0.3,1.4
		c0.2,0.4,0.6,0.8,1.1,1.4l1.5,1.7c0.8,0.8,1.3,1.7,1.7,2.5c0.4,0.9,0.6,1.8,0.6,2.8c0,1.7-0.3,3-0.9,3.9c-0.6,0.8-1.6,1.2-3.1,1.2
		c-1.5,0-2.5-0.5-3.1-1.4C1066.5,658.7,1066.2,657.4,1066.2,655.6z"/>
	<g>
		<path class="st2" d="M1251.7,198.5c18.9,0,34.4-15.4,34.4-34.4c0-18.9-15.4-34.4-34.4-34.4c-18.9,0-34.4,15.4-34.4,34.4
			C1217.3,183,1232.8,198.5,1251.7,198.5z"/>
		<g>
			<path class="st1" d="M1248.3,138.4c6.6,0.2,13.3,2,19.9,5.6c1.2,0.7,2.2,1.7,1.8,2.9l-10.9,38.9c-0.3,1.2-1.7,1.9-3.1,1.6
				l-19.9-5.6c-1.3-0.4-2.2-1.7-1.8-2.9l10.9-38.9C1245.5,138.7,1246.9,138.3,1248.3,138.4z"/>
			<path class="st3" d="M1243.7,161.8l3.6,1c0.4,0.1,0.7,0.5,0.6,0.8l-0.5,1.7c-0.1,0.3-0.5,0.5-0.9,0.4l-3.6-1
				c-0.4-0.1-0.7-0.5-0.6-0.8l0.5-1.7C1242.8,161.8,1243.2,161.6,1243.7,161.8z"/>
			<path class="st3" d="M1250,163.5l3.6,1c0.4,0.1,0.7,0.5,0.6,0.8l-0.5,1.7c-0.1,0.3-0.5,0.5-0.9,0.4l-3.6-1
				c-0.4-0.1-0.7-0.5-0.6-0.8l0.5-1.7C1249.2,163.6,1249.6,163.4,1250,163.5z"/>
			<path class="st3" d="M1256.3,165.3l3.6,1c0.4,0.1,0.7,0.5,0.6,0.8l-0.5,1.7c-0.1,0.3-0.5,0.5-0.9,0.4l-3.6-1
				c-0.4-0.1-0.7-0.5-0.6-0.8l0.5-1.7C1255.5,165.4,1255.9,165.2,1256.3,165.3z"/>
			<path class="st3" d="M1242.3,166.6l3.6,1c0.4,0.1,0.7,0.5,0.6,0.8l-0.5,1.7c-0.1,0.3-0.5,0.5-0.9,0.4l-3.6-1
				c-0.4-0.1-0.7-0.5-0.6-0.8l0.5-1.7C1241.5,166.6,1241.9,166.5,1242.3,166.6z"/>
			<path class="st3" d="M1248.6,168.4l3.6,1c0.4,0.1,0.7,0.5,0.6,0.8l-0.5,1.7c-0.1,0.3-0.5,0.5-0.9,0.4l-3.6-1
				c-0.4-0.1-0.7-0.5-0.6-0.8l0.5-1.7C1247.8,168.4,1248.2,168.3,1248.6,168.4z"/>
			<path class="st3" d="M1255,170.2l3.6,1c0.4,0.1,0.7,0.5,0.6,0.8l-0.5,1.7c-0.1,0.3-0.5,0.5-0.9,0.4l-3.6-1
				c-0.4-0.1-0.7-0.5-0.6-0.8l0.5-1.7C1254.2,170.2,1254.6,170,1255,170.2z"/>
			<path class="st3" d="M1240.9,171.4l3.6,1c0.4,0.1,0.7,0.5,0.6,0.8l-0.5,1.7c-0.1,0.3-0.5,0.5-0.9,0.4l-3.6-1
				c-0.4-0.1-0.7-0.5-0.6-0.8l0.5-1.7C1240.1,171.5,1240.5,171.3,1240.9,171.4z"/>
			<path class="st3" d="M1247.3,173.2l3.6,1c0.4,0.1,0.7,0.5,0.6,0.8l-0.5,1.7c-0.1,0.3-0.5,0.5-0.9,0.4l-3.6-1
				c-0.4-0.1-0.7-0.5-0.6-0.8l0.5-1.7C1246.5,173.3,1246.9,173.1,1247.3,173.2z"/>
			<path class="st3" d="M1253.6,175l3.6,1c0.4,0.1,0.7,0.5,0.6,0.8l-0.5,1.7c-0.1,0.3-0.5,0.5-0.9,0.4l-3.6-1
				c-0.4-0.1-0.7-0.5-0.6-0.8l0.5-1.7C1252.8,175,1253.2,174.9,1253.6,175z"/>
			<path class="st3" d="M1239.6,176.3l3.6,1c0.4,0.1,0.7,0.5,0.6,0.8l-0.5,1.7c-0.1,0.3-0.5,0.5-0.9,0.4l-3.6-1
				c-0.4-0.1-0.7-0.5-0.6-0.8l0.5-1.7C1238.8,176.3,1239.2,176.2,1239.6,176.3z"/>
			<path class="st3" d="M1245.9,178.1l3.6,1c0.4,0.1,0.7,0.5,0.6,0.8l-0.5,1.7c-0.1,0.3-0.5,0.5-0.9,0.4l-3.6-1
				c-0.4-0.1-0.7-0.5-0.6-0.8l0.5-1.7C1245.1,178.1,1245.5,178,1245.9,178.1z"/>
			<path class="st3" d="M1252.3,179.9l3.6,1c0.4,0.1,0.7,0.5,0.6,0.8l-0.5,1.7c-0.1,0.3-0.5,0.5-0.9,0.4l-3.6-1
				c-0.4-0.1-0.7-0.5-0.6-0.8l0.5-1.7C1251.4,179.9,1251.9,179.7,1252.3,179.9z"/>
			<path class="st3" d="M1250.3,141.7l14.5,4.1c1,0.3,1.6,1.3,1.3,2.3l-4.1,14.7c-0.3,1-1.3,1.6-2.3,1.3l-14.5-4.1
				c-1-0.3-1.6-1.3-1.3-2.3l4.1-14.7C1248.2,142,1249.3,141.4,1250.3,141.7z"/>
			<path class="st3" d="M1256.3,140.8l3.7,1c0.2,0.1,0.4,0.3,0.3,0.6l0,0c-0.1,0.2-0.3,0.4-0.6,0.3l-3.7-1c-0.2-0.1-0.4-0.3-0.3-0.6
				l0,0C1255.8,140.9,1256.1,140.7,1256.3,140.8z"/>
		</g>
		<path class="st4" d="M1251.7,124.7c-21.7,0-39.4,17.6-39.4,39.4s17.6,39.4,39.4,39.4c21.7,0,39.4-17.6,39.4-39.4
			S1273.5,124.7,1251.7,124.7L1251.7,124.7z M1231.3,139.4c5.5-4.6,12.7-7.4,20.4-7.4c17.7,0,32.1,14.4,32.1,32.1
			c0,7.8-2.8,14.9-7.4,20.4L1231.3,139.4L1231.3,139.4z M1272.2,188.8c-5.5,4.6-12.7,7.4-20.4,7.4c-17.7,0-32.1-14.4-32.1-32.1
			c0-7.8,2.8-14.9,7.4-20.4L1272.2,188.8z"/>
	</g>
	<g>
		<path class="st2" d="M1347.5,198.5c18.9,0,34.4-15.4,34.4-34.4c0-18.9-15.4-34.4-34.4-34.4c-18.9,0-34.4,15.4-34.4,34.4
			C1313.1,183,1328.6,198.5,1347.5,198.5z"/>
		<g>
			<path class="st1" d="M1366,153h-11.9c-0.2-2.3-3.1-4.2-6.7-4.2c-3.6,0-6.5,1.8-6.7,4.2h-4c0.5-0.2,0.9-0.7,0.9-1.3v-0.2
				c0-0.7-0.6-1.4-1.4-1.4h-5.7c-0.7,0-1.4,0.6-1.4,1.4v0.2c0,0.6,0.4,1.1,0.9,1.3h-1.1c-2.2,0-3.9,1.8-3.9,3.9v18.5
				c0,2.2,1.8,3.9,3.9,3.9h37c2.2,0,3.9-1.8,3.9-3.9v-18.5C1369.9,154.8,1368.2,153,1366,153L1366,153z M1350,153h-4.8
				c-0.3-0.3-0.5-0.7-0.5-1.1l0,0c0-0.8,0.7-1.5,1.5-1.5h3c0.8,0,1.5,0.7,1.5,1.5l0,0C1350.5,152.3,1350.3,152.8,1350,153z"/>
			<path class="st3" d="M1347.5,178.8c6.6,0,12-5.4,12-12c0-6.6-5.4-12-12-12c-6.6,0-12,5.4-12,12
				C1335.5,173.4,1340.9,178.8,1347.5,178.8z"/>
			<path class="st1" d="M1347.5,177.1c5.7,0,10.3-4.6,10.3-10.3c0-5.7-4.6-10.3-10.3-10.3c-5.7,0-10.3,4.6-10.3,10.3
				C1337.2,172.5,1341.8,177.1,1347.5,177.1z"/>
			<path class="st3" d="M1347.5,175.2c4.7,0,8.4-3.8,8.4-8.4c0-4.7-3.8-8.4-8.4-8.4c-4.7,0-8.4,3.8-8.4,8.4
				C1339.1,171.4,1342.9,175.2,1347.5,175.2z"/>
		</g>
		<path class="st4" d="M1347.5,124.7c-21.7,0-39.4,17.6-39.4,39.4s17.6,39.4,39.4,39.4c21.7,0,39.4-17.6,39.4-39.4
			S1369.3,124.7,1347.5,124.7L1347.5,124.7z M1327.1,139.4c5.6-4.6,12.7-7.4,20.4-7.4c17.7,0,32.1,14.4,32.1,32.1
			c0,7.8-2.8,14.9-7.4,20.4L1327.1,139.4L1327.1,139.4z M1368,188.8c-5.5,4.6-12.7,7.4-20.4,7.4c-17.7,0-32.1-14.4-32.1-32.1
			c0-7.8,2.8-14.9,7.4-20.4L1368,188.8z"/>
	</g>
	<g>
		<path class="st2" d="M1156,294.3c18.9,0,34.4-15.4,34.4-34.4c0-18.9-15.4-34.4-34.4-34.4c-18.9,0-34.4,15.4-34.4,34.4
			C1121.6,278.8,1137,294.3,1156,294.3z"/>
		<g>
			<path class="st1" d="M1156,281.4l4.6-13.8l5.3-15.8h-9.9h-9.9l5.3,15.8L1156,281.4L1156,281.4z M1163,268.4l-5.8,17.5
				c-0.1,0.4-0.4,0.7-0.8,0.8c-0.7,0.2-1.4-0.1-1.6-0.8l-5.8-17.5l-5.8-17.4c-0.1-0.2-0.1-0.3-0.1-0.5c0-0.7,0.6-1.3,1.3-1.3h11.6
				h11.6v0c0.1,0,0.3,0,0.4,0.1c0.7,0.2,1,0.9,0.8,1.6L1163,268.4z"/>
			<path class="st1" d="M1165.1,254l0.7-2.2h-1.6c0.6-0.8,1.1-1.6,1.4-2.6h1.9v0c0.1,0,0.2,0,0.2,0
				C1167.3,251,1166.3,252.6,1165.1,254L1165.1,254z M1147.7,251.8h-1.5l0.7,2.2c-1.2-1.3-2.2-3-2.8-4.8c0.1,0,0.2,0,0.2,0h1.9
				C1146.6,250.1,1147.1,251,1147.7,251.8z"/>
			<g>
				<path class="st1" d="M1156,281.4l4.6-13.8l2.8-8.3l-1.6-4.7l-4.6,13.8l-2.8,8.3L1156,281.4L1156,281.4z M1163,268.4l-5.8,17.4
					c-0.1,0.6-0.6,1-1.2,1h0v0c-0.5,0-1-0.3-1.2-0.9l-2.9-8.7c-0.1-0.3-0.1-0.5,0-0.8l2.9-8.7l5.8-17.4c0.1-0.6,0.6-1,1.2-1l0,0v0
					c0.5,0,1,0.3,1.2,0.9l2.9,8.7c0.1,0.2,0.1,0.5,0,0.8L1163,268.4z"/>
				<path class="st1" d="M1156,281.4l4.5-13.4l-4.5-13.4l-4.5,13.4L1156,281.4L1156,281.4z M1163,268.4l-5.8,17.4
					c-0.1,0.6-0.6,1-1.2,1l0,0h0v0c-0.5,0-1-0.3-1.2-0.9l-5.8-17.4c-0.1-0.2-0.1-0.3-0.1-0.5l0,0h0c0-0.1,0-0.3,0.1-0.4l5.8-17.4
					c0.1-0.6,0.6-1,1.2-1h0l0,0v0c0.5,0,1,0.3,1.2,0.9l5.8,17.4c0.1,0.2,0.1,0.3,0.1,0.5l0,0h0C1163,268.1,1163,268.2,1163,268.4z"
					/>
				<path class="st1" d="M1156,281.4l1.6-4.7l-2.8-8.3l-4.6-13.8l-1.6,4.7l2.8,8.3L1156,281.4L1156,281.4z M1160.1,277.1l-2.9,8.7
					c-0.1,0.4-0.4,0.7-0.8,0.8c-0.7,0.2-1.4-0.1-1.6-0.8l-5.8-17.5l-2.9-8.7c-0.1-0.3-0.1-0.5,0-0.8l2.9-8.7
					c0.1-0.4,0.4-0.7,0.8-0.8c0.7-0.2,1.4,0.1,1.6,0.8l5.8,17.5l2.9,8.7C1160.2,276.6,1160.2,276.8,1160.1,277.1z"/>
			</g>
			<path class="st1" d="M1144.1,249.3h2.2c-0.4-1.2-0.7-2.4-0.7-3.7c0-2.9,1.2-5.5,3-7.3c1.9-1.9,4.5-3,7.3-3c2.9,0,5.5,1.2,7.3,3
				c1.9,1.9,3,4.5,3,7.3c0,1.3-0.2,2.6-0.7,3.7h2.2c0.4-1.2,0.6-2.4,0.6-3.7c0-3.4-1.4-6.5-3.6-8.8c-2.2-2.2-5.3-3.6-8.8-3.6
				s-6.5,1.4-8.8,3.6c-2.2,2.2-3.6,5.3-3.6,8.8C1143.5,246.9,1143.7,248.1,1144.1,249.3z"/>
		</g>
		<path class="st4" d="M1156,220.5c-21.7,0-39.4,17.6-39.4,39.4c0,21.7,17.6,39.4,39.4,39.4c21.7,0,39.4-17.6,39.4-39.4
			C1195.3,238.1,1177.7,220.5,1156,220.5L1156,220.5z M1135.5,235.2c5.5-4.6,12.7-7.4,20.4-7.4c17.7,0,32.1,14.4,32.1,32.1
			c0,7.8-2.8,14.9-7.4,20.4L1135.5,235.2L1135.5,235.2z M1176.4,284.6c-5.6,4.6-12.7,7.4-20.4,7.4c-17.7,0-32.1-14.4-32.1-32.1
			c0-7.8,2.8-14.9,7.4-20.4L1176.4,284.6z"/>
	</g>
	<g>
		<path class="st2" d="M1251.7,294.3c18.9,0,34.4-15.4,34.4-34.4c0-18.9-15.4-34.4-34.4-34.4c-18.9,0-34.4,15.4-34.4,34.4
			C1217.3,278.8,1232.8,294.3,1251.7,294.3z"/>
		<path class="st1" d="M1254.2,282.6l0.3-31.9c-0.1-3.6-4.7-5.2-4.7-7.4v-3V233h0.1c0.2,0,0.3-0.1,0.3-0.3l0-1.2
			c0-0.2-0.1-0.3-0.3-0.3h-0.1v-0.8v0v0v0l0,0l0,0l0,0l0,0l0,0l0,0l0,0l0,0l0,0l0,0l0,0l0,0l0,0h0l0,0l0,0h0l0,0h0c0,0,0,0,0,0l0,0
			c0-0.1-0.1-0.1-0.2-0.2l0,0h0l0,0l0,0l0,0h0l0,0l0,0l0,0h0l0,0l0,0l0,0l0,0l0,0l0,0h0h-3.9h0l0,0l0,0l0,0l0,0c0,0,0,0,0,0l0,0
			c-0.2,0-0.4,0.2-0.5,0.4l0,0l0,0c0,0,0,0.1,0,0.1l0,0l0,0l0,0v0l0,0v0v0.6h-0.1c-0.2,0-0.3,0.1-0.3,0.3v1.2c0,0.2,0.1,0.3,0.3,0.3
			h0.1v7.3v3c0,2.3-4.7,3.7-4.7,7.4l0.4,31.9c0,0.9,0.8,1.7,1.7,1.7h10.1C1253.4,284.3,1254.2,283.5,1254.2,282.6L1254.2,282.6
			L1254.2,282.6z M1245.5,230L1245.5,230C1245.5,230,1245.5,230,1245.5,230L1245.5,230z"/>
		<path class="st3" d="M1260.1,269.5c-0.4,1.4-0.4,9.9,0,11.2c0.6,0.7,1.3,1.3,2.2,1.6c0.5,0.2,1.6,0.4,1.9,0.8
			c0.6,0.7,0.3,2-0.7,2.1l0,0H1253l0,0c-1-0.1-1.3-1.4-0.7-2.1c0.3-0.4,1.4-0.6,1.9-0.8c0.9-0.4,1.6-0.9,2.2-1.6
			c0.4-1.3,0.4-9.8,0-11.2c-0.4-0.6-2.4-1.8-3-2.2c-0.4-0.3-0.8-0.5-1.2-0.8c-3.1-2.3-2.8-5.5-2.1-8.8c0.4-1.9,1.1-3.9,1.8-5.7
			l0.2-0.6h12.2l0.2,0.6c0.7,1.8,1.4,3.8,1.8,5.7c0.7,3.4,1,6.5-2.1,8.8c-0.4,0.3-0.8,0.5-1.2,0.8
			C1262.5,267.7,1260.5,268.9,1260.1,269.5z"/>
		<path class="st1" d="M1252.9,252.3c-0.5,1.3-1.3,3.4-1.7,5.5c-0.6,3.1-1,5.9,1.7,7.9c1.7,1.3,4,2.3,4.5,3.4
			c0.4,1.4,0.5,11.4-0.1,12.1c-1.7,2.2-4.1,2.3-4.2,2.5c-0.1,0.1-0.1,0.5,0,0.5h10.5c0.2,0,0.1-0.4,0-0.5c-0.2-0.2-2.5-0.4-4.2-2.5
			c-0.6-0.7-0.6-10.7-0.1-12.1c0.5-1.1,2.8-2.1,4.5-3.4c2.7-2,2.3-4.8,1.7-7.9c-0.4-2.1-1.2-4.3-1.7-5.5H1252.9z"/>
		<polygon class="st3" points="1241.8,250.3 1242.9,250.3 1242.4,280.2 1242,280.2 		"/>
		<path class="st4" d="M1251.7,220.5c-21.7,0-39.4,17.6-39.4,39.4c0,21.7,17.6,39.4,39.4,39.4c21.7,0,39.4-17.6,39.4-39.4
			C1291.1,238.1,1273.5,220.5,1251.7,220.5L1251.7,220.5z M1231.3,235.2c5.5-4.6,12.7-7.4,20.4-7.4c17.7,0,32.1,14.4,32.1,32.1
			c0,7.8-2.8,14.9-7.4,20.4L1231.3,235.2L1231.3,235.2z M1272.2,284.6c-5.5,4.6-12.7,7.4-20.4,7.4c-17.7,0-32.1-14.4-32.1-32.1
			c0-7.8,2.8-14.9,7.4-20.4L1272.2,284.6z"/>
	</g>
	<g>
		<path class="st2" d="M1156,390.1c18.9,0,34.4-15.4,34.4-34.4c0-18.9-15.4-34.4-34.4-34.4c-18.9,0-34.4,15.4-34.4,34.4
			C1121.6,374.6,1137,390.1,1156,390.1z"/>
		<g>
			<polygon class="st1" points="1153.1,370.8 1136.1,351.2 1136.1,351.1 1136,351 1135.9,350.9 1135.9,350.8 1135.8,350.7 
				1135.8,350.6 1135.8,350.5 1135.7,350.4 1135.7,350.3 1135.7,350.2 1135.6,350.1 1135.6,350 1135.6,349.8 1135.6,349.7 
				1135.6,337.2 1135.6,337.1 1135.6,336.9 1135.6,336.8 1135.7,336.7 1135.7,336.6 1135.7,336.5 1135.8,336.4 1135.8,336.3 
				1135.8,336.2 1135.9,336.1 1135.9,336 1136,335.9 1136.1,335.8 1136.1,335.8 1136.2,335.7 1136.3,335.6 1136.4,335.5 
				1136.4,335.4 1136.5,335.4 1136.6,335.3 1136.7,335.3 1136.8,335.2 1136.9,335.2 1137,335.1 1137.1,335.1 1137.2,335 1137.3,335 
				1137.4,335 1137.5,335 1137.6,334.9 1137.7,334.9 1137.9,334.9 1149.7,334.9 1149.9,334.9 1150,334.9 1150.1,335 1150.2,335 
				1150.3,335 1150.4,335 1150.5,335.1 1150.6,335.1 1150.7,335.2 1174.6,347.3 1174.4,347.2 1174.3,347.2 1174.1,347.1 1174,347.1 
				1173.8,347 1173.7,347 1173.5,347 1173.3,347 1173.2,347 1155.7,347 1155.5,347 1155.4,347 1155.2,347 1155,347 1154.9,347.1 
				1154.7,347.1 1154.6,347.2 1154.4,347.2 1154.3,347.3 1154.1,347.4 1154,347.4 1153.8,347.5 1153.7,347.6 1153.6,347.7 
				1153.5,347.8 1153.4,347.9 1153.3,348 1153.1,348.2 1153.1,348.3 1153,348.4 1152.9,348.5 1152.8,348.7 1152.7,348.8 1152.7,349 
				1152.6,349.1 1152.5,349.3 1152.5,349.4 1152.5,349.6 1152.4,349.8 1152.4,349.9 1152.4,350.1 1152.4,350.3 1152.4,368.7 
				1152.4,368.9 1152.4,369.1 1152.4,369.2 1152.5,369.4 1152.5,369.5 1152.5,369.7 1152.6,369.8 1152.7,370 1152.7,370.1 
				1152.8,370.3 1152.9,370.4 1153,370.6 1153.1,370.7 			"/>
			<path class="st1" d="M1155.7,346.5h16.7c1.1,0,2,0.4,2.7,1.1c0.7,0.7,1.1,1.7,1.1,2.7v17.7c0,1.1-0.4,2-1.1,2.7
				c-0.7,0.7-1.7,1.1-2.7,1.1h-16.7c-1.1,0-2-0.4-2.7-1.1c-0.7-0.7-1.1-1.7-1.1-2.7v-17.7c0-1.1,0.4-2,1.1-2.7
				C1153.7,347,1154.6,346.5,1155.7,346.5L1155.7,346.5z M1172.4,347.9h-16.7c-0.7,0-1.3,0.3-1.8,0.7c-0.5,0.5-0.7,1.1-0.7,1.8v17.7
				c0,0.7,0.3,1.3,0.7,1.8c0.5,0.5,1.1,0.7,1.8,0.7h16.7c0.7,0,1.3-0.3,1.8-0.7c0.5-0.5,0.7-1.1,0.7-1.8v-17.7
				c0-0.7-0.3-1.3-0.7-1.8C1173.7,348.2,1173.1,347.9,1172.4,347.9z"/>
			<polygon class="st0" points="1161,361.5 1158.8,358.6 1158.7,358.4 1158.6,358.3 1158.5,358.1 1158.4,357.9 1158.3,357.8 
				1158.2,357.6 1158.2,357.4 1158.1,357.2 1158.1,357 1158,356.8 1158,356.6 1158,356.4 1158,356.2 1158,356 1158,355.8 
				1158,355.6 1158.1,355.5 1158.1,355.3 1158.2,355.1 1158.2,354.9 1158.3,354.7 1158.4,354.5 1158.5,354.4 1158.6,354.2 
				1158.7,354 1158.8,353.9 1158.9,353.7 1159,353.6 1159.1,353.5 1159.3,353.3 1159.4,353.2 1159.6,353.1 1159.7,353 1159.9,352.9 
				1160,352.8 1160.2,352.7 1160.4,352.6 1160.6,352.6 1160.7,352.5 1160.9,352.4 1161.1,352.4 1161.3,352.4 1161.5,352.3 
				1161.7,352.3 1161.9,352.3 1162.1,352.3 1162.3,352.3 1162.5,352.4 1162.7,352.4 1162.9,352.4 1163.1,352.5 1163.3,352.6 
				1163.4,352.6 1166.9,354.1 1166.6,354 1166.4,353.9 1166.2,353.8 1165.9,353.8 1165.7,353.7 1165.4,353.7 1165.2,353.7 
				1164.9,353.7 1164.7,353.7 1164.4,353.7 1164.2,353.7 1164,353.8 1163.7,353.8 1163.5,353.9 1163.3,354 1163,354.1 1162.8,354.2 
				1162.6,354.3 1162.4,354.4 1162.2,354.5 1162,354.7 1161.8,354.8 1161.7,355 1161.5,355.1 1161.3,355.3 1161.2,355.5 1161,355.6 
				1160.9,355.8 1160.8,356 1160.6,356.2 1160.5,356.5 1160.4,356.7 1160.3,356.9 1160.3,357.1 1160.2,357.4 1160.1,357.6 
				1160.1,357.8 1160.1,358.1 1160.1,358.3 1160,358.6 1160.1,358.8 1160.1,359.1 1160.1,359.3 1160.1,359.6 1160.2,359.8 
				1160.3,360 1160.3,360.3 1160.4,360.5 1160.5,360.7 1160.6,360.9 1160.8,361.1 1160.9,361.3 			"/>
			<path class="st1" d="M1160.6,361.9l-2.2-2.9l0,0l-0.1-0.2l0,0l-0.1-0.2l0,0l-0.1-0.2l0,0l-0.1-0.2l0,0l-0.1-0.2l0,0l-0.1-0.2l0,0
				l-0.1-0.2l0,0l-0.1-0.2l0,0l0-0.2l0,0l0-0.2l0,0l0-0.2l0,0l0-0.2v0l0-0.2v0l0-0.2v0l0-0.2l0,0l0-0.2l0,0l0-0.2l0,0l0-0.2l0,0
				l0.1-0.2l0,0l0.1-0.2l0,0l0.1-0.2l0,0l0.1-0.2l0,0l0.1-0.2l0,0l0.1-0.2l0,0l0.1-0.2l0,0l0.1-0.2l0,0l0.1-0.1l0,0l0.1-0.1l0,0
				l0.1-0.1l0,0l0.1-0.1l0,0l0.1-0.1l0,0l0.1-0.1l0,0l0.2-0.1l0,0l0.2-0.1l0,0l0.2-0.1l0,0l0.2-0.1l0,0l0.2-0.1l0,0l0.2-0.1l0,0
				l0.2-0.1l0,0l0.2-0.1l0,0l0.2,0l0,0l0.2,0l0,0l0.2,0l0,0l0.2,0h0l0.2,0h0l0.2,0h0l0.2,0l0,0l0.2,0l0,0l0.2,0l0,0l0.2,0l0,0
				l0.2,0.1l0,0l0.2,0.1l0,0l0.2,0.1l0,0l3.4,1.4l0,0v0l0,0l-0.4,1l-0.2-0.1l-0.2-0.1l-0.2-0.1l-0.2,0h0l-0.2,0l0,0l-0.2,0v0l-0.3,0
				v0l-0.2,0l-0.2,0v0l-0.2,0v0l-0.2,0l0,0l-0.2,0l0,0l-0.2,0l-0.2,0.1l-0.2,0.1l-0.2,0.1l-0.2,0.1v0l-0.2,0.1l-0.2,0.1l0,0
				l-0.2,0.1l-0.2,0.1l0,0l-0.2,0.1l0,0l-0.1,0.1l-0.2,0.1l-0.1,0.2l-0.1,0.1l0,0l-0.1,0.2l0,0l-0.1,0.2l-0.1,0.2h0l-0.1,0.2
				l-0.1,0.2h0l-0.1,0.2l-0.1,0.2l0,0l-0.1,0.2l-0.1,0.2l0,0.2h0l0,0.2h0l0,0.2h0l0,0.2h0l0,0.2l0,0.2h0l0,0.2h0l0,0.2l0,0l0,0.2h0
				l0,0.2l0.1,0.2l0.1,0.2l0,0l0.1,0.2l0.1,0.2h0l0.1,0.2l0.1,0.2h0l0.1,0.2l0.1,0.2L1160.6,361.9L1160.6,361.9z M1159.2,358.3
				l0.3,0.3l0,0v0l0-0.3v0l0-0.2l0,0l0-0.2l0,0l0-0.2l0,0l0.1-0.2l0,0l0.1-0.2l0,0l0.1-0.2l0,0l0.1-0.2l0,0l0.1-0.2l0,0l0.1-0.2l0,0
				l0.1-0.2l0,0l0.1-0.2l0,0l0.1-0.2l0,0l0.1-0.2l0,0l0.2-0.2l0,0l0.2-0.2l0,0l0.2-0.2l0,0l0.2-0.2l0,0l0.2-0.1l0,0l0.2-0.1l0,0
				l0.2-0.1l0,0l0.2-0.1l0,0l0.2-0.1l0,0l0.2-0.1l0,0l0.2-0.1l0,0l0.2-0.1l0,0l0.2-0.1l0,0l-0.3-0.1v0l-0.2-0.1l-0.2-0.1l-0.2,0
				l-0.1,0l-0.2,0v0l-0.1,0v0l-0.2,0v0l-0.2,0l-0.2,0v0l-0.2,0v0l-0.1,0l0,0l-0.2,0l-0.1,0l-0.2,0l-0.2,0.1l-0.2,0.1l-0.2,0.1v0
				l-0.1,0.1l-0.1,0.1l0,0l-0.2,0.1l-0.1,0.1l0,0l-0.1,0.1h0l-0.1,0.1l-0.1,0.1l-0.1,0.1l-0.1,0.1h0l-0.1,0.1l0,0l-0.1,0.1l-0.1,0.2
				v0l-0.1,0.1l-0.1,0.1l0,0l-0.1,0.2l-0.1,0.2l-0.1,0.2l0,0.2l0,0.1h0l0,0.2h0l0,0.1h0l0,0.2h0l0,0.2l0,0.2h0l0,0.2h0l0,0.1l0,0
				l0,0.2h0l0,0.1l0,0.2l0.1,0.2l0.1,0.2l0.1,0.2l0,0l0.1,0.1l0.1,0.1v0l0.1,0.2L1159.2,358.3z"/>
			<circle class="st1" cx="1164.9" cy="358.6" r="4.9"/>
			<path class="st1" d="M1164.9,353.1c1.5,0,2.9,0.6,3.9,1.6c1,1,1.6,2.4,1.6,3.9c0,1.5-0.6,2.9-1.6,3.9c-1,1-2.4,1.6-3.9,1.6
				c-1.5,0-2.9-0.6-3.9-1.6c-1-1-1.6-2.4-1.6-3.9c0-1.5,0.6-2.9,1.6-3.9C1162.1,353.7,1163.4,353.1,1164.9,353.1L1164.9,353.1z
				 M1168,355.5c-0.8-0.8-1.9-1.3-3.1-1.3c-1.2,0-2.3,0.5-3.1,1.3c-0.8,0.8-1.3,1.9-1.3,3.1c0,1.2,0.5,2.3,1.3,3.1
				c0.8,0.8,1.9,1.3,3.1,1.3c1.2,0,2.3-0.5,3.1-1.3c0.8-0.8,1.3-1.9,1.3-3.1C1169.3,357.4,1168.8,356.3,1168,355.5z"/>
			<path class="st1" d="M1145.7,355.5v6.9c0,1.7-0.7,3.2-1.8,4.3c-1.1,1.1-2.6,1.8-4.3,1.8h-15.3V364h15.3c0.4,0,0.8-0.2,1.1-0.5
				c0.3-0.3,0.5-0.7,0.5-1.1v-6.9H1145.7z"/>
		</g>
	</g>
	<path class="st4" d="M1123.8,355.7c0-17.8,14.4-32.2,32.2-32.2c17.8,0,32.2,14.4,32.2,32.2c0,17.8-14.4,32.2-32.2,32.2
		C1138.2,387.9,1123.8,373.5,1123.8,355.7L1123.8,355.7z M1156,316.3c-21.7,0-39.4,17.6-39.4,39.4c0,21.7,17.6,39.4,39.4,39.4
		s39.4-17.6,39.4-39.4C1195.3,333.9,1177.7,316.3,1156,316.3z"/>
	<g>
		<path class="st2" d="M1347.5,294.3c18.9,0,34.4-15.4,34.4-34.4c0-18.9-15.4-34.4-34.4-34.4c-18.9,0-34.4,15.4-34.4,34.4
			C1313.1,278.8,1328.6,294.3,1347.5,294.3z"/>
		<g>
			<g>
				<path class="st1" d="M1347.5,233.4h-2.5l-0.8,2.2c-0.1,0.2,0,0.4,0.2,0.5l0.3,0.1l-1.2,8.9c-0.3,2.1-0.5,3.8-1.6,5.7
					c-0.3,0.6-0.7,1.2-1.1,1.7c-0.6,0.9-0.8,1.2-1,1.8c-0.5,1.4-0.3,2.9-0.3,4.4v28.8c0,0.8,0.6,1.4,1.4,1.4h6.7h6.7
					c0.8,0,1.4-0.6,1.4-1.4v-28.8c0-1.5,0.2-3-0.3-4.4c-0.2-0.6-0.4-0.9-1-1.8c-0.4-0.6-0.8-1.1-1.1-1.7c-1.1-1.9-1.3-3.6-1.6-5.7
					l-1.2-8.9l0.2-0.1c0.2-0.1,0.3-0.3,0.2-0.5l-0.8-2.2H1347.5z"/>
				<path class="st1" d="M1345.3,230.9h4.5c0.6,0,1.1,0.5,1.1,1.1v1.1h-6.7v-1.1C1344.2,231.4,1344.7,230.9,1345.3,230.9z"/>
			</g>
			<path class="st3" d="M1343.7,259.1h7.7c0.8,0,1.6,0.3,2.1,0.9l0,0c0.5,0.5,0.9,1.3,0.9,2.1v14.3c0,0.8-0.3,1.6-0.9,2.1l0,0
				c-0.5,0.5-1.3,0.9-2.1,0.9h-7.7c-0.8,0-1.6-0.3-2.1-0.9c-0.5-0.5-0.9-1.3-0.9-2.1v-14.3c0-0.8,0.3-1.6,0.9-2.1
				C1342.1,259.5,1342.9,259.1,1343.7,259.1L1343.7,259.1z M1351.4,260.6h-7.7c-0.4,0-0.8,0.2-1,0.4c-0.3,0.3-0.4,0.6-0.4,1v14.3
				c0,0.4,0.2,0.8,0.4,1c0.3,0.3,0.6,0.4,1,0.4h7.7c0.4,0,0.8-0.2,1-0.4v0c0.3-0.3,0.4-0.6,0.4-1v-14.3c0-0.4-0.2-0.8-0.4-1v0
				C1352.1,260.8,1351.8,260.6,1351.4,260.6z"/>
		</g>
		<path class="st4" d="M1347.5,220.5c-21.7,0-39.4,17.6-39.4,39.4c0,21.7,17.6,39.4,39.4,39.4c21.7,0,39.4-17.6,39.4-39.4
			C1386.9,238.1,1369.3,220.5,1347.5,220.5L1347.5,220.5z M1327.1,235.2c5.6-4.6,12.7-7.4,20.4-7.4c17.7,0,32.1,14.4,32.1,32.1
			c0,7.8-2.8,14.9-7.4,20.4L1327.1,235.2L1327.1,235.2z M1368,284.6c-5.5,4.6-12.7,7.4-20.4,7.4c-17.7,0-32.1-14.4-32.1-32.1
			c0-7.8,2.8-14.9,7.4-20.4L1368,284.6z"/>
	</g>
	<g>
		<path class="st2" d="M1443.3,294.3c18.9,0,34.4-15.4,34.4-34.4c0-18.9-15.4-34.4-34.4-34.4c-18.9,0-34.4,15.4-34.4,34.4
			C1408.9,278.8,1424.4,294.3,1443.3,294.3z"/>
		<path class="st1" d="M1447.2,246.9h16.9c0.2,0,0.4,0,0.6,0.1c0.2,0.1,0.4,0.2,0.5,0.4l0,0c0.1,0.2,0.2,0.3,0.3,0.5
			c0.1,0.2,0.1,0.4,0,0.6h0l-3.4,22.4c-0.1,0.4-0.2,0.7-0.5,0.9l0,0c-0.3,0.2-0.6,0.4-0.9,0.4h-10.2c-0.4,0-0.7-0.1-1-0.4
			c-0.3-0.2-0.4-0.5-0.5-0.9l-3.4-22.4c0-0.2,0-0.4,0-0.6v0c0.1-0.2,0.2-0.4,0.3-0.5l0,0c0.1-0.2,0.3-0.3,0.5-0.4
			C1446.8,246.9,1447,246.9,1447.2,246.9L1447.2,246.9z M1463.7,248.6h-16.2l3.3,21.8h9.6L1463.7,248.6z"/>
		<path class="st1" d="M1441.9,241c-0.5,0.1-1-0.1-1.1-0.6c-0.1-0.5,0.1-1,0.6-1.1l8.6-2.8c0.5-0.1,1,0.1,1.1,0.6c0,0,0,0.1,0,0.1
			l0,0l7.5,32.8c0.1,0.5-0.2,0.9-0.7,1.1c-0.5,0.1-0.9-0.2-1.1-0.7l-7.3-31.9L1441.9,241z"/>
		<polygon class="st5" points="1447.7,253.8 1463.4,253.7 1461.4,271.3 1450.2,271.4 		"/>
		<path class="st3" d="M1420.4,269.8h34.8c0.3,0,0.5,0.1,0.6,0.3c0.2,0.2,0.2,0.5,0.1,0.7l-1.2,3.7c-0.1,0.3-0.4,0.5-0.8,0.5h-32.3
			c-0.3,0-0.6-0.2-0.8-0.5l-1.2-3.7c-0.1-0.3,0-0.5,0.1-0.7C1419.9,269.9,1420.1,269.8,1420.4,269.8z"/>
		<path class="st1" d="M1420.4,268.9h34.8c0.3,0,0.5,0.1,0.8,0.2c0.2,0.1,0.4,0.3,0.6,0.5c0.2,0.2,0.3,0.5,0.3,0.7
			c0,0.3,0,0.5-0.1,0.8l-1.2,3.7c-0.1,0.3-0.3,0.6-0.6,0.8c-0.3,0.2-0.6,0.3-1,0.3h-32.3c-0.4,0-0.7-0.1-1-0.3
			c-0.3-0.2-0.5-0.5-0.6-0.8l-1.2-3.7c-0.1-0.3-0.1-0.5-0.1-0.8c0-0.3,0.1-0.5,0.3-0.7c0.2-0.2,0.4-0.4,0.6-0.5
			C1419.8,269,1420.1,268.9,1420.4,268.9L1420.4,268.9z M1455,270.7h-34.6l1.2,3.5h32.2L1455,270.7z"/>
		<path class="st3" d="M1454.8,267.1H1420c-0.2,0-0.4-0.1-0.6-0.3c-0.2-0.2-0.2-0.4-0.2-0.6c1.2-11.5,34.7-14.2,36.4,0
			c0,0.2,0,0.4-0.2,0.6C1455.3,267,1455.1,267.1,1454.8,267.1z"/>
		<path class="st1" d="M1454.8,267.9H1420c-0.2,0-0.5,0-0.7-0.1c-0.2-0.1-0.4-0.2-0.6-0.4c-0.2-0.2-0.3-0.4-0.3-0.6
			c-0.1-0.2-0.1-0.5-0.1-0.7c0.4-4,4.3-7.1,9.4-8.8c3-1,6.6-1.6,10.1-1.7c3.5-0.1,7,0.4,10,1.4c4.7,1.6,8.2,4.5,8.7,9
			c0,0.2,0,0.5-0.1,0.7c-0.1,0.2-0.2,0.4-0.3,0.6l0,0c-0.2,0.2-0.4,0.3-0.6,0.4C1455.3,267.9,1455.1,267.9,1454.8,267.9
			L1454.8,267.9z M1420.1,266.2h34.7c-0.5-3.7-3.5-6.2-7.5-7.5c-2.8-0.9-6.1-1.3-9.4-1.3c-3.3,0.1-6.6,0.6-9.5,1.6
			C1423.8,260.5,1420.5,263,1420.1,266.2z"/>
		<rect x="1423.3" y="266.4" class="st5" width="29" height="3.4"/>
		<path class="st4" d="M1443.3,220.5c-21.7,0-39.4,17.6-39.4,39.4c0,21.7,17.6,39.4,39.4,39.4c21.7,0,39.4-17.6,39.4-39.4
			C1482.7,238.1,1465,220.5,1443.3,220.5L1443.3,220.5z M1422.9,235.2c5.5-4.6,12.7-7.4,20.4-7.4c17.7,0,32.1,14.4,32.1,32.1
			c0,7.8-2.8,14.9-7.4,20.4L1422.9,235.2L1422.9,235.2z M1463.7,284.6c-5.5,4.6-12.7,7.4-20.4,7.4c-17.7,0-32.1-14.4-32.1-32.1
			c0-7.8,2.8-14.9,7.4-20.4L1463.7,284.6z"/>
	</g>
	<g>
		<path class="st2" d="M1443.3,198.5c18.9,0,34.4-15.4,34.4-34.4c0-18.9-15.4-34.4-34.4-34.4c-18.9,0-34.4,15.4-34.4,34.4
			C1408.9,183,1424.4,198.5,1443.3,198.5z"/>
		<path class="st1" d="M1461.4,152.5h-11.9c-0.2-2.3-3.1-4.2-6.7-4.2c-3.6,0-6.5,1.8-6.7,4.2h-4h-7.7c-2.2,0-3.9,1.8-3.9,3.9V175
			c0,2.2,1.8,3.9,3.9,3.9h36.9c2.2,0,3.9-1.8,3.9-3.9v-18.5C1465.4,154.3,1463.6,152.5,1461.4,152.5L1461.4,152.5z M1445.4,152.5
			h-4.8c-0.3-0.3-0.5-0.7-0.5-1.1l0,0c0-0.8,0.7-1.5,1.5-1.5h3c0.8,0,1.5,0.7,1.5,1.5l0,0C1446,151.9,1445.7,152.3,1445.4,152.5z"/>
		<path class="st3" d="M1443,178.3c6.6,0,12-5.4,12-12c0-6.6-5.4-12-12-12c-6.6,0-12,5.4-12,12C1431,172.9,1436.4,178.3,1443,178.3z
			"/>
		<path class="st1" d="M1443,176.6c5.7,0,10.3-4.6,10.3-10.3c0-5.7-4.6-10.3-10.3-10.3c-5.7,0-10.3,4.6-10.3,10.3
			C1432.7,172,1437.3,176.6,1443,176.6z"/>
		<path class="st3" d="M1443,174.8c4.7,0,8.4-3.8,8.4-8.4c0-4.7-3.8-8.4-8.4-8.4c-4.7,0-8.4,3.8-8.4,8.4
			C1434.5,171,1438.3,174.8,1443,174.8z"/>
		<polygon class="st3" points="1447.4,141.1 1457.2,149.4 1458.7,141.1 1461.2,148.4 1469.9,142.4 1463.7,149.6 1472.4,152 
			1464.9,154.4 1469.9,164.1 1462.4,158 1457.2,164.5 1457.5,157.8 1448.7,162.9 1454.9,155.6 1447.4,154.4 1454.8,152.6 		"/>
		<path class="st1" d="M1447.8,140.7l8.9,7.6l1.3-7.2c0.1-0.3,0.4-0.5,0.7-0.5c0.2,0,0.4,0.2,0.5,0.4l2.2,6.5l8.1-5.6
			c0.3-0.2,0.6-0.1,0.8,0.2c0.2,0.2,0.1,0.5,0,0.7l-5.6,6.5l7.8,2.2c0.3,0.1,0.5,0.4,0.4,0.7c-0.1,0.2-0.2,0.4-0.4,0.4v0l-6.8,2.2
			l4.7,9c0.2,0.3,0,0.7-0.3,0.8c-0.2,0.1-0.5,0.1-0.7-0.1l-7-5.6l-4.9,6c-0.2,0.3-0.6,0.3-0.9,0.1c-0.2-0.1-0.2-0.3-0.2-0.5l0.2-5.6
			l-7.8,4.5c-0.3,0.2-0.7,0.1-0.8-0.2c-0.1-0.2-0.1-0.5,0.1-0.7v0l5.5-6.4l-6.4-1c-0.3-0.1-0.6-0.4-0.5-0.7c0-0.3,0.2-0.5,0.5-0.5
			l6.5-1.6l-6.9-10.8c-0.2-0.3-0.1-0.7,0.2-0.8C1447.3,140.5,1447.6,140.5,1447.8,140.7L1447.8,140.7z M1456.8,149.8l-6.7-5.7
			l5.2,8.1l0,0c0,0.1,0.1,0.1,0.1,0.2c0.1,0.3-0.1,0.6-0.4,0.7l-4.4,1.1l4.5,0.7c0.1,0,0.2,0.1,0.3,0.1c0.3,0.2,0.3,0.6,0.1,0.9
			l-3.9,4.5l5.7-3.3c0.1-0.1,0.2-0.1,0.4-0.1c0.3,0,0.6,0.3,0.6,0.6l-0.2,4.9l4.1-5.1c0.2-0.3,0.6-0.3,0.8-0.1l5.3,4.2l-3.7-7.1l0,0
			c0,0,0-0.1,0-0.1c-0.1-0.3,0.1-0.7,0.4-0.8l5.6-1.8l-6.8-1.9c-0.1,0-0.2-0.1-0.3-0.1c-0.3-0.2-0.3-0.6-0.1-0.9l3.2-3.7l-4.9,3.4
			l0,0c0,0-0.1,0.1-0.1,0.1c-0.3,0.1-0.7-0.1-0.8-0.4l-1.7-5.1l-1.1,5.9c0,0.1-0.1,0.2-0.1,0.3C1457.4,150,1457,150.1,1456.8,149.8z
			"/>
		<path class="st4" d="M1443.3,124.7c-21.7,0-39.4,17.6-39.4,39.4s17.6,39.4,39.4,39.4c21.7,0,39.4-17.6,39.4-39.4
			S1465,124.7,1443.3,124.7L1443.3,124.7z M1422.9,139.4c5.5-4.6,12.7-7.4,20.4-7.4c17.7,0,32.1,14.4,32.1,32.1
			c0,7.8-2.8,14.9-7.4,20.4L1422.9,139.4L1422.9,139.4z M1463.7,188.8c-5.5,4.6-12.7,7.4-20.4,7.4c-17.7,0-32.1-14.4-32.1-32.1
			c0-7.8,2.8-14.9,7.4-20.4L1463.7,188.8z"/>
	</g>
	<g>
		<path class="st2" d="M1251.7,390.1c18.9,0,34.4-15.4,34.4-34.4c0-18.9-15.4-34.4-34.4-34.4c-18.9,0-34.4,15.4-34.4,34.4
			C1217.3,374.6,1232.8,390.1,1251.7,390.1z"/>
		<g>
			<path class="st1" d="M1258.2,362.5c-2.1,0-3.9,0.8-5.3,2.2c-1.4,1.4-2.2,3.2-2.2,5.3c0,2.1,0.8,3.9,2.2,5.3
				c1.4,1.4,3.2,2.2,5.3,2.2c2.1,0,3.9-0.8,5.3-2.2c1.4-1.4,2.2-3.2,2.2-5.3c0-2.1-0.8-3.9-2.2-5.3
				C1262.2,363.4,1260.3,362.5,1258.2,362.5L1258.2,362.5z M1254.4,366.2c1-1,2.3-1.6,3.8-1.6c1.5,0,2.9,0.6,3.8,1.6
				c1,1,1.6,2.3,1.6,3.8c0,1.5-0.6,2.9-1.6,3.8c-1,1-2.3,1.6-3.8,1.6c-1.5,0-2.9-0.6-3.8-1.6c-1-1-1.6-2.3-1.6-3.8
				C1252.8,368.5,1253.4,367.1,1254.4,366.2z"/>
			<path class="st1" d="M1239.9,362.5c-2.1,0-3.9,0.8-5.3,2.2c-1.4,1.4-2.2,3.2-2.2,5.3c0,2.1,0.8,3.9,2.2,5.3
				c1.4,1.4,3.2,2.2,5.3,2.2c2.1,0,3.9-0.8,5.3-2.2c1.4-1.4,2.2-3.2,2.2-5.3c0-2.1-0.8-3.9-2.2-5.3
				C1243.9,363.4,1242,362.5,1239.9,362.5L1239.9,362.5z M1236.1,366.2c1-1,2.3-1.6,3.8-1.6c1.5,0,2.9,0.6,3.8,1.6
				c1,1,1.6,2.3,1.6,3.8c0,1.5-0.6,2.9-1.6,3.8c-1,1-2.3,1.6-3.8,1.6c-1.5,0-2.9-0.6-3.8-1.6c-1-1-1.6-2.3-1.6-3.8
				C1234.5,368.5,1235.1,367.2,1236.1,366.2z"/>
			<path class="st1" d="M1267.5,349.7h-35.2v4.5c0,3,4.6,6.6,7.4,6.6h20.1c2.9,0,7.7-3.5,7.7-6.6V349.7z"/>
			<path class="st1" d="M1232.5,348.3c0.1-8,7.4-14.5,16.2-14.5c0.5,0,1,0,1.5,0.1v14.4H1232.5z"/>
			<path class="st1" d="M1267.5,348.3h-2.6v-2.3c0-1.7,0.7-3.2,1.8-4.2c1.1-1.1,2.6-1.8,4.2-1.8h3.7c0.7,0,1.3,0.6,1.3,1.3
				s-0.6,1.3-1.3,1.3h-3.7c-0.9,0-1.8,0.4-2.4,1c-0.6,0.6-1,1.5-1,2.4V348.3z"/>
			<ellipse class="st1" cx="1258.2" cy="370" rx="1.3" ry="1.2"/>
			<ellipse class="st1" cx="1239.9" cy="370" rx="1.3" ry="1.2"/>
		</g>
		<path class="st4" d="M1251.7,316.3c-21.7,0-39.4,17.6-39.4,39.4c0,21.7,17.6,39.4,39.4,39.4c21.7,0,39.4-17.6,39.4-39.4
			C1291.1,333.9,1273.5,316.3,1251.7,316.3L1251.7,316.3z M1231.3,330.9c5.5-4.6,12.7-7.4,20.4-7.4c17.7,0,32.1,14.4,32.1,32.1
			c0,7.8-2.8,14.9-7.4,20.4L1231.3,330.9L1231.3,330.9z M1272.2,380.4c-5.5,4.6-12.7,7.4-20.4,7.4c-17.7,0-32.1-14.4-32.1-32.1
			c0-7.8,2.8-14.9,7.4-20.4L1272.2,380.4z"/>
	</g>
	<g>
		<path class="st2" d="M1347.5,390.1c18.9,0,34.4-15.4,34.4-34.4c0-18.9-15.4-34.4-34.4-34.4c-18.9,0-34.4,15.4-34.4,34.4
			C1313.1,374.6,1328.6,390.1,1347.5,390.1z"/>
		<g>
			<path class="st6" d="M1359.5,336.3h-5.2c-0.3,0-0.6,0.3-0.6,0.6v0.8c0,0.3,0.3,0.6,0.6,0.6h2.5l-2.3,5.6h-14.6l-0.8-2h5
				c0.4,0,0.8-0.3,0.8-0.8v-1c0-0.4-0.3-0.8-0.8-0.8h-7.3c-0.4,0-0.8,0.3-0.8,0.8v1c0,0.4,0.3,0.8,0.8,0.8h0.4c0,0.1,0,0.2,0.1,0.4
				l0.7,1.7h-0.6c-0.4,0-0.8,0.2-0.9,0.6l-2.9,5.6c0.6,0.2,1.2,0.5,1.8,0.8l2.7-5.1h0.8l6,14.8c0.2,0.4,0.6,0.6,1,0.6
				c0.4,0.2,0.9,0.1,1.2-0.2l10.6-11.4l0.8,1.6c-0.6,0.4-1.2,0.9-1.7,1.4c-2,2-3.2,4.8-3.2,7.8c0,3.1,1.2,5.8,3.2,7.8
				c2,2,4.8,3.2,7.8,3.2c3.1,0,5.8-1.2,7.8-3.2c2-2,3.2-4.8,3.2-7.8c0-3.1-1.2-5.8-3.2-7.8c-2-2-4.8-3.2-7.8-3.2
				c-1.6,0-3,0.3-4.4,0.9l-3.1-5.9c-0.1-0.2-0.2-0.3-0.4-0.4l2.3-5.8h0.7c0.3,0,0.6-0.3,0.6-0.6v-0.8
				C1360.1,336.6,1359.8,336.3,1359.5,336.3L1359.5,336.3z M1346.1,359l-5.4-13.2h14.7l1.1,2L1346.1,359L1346.1,359z M1332.6,351.8
				c0.6,0.2,1.2,0.5,1.8,0.8l-4.1,7.8c-0.2,0.5-0.8,0.7-1.3,0.4c-0.5-0.2-0.7-0.8-0.4-1.3L1332.6,351.8L1332.6,351.8z M1359.2,352.9
				l3.9,7.4c0.2,0.5,0.8,0.7,1.3,0.4c0.5-0.2,0.7-0.8,0.4-1.3l-3.9-7.5c1.1-0.4,2.3-0.7,3.5-0.7c2.5,0,4.8,1,6.5,2.7
				c1.7,1.7,2.7,3.9,2.7,6.5c0,2.5-1,4.8-2.7,6.5c-1.7,1.7-3.9,2.7-6.5,2.7c-2.5,0-4.8-1-6.5-2.7c-1.7-1.7-2.7-3.9-2.7-6.5
				c0-2.5,1-4.8,2.7-6.5C1358.3,353.6,1358.7,353.2,1359.2,352.9z"/>
			<path class="st6" d="M1346.2,359.4h-5.5c-0.2-2.6-1.4-5-3.2-6.8c-2-2-4.8-3.2-7.8-3.2c-3.1,0-5.8,1.2-7.8,3.2
				c-2,2-3.2,4.8-3.2,7.8c0,3.1,1.2,5.8,3.2,7.8c2,2,4.8,3.2,7.8,3.2c3.1,0,5.8-1.2,7.8-3.2c1.8-1.8,3-4.2,3.2-6.9h5.5
				c0.3,0,0.6-0.3,0.6-0.6V360C1346.8,359.7,1346.5,359.4,1346.2,359.4L1346.2,359.4z M1338.7,359.4h-9.8c-0.3,0-0.6,0.3-0.6,0.6
				v0.8c0,0.3,0.3,0.6,0.6,0.6h9.8c-0.2,2.2-1.2,4.1-2.6,5.5c-1.7,1.7-3.9,2.7-6.5,2.7s-4.8-1-6.5-2.7c-1.7-1.7-2.7-3.9-2.7-6.5
				c0-2.5,1-4.8,2.7-6.5c1.7-1.7,3.9-2.7,6.5-2.7s4.8,1,6.5,2.7C1337.5,355.4,1338.5,357.3,1338.7,359.4z"/>
		</g>
		<path class="st4" d="M1347.5,316.3c-21.7,0-39.4,17.6-39.4,39.4c0,21.7,17.6,39.4,39.4,39.4c21.7,0,39.4-17.6,39.4-39.4
			C1386.9,333.9,1369.3,316.3,1347.5,316.3L1347.5,316.3z M1327.1,330.9c5.6-4.6,12.7-7.4,20.4-7.4c17.7,0,32.1,14.4,32.1,32.1
			c0,7.8-2.8,14.9-7.4,20.4L1327.1,330.9L1327.1,330.9z M1368,380.4c-5.5,4.6-12.7,7.4-20.4,7.4c-17.7,0-32.1-14.4-32.1-32.1
			c0-7.8,2.8-14.9,7.4-20.4L1368,380.4z"/>
	</g>
	<g>
		<path class="st2" d="M1443.3,390.1c18.9,0,34.4-15.4,34.4-34.4c0-18.9-15.4-34.4-34.4-34.4c-18.9,0-34.4,15.4-34.4,34.4
			C1408.9,374.6,1424.4,390.1,1443.3,390.1z"/>
		<g>
			<path class="st1" d="M1426.8,335.6c0.8-0.8,1.5-1.5,2.2-2.1c3.6-3,7.1-3.2,10.8-2.2c2.3,0.6,4.1,1.2,6,2.6
				c-0.3,0.7-0.9,2.1-1.4,3.3c-1.7,4.7-1.7,9.9,2.5,13.3c3.6,3,11.1,3.4,15.3,4.9c2,0.8,2.2,2,2.6,3.6c0.3,1.8-3.4,3.2-4.8,3.6
				c-3.3,1-7,1-10.3,0.5c-4.1-0.6-6.7-2.5-10.6-2.9c-1.5-0.1-2.7,0-5.3,0.8c-1.3,0.4-2.6,0.8-3.9,0.7c-0.7-0.1-2.4-0.2-3-0.4
				c-0.6-0.2-2.2-0.7-2.4-1.5c-0.3-0.8-0.3-2-0.5-2.6c-0.7-3.3-0.2-4.3,0.8-7.4c0.6-2,1.3-4.1,1.5-5.2
				C1426.8,341.8,1426.9,339,1426.8,335.6z"/>
			<path class="st1" d="M1431.1,362.3c1.6,0.9,2.9,1.3,4.2,1.5c3.2,0.5,6.1,0.3,9.1,0.2c2.3-0.1,3.4-0.1,5.7-0.7
				c1.8-0.5,3.5-0.8,5.3-1.1c0.1,0,0.1,0,0.2,0c1.9-0.4,5.6-0.9,7.7-1.1c0.4,2.8,1.3,5-0.1,7.3c-11.9,1.2-30.1-0.3-42.4-2.1
				c0.1-2.3,2.1-6.1,4.8-5.8C1428.4,360.7,1428.4,360.9,1431.1,362.3z"/>
			<g>
				<path class="st1" d="M1425,363.6c2.8,0,5,2.3,5,5c0,2.8-2.3,5-5,5c-2.8,0-5-2.3-5-5C1420,365.8,1422.2,363.6,1425,363.6
					L1425,363.6z M1425,364.9c-2,0-3.7,1.6-3.7,3.7c0,2,1.6,3.7,3.7,3.7c2,0,3.7-1.6,3.7-3.7C1428.7,366.6,1427.1,364.9,1425,364.9z
					"/>
				<circle class="st1" cx="1425" cy="368.6" r="3"/>
			</g>
			<g>
				<path class="st1" d="M1436.9,364.8c2.8,0,5,2.3,5,5c0,2.8-2.3,5-5,5s-5-2.3-5-5C1431.9,367,1434.2,364.8,1436.9,364.8
					L1436.9,364.8z M1436.9,366.1c-2,0-3.7,1.6-3.7,3.7c0,2,1.6,3.7,3.7,3.7s3.7-1.6,3.7-3.7C1440.6,367.8,1439,366.1,1436.9,366.1z
					"/>
				<circle class="st1" cx="1436.9" cy="369.8" r="3"/>
			</g>
			<g>
				<path class="st1" d="M1449.3,365.6c2.8,0,5,2.3,5,5c0,2.8-2.3,5-5,5c-2.8,0-5-2.3-5-5C1444.3,367.8,1446.5,365.6,1449.3,365.6
					L1449.3,365.6z M1449.3,366.9c-2,0-3.7,1.6-3.7,3.7c0,2,1.6,3.7,3.7,3.7c2,0,3.7-1.6,3.7-3.7
					C1453,368.6,1451.3,366.9,1449.3,366.9z"/>
				<circle class="st1" cx="1449.3" cy="370.6" r="3"/>
			</g>
			<g>
				<path class="st1" d="M1462.1,365.1c2.8,0,5,2.3,5,5c0,2.8-2.3,5-5,5c-2.8,0-5-2.3-5-5C1457.1,367.3,1459.4,365.1,1462.1,365.1
					L1462.1,365.1z M1462.1,366.4c-2,0-3.7,1.6-3.7,3.7c0,2,1.7,3.7,3.7,3.7c2,0,3.7-1.6,3.7-3.7
					C1465.8,368.1,1464.2,366.4,1462.1,366.4z"/>
				<circle class="st1" cx="1462.1" cy="370.1" r="3"/>
			</g>
		</g>
		<path class="st4" d="M1443.3,316.3c-21.7,0-39.4,17.6-39.4,39.4c0,21.7,17.6,39.4,39.4,39.4c21.7,0,39.4-17.6,39.4-39.4
			C1482.7,333.9,1465,316.3,1443.3,316.3L1443.3,316.3z M1422.9,330.9c5.5-4.6,12.7-7.4,20.4-7.4c17.7,0,32.1,14.4,32.1,32.1
			c0,7.8-2.8,14.9-7.4,20.4L1422.9,330.9L1422.9,330.9z M1463.7,380.4c-5.5,4.6-12.7,7.4-20.4,7.4c-17.7,0-32.1-14.4-32.1-32.1
			c0-7.8,2.8-14.9,7.4-20.4L1463.7,380.4z"/>
	</g>
	<g>
		<path class="st2" d="M1539.1,198.5c18.9,0,34.4-15.4,34.4-34.4c0-18.9-15.4-34.4-34.4-34.4s-34.4,15.4-34.4,34.4
			C1504.7,183,1520.1,198.5,1539.1,198.5z"/>
		<path class="st1" d="M1552.4,168.3v-0.9v-6.5v-12c0-1.4-1.1-2.5-2.5-2.5l0,0c-1.4,0-2.5,1.1-2.5,2.5v12h-1v-16.2
			c0-1.4-1.1-2.5-2.5-2.5l0,0c-1.4,0-2.5,1.1-2.5,2.5v16.2h-1V143c0-1.4-1.1-2.5-2.5-2.5l0,0c-1.4,0-2.5,1.1-2.5,2.5v17.8h-1v-16.2
			c0-1.4-1.1-2.5-2.5-2.5l0,0c-1.4,0-2.5,1.1-2.5,2.5v16.2v6.5h-1.2v-7c0-1.1-1.1-1.9-2.5-1.9l0,0c-1.4,0-2.5,0.9-2.5,1.9V176
			c0,3.6,1.9,6.7,5.2,8.2l1.6,0.8c0.9,0.5,1.5,1.3,1.5,2.4l-0.1,1.8c0,0.5,0.1,0.8,0.5,1.2c0.3,0.3,0.7,0.5,1.2,0.5h14.6
			c0.9,0,1.6-0.7,1.6-1.6l0.1-4.9c0-0.6,0.2-1.2,0.6-1.7c1.4-1.7,2.1-3.6,2.1-5.8v-4.4V168.3z"/>
		<path class="st4" d="M1539.1,124.7c-21.7,0-39.4,17.6-39.4,39.4s17.6,39.4,39.4,39.4s39.4-17.6,39.4-39.4
			S1560.8,124.7,1539.1,124.7L1539.1,124.7z M1518.6,139.4c5.5-4.6,12.7-7.4,20.4-7.4c17.7,0,32.1,14.4,32.1,32.1
			c0,7.8-2.8,14.9-7.4,20.4L1518.6,139.4L1518.6,139.4z M1559.5,188.8c-5.5,4.6-12.7,7.4-20.4,7.4c-17.7,0-32.1-14.4-32.1-32.1
			c0-7.8,2.8-14.9,7.4-20.4L1559.5,188.8z"/>
	</g>
	<g>
		<path class="st2" d="M1539.1,390.1c18.9,0,34.4-15.4,34.4-34.4c0-18.9-15.4-34.4-34.4-34.4s-34.4,15.4-34.4,34.4
			C1504.7,374.6,1520.1,390.1,1539.1,390.1z"/>
		<g>
			<path class="st1" d="M1551.1,343.6l1.5-3c0.7-1.6,1.3-2.6,3.4-2.6h4.3c2.8,0,2.8,4.3,0,4.3h-3.7l-7.5,16.4l2.1,1.6
				c4.2,3.1,2.2,8.9-3.1,8.9h-23.6c-2.7,0-2.7-3.9,0-3.9h23.1c2.4,0,2.1-2.6,0.1-2.8l-24.4-2.7c-1.3-0.1-2.2-1.1-2.2-2.4v-11.3
				c0-1.3,0.8-2.4,2.7-2.4H1551.1z"/>
			<path class="st1" d="M1527.2,370.9c2.1,0,3.8,1.7,3.8,3.8c0,2.1-1.7,3.7-3.8,3.7c-2.1,0-3.7-1.7-3.7-3.7
				C1523.5,372.6,1525.1,370.9,1527.2,370.9z"/>
			<path class="st1" d="M1552.9,370.9c2.1,0,3.7,1.7,3.7,3.8c0,2.1-1.7,3.7-3.7,3.7c-2.2,0-3.8-1.7-3.8-3.7
				C1549,372.6,1550.7,370.9,1552.9,370.9z"/>
		</g>
		<path class="st4" d="M1539.3,316.3c-21.7,0-39.4,17.6-39.4,39.4c0,21.7,17.6,39.4,39.4,39.4c21.7,0,39.4-17.6,39.4-39.4
			C1578.7,333.9,1561.1,316.3,1539.3,316.3L1539.3,316.3z M1518.9,330.9c5.5-4.6,12.7-7.4,20.4-7.4c17.7,0,32.1,14.4,32.1,32.1
			c0,7.8-2.8,14.9-7.4,20.4L1518.9,330.9L1518.9,330.9z M1559.8,380.4c-5.5,4.6-12.7,7.4-20.4,7.4c-17.7,0-32.1-14.4-32.1-32.1
			c0-7.8,2.8-14.9,7.4-20.4L1559.8,380.4z"/>
	</g>
	<g>
		<path class="st2" d="M1634.9,390.1c18.9,0,34.4-15.4,34.4-34.4c0-18.9-15.4-34.4-34.4-34.4c-18.9,0-34.4,15.4-34.4,34.4
			C1600.5,374.6,1615.9,390.1,1634.9,390.1z"/>
		<path class="st1" d="M1622.4,378.9h10.5v-16.8c1,0.2,2.2,0.3,3.6,0.3c6.2,0,11.6-1.6,15.2-4.9c2.8-2.6,4.3-6.5,4.3-11.1
			c0-4.6-1.9-8.5-5-10.8c-3.1-2.5-7.8-3.7-14.3-3.7c-6.4,0-11,0.4-14.3,1V378.9L1622.4,378.9z M1632.8,340.2
			c0.8-0.2,2.2-0.3,4.3-0.3c5.3,0,8.3,2.6,8.3,6.9c0,4.7-3.5,7.6-9.1,7.6c-1.6,0-2.6-0.1-3.5-0.3V340.2z"/>
		<path class="st4" d="M1634.9,316.3c-21.7,0-39.4,17.6-39.4,39.4c0,21.7,17.6,39.4,39.4,39.4c21.7,0,39.4-17.6,39.4-39.4
			C1674.2,333.9,1656.6,316.3,1634.9,316.3L1634.9,316.3z M1614.4,330.9c5.5-4.6,12.7-7.4,20.4-7.4c17.7,0,32.1,14.4,32.1,32.1
			c0,7.8-2.8,14.9-7.4,20.4L1614.4,330.9L1614.4,330.9z M1655.3,380.4c-5.5,4.6-12.7,7.4-20.4,7.4c-17.7,0-32.1-14.4-32.1-32.1
			c0-7.8,2.8-14.9,7.4-20.4L1655.3,380.4z"/>
	</g>
	<g>
		<path class="st2" d="M1156,581.6c18.9,0,34.4-15.4,34.4-34.4c0-18.9-15.4-34.4-34.4-34.4c-18.9,0-34.4,15.4-34.4,34.4
			C1121.6,566.2,1137,581.6,1156,581.6z"/>
		<path class="st1" d="M1140.4,548.8c1.2-3.7,1.8-7.1,2.6-10.9c1.5-6.7,8.8-8.1,14.6-8.3c0.3,0,0.6,0,0.9-0.1c0-0.2,0-0.3,0.1-0.5
			c0.3-0.7,2.9-0.3,2.6,0.6c0,0.1,0,0.2,0,0.3c5.5,0.3,12.9,5.3,14.6,10.5c0.7,2.1,2.1,8.8,1.5,10.9c-0.3,1-1.2,1.2-2.7,1.6
			c-2,0.5-4.1,0.3-6.3,0.4c-0.7,0-1.4,0.1-2.1,0.1c-1.1,1.7-2.5,3.1-4.1,4.3c-1.3,1-2.7,2-4.1,2.9c-2,1.3-3.3,1.9-5,2.6
			c-3,1.1-5.4,1-7.9,0.1c-1.6-0.6-3.1-1.3-4.5-2.2c-1.6-0.9-2.8-1.9-4.4-2.7c-2.1-1-2.2-1.6-4.2-0.7c-0.5,0.3-1.6,0.6-2.2,0.3
			c-0.1-0.1-0.3-0.3-0.4-0.5c-0.4-0.7,0-0.6,0.9-1c0.7-0.4,1.2-0.8,1.9-1.2c0.6-0.4,1.3-1,1.3-1c2.2-1.6,4.5-3.3,6.7-4.8
			C1140.2,549.2,1140.3,549,1140.4,548.8z"/>
		<path class="st4" d="M1156,507.9c-21.7,0-39.4,17.6-39.4,39.4c0,21.7,17.6,39.4,39.4,39.4c21.7,0,39.4-17.6,39.4-39.4
			C1195.3,525.5,1177.7,507.9,1156,507.9L1156,507.9z M1135.5,522.5c5.5-4.6,12.7-7.4,20.4-7.4c17.7,0,32.1,14.4,32.1,32.1
			c0,7.8-2.8,14.9-7.4,20.4L1135.5,522.5L1135.5,522.5z M1176.4,572c-5.6,4.6-12.7,7.4-20.4,7.4c-17.7,0-32.1-14.4-32.1-32.1
			c0-7.8,2.8-14.9,7.4-20.4L1176.4,572z"/>
	</g>
	<g>
		<path class="st2" d="M1251.7,581.6c18.9,0,34.4-15.4,34.4-34.4c0-18.9-15.4-34.4-34.4-34.4c-18.9,0-34.4,15.4-34.4,34.4
			C1217.3,566.2,1232.8,581.6,1251.7,581.6z"/>
		<path class="st1" d="M1271.7,533c0,0,0.2,1.6,0.2,2.6c0.2,3.3-1.3,6.7,0.5,10c0.5,0.9,0.7,2.3,1,3c0.3,0.7,0.5,2.8,0.5,2.8
			s0.1,2.4,0.1,2.8c0.5,0.5,0.5,1.3,0.5,2c-2.8,0.5-4.6,0.4-6.8,0.4c-0.8,0-1.7,0-2.7,0l0,0c-1.5,0-3,0-4.6,0c-1.6,0-3.1,0.1-4.6,0
			h0c-1.9,0.1-3.9,0.1-5.8,0.2c-5.8,0.3-11.6,0.5-17.4,0l-0.4-5.8h0l0,0h0l0,0l0,0l0,0l0,0h0l0,0l0,0l0,0l0,0l0,0l0,0l0,0l0,0l0,0
			l0,0l0,0h0l0,0l0,0l0,0l0,0h0l0,0l0,0l0,0l0,0l0,0l0,0l0,0l0,0l0,0l0,0l0,0l0,0h0l0,0l0,0l0,0l0,0l0,0l0,0l0,0l0,0l0,0h0l0,0l0,0
			l0,0l0,0l0,0l0,0l0,0h0l0,0l0,0l0,0l0,0l0,0l0,0l0,0l0,0l0,0l0,0l0,0l0,0h0l0,0l0.1,0c1-0.1,2.3-0.5,3.4-0.9
			c0.1,0,0.2-0.1,0.3-0.1l0,0c0,0.4,0,0.7,0,1c-0.2,0.2-0.3,0.4-0.3,0.7c0,0.5,0.4,0.9,0.9,0.9c0.5,0,0.9-0.4,0.9-0.9
			c0-0.3-0.2-0.6-0.4-0.8v0l0-0.7l0-0.8h0c0.6-0.3,1.1-0.6,1.7-0.9l1.2-0.6c-0.4,0.2-0.7,0.4-1.2,0.6l0.3,1l0.1,0.5l0,0
			c-0.1,0.2-0.2,0.3-0.2,0.5c0,0.5,0.4,0.9,0.9,0.9c0.5,0,0.9-0.4,0.9-0.9c0-0.3-0.2-0.6-0.4-0.8c0-0.1,0-0.2,0-0.2l-0.1-0.6
			l-0.4-1.1c0.6-0.3,1.2-0.6,1.8-0.8c0.2,0.7,0.5,1.5,0.8,2c0,0.1,0,0.2,0,0.3c0,0.5,0.4,0.9,0.9,0.9c0.5,0,0.9-0.4,0.9-0.9
			c0-0.4-0.3-0.8-0.7-0.9l-0.8-1.8l-1.1,0.4c0.2-0.1,0.3-0.1,0.5-0.2c1.3-0.5,2.2-0.8,3-1.1c0.2,0.7,0.5,1.3,0.7,1.8
			c-0.1,0.1-0.1,0.3-0.1,0.4c0,0.5,0.4,0.9,0.9,0.9c0.5,0,0.9-0.4,0.9-0.9c0-0.3-0.2-0.6-0.5-0.8c-0.2-0.8-0.5-1.9-0.8-2h0
			c0.5-0.2,1-0.5,1.5-0.9c0.4,0.6,0.8,1.2,1.2,1.6c0,0,0,0.1,0,0.1c0,0.5,0.4,0.9,0.9,0.9c0.5,0,0.9-0.4,0.9-0.9
			c0-0.4-0.3-0.8-0.7-0.9c-0.3-0.7-0.9-1.4-1.2-1.6c0.4-0.3,0.8-0.7,1.3-1l0,0c0.6,0.4,1.1,0.8,1.7,1.2c0,0.5,0.4,0.9,0.9,0.9
			c0.5,0,0.9-0.4,0.9-0.9c0-0.5-0.4-0.9-0.9-0.9c0,0-0.1,0-0.1,0c-0.5-0.5-1.2-1.1-1.5-1.2v0c0.2-0.2,0.4-0.4,0.5-0.6
			c0.2-0.4,0.5-0.7,0.7-1c0.1,0.1,0.2,0.2,0.3,0.3c0.4,0.3,0.8,0.6,1.3,0.9c0.1,0.4,0.5,0.7,0.9,0.7c0.5,0,0.9-0.4,0.9-0.9
			c0-0.5-0.4-0.9-0.9-0.9c0,0-0.1,0-0.1,0l-0.1-0.1c-0.5-0.4-1.1-0.9-1.5-0.9l0,0c0.3-0.4,0.6-0.9,0.8-1.3c0.1-0.2,0.3-0.5,0.4-0.8
			c0.6,0.4,1.1,0.7,1.6,1c0,0.5,0.4,0.9,0.9,0.9c0.5,0,0.9-0.4,0.9-0.9c0-0.5-0.4-0.9-0.9-0.9c-0.1,0-0.1,0-0.2,0
			c-0.1-0.1-0.2-0.2-0.4-0.3c-0.5-0.4-0.9-0.8-1.3-0.9c0.7-1,1.6-2,2.7-1.7l0,0l0,0l0,0l0,0h0l0,0l0,0l0,0l0,0l0,0l0,0l0,0l0,0l0,0
			l0,0l0,0h0l0,0l0,0l0,0l0,0l0,0l0,0l0,0l0,0l0,0l0,0l0,0l0,0l0,0l0,0h0l0,0l0,0l0,0l0,0l0,0l0,0l0,0l0,0l0,0h0l0,0l0,0l0,0l0,0
			l0,0l0,0l0,0l0,0l0,0l0,0l0,0l0,0l0,0l0,0l0,0l0,0l0,0l0,0l0,0l0,0l0,0l0,0l0,0l0,0l0,0l0,0h0l0,0l0,0l0,0l0,0h0l0,0l0,0l0,0l0,0
			h0l0,0l0,0l0,0l0,0l0,0l0,0l0,0l0,0l0,0l0,0l0,0l0,0l0,0l0,0l0,0l0,0h0l0,0l0,0l0,0l0,0l0,0l0,0l0,0l0,0l0,0h0l0,0l0,0h0l0,0l0,0
			l0,0l0,0l0,0l0,0l0,0l0,0l0,0l0,0l0,0l0,0l0,0l0,0l0,0l0,0l0,0l0,0l0,0l0,0h0l0,0l0,0l0,0h0l0,0l0,0l0,0h0l0,0l0,0l0,0h0l0,0l0,0
			l0,0h0l0,0l0,0l0,0l0,0l0,0l0,0l0,0l0,0l0,0l0,0l0,0l0,0l0,0l0,0l0,0l0,0h0l0,0l0,0l0,0l0,0l0,0l0,0l0,0h0l0,0l0,0l0,0l0,0l0,0
			l0,0l0,0l0,0l0,0l0,0l0,0l0,0h0l0,0l0,0l0,0l0,0l0,0l0,0l0,0c0.6,0.2,2.9,0.4,5.1,0.4c0.7,0,4.7,0.2,4.8-1
			C1271.2,533.3,1271.4,533.2,1271.7,533L1271.7,533z M1248.9,547.7c-0.3,0.2-0.6,0.3-0.9,0.5c-0.1-0.1-0.2-0.3-0.2-0.4
			c0,0.3,0.3,0.5,0.6,0.5C1248.6,548.3,1248.9,548,1248.9,547.7L1248.9,547.7z M1252,545.5c0.1,0.1,0.1,0.2,0.1,0.3
			c-0.2,0.3-0.5,0.4-0.7,0.5c0,0,0.1,0,0.2,0c0.3,0,0.6-0.3,0.6-0.6C1252.1,545.7,1252.1,545.6,1252,545.5L1252,545.5z
			 M1251.4,546.3c-0.1-0.1-0.2-0.1-0.3-0.2C1251.2,546.2,1251.3,546.3,1251.4,546.3L1251.4,546.3z M1254.8,543.1
			c0.1,0.1,0.1,0.1,0.1,0.2C1254.9,543.2,1254.8,543.1,1254.8,543.1L1254.8,543.1z M1254.9,543.3c-0.1,0.4-0.2,0.7-0.7,0.7
			c0.1,0,0.1,0,0.2,0c0.3,0,0.6-0.2,0.6-0.6C1254.9,543.4,1254.9,543.3,1254.9,543.3L1254.9,543.3z M1254.2,544l-0.2-0.2
			C1254,543.9,1254.1,544,1254.2,544L1254.2,544z M1256.8,540.2c0,0.1,0.1,0.2,0.2,0.3c-0.1,0.4-0.4,0.6-0.6,0.7c0,0-0.1,0-0.1,0
			c0.1,0,0.1,0,0.2,0c0.3,0,0.6-0.3,0.6-0.6C1257.1,540.5,1257,540.3,1256.8,540.2L1256.8,540.2z M1258.7,537.1c0,0,0.1,0.1,0.1,0.1
			c0.1,0.2-0.2,0.8-0.5,0.9c-0.2-0.1-0.3-0.2-0.4-0.3c0.1,0.2,0.3,0.3,0.5,0.3c0.3,0,0.6-0.2,0.6-0.6
			C1259,537.4,1258.9,537.2,1258.7,537.1L1258.7,537.1z M1238.6,551.3l0,0.2c0,0,0-0.1,0-0.1
			C1238.6,551.4,1238.6,551.3,1238.6,551.3L1238.6,551.3z M1238.6,551.5c-0.3,0.2-0.7,0.3-1,0.2c0.1,0.2,0.3,0.3,0.5,0.3
			C1238.4,552,1238.6,551.8,1238.6,551.5L1238.6,551.5z M1237.6,551.7c0-0.1-0.1-0.2-0.1-0.4c0,0,0,0,0,0.1
			C1237.5,551.5,1237.6,551.6,1237.6,551.7L1237.6,551.7z M1242.1,550.3L1242.1,550.3C1242.1,550.3,1242.1,550.3,1242.1,550.3
			L1242.1,550.3z M1242.1,550.3c-0.4,0.1-0.6,0.2-1.1,0.2c0.1,0.2,0.3,0.4,0.5,0.4C1241.8,550.9,1242.1,550.6,1242.1,550.3
			L1242.1,550.3z M1245.5,548.8L1245.5,548.8c-0.2,0.6-0.5,0.8-0.7,0.8c0,0,0,0-0.1,0c0.1,0.1,0.2,0.1,0.3,0.1
			c0.3,0,0.6-0.3,0.6-0.6C1245.6,549,1245.5,548.9,1245.5,548.8L1245.5,548.8z M1274.5,556.2l0,0.6c-2.9,0.5-4.5,0.4-6.8,0.4
			c-0.8,0-1.7,0-2.7,0h0c-1.5,0-3,0-4.5,0c-1.6,0-3.1,0.1-4.6,0c-1.9,0.1-3.8,0.1-5.8,0.2c-5.8,0.3-11.6,0.5-17.4,0l0.2,2.1
			c0.6,0.1,1.2,0.2,1.8,0.3c1.7,0.2,3.3,0.4,5,0.4c1.7,0.1,3.4,0,5-0.1c1.1-0.1,3.4-0.3,5.6-0.5c1.7-0.1,4.6-0.2,7-0.1
			c1.4,0,3.6,0,5.6,0.1c1.2,0.1,2.4,0.1,3.6,0.1c1.3,0,2.7,0.1,4,0.1c1,0,3.4,0.3,3.8-0.9c0.3-0.8,0.2-1.1,0.3-1.9
			C1274.5,556.7,1274.5,556.5,1274.5,556.2L1274.5,556.2z M1232.4,559.5l-0.2-2l0,0l0-0.2l-0.5-6.1l0,0l0,0l0,0l0,0l0,0l0,0l0,0l0,0
			l0,0l0,0l0,0l0,0l0,0l0,0l0,0l0,0h0l0,0l0,0l0,0l0,0l0,0l0,0h0l0,0l0,0l0,0h0l0,0l0,0l0,0l0,0l0,0l0,0h0l0,0l0,0l0,0h0l0,0l0,0
			l0,0h0l0,0l0,0h0l0,0l0,0l0,0l0,0l0,0l0,0l0,0h0l0,0l0,0l0,0l0,0l0,0l0,0l0,0l0,0l0,0l0,0l0,0l0,0l0,0l0,0h0l0,0l0,0l0,0l0,0h0
			l0,0h0l0,0l0,0l0,0h0h0l0,0h0h0l0,0l0,0h0l0,0l0,0h0l-0.1,0h0l-0.1,0h0l-0.1,0h0h-0.1h0h-0.1h0h-0.1h0l-0.1,0h0l-0.1,0h0l-0.1,0h0
			l-0.1,0l0,0l-0.1,0h0l-0.1,0h0l-0.1,0h0l-0.1,0h0l-0.1,0l0,0l-0.1,0h0l-0.1,0l0,0l-0.1,0l0,0l-0.1,0l0,0l-0.1,0l0,0l-0.1,0l0,0
			l-0.1,0h0l-0.1,0h0l-0.1,0h0l-0.1,0h0l-0.1,0h0l-0.1,0l0,0h-0.1h0h-0.1h0h-0.1h0h-0.1h-0.1l0,0l-0.1,0h0l-0.1,0l-0.1,0h0l-0.1,0
			l0,0l-0.1,0l0,0l-0.1,0l-0.1,0l-0.1,0l-0.1,0l-0.1,0l0,0l-0.1,0l-0.1,0l-0.1,0l-0.1,0l-0.1,0l-0.1,0l-0.1,0l-0.1,0l-0.1,0l-0.1,0
			l0,0l-0.1,0l0,0l-0.1,0l0,0l-0.1,0l0,0l-0.1,0l0,0l-0.1,0l0,0l0,0l0,0l0,0l0,0l0,0l0,0l0,0l0,0l0,0l0,0l0,0l0,0l0,0l0,0l0,0l0,0
			l0,0l0,0l0,0l0,0l0,0l0,0l0,0c0,0,0,0,0,0l0,0c0,0,0,0,0,0l0,0l0,0c-1.7,1.8-1.9,2.1-2.1,4.9
			C1225.5,558,1228.9,558.9,1232.4,559.5z"/>
		<path class="st4" d="M1251.7,507.9c-21.7,0-39.4,17.6-39.4,39.4c0,21.7,17.6,39.4,39.4,39.4c21.7,0,39.4-17.6,39.4-39.4
			C1291.1,525.5,1273.5,507.9,1251.7,507.9L1251.7,507.9z M1231.3,522.5c5.5-4.6,12.7-7.4,20.4-7.4c17.7,0,32.1,14.4,32.1,32.1
			c0,7.8-2.8,14.9-7.4,20.4L1231.3,522.5L1231.3,522.5z M1272.2,572c-5.5,4.6-12.7,7.4-20.4,7.4c-17.7,0-32.1-14.4-32.1-32.1
			c0-7.8,2.8-14.9,7.4-20.4L1272.2,572z"/>
	</g>
	<g>
		<path class="st2" d="M1347.5,581.6c18.9,0,34.4-15.4,34.4-34.4c0-18.9-15.4-34.4-34.4-34.4c-18.9,0-34.4,15.4-34.4,34.4
			C1313.1,566.2,1328.6,581.6,1347.5,581.6z"/>
		<path class="st1" d="M1357.5,524.4c1.6,0.4,2.3,0.7,3,1.1c1,0.6,1.9,1.4,2.7,2.2c1.5,1.5,2.8,3.2,3.5,5.3c0.2,0.6,0.3,1.3,0.3,1.9
			c-0.1,1.6-1.1,2.7-1.9,4.2c-1.1,2-2.1,4.2-2.8,6.4c-0.1,0.4-0.3,0.9-0.4,1.5c-0.2,1-0.2,1.9-0.2,2.9l0.3,18.5c-0.9,0-1.4,0-2.3,0
			c-0.1-2.8-0.2-20.5-0.9-22c-0.4-0.8-1.1-1.1-1.9-1.1c-0.6,0-1.2,0.3-1.7,0.6c-2.2,1.6-3,4.3-3.9,6.7c-0.8,2.1-1.4,4.2-2.1,6.6
			c-0.5,1.8-1.1,3.6-2.1,5.2c-0.9,1.4-2,2.7-3.6,3.6c-1.1,0.6-2.4,1-3.9,1.1c-3.8,0.4-7.4-0.7-11.2-1.6c-1.7-0.5-3.3-1-5.1-1.6
			c-0.4-0.9-0.3-0.9-0.3-1.9c-0.2-0.5-0.3-0.9-0.4-1.3c-0.8-2.7-0.6-5.5,2-7.2c1.6-1,4.1-1.2,6-1.5c0.9-0.2,1.8-0.4,2.7-0.6
			c0.3,0,0.6,0,0.9,0c0.9,0.2,1.8,0.5,2.8,0.7c0.5,0.1,1,0.1,1.4,0.2c0.3,0,0.5,0,0.8,0c1.1,0,0.9-0.1,1.8-0.9
			c0.3-0.4,0.6-0.9,1-1.3c1.5-2.6,2.9-5.2,4.3-7.8c0.7-1.4,1.4-2.8,2.1-4.2c0.5-0.9,1-1.9,1.4-2.8c1.3-2.5,2.6-5,3.8-7.6
			c0.4-0.7,0.8-1.4,1.3-2.1c0.5-0.9,0.8-1.4,1.2-1.9C1356.6,525.3,1356.9,524.9,1357.5,524.4z"/>
		<path class="st4" d="M1347.5,507.9c-21.7,0-39.4,17.6-39.4,39.4c0,21.7,17.6,39.4,39.4,39.4c21.7,0,39.4-17.6,39.4-39.4
			C1386.9,525.5,1369.3,507.9,1347.5,507.9L1347.5,507.9z M1327.1,522.5c5.6-4.6,12.7-7.4,20.4-7.4c17.7,0,32.1,14.4,32.1,32.1
			c0,7.8-2.8,14.9-7.4,20.4L1327.1,522.5L1327.1,522.5z M1368,572c-5.5,4.6-12.7,7.4-20.4,7.4c-17.7,0-32.1-14.4-32.1-32.1
			c0-7.8,2.8-14.9,7.4-20.4L1368,572z"/>
	</g>
	<g>
		<path class="st2" d="M1634.9,198.5c18.9,0,34.4-15.4,34.4-34.4c0-18.9-15.4-34.4-34.4-34.4c-18.9,0-34.4,15.4-34.4,34.4
			C1600.5,183,1615.9,198.5,1634.9,198.5z"/>
		<path class="st1" d="M1644.5,160.7l0.4-0.5l2.9-3.8l5.4-6.9c0.6-0.8,0.5-1.9-0.3-2.5v0c-0.8-0.6-1.9-0.5-2.5,0.3l-5.4,6.9
			l-0.5-0.4l7.3-9.3c0.6-0.8,0.5-1.9-0.3-2.5l0,0c-0.8-0.6-1.9-0.5-2.5,0.3l-7.3,9.3l-0.5-0.4l8-10.2c0.6-0.8,0.5-1.9-0.3-2.5l0,0
			c-0.8-0.6-1.9-0.5-2.5,0.3l-8,10.2l-0.5-0.4l7.3-9.3c0.6-0.8,0.5-1.9-0.3-2.5l0,0c-0.8-0.6-1.9-0.5-2.5,0.3l-7.3,9.3l-2.9,3.7
			l-0.7-0.5l3.2-4c0.5-0.6,0.2-1.6-0.6-2.2l0,0c-0.8-0.6-1.8-0.6-2.3,0l-7.1,9c-1.6,2.1-1.9,4.7-0.7,7.1l0.6,1.2
			c0.3,0.7,0.3,1.5-0.2,2.1l-0.9,1c-0.2,0.3-0.3,0.5-0.3,0.9c0,0.3,0.2,0.6,0.4,0.8l8.4,6.6c0.5,0.4,1.2,0.3,1.6-0.2l2.3-2.8
			c0.3-0.4,0.7-0.6,1.1-0.7c1.6-0.3,2.8-1.1,3.8-2.4l2-2.5L1644.5,160.7z"/>
		<path class="st4" d="M1634.9,124.7c-21.7,0-39.4,17.6-39.4,39.4s17.6,39.4,39.4,39.4c21.7,0,39.4-17.6,39.4-39.4
			S1656.6,124.7,1634.9,124.7L1634.9,124.7z M1614.4,139.4c5.5-4.6,12.7-7.4,20.4-7.4c17.7,0,32.1,14.4,32.1,32.1
			c0,7.8-2.8,14.9-7.4,20.4L1614.4,139.4L1614.4,139.4z M1655.3,188.8c-5.5,4.6-12.7,7.4-20.4,7.4c-17.7,0-32.1-14.4-32.1-32.1
			c0-7.8,2.8-14.9,7.4-20.4L1655.3,188.8z"/>
		<g>
			<g>
				<path class="st7" d="M1615.8,183.6c0.3-0.1,0.7-0.1,1.2-0.1c0.7,0,1.2,0.1,1.5,0.4c0.4,0.3,0.7,0.7,0.7,1.4
					c0,0.8-0.3,1.3-0.6,1.5c-0.4,0.3-1,0.5-1.8,0.5c-0.5,0-0.8,0-1-0.1V183.6z M1616.8,186.6c0,0,0.1,0,0.2,0c0.6,0,1.1-0.3,1.1-1.2
					c0-0.7-0.4-1.1-1-1.1c-0.2,0-0.3,0-0.3,0V186.6z"/>
				<path class="st7" d="M1621.4,187.4c-1.2,0-1.8-0.9-1.8-1.9c0-1.1,0.7-1.9,1.9-1.9c1.2,0,1.8,0.9,1.8,1.9
					C1623.2,186.6,1622.5,187.4,1621.4,187.4L1621.4,187.4z M1621.4,186.6c0.5,0,0.8-0.5,0.8-1.1c0-0.6-0.3-1.1-0.8-1.1
					c-0.5,0-0.8,0.5-0.8,1.1C1620.6,186.1,1620.9,186.6,1621.4,186.6L1621.4,186.6z"/>
			</g>
			<g>
				<path class="st7" d="M1625.1,187.3v-3.7h1.2l0.6,1.1c0.2,0.4,0.4,0.9,0.6,1.3h0c-0.1-0.5-0.1-1-0.1-1.6v-0.9h0.9v3.7h-1
					l-0.6-1.2c-0.2-0.4-0.4-0.9-0.6-1.3h0c0,0.5,0,1.1,0,1.7v0.9H1625.1z"/>
				<path class="st7" d="M1630.6,187.4c-1.2,0-1.8-0.9-1.8-1.9c0-1.1,0.7-1.9,1.9-1.9c1.2,0,1.8,0.9,1.8,1.9
					C1632.5,186.6,1631.7,187.4,1630.6,187.4L1630.6,187.4z M1630.6,186.6c0.5,0,0.8-0.5,0.8-1.1c0-0.6-0.3-1.1-0.8-1.1
					c-0.5,0-0.8,0.5-0.8,1.1C1629.8,186.1,1630.1,186.6,1630.6,186.6L1630.6,186.6z"/>
				<path class="st7" d="M1633.7,184.4h-1v-0.8h2.9v0.8h-1v2.9h-1V184.4z"/>
			</g>
			<g>
				<path class="st7" d="M1637.9,184.4h-1v-0.8h2.9v0.8h-1v2.9h-1V184.4z"/>
				<path class="st7" d="M1642,187.4c-1.2,0-1.8-0.9-1.8-1.9c0-1.1,0.7-1.9,1.9-1.9c1.2,0,1.8,0.9,1.8,1.9
					C1643.8,186.6,1643.1,187.4,1642,187.4L1642,187.4z M1642,186.6c0.5,0,0.8-0.5,0.8-1.1c0-0.6-0.3-1.1-0.8-1.1
					c-0.5,0-0.8,0.5-0.8,1.1C1641.2,186.1,1641.5,186.6,1642,186.6L1642,186.6z"/>
				<path class="st7" d="M1645.3,183.6v2.1c0,0.6,0.2,0.9,0.6,0.9c0.4,0,0.6-0.3,0.6-0.9v-2.1h1v2.1c0,1.1-0.6,1.7-1.6,1.7
					c-1,0-1.6-0.6-1.6-1.8v-2H1645.3z"/>
				<path class="st7" d="M1651,187.2c-0.1,0.1-0.5,0.2-0.9,0.2c-1.4,0-2-0.9-2-1.9c0-1.3,1-2,2.1-2c0.4,0,0.8,0.1,0.9,0.2l-0.2,0.8
					c-0.2-0.1-0.4-0.1-0.7-0.1c-0.6,0-1.1,0.3-1.1,1.1c0,0.7,0.4,1.1,1.1,1.1c0.2,0,0.5,0,0.7-0.1L1651,187.2z"/>
				<path class="st7" d="M1652.5,183.6v1.4h1.2v-1.4h1v3.7h-1v-1.5h-1.2v1.5h-1v-3.7H1652.5z"/>
			</g>
			<g>
				<path class="st7" d="M1615.6,173.3c0.6-0.1,1.4-0.2,2.5-0.2c1.1,0,1.9,0.2,2.5,0.6c0.5,0.4,0.9,1.1,0.9,1.9
					c0,0.8-0.3,1.5-0.8,1.9c-0.6,0.6-1.5,0.8-2.6,0.8c-0.2,0-0.4,0-0.5,0v2.6h-2.1V173.3z M1617.7,176.8c0.1,0,0.3,0,0.5,0
					c0.8,0,1.3-0.4,1.3-1.1c0-0.6-0.4-1-1.2-1c-0.3,0-0.5,0-0.6,0V176.8z"/>
				<path class="st7" d="M1622.5,173.2h2.1v6h3v1.7h-5.1V173.2z"/>
				<path class="st7" d="M1633.4,177.8h-2.8v1.4h3.1v1.7h-5.2v-7.7h5v1.7h-2.9v1.2h2.8V177.8z"/>
				<path class="st7" d="M1636.9,179.2l-0.4,1.8h-2.1l2.2-7.7h2.8l2.3,7.7h-2.2l-0.5-1.8H1636.9z M1638.6,177.6l-0.4-1.4
					c-0.1-0.4-0.3-1.1-0.4-1.5h0c-0.1,0.5-0.2,1.1-0.3,1.5l-0.3,1.4H1638.6z"/>
				<path class="st7" d="M1642.8,178.9c0.5,0.2,1.2,0.5,2,0.5c0.7,0,1.1-0.2,1.1-0.6c0-0.4-0.3-0.6-1.2-0.9
					c-1.3-0.5-2.2-1.2-2.2-2.3c0-1.4,1.2-2.4,3.1-2.4c0.9,0,1.6,0.2,2.1,0.4l-0.4,1.7c-0.3-0.1-0.9-0.4-1.7-0.4c-0.6,0-1,0.2-1,0.6
					c0,0.4,0.4,0.5,1.4,0.9c1.4,0.5,2,1.3,2,2.3c0,1.3-1,2.5-3.3,2.5c-0.9,0-1.8-0.2-2.3-0.5L1642.8,178.9z"/>
				<path class="st7" d="M1653.9,177.8h-2.8v1.4h3.1v1.7h-5.2v-7.7h5v1.7h-2.9v1.2h2.8V177.8z"/>
			</g>
		</g>
	</g>
	<g>
		<path class="st2" d="M1251.7,485.8c18.9,0,34.4-15.4,34.4-34.4c0-18.9-15.4-34.4-34.4-34.4c-18.9,0-34.4,15.4-34.4,34.4
			C1217.3,470.4,1232.8,485.8,1251.7,485.8z"/>
		<g>
			<g>
				<path class="st1" d="M1264.1,427.8c-1.6,4.3-4.3,6.4-4.7,11.2c2.6,1.2,5.2,2.4,7.9,3.5c0.9-0.8,1.2-0.8,2.4-0.9
					c0.6,0,1.2-0.1,1.8-0.1c1.1-0.1,1.5,0,1.9-0.2c0.2-0.2,0.6-0.6,1-1c0.6-0.6,1.2-1,1.9-1.6c1.1-0.3,1.3-0.6,1.1-1.3
					c-0.2-0.7-0.4-0.8-0.8-1c-0.3-0.1-0.5-0.2-0.8-0.3c-2.9-1.1-5.2-2.3-7.6-3.9c-1.4-0.9-1.5-1-2.5-2.4
					C1265.6,429.3,1264.7,426.1,1264.1,427.8z"/>
				<path class="st1" d="M1258.5,439.8c2.7,1.3,5.5,2.5,8.2,3.8c-0.2,2-0.4,3.9-0.6,5.9c-0.4,3.2-0.8,6.4-1.4,9.5
					c-1.1,5.4-1.7,6.3-1.2,10.8c0.1,1,0.1,1.4,1,1.4c0.6,0,0.9,0,1.1,0.7c0.3,1.1-0.9,1.3-2.2,1.4c-2.7,0.1-3.1,0.3-3.7-2.1
					c-0.5-2.4-0.2-6.3,0.2-8.8c0.6-4-1.2-5.9-4.9-5.6c-3.4,0.3-4.2,0.2-8.4-1.5c-1.9-0.8-3.1-1.8-4.3,0.6c-1,6.1-3.6,6.9-6.2,12.3
					c-0.2,0.5-0.4,1.3-0.3,1.8c0.1,0.7,0.6,1,0.6,1c0.1,0.1,0.3,0.2,0.4,0.3c0.2,0.1,0.3,0.2,0.4,0.3c0.1,0.2,0.1,0.4,0,0.6
					c-0.2,0.4-1,0.6-1.6,0.6c-0.6,0.1-1.1-0.1-1.6-0.2c-0.2-0.1-1-0.2-1.5-0.4c-0.8-0.3-0.4-0.9-0.4-1.8c0,0,0.4-1.4,0.5-1.6
					c0.1-0.1,0.3-0.6,0.4-0.9c1-2.1-0.5-11.6,0.1-15.4c1-4.6-3.5-7.7-3-10.7c0.1-0.5,0.3-0.9,0.6-1.3c0.7-0.7,1.3-1,2.3-1
					c0.9,0,1.4,0.4,1.4,1.3c0,0.5,0,0.4-0.4,0.2c-0.5-0.2-0.9-0.3-1.2,0.4c-0.2,0.5,0.2,1,0.6,1.5c0.7,0.7,1.8,1.1,3,1.3
					c2.9,0.4,7.1-0.5,10.2-0.7c3.9-0.2,5.6-0.7,8.4-1.7C1256.9,441.1,1257.1,441.1,1258.5,439.8z"/>
			</g>
			<polygon class="st1" points="1241.2,420.8 1242.3,420.1 1259.4,439 1258.5,439.8 			"/>
		</g>
		<path class="st4" d="M1251.7,412.1c-21.7,0-39.4,17.6-39.4,39.4c0,21.7,17.6,39.4,39.4,39.4c21.7,0,39.4-17.6,39.4-39.4
			C1291.1,429.7,1273.5,412.1,1251.7,412.1L1251.7,412.1z M1231.3,426.7c5.5-4.6,12.7-7.4,20.4-7.4c17.7,0,32.1,14.4,32.1,32.1
			c0,7.8-2.8,14.9-7.4,20.4L1231.3,426.7L1231.3,426.7z M1272.2,476.2c-5.5,4.6-12.7,7.4-20.4,7.4c-17.7,0-32.1-14.4-32.1-32.1
			c0-7.8,2.8-14.9,7.4-20.4L1272.2,476.2z"/>
	</g>
	<g>
		<path class="st2" d="M1156,198.5c18.9,0,34.4-15.4,34.4-34.4c0-18.9-15.4-34.4-34.4-34.4c-18.9,0-34.4,15.4-34.4,34.4
			C1121.6,183,1137,198.5,1156,198.5z"/>
		<g>
			<polygon class="st1" points="1174.9,152.1 1177,152.1 1177.3,151.7 1179.5,149.1 1179.6,154.4 1179.6,159.7 1177.3,157 
				1177,156.6 1174.9,156.6 			"/>
			<path class="st1" d="M1140.7,156h31.1c1.5,0,2.7,1.2,2.7,2.7v15.4c0,1.5-1.2,2.7-2.7,2.7h-31.1c-1.5,0-2.7-1.2-2.7-2.7v-15.4
				C1137.9,157.3,1139.2,156,1140.7,156z"/>
			<rect x="1134.2" y="161.4" class="st1" width="5.4" height="10.1"/>
			<rect x="1160.3" y="152.6" class="st1" width="18.3" height="3.6"/>
			<path class="st1" d="M1179.3,148.6h0.9c0.1,0,0.2,0.1,0.2,0.2V160c0,0.1-0.1,0.2-0.2,0.2h-0.9c-0.1,0-0.2-0.1-0.2-0.2v-11.2
				C1179.1,148.7,1179.2,148.6,1179.3,148.6z"/>
			<path class="st1" d="M1132,159.4h2.3c0.4,0,0.8,0.3,0.8,0.8v12.5c0,0.4-0.3,0.8-0.8,0.8h-2.3c-0.4,0-0.8-0.3-0.8-0.8v-12.5
				C1131.2,159.8,1131.6,159.4,1132,159.4z"/>
		</g>
		<path class="st4" d="M1156,124.7c-21.7,0-39.4,17.6-39.4,39.4s17.6,39.4,39.4,39.4c21.7,0,39.4-17.6,39.4-39.4
			S1177.7,124.7,1156,124.7L1156,124.7z M1135.5,139.4c5.5-4.6,12.7-7.4,20.4-7.4c17.7,0,32.1,14.4,32.1,32.1
			c0,7.8-2.8,14.9-7.4,20.4L1135.5,139.4L1135.5,139.4z M1176.4,188.8c-5.6,4.6-12.7,7.4-20.4,7.4c-17.7,0-32.1-14.4-32.1-32.1
			c0-7.8,2.8-14.9,7.4-20.4L1176.4,188.8z"/>
	</g>
	<g>
		<path class="st2" d="M1156,677.4c18.9,0,34.4-15.4,34.4-34.4c0-18.9-15.4-34.4-34.4-34.4c-18.9,0-34.4,15.4-34.4,34.4
			C1121.6,662,1137,677.4,1156,677.4z"/>
		<path class="st4" d="M1156,603.6c-21.7,0-39.4,17.6-39.4,39.4c0,21.7,17.6,39.4,39.4,39.4c21.7,0,39.4-17.6,39.4-39.4
			C1195.3,621.3,1177.7,603.6,1156,603.6L1156,603.6z M1135.5,618.3c5.5-4.6,12.7-7.4,20.4-7.4c17.7,0,32.1,14.4,32.1,32.1
			c0,7.8-2.8,14.9-7.4,20.4L1135.5,618.3L1135.5,618.3z M1176.4,667.7c-5.6,4.6-12.7,7.4-20.4,7.4c-17.7,0-32.1-14.4-32.1-32.1
			c0-7.8,2.8-14.9,7.4-20.4L1176.4,667.7z"/>
		<g>
			<polygon class="st1" points="1132.3,635.4 1144,635.4 1145.9,634 1158.5,624.5 1158.5,643.5 1158.5,662.5 1145.9,653 1144,651.6 
				1132.3,651.6 			"/>
			<path class="st1" d="M1162.5,632.7c2.1,3.2,3.2,7,3.2,10.8c0,3.9-1.1,7.6-3.2,10.8l2.6,1.9c2.5-3.8,3.9-8.2,3.9-12.8
				c0-4.6-1.3-9-3.9-12.8L1162.5,632.7z"/>
			<path class="st1" d="M1168.2,623.2c4.3,5.8,6.7,12.9,6.7,20.2c0,7.4-2.4,14.6-6.9,20.4l3.3,2.4c5-6.6,7.7-14.5,7.7-22.8
				c0-8.2-2.6-16.1-7.5-22.6L1168.2,623.2z"/>
		</g>
	</g>
	<g>
		<path class="st2" d="M1539.1,294.3c18.9,0,34.4-15.4,34.4-34.4c0-18.9-15.4-34.4-34.4-34.4s-34.4,15.4-34.4,34.4
			C1504.7,278.8,1520.1,294.3,1539.1,294.3z"/>
		<g>
			<g>
				<g>
					<path class="st1" d="M1518.7,259.8h14.3c0.2,0,0.3,0,0.5,0.1c0.2,0.1,0.3,0.2,0.4,0.3l0,0c0.1,0.1,0.2,0.3,0.2,0.5
						c0.1,0.2,0.1,0.3,0,0.5h0l-2.8,19c0,0.3-0.2,0.6-0.4,0.8l0,0c-0.2,0.2-0.5,0.3-0.8,0.3h-8.6c-0.3,0-0.6-0.1-0.8-0.3
						c-0.2-0.2-0.4-0.4-0.4-0.8l-2.8-19c0-0.2,0-0.3,0-0.5v0c0-0.2,0.1-0.3,0.2-0.5l0,0c0.1-0.1,0.3-0.2,0.4-0.3
						C1518.4,259.8,1518.5,259.8,1518.7,259.8L1518.7,259.8z M1532.7,261.3H1519l2.8,18.5h8.2L1532.7,261.3z"/>
					<polygon class="st5" points="1519.1,265.7 1532.4,265.6 1530.7,280.5 1521.2,280.5 					"/>
				</g>
				<path class="st1" d="M1546.5,247.2c0,1.4-0.6,2.6-1.8,3.5c-1.2,0.9-1.8,1.7-1.8,2.4v28h-2.9v-28c0-0.7-0.6-1.5-1.8-2.4
					c-1.2-0.9-1.8-2.1-1.8-3.5c0-3.8,0.8-7.5,2.5-11.1l0.1,9.5h1.4l0.2-9.5h0.6h0.7l0.2,9.5h1.4l0.1-9.5
					C1545.6,239.7,1546.5,243.4,1546.5,247.2z"/>
				<path class="st1" d="M1554.9,246.2c0,1.4-0.3,5.1-0.8,11.6h-0.8V281h-2.9v-23.2h-0.5V236c1,0.2,1.8,0.6,2.5,1.3
					C1554,239,1554.8,242,1554.9,246.2z"/>
			</g>
			<path class="st4" d="M1539.6,220.5c-21.7,0-39.4,17.6-39.4,39.4c0,21.7,17.6,39.4,39.4,39.4c21.7,0,39.4-17.6,39.4-39.4
				C1578.9,238.1,1561.3,220.5,1539.6,220.5L1539.6,220.5z M1519.1,235.2c5.5-4.6,12.7-7.4,20.4-7.4c17.7,0,32.1,14.4,32.1,32.1
				c0,7.8-2.8,14.9-7.4,20.4L1519.1,235.2L1519.1,235.2z M1560,284.6c-5.5,4.6-12.7,7.4-20.4,7.4c-17.7,0-32.1-14.4-32.1-32.1
				c0-7.8,2.8-14.9,7.4-20.4L1560,284.6z"/>
		</g>
	</g>
	<g>
		<path class="st2" d="M1634.9,294.3c18.9,0,34.4-15.4,34.4-34.4c0-18.9-15.4-34.4-34.4-34.4c-18.9,0-34.4,15.4-34.4,34.4
			C1600.5,278.8,1615.9,294.3,1634.9,294.3z"/>
		<g>
			<path class="st1" d="M1616.4,247.1l15.8-9.9c1.1-0.7,2.4-0.9,3.6-0.6c1.2,0.3,2.3,1,3,2.1l17.9,28.5c0.7,1.1,0.9,2.4,0.6,3.6
				c-0.3,1.2-1,2.3-2.1,3l-15.8,9.9c-1.1,0.7-2.4,0.9-3.6,0.6c-1.2-0.3-2.3-1-3-2.1l-17.9-28.5c-0.7-1.1-0.9-2.4-0.6-3.6
				C1614.5,248.9,1615.3,247.8,1616.4,247.1L1616.4,247.1z M1633.1,238.7l-15.8,9.9c-0.7,0.4-1.1,1.1-1.3,1.8
				c-0.2,0.7-0.1,1.5,0.4,2.2l17.9,28.5c0.4,0.7,1.1,1.1,1.8,1.3c0.7,0.2,1.5,0.1,2.2-0.4l15.8-9.9c0.7-0.4,1.1-1.1,1.3-1.8
				c0.2-0.7,0.1-1.5-0.4-2.2l-17.9-28.5c-0.4-0.7-1.1-1.1-1.8-1.3C1634.6,238.2,1633.8,238.3,1633.1,238.7z"/>
			<g>
				<path class="st1" d="M1625.9,238.6h18.6c1.3,0,2.5,0.5,3.4,1.4c0.9,0.9,1.4,2.1,1.4,3.4v33.6c0,1.3-0.5,2.5-1.4,3.4
					c-0.9,0.9-2.1,1.4-3.4,1.4h-18.6c-1.3,0-2.5-0.5-3.4-1.4c-0.9-0.9-1.4-2.1-1.4-3.4v-33.6c0-1.3,0.5-2.5,1.4-3.4
					C1623.4,239.2,1624.6,238.6,1625.9,238.6L1625.9,238.6z M1644.5,240.5h-18.6c-0.8,0-1.6,0.3-2.1,0.9c-0.5,0.5-0.9,1.3-0.9,2.1
					v33.6c0,0.8,0.3,1.6,0.9,2.1c0.5,0.5,1.3,0.9,2.1,0.9h18.6c0.8,0,1.6-0.3,2.1-0.9c0.5-0.5,0.9-1.3,0.9-2.1v-33.6
					c0-0.8-0.3-1.6-0.9-2.1C1646.1,240.8,1645.3,240.5,1644.5,240.5z"/>
				<path class="st3" d="M1622.9,243.4v33.6c0,0.8,0.3,1.6,0.9,2.1c0.5,0.5,1.3,0.9,2.1,0.9h18.6c0.8,0,1.6-0.3,2.1-0.9
					c0.5-0.5,0.9-1.3,0.9-2.1v-33.6c0-0.8-0.3-1.6-0.9-2.1c-0.5-0.5-1.3-0.9-2.1-0.9h-18.6c-0.8,0-1.6,0.3-2.1,0.9
					C1623.3,241.9,1622.9,242.6,1622.9,243.4z"/>
				<g>
					<path class="st1" d="M1643.6,247.4l-0.4-3.2h0l-0.4,3.2H1643.6L1643.6,247.4z M1641.6,249.3l0.9-6.3h1.3l1,6.3h-0.9l-0.2-1.1
						h-1l-0.1,1.1H1641.6z"/>
					<path class="st1" d="M1643.2,251.5c0.3-0.7,0.7-1,1.3-1c0.7,0,1.3,0.6,1.3,1.3c0,1.3-1.3,2.6-2.6,3.9c-1.3-1.3-2.6-2.6-2.6-3.9
						c0-0.7,0.6-1.3,1.3-1.3C1642.5,250.5,1642.9,250.9,1643.2,251.5z"/>
				</g>
				<g>
					<path class="st1" d="M1628.2,273.9l-0.4,3.2h0l-0.4-3.2H1628.2L1628.2,273.9z M1626.2,272l0.9,6.3h1.3l1-6.3h-0.9l-0.2,1.1h-1
						l-0.1-1.1H1626.2z"/>
					<path class="st1" d="M1627.8,269.8c0.3,0.7,0.7,1,1.3,1c0.7,0,1.3-0.6,1.3-1.3c0-1.3-1.3-2.6-2.6-3.9c-1.3,1.3-2.6,2.6-2.6,3.9
						c0,0.7,0.6,1.3,1.3,1.3C1627.2,270.8,1627.5,270.5,1627.8,269.8z"/>
				</g>
			</g>
		</g>
		<path class="st4" d="M1634.9,220.5c-21.7,0-39.4,17.6-39.4,39.4c0,21.7,17.6,39.4,39.4,39.4c21.7,0,39.4-17.6,39.4-39.4
			C1674.2,238.1,1656.6,220.5,1634.9,220.5L1634.9,220.5z M1614.4,235.2c5.5-4.6,12.7-7.4,20.4-7.4c17.7,0,32.1,14.4,32.1,32.1
			c0,7.8-2.8,14.9-7.4,20.4L1614.4,235.2L1614.4,235.2z M1655.3,284.6c-5.5,4.6-12.7,7.4-20.4,7.4c-17.7,0-32.1-14.4-32.1-32.1
			c0-7.8,2.8-14.9,7.4-20.4L1655.3,284.6z"/>
	</g>
	<g>
		<path class="st2" d="M1347.5,485.8c18.9,0,34.4-15.4,34.4-34.4c0-18.9-15.4-34.4-34.4-34.4c-18.9,0-34.4,15.4-34.4,34.4
			C1313.1,470.4,1328.6,485.8,1347.5,485.8z"/>
		<g>
			<g>
				<circle class="st1" cx="1348.6" cy="426.3" r="4.7"/>
				<path class="st1" d="M1347.6,454.1v21.3c0,1.2-1,2.2-2.2,2.2l0,0c-1.2,0-2.2-1-2.2-2.2v-21.3c-0.8-0.1-1.4-0.8-1.4-1.6v-13.4
					l-7.3,11.1c-0.5,0.8-1.6,1-2.4,0.5l0,0c-0.8-0.5-1-1.6-0.5-2.4l10.1-15.3c0.3-0.4,0.6-0.6,1.1-0.7c0.2-0.1,0.4-0.1,0.6-0.1h10.4
					c0.1,0,0.1,0,0.2,0c0.9-0.1,1.7,0.4,1.9,1.3l4.5,17.7c0.2,0.9-0.3,1.8-1.2,2.1h0c-0.9,0.2-1.8-0.3-2.1-1.2l-1.6-6.5v7
					c0,0.9-0.7,1.6-1.6,1.6h-0.1v21.3c0,1.2-1,2.2-2.2,2.2l0,0c-1.2,0-2.2-1-2.2-2.2v-21.3H1347.6z"/>
			</g>
			
				<rect x="1329.8" y="457.1" transform="matrix(0.9835 -0.181 0.181 0.9835 -61.2186 248.9807)" class="st5" width="7.2" height="5.6"/>
			
				<rect x="1330.4" y="471.4" transform="matrix(0.7505 -0.6608 0.6608 0.7505 19.8147 998.5892)" class="st5" width="4.1" height="3.2"/>
		</g>
		<path class="st4" d="M1347.5,412.1c-21.7,0-39.4,17.6-39.4,39.4c0,21.7,17.6,39.4,39.4,39.4c21.7,0,39.4-17.6,39.4-39.4
			C1386.9,429.7,1369.3,412.1,1347.5,412.1L1347.5,412.1z M1327.1,426.7c5.6-4.6,12.7-7.4,20.4-7.4c17.7,0,32.1,14.4,32.1,32.1
			c0,7.8-2.8,14.9-7.4,20.4L1327.1,426.7L1327.1,426.7z M1368,476.2c-5.5,4.6-12.7,7.4-20.4,7.4c-17.7,0-32.1-14.4-32.1-32.1
			c0-7.8,2.8-14.9,7.4-20.4L1368,476.2z"/>
	</g>
	<g>
		<path class="st2" d="M1634.9,485.8c18.9,0,34.4-15.4,34.4-34.4c0-18.9-15.4-34.4-34.4-34.4c-18.9,0-34.4,15.4-34.4,34.4
			C1600.5,470.4,1615.9,485.8,1634.9,485.8z"/>
		<g>
			<path class="st1" d="M1665.1,458.7c-2.4-0.7-4.2-1.4-5.5-2c-0.1-0.1-0.9-0.6-2.3-1.5c-0.9-0.6-1.7-0.9-2.5-0.9
				c-0.7,0-1.8,0.2-3.3,0.7c-1.9,0.7-3.1,1.1-3.4,1.1l1.4,2.7c-0.5,0.1-1.1,0.2-1.8,0.2c-0.9,0-2.3-0.7-4.1-2
				c-3.4,0.6-7.1,0.9-11.1,1l0.3,0.6l-2,0.8l-0.3,1.1l-1.4,0.5l-0.3,0.9c-2.3-1-3.5-2.4-3.8-4.3c-1.7-0.1-8.2-0.4-19.4-0.9
				c1.4-0.9,3-1.3,4.7-1.2c0.9,0,1.3-0.1,1.3-0.3c0-0.8-1-1.3-3.2-1.4c-1,0-2.2,0.1-3.4,0.5c2.7-3.6,5.4-6.2,8.2-7.8
				c2.7-1.6,6-2.6,10-3.1c0.8-2,2.6-3.7,5.3-5.1l0.3,0.9l1.3,0.6l0.2,1.2l1.4,1.2l-1.2,0.9l2.2,0.1c2.6,0.1,5.6,0.5,8.9,1.3
				c1.7-1,4.4-1.8,5.8,0l-1.6,1.2c1.6,0.5,3.2,1,4.8,1.5c5.7,1.9,8.8,1.1,14.2-2.6c-2.1,2.5-3.9,4.9-5.4,7.2
				C1661.6,454,1663.4,456.3,1665.1,458.7L1665.1,458.7z M1621.7,451c0.1-1.4-0.3-2.5-1.2-3.5c-0.8-0.9-1.8-1.4-3-1.5
				c-1,0-2.1,0.3-3.6,1c0.9-0.3,1.7-0.4,2.4-0.4c1,0,1.9,0.5,2.6,1.3c0.7,0.8,1.1,1.8,1.1,3c-0.1,1.4-0.6,2.5-1.5,3.2
				c-0.8,0.6-1.8,0.9-3,0.8l0.4,1c0.3,0.1,0.6,0.1,0.9,0.1c1.1,0,2.2-0.4,3.2-1.5C1621.1,453.5,1621.7,452.3,1621.7,451z"/>
			<ellipse class="st0" cx="1612.5" cy="451.7" rx="0.9" ry="0.8"/>
		</g>
		<path class="st4" d="M1634.9,412.1c-21.7,0-39.4,17.6-39.4,39.4c0,21.7,17.6,39.4,39.4,39.4c21.7,0,39.4-17.6,39.4-39.4
			C1674.2,429.7,1656.6,412.1,1634.9,412.1L1634.9,412.1z M1614.4,426.7c5.5-4.6,12.7-7.4,20.4-7.4c17.7,0,32.1,14.4,32.1,32.1
			c0,7.8-2.8,14.9-7.4,20.4L1614.4,426.7L1614.4,426.7z M1655.3,476.2c-5.5,4.6-12.7,7.4-20.4,7.4c-17.7,0-32.1-14.4-32.1-32.1
			c0-7.8,2.8-14.9,7.4-20.4L1655.3,476.2z"/>
	</g>
	<g>
		<path class="st2" d="M1443.3,581.6c18.9,0,34.4-15.4,34.4-34.4c0-18.9-15.4-34.4-34.4-34.4c-18.9,0-34.4,15.4-34.4,34.4
			C1408.9,566.2,1424.4,581.6,1443.3,581.6z"/>
		<g>
			<rect x="1425.4" y="551.3" class="st1" width="43.2" height="7"/>
			<rect x="1422.1" y="551.3" class="st1" width="2.1" height="7"/>
			<rect x="1418" y="551.3" class="st1" width="2.1" height="7"/>
			<path class="st1" d="M1422.2,550c0-8.4,7.6-9.9,13.3-11c0.8-0.2,1.6-0.3,2.4-0.5l0.8-0.2h0c6.1-1.4,10.4-2.4,10.4-11.6h2
				c0,10.7-4.9,11.9-11.9,13.5h0l-0.7,0.2c-0.7,0.2-1.6,0.3-2.5,0.5c-5,1-11.7,2.2-11.7,9L1422.2,550z"/>
			<path class="st1" d="M1418.1,550c0-4.8,2.1-8,4.9-10.2c2.7-2.2,6.1-3.3,8.8-3.9l1-0.2c5.6-1.3,10.6-2.5,10.6-8.8l2,0
				c-0.1,8-5.8,9.3-12.2,10.8c-0.2,0-0.4,0.1-1,0.2c-2.5,0.6-5.6,1.6-8,3.6c-2.4,1.9-4.1,4.6-4.1,8.7L1418.1,550z"/>
		</g>
		<path class="st4" d="M1443.3,507.9c-21.7,0-39.4,17.6-39.4,39.4c0,21.7,17.6,39.4,39.4,39.4c21.7,0,39.4-17.6,39.4-39.4
			C1482.7,525.5,1465,507.9,1443.3,507.9L1443.3,507.9z M1422.9,522.5c5.5-4.6,12.7-7.4,20.4-7.4c17.7,0,32.1,14.4,32.1,32.1
			c0,7.8-2.8,14.9-7.4,20.4L1422.9,522.5L1422.9,522.5z M1463.7,572c-5.5,4.6-12.7,7.4-20.4,7.4c-17.7,0-32.1-14.4-32.1-32.1
			c0-7.8,2.8-14.9,7.4-20.4L1463.7,572z"/>
	</g>
	<g>
		<path class="st2" d="M1443.3,485.8c18.9,0,34.4-15.4,34.4-34.4c0-18.9-15.4-34.4-34.4-34.4c-18.9,0-34.4,15.4-34.4,34.4
			C1408.9,470.4,1424.4,485.8,1443.3,485.8z"/>
		<g>
			<path class="st1" d="M1422.4,451.7c3.2,0,5.8-2.6,5.8-5.8c0-3.2-2.6-5.8-5.8-5.8c-3.2,0-5.8,2.6-5.8,5.8
				C1416.6,449,1419.2,451.7,1422.4,451.7z"/>
			<path class="st1" d="M1442.4,437c4.6,0,9.2,0,13.7,0c1.1,0,2.1,0.9,2.1,2.1s-0.9,2.1-2.1,2.1c-4,0-8,0-12,0
				c-1.4,1.4-2.9,2.8-4.3,4.2c6.1,2.3,12.2,4.5,18.3,6.8c-1.5-0.1-3.3-0.3-4.8,0c-3.1,0.5-7.2,3.1-10.4,2.9
				c-2.3-0.2-5.8-2.2-8.9-2.7c-2.8-0.4-5-0.1-8.2,1.1C1431.3,447.9,1436.8,442.4,1442.4,437z"/>
			<path class="st1" d="M1417,460.5c-0.8,0-1.5-0.7-1.5-1.5c0-0.8,0.7-1.5,1.5-1.5c1.9,0,3.9-0.9,6-1.8c2.3-1,4.7-2,7.1-2
				c2.5,0,4.8,1,7.1,2c2,0.9,4.1,1.8,6,1.8s3.9-0.9,6-1.8c2.3-1,4.7-2,7.1-2s4.8,1,7.1,2c2,0.9,4.1,1.8,6,1.8c0.8,0,1.5,0.7,1.5,1.5
				c0,0.8-0.7,1.5-1.5,1.5c-2.5,0-4.8-1-7.1-2c-2-0.9-4.1-1.8-6-1.8s-3.9,0.9-6,1.8c-2.3,1-4.7,2-7.1,2c-2.5,0-4.8-1-7.1-2
				c-2-0.9-4.1-1.8-6-1.8c-1.9,0-3.9,0.9-6,1.8C1421.8,459.5,1419.4,460.5,1417,460.5z"/>
			<path class="st1" d="M1417,466.1c-0.8,0-1.5-0.7-1.5-1.5s0.7-1.5,1.5-1.5c1.9,0,3.9-0.9,6-1.8c2.3-1,4.7-2,7.1-2
				c2.5,0,4.8,1,7.1,2c2,0.9,4.1,1.8,6,1.8s3.9-0.9,6-1.8c2.3-1,4.7-2,7.1-2s4.8,1,7.1,2c2,0.9,4.1,1.8,6,1.8c0.8,0,1.5,0.7,1.5,1.5
				s-0.7,1.5-1.5,1.5c-2.5,0-4.8-1-7.1-2c-2-0.9-4.1-1.8-6-1.8s-3.9,0.9-6,1.8c-2.3,1-4.7,2-7.1,2c-2.5,0-4.8-1-7.1-2
				c-2-0.9-4.1-1.8-6-1.8c-1.9,0-3.9,0.9-6,1.8C1421.8,465.1,1419.4,466.1,1417,466.1z"/>
		</g>
		<path class="st4" d="M1443.3,412.1c-21.7,0-39.4,17.6-39.4,39.4c0,21.7,17.6,39.4,39.4,39.4c21.7,0,39.4-17.6,39.4-39.4
			C1482.7,429.7,1465,412.1,1443.3,412.1L1443.3,412.1z M1422.9,426.7c5.5-4.6,12.7-7.4,20.4-7.4c17.7,0,32.1,14.4,32.1,32.1
			c0,7.8-2.8,14.9-7.4,20.4L1422.9,426.7L1422.9,426.7z M1463.7,476.2c-5.5,4.6-12.7,7.4-20.4,7.4c-17.7,0-32.1-14.4-32.1-32.1
			c0-7.8,2.8-14.9,7.4-20.4L1463.7,476.2z"/>
	</g>
	<g>
		<circle class="st4" cx="1634.9" cy="643" r="39.4"/>
		<path class="st8" d="M1662.9,633.8h-56.1c-0.9,0-1.6,0.7-1.6,1.6v15.3c0,0.9,0.7,1.6,1.6,1.6h56.1c0.9,0,1.6-0.7,1.6-1.6v-15.3
			C1664.5,634.5,1663.8,633.8,1662.9,633.8z"/>
	</g>
	<g>
		<path class="st2" d="M1443.3,677.4c18.9,0,34.4-15.4,34.4-34.4c0-18.9-15.4-34.4-34.4-34.4c-18.9,0-34.4,15.4-34.4,34.4
			C1408.9,662,1424.4,677.4,1443.3,677.4z"/>
		<g>
			<path class="st1" d="M1441.1,624.1c3,0,5.4-2.4,5.4-5.4c0-3-2.4-5.4-5.4-5.4c-3,0-5.4,2.4-5.4,5.4
				C1435.7,621.7,1438.1,624.1,1441.1,624.1z"/>
			<path class="st1" d="M1430,654.5l-1.7,12.2c-0.2,1.6,0.9,3.1,2.5,3.4l0,0c1.6,0.2,3.1-0.9,3.4-2.5l1.5-10.4
				c0.1-0.5,0.3-0.8,0.6-1.1c2.1-1.7,7.5-6,10.5-9c1.9-1.9,2.1-1.9,2.1-4.3v-10.8l1.1,0.8c0.4,0.3,0.7,0.7,0.7,1.2l1.6,9.9
				c0.2,1.2,1.2,2.1,2.4,2l0,0c1.2-0.1,2.1-1.2,2-2.4l-1.9-11.7c-0.1-0.5-0.3-0.9-0.7-1.2l-7.8-5.7c-1.9-1.6-7,0.7-7,4.5v15.8
				c0,0.5-0.2,1-0.6,1.4c-2.6,2.2-5.3,4.7-7.9,6.8C1430.3,653.6,1430.1,654,1430,654.5z"/>
			<path class="st1" d="M1443.8,652l4.4-4.2l9.2,17.3c0.8,1.4,0.2,3.2-1.2,4c-1.4,0.8-3.2,0.2-4-1.2L1443.8,652z"/>
			<path class="st1" d="M1429.8,641.3l8.1-6.2v5.5l-5.5,4.2c-1,0.7-2.3,0.5-3-0.4C1428.6,643.4,1428.8,642.1,1429.8,641.3z"/>
		</g>
		<path class="st4" d="M1443.3,603.6c-21.7,0-39.4,17.6-39.4,39.4c0,21.7,17.6,39.4,39.4,39.4c21.7,0,39.4-17.6,39.4-39.4
			C1482.7,621.3,1465,603.6,1443.3,603.6L1443.3,603.6z M1422.9,618.3c5.5-4.6,12.7-7.4,20.4-7.4c17.7,0,32.1,14.4,32.1,32.1
			c0,7.8-2.8,14.9-7.4,20.4L1422.9,618.3L1422.9,618.3z M1463.7,667.7c-5.5,4.6-12.7,7.4-20.4,7.4c-17.7,0-32.1-14.4-32.1-32.1
			c0-7.8,2.8-14.9,7.4-20.4L1463.7,667.7z"/>
	</g>
	<g>
		<path class="st2" d="M1539.1,581.6c18.9,0,34.4-15.4,34.4-34.4c0-18.9-15.4-34.4-34.4-34.4s-34.4,15.4-34.4,34.4
			C1504.7,566.2,1520.1,581.6,1539.1,581.6z"/>
		<g>
			<g>
				<rect x="1539.8" y="535.3" class="st1" width="20.2" height="3.3"/>
				<rect x="1538.2" y="535.3" class="st1" width="1" height="3.3"/>
				<rect x="1536.3" y="535.3" class="st1" width="1" height="3.3"/>
			</g>
			<path class="st1" d="M1553.7,526.3c0.1-0.5,0.2-0.9,0.2-1.4c0-2.6-2-3.9-5.9-3.9c-0.7,0-1.3,0-1.8,0.1c3.7,0.3,5.5,1.5,5.5,3.7
				c0,0.2,0,0.4,0,0.6c-0.9,5.4-15.1,1.5-16.1,6c-0.1,0.2-0.1,0.4-0.1,0.7c0,0.9,0.4,1.7,1.2,2.3c-0.3-0.4-0.4-0.9-0.4-1.2
				c0-0.2,0-0.4,0.1-0.5c0.3-0.6,1.2-1.1,2.5-1.3C1543.3,530.5,1552.4,531.9,1553.7,526.3z"/>
		</g>
		<path class="st1" d="M1515.7,537.6h2c0.6,0,1.2,0.5,1.2,1.1v22.4c0,0.6-0.5,1.2-1.2,1.2h-2c-0.6,0-1.2-0.5-1.2-1.2v-22.4
			C1514.6,538.2,1515.1,537.6,1515.7,537.6z"/>
		<path class="st1" d="M1559.7,543.8h2c0.6,0,1.2,0.5,1.2,1.1v16.3c0,0.6-0.5,1.2-1.2,1.2h-2c-0.6,0-1.1-0.5-1.1-1.2v-16.3
			C1558.6,544.3,1559.1,543.8,1559.7,543.8z"/>
		<path class="st1" d="M1517.1,555v-2.5c0-0.8,0.6-1.4,1.4-1.4h40.7c0.8,0,1.4,0.6,1.4,1.4v2.5c0,0.8-0.6,1.4-1.4,1.4h-40.7
			C1517.8,556.4,1517.1,555.7,1517.1,555z"/>
		<path class="st1" d="M1520.3,549.8c0-0.5,0-1.1,0-1.6c0-2.1,0.1-2.9,2.5-3.3c3.7-0.6,10.5,1.2,11.1,4.9
			C1529.3,549.8,1524.8,549.8,1520.3,549.8z"/>
		<path class="st4" d="M1539.1,507.9c-21.7,0-39.4,17.6-39.4,39.4c0,21.7,17.6,39.4,39.4,39.4s39.4-17.6,39.4-39.4
			C1578.5,525.5,1560.8,507.9,1539.1,507.9L1539.1,507.9z M1518.6,522.5c5.5-4.6,12.7-7.4,20.4-7.4c17.7,0,32.1,14.4,32.1,32.1
			c0,7.8-2.8,14.9-7.4,20.4L1518.6,522.5L1518.6,522.5z M1559.5,572c-5.5,4.6-12.7,7.4-20.4,7.4c-17.7,0-32.1-14.4-32.1-32.1
			c0-7.8,2.8-14.9,7.4-20.4L1559.5,572z"/>
	</g>
	<g>
		<path class="st3" d="M1251.7,677.4c18.9,0,34.4-15.4,34.4-34.4c0-18.9-15.4-34.4-34.4-34.4c-18.9,0-34.4,15.4-34.4,34.4
			C1217.3,662,1232.8,677.4,1251.7,677.4z"/>
		<g>
			<path class="st1" d="M1245.7,647.9c-0.2,4.2,0.7,5.3,2.9,8.7c0.1,0.2,0.3,0.4,0.4,0.6l-9.3,4.3c0-0.1-0.1-0.3-0.1-0.4
				c-0.5-1.5-2.6-6.5-3.3-7.5c-0.4-0.5-1-1.7-1.4-2.2c-1-1.8-2-4.3-2.5-6.9c-0.7-3.7-0.4-10,3.3-11.5c2.6-1.1,4.7,0.1,6.2,1.5
				C1245,637.6,1245.8,644.3,1245.7,647.9L1245.7,647.9z M1249.7,658.4l-9.7,4.5c0.7,2,1.4,4.1,2.6,5.8c1.3,1.9,3.1,3.2,5.1,3.5
				c1.6,0.2,3.4-0.2,4.6-2.1c0.8-1.2,0.9-2.6,0.6-4.1C1252.5,663.5,1251.1,660.8,1249.7,658.4z"/>
			<path class="st1" d="M1255.5,631.8c0.8,4.1,0.1,5.3-1.6,9c-0.1,0.2-0.2,0.4-0.3,0.6l9.9,2.9c0-0.1,0.1-0.3,0.1-0.4
				c0.3-1.6,1.6-6.8,2.1-7.9c0.3-0.6,0.8-1.8,1-2.4c0.8-1.9,1.3-4.5,1.4-7.1c0.1-3.8-1-10-4.9-11c-2.7-0.7-4.6,0.8-5.9,2.4
				C1254.6,621.5,1254.8,628.2,1255.5,631.8L1255.5,631.8z M1253,642.7l10.2,3c-0.4,2.1-0.8,4.3-1.7,6.1c-1,2.1-2.6,3.7-4.5,4.2
				c-1.6,0.4-3.4,0.3-4.9-1.4c-1-1.1-1.3-2.5-1.2-3.9C1250.9,648.1,1251.9,645.3,1253,642.7z"/>
			<path class="st4" d="M1251.7,603.6c-21.7,0-39.4,17.6-39.4,39.4c0,21.7,17.6,39.4,39.4,39.4c21.7,0,39.4-17.6,39.4-39.4
				C1291.1,621.3,1273.5,603.6,1251.7,603.6L1251.7,603.6z M1231.3,618.3c5.5-4.6,12.7-7.4,20.4-7.4c17.7,0,32.1,14.4,32.1,32.1
				c0,7.8-2.8,14.9-7.4,20.4L1231.3,618.3L1231.3,618.3z M1272.2,667.7c-5.5,4.6-12.7,7.4-20.4,7.4c-17.7,0-32.1-14.4-32.1-32.1
				c0-7.8,2.8-14.9,7.4-20.4L1272.2,667.7z"/>
		</g>
	</g>
	<g>
		<g>
			<path class="st9" d="M348.7,283.3c61.3,0,111.3-50,111.3-111.3c0-61.3-50-111.3-111.3-111.3c-61.3,0-111.3,50-111.3,111.3
				C237.4,233.4,287.4,283.3,348.7,283.3z"/>
			<path class="st4" d="M348.7,44.7c-70.4,0-127.4,57-127.4,127.4c0,70.4,57,127.4,127.4,127.4c70.4,0,127.4-57,127.4-127.4
				C476.1,101.7,419.1,44.7,348.7,44.7L348.7,44.7z M282.6,92.1c18-14.9,41-23.8,66.1-23.8c57.3,0,103.8,46.5,103.8,103.8
				c0,25.1-8.9,48.2-23.8,66.1L282.6,92.1L282.6,92.1z M414.8,252.1c-18,14.9-41,23.8-66.1,23.8c-57.3,0-103.8-46.5-103.8-103.8
				c0-25.1,8.9-48.2,23.8-66.1L414.8,252.1z"/>
		</g>
		<g>
			<g>
				<path class="st10" d="M266.1,462.5c32.8,0,59.5-26.7,59.5-59.5c0-32.8-26.7-59.5-59.5-59.5c-32.8,0-59.5,26.7-59.5,59.5
					C206.6,435.8,233.3,462.5,266.1,462.5z"/>
				<path class="st1" d="M292.5,371.5c-0.6,0.2-1.2,0.2-1.7,0.1c-0.4-0.1-0.8-0.4-1.1-0.7c-0.5-0.6-0.8-1.3-1.1-2
					c-0.3-0.7-0.5-1.5-0.8-2.3c-0.5-1.1-0.9-1.6-1.6-2.6c-0.4-0.5-0.9-1-1.7-1.4c-1.9-0.9-2.6,6.3-2.7,7.3c-0.2,2.2-0.6,4.1,0.2,6.2
					c0.3,0.8,0.9,1.6,0.8,2.5c-0.1,1.3-2.6,4.7-3.5,6c-0.4,0.6-0.9,1.3-1.2,1.9c-1.5,2.5-4.8,3.6-7.8,3.9c-5.5,0.5-11,0.5-16.5,0.9
					c-1.6,0.1-3.3,0.1-4.9,0.4c-1.9,0.4-3.9,0.8-5.7,1.6c-2.8,1.2-4.6,2.2-5.9,3.4c-8,2.8-7.8,10.7-12.6,15.8
					c-2,2.1-4.7,3.8-6.5,3.2c-1-0.3-1.6-0.7-2.1-0.5c-0.2,0.1-0.3,0.1-0.3,0.4c-0.1,0.3,0,0.4,0,0.7c0.3,3.3,2.9,6.5,10.3,4.1
					c4.1-1.3,5.2-3.6,6.6-6.9c-0.1,1.1-0.1,2.1-0.1,2.6c0,0.3-0.3,3.2-0.3,3.2c-0.5,0.6-1,1.4-1.6,1.9c-0.4,0.4-0.9,0.6-1.4,0.9
					c-0.3,0.2-0.6,0.3-0.8,0.6c-0.2,0.2-0.3,0.5-0.3,0.7c-0.1,0.4-0.1,0.8,0,1.2c0.1,1.7,0.3,3.5,0.5,5.2c0.1,0.9,0.4,1.7,0.5,2.6
					c0,0,0.8,2.7,0.9,2.8c0.1,0.2,1,1.9,1,1.9c0.4,0.2,0.8,0.4,1.3,0.5c0.5,0.1,1.1,0,1.7,0c0.3,0,0.5,0,0.8-0.1
					c0.2-0.1,0.2-0.3,0.4-0.4c0.2-0.1,0.4,0.1,0.6,0.1c0.3,0,0.6-0.1,0.8-0.3c0.2-0.2,0.1-0.5,0.1-0.8c0-0.3-0.1-0.6-0.2-0.9
					c-0.1-0.3-0.3-0.6-0.5-0.9c0,0-0.6-0.3-0.8-0.3c-0.2,0-1.4-0.1-1.4-0.1c-0.2-0.3-0.5-0.5-0.6-0.8c-0.2-0.5-0.2-1-0.3-1.5
					c-0.1-0.5-0.4-1-0.4-1.5c0-0.5,0-1,0.2-1.5c0.1-0.5,0.3-1.1,0.7-1.5c0.1-0.2,1.9-2.1,2.7-2.9c0,0.2,0.1,0.5,0.1,0.7
					c0.1,0.9,0.3,1.7,0.5,2.6c0,0,0.8,2.7,0.9,2.8c0.1,0.2,1,1.9,1,1.9c0.4,0.2,0.8,0.4,1.3,0.5c0.5,0.1,1.1,0,1.7,0
					c0.3,0,0.5,0,0.8-0.1c0.2-0.1,0.2-0.3,0.4-0.4c0.2-0.1,0.4,0.1,0.6,0.1c0.3,0,0.6-0.1,0.8-0.3c0.2-0.2,0.1-0.5,0.1-0.8
					c0-0.3-0.1-0.6-0.2-0.9c-0.1-0.3-0.3-0.6-0.5-0.9c0,0-0.6-0.3-0.8-0.3c-0.2,0-1.4-0.1-1.4-0.1c-0.2-0.3-0.5-0.5-0.6-0.8
					c-0.2-0.5-0.2-1-0.3-1.5c-0.1-0.5-0.4-1-0.4-1.5c0-0.5,0-1,0.2-1.5c0.1-0.5,0.3-1.1,0.7-1.5l0.6-0.7c3.1-1.3,6.2-2.7,9.8-6.4
					c0.6-0.6,4.1-5.3,4.2-5.3c1.6,0,9.9,10.8,20,5.3c0,0,0.7-0.6,0.6-0.1c-0.1,0.4,0.3,3,0.3,3c0.3,1.5,0.6,2.9,0.9,4.4
					c0,0,0.3,3.3,0.3,3.7c0,0.4,0.1,4,0.1,4c0,0.5,0,1.1,0.1,1.6c0.2,0.7,0.7,1.2,1,1.8c0.4,0.7,0.8,1.3,1.1,2
					c0.3,0.6,0.4,1.3,0.6,1.9c0.1,0.4,0.3,0.7,0.5,1.1c0.3,0.4,0.6,0.9,1,1.2c0.6,0.4,1.1,0.5,1.6,0.5c0.6,0.1,1.1,0,1.7,0.1
					c0.6,0.1,0.6,0.4,1.7,0.3c0.3,0,0.5-0.1,0.7-0.2c0.2-0.1,0.3-0.2,0.4-0.3c1.1,0.5,1.6-0.1,1.5-1.2c0,0-0.4-0.7-0.7-0.8
					c-0.3-0.2-1.4-0.9-1.4-0.9c-0.4-0.3-0.7-0.6-1.1-0.8c-0.3-0.2-0.7-0.2-1.1-0.2c0,0-0.3-0.2-0.4-0.3c-0.1-0.2-1.3-2-1.3-2
					c-0.3-0.6-0.8-1-1-1.7c-0.2-0.7,0-1.5,0-2.3c0-1.2,0.1-2.3,0.1-3.5c0-1.9-0.1-3.9,0-5.8c0-0.9,0-1.9,0.3-2.8
					c0.2-0.3,0.9-0.8,1.1-0.4c0.3,0.9-0.2,1.8-0.3,2.7c-0.1,1-0.2,2-0.2,3.1c0,0.8,0.1,1.7,0.1,2.5c0,0.5-0.1,1-0.1,1.6
					c-0.1,0.6-0.1,1.3-0.2,1.9c0,0.5,0,1,0.4,1.4c0.1,0.1,0.4,0.1,0.5,0.1c0,0,0.4,0.6,0.4,0.8c0.1,0.2,0.6,1,0.6,1.4
					c0.1,0.4,0.6,1.2,0.6,1.2c0.2,0.5,0.4,1.1,0.7,1.6c0.3,0.7,0.7,1.1,1.4,1.3c0.3,0.1,1.4,0.4,1.6,0.5c0.2,0.1,1.2,0.2,1.4,0.2
					c0.2,0,0.3,0,0.4,0c0.5-0.1,0.2-0.5,0.7-0.4c1,0.1,1.3,0.3,1.8-0.7c0.3-0.6,0.5-1-0.1-1.6c-0.3-0.3-0.7-0.4-1-0.6
					c-0.4-0.2-0.7-0.5-1.1-0.6c-0.5-0.1-1.1,0-1.6-0.1c-0.4-0.1-0.9-0.2-1.1-0.5c-0.6-1-1-2.1-1.3-3.2c-0.1-0.5-0.1-1,0-1.5
					c0.1-1,0.4-1.9,0.5-2.8c0.1-0.9,0.2-1.7,0.3-2.6c0.2-1.2,0.5-2.5,0.8-3.7c0.3-1.2,0.7-2.5,1.1-3.7c0.3-0.9,0.7-1.9,1.2-2.7
					c0.6-0.9,1.5-1.6,2.2-2.5c0.5-0.7,1.1-1.3,1.4-2.1c0.4-1.2,0.4-2.6,0.5-3.9c0.4-2.9,0.7-5,1.3-7.9c0,0,0.9-1.7,1-2.3
					c0.1-0.6,0.5-3,0.5-3c0.2-0.8,0.2-1.7,0.5-2.4c1-2.9,1-1,1-4.3c0-0.2-0.5-1.9-0.5-1.9c-0.1-0.5-0.3-1.1-0.3-1.6
					c0-0.5,0.1-1,0.1-1.5c0.1-0.4,0.2-0.7,0.3-1.1c0,0,0.3-1,0.4-1.3c0.1-0.3,0.7-1.9,0.7-1.9c0.1-0.5,0.3-1,0.3-1.5
					c0.1-0.6,0-1.1,0-1.7c0-0.5-0.1-1-0.1-1.5c0-0.7,0.2-1.3,0.2-2c0-0.9-0.2-1.9-0.4-2.8c-0.1-0.6-0.2-1.2-0.4-1.7
					c-0.1-0.4-0.3-0.8-0.5-1.2c-0.1-0.2-0.3-0.4-0.5-0.5c-0.2-0.1-0.4,0-0.6,0.1c-0.3,0.1-0.6,0.3-0.8,0.6c-1,0.9-1.3,1.6-1.9,2.7
					c-0.6,1.3-1.1,2.3-1.8,3.6c0,0-0.5,0.9-0.6,1C293.5,370.6,292.6,371.5,292.5,371.5z"/>
				<path class="st4" d="M266.1,334.9c-37.6,0-68.1,30.5-68.1,68.1c0,37.6,30.5,68.1,68.1,68.1c37.6,0,68.1-30.5,68.1-68.1
					C334.2,365.4,303.7,334.9,266.1,334.9L266.1,334.9z M230.7,360.3c9.6-7.9,21.9-12.7,35.4-12.7c30.6,0,55.5,24.8,55.5,55.5
					c0,13.4-4.8,25.8-12.7,35.4L230.7,360.3L230.7,360.3z M301.4,445.8c-9.6,7.9-21.9,12.7-35.4,12.7c-30.7,0-55.5-24.8-55.5-55.5
					c0-13.4,4.8-25.8,12.7-35.4L301.4,445.8z"/>
			</g>
			<g>
				<path class="st10" d="M98.2,462.5c32.8,0,59.5-26.7,59.5-59.5c0-32.8-26.7-59.5-59.5-59.5S38.7,370.3,38.7,403
					C38.7,435.8,65.4,462.5,98.2,462.5z"/>
				<g>
					<path class="st1" d="M97.6,426.3c-5-1.5-10-3-15-4.5c-1.1-1.7-2.7-4.2-3.3-5c-4.6-7-8.1-17.7-4.1-25.7
						c2.1-4.3,8.5-9.2,12.9-15.2c0.8-1.1,1.5-2.2,2.1-3.3c1.6-2.8,3.7-8.2,3.5-12.5c-0.2-3.8-1-3.3-2.1-5.4c16,5.8,22.8,20,18.7,36
						c-0.4,1.6-2.7,6.1-5.2,10.1C97.5,413.2,95.7,411.7,97.6,426.3z"/>
					<path class="st1" d="M101.4,416.4c2.2-8.3,8.2-9.4,12-20.3c1-2.8,1.1-7.3,1.4-10.4c13.4,11.4,7.7,23.8,0.4,36.2
						c-4.6,1.5-9.2,3-13.8,4.6C101,423.3,100.6,419.4,101.4,416.4z"/>
					<polygon class="st1" points="124.5,435.2 71.7,422.3 71.7,433.6 124.5,446.5 					"/>
					<polygon class="st1" points="98.8,441.5 78.1,436.4 71.8,438 71.8,448.1 					"/>
					<polygon class="st1" points="102.4,428.3 123.4,433.5 124.5,433.2 124.5,422.9 					"/>
				</g>
				<path class="st4" d="M98.2,334.9c-37.6,0-68.1,30.5-68.1,68.1c0,37.6,30.5,68.1,68.1,68.1c37.6,0,68.1-30.5,68.1-68.1
					C166.3,365.4,135.8,334.9,98.2,334.9L98.2,334.9z M62.9,360.3c9.6-7.9,21.9-12.7,35.4-12.7c30.7,0,55.5,24.8,55.5,55.5
					c0,13.4-4.8,25.8-12.7,35.4L62.9,360.3L62.9,360.3z M133.6,445.8c-9.6,7.9-21.9,12.7-35.4,12.7c-30.7,0-55.5-24.8-55.5-55.5
					c0-13.4,4.8-25.8,12.7-35.4L133.6,445.8z"/>
			</g>
			<g>
				<path class="st10" d="M433.9,465.2c32.8,0,59.5-26.7,59.5-59.5c0-32.8-26.7-59.5-59.5-59.5c-32.8,0-59.5,26.7-59.5,59.5
					C374.4,438.5,401.1,465.2,433.9,465.2z"/>
				<g>
					<g>
						<rect x="401.8" y="414.6" class="st1" width="78.9" height="12.8"/>
						<rect x="395.8" y="414.6" class="st1" width="3.8" height="12.8"/>
						<rect x="388.3" y="414.6" class="st1" width="3.8" height="12.8"/>
					</g>
					<path class="st1" d="M456.4,379.3c0.4-1.8,0.6-3.6,0.6-5.3c0-10.2-7.7-15.2-23.1-15.2c-2.5,0-4.9,0.2-7.2,0.4
						c14.4,1.2,21.5,6,21.5,14.4c0,0.8-0.1,1.6-0.2,2.4c-3.7,21.1-58.9,5.7-62.8,23.3c-0.3,0.9-0.4,1.7-0.4,2.6c0,3.7,1.6,6.7,4.6,9
						c-1-1.7-1.6-3.4-1.6-4.8c0-0.8,0.2-1.4,0.5-2.1c1.2-2.5,4.5-4.2,9.8-5.1C415.6,395.9,451.2,401.2,456.4,379.3z"/>
				</g>
				<path class="st4" d="M433.9,337.6c-37.6,0-68.1,30.5-68.1,68.1c0,37.6,30.5,68.1,68.1,68.1c37.6,0,68.1-30.5,68.1-68.1
					C502,368.1,471.5,337.6,433.9,337.6L433.9,337.6z M398.5,363c9.6-7.9,21.9-12.7,35.4-12.7c30.7,0,55.5,24.8,55.5,55.5
					c0,13.4-4.8,25.8-12.7,35.4L398.5,363L398.5,363z M469.2,448.5c-9.6,7.9-21.9,12.7-35.4,12.7c-30.7,0-55.5-24.8-55.5-55.5
					c0-13.4,4.8-25.8,12.7-35.4L469.2,448.5z"/>
			</g>
			<g>
				<path class="st10" d="M601.7,465.8c32.8,0,59.5-26.7,59.5-59.5c0-32.8-26.7-59.5-59.5-59.5c-32.8,0-59.5,26.7-59.5,59.5
					C542.2,439.1,568.9,465.8,601.7,465.8z"/>
				<g>
					<path class="st1" d="M590.7,453.4c-2.6-20.4-0.7-41.6,10.9-64.5c0.8,0.6,1.7,1.1,2.7,1.4c-12.7,20.3-15,40.7-12.4,62.9
						L590.7,453.4z"/>
					<g>
						<path class="st1" d="M590.3,367c2.8-3.4,7.8-3.8,11.2-1c2.3,1.9,3.2,4.7,2.8,7.4c-1.6,0.5-3,1.4-4.1,2.8
							c-0.9,1.1-1.5,2.3-1.8,3.6c-2.4,0.6-5,0.1-7-1.6C587.9,375.4,587.5,370.4,590.3,367z"/>
						<path class="st1" d="M587.6,392.7c-2.2-3.8-0.9-8.7,2.8-10.9c2.4-1.4,5.3-1.4,7.6-0.2c-0.1,2.6,1,5.3,3.2,7.1
							c0.4,0.3,0.7,0.6,1.1,0.8c-0.2,2.5-1.6,4.8-3.9,6.1C594.7,397.7,589.8,396.5,587.6,392.7z"/>
						<path class="st1" d="M610.9,403.8c-4.3,0.8-8.5-2.1-9.2-6.4c-0.5-2.7,0.5-5.4,2.3-7.2c2.9,1,6.2,0.4,8.6-1.6
							c2.4,1,4.2,3.2,4.7,5.9C618.1,398.8,615.2,403,610.9,403.8z"/>
						<path class="st1" d="M628.6,385.3c-0.7,4.3-4.8,7.2-9.2,6.5c-2.6-0.4-4.7-2.1-5.8-4.4c2.1-2.6,2.5-6,1.3-8.8
							c1.8-1.9,4.4-2.9,7.2-2.4C626.4,376.9,629.3,381,628.6,385.3z"/>
						<path class="st1" d="M617.3,362c3.8,2.2,5.1,7,3,10.8c-1.3,2.3-3.6,3.7-6,4c-0.5-0.7-1-1.3-1.6-1.8c-1.8-1.5-3.9-2.1-6-2
							c-1.4-2.4-1.5-5.4-0.1-8C608.6,361.2,613.5,359.8,617.3,362z"/>
					</g>
					<path class="st1" d="M564.7,400.7c15.2-6.4,24.2,8.2,25.5,15.9l-0.1,0l0,0c-4.3-8.1-10.7-12.4-18.4-14.7
						c7.7,2.8,13.5,7.5,16.4,14.8C563.4,416.9,576.7,406.7,564.7,400.7z"/>
					<path class="st1" d="M624.2,410.8c-19.2-8-30.5,10.4-32.1,20l0.2,0l0,0c5.4-10.2,13.5-15.7,23.1-18.6
						c-9.7,3.5-17,9.4-20.7,18.7C625.7,431.3,609,418.4,624.2,410.8z"/>
				</g>
				<path class="st4" d="M601.7,338.2c-37.6,0-68.1,30.5-68.1,68.1s30.5,68.1,68.1,68.1c37.6,0,68.1-30.5,68.1-68.1
					S639.3,338.2,601.7,338.2L601.7,338.2z M566.4,363.5c9.6-7.9,21.9-12.7,35.4-12.7c30.7,0,55.5,24.8,55.5,55.5
					c0,13.4-4.8,25.8-12.7,35.4L566.4,363.5L566.4,363.5z M637.1,449.1c-9.6,7.9-21.9,12.7-35.4,12.7c-30.7,0-55.5-24.8-55.5-55.5
					c0-13.4,4.8-25.8,12.7-35.4L637.1,449.1z"/>
			</g>
		</g>
	</g>
	<path class="st3" d="M1544.8,604.5l36.7,63.5c0.6,1.1,0.6,2.3,0,3.4c-0.6,1.1-1.7,1.7-2.9,1.7h-73.4c-1.3,0-2.3-0.6-3-1.7
		c-0.6-1.1-0.6-2.3,0-3.4l36.7-63.5c0.6-1.1,1.7-1.7,3-1.7C1543.1,602.7,1544.2,603.4,1544.8,604.5z"/>
	<path class="st1" d="M1547.1,603.1l36.7,63.5c0.6,1,0.8,2,0.8,3c0,1-0.3,2.1-0.8,3c-0.5,0.9-1.3,1.7-2.2,2.2
		c-0.9,0.5-1.9,0.8-3,0.8h-73.4c-1.1,0-2.1-0.3-3-0.8c-0.9-0.5-1.7-1.3-2.2-2.2c0-0.1-0.1-0.1-0.1-0.2c-0.5-0.9-0.7-1.9-0.7-2.8
		c0-1,0.3-2.1,0.8-3l0,0l0,0l36.7-63.5c0.5-1,1.3-1.7,2.2-2.2c0.9-0.5,1.9-0.8,3-0.8c1.1,0,2.1,0.3,3,0.8
		C1545.8,601.4,1546.6,602.2,1547.1,603.1L1547.1,603.1z M1579.2,669.3l-36.7-63.5c-0.1-0.1-0.2-0.2-0.3-0.3
		c-0.1-0.1-0.2-0.1-0.4-0.1c-0.2,0-0.3,0-0.4,0.1c-0.1,0.1-0.2,0.2-0.3,0.3l-36.7,63.5l0,0c-0.1,0.1-0.1,0.2-0.1,0.4
		c0,0.1,0,0.2,0.1,0.3l0,0.1c0.1,0.1,0.2,0.2,0.3,0.3c0.1,0.1,0.2,0.1,0.4,0.1h73.4c0.2,0,0.3,0,0.4-0.1c0.1-0.1,0.2-0.2,0.3-0.3
		c0.1-0.1,0.1-0.2,0.1-0.4C1579.3,669.6,1579.3,669.4,1579.2,669.3z"/>
	<path class="st3" d="M1502.9,665.9L1502.9,665.9l-1.1,1.8c-0.3,0.6-0.5,1.3-0.5,2c0,0.6,0.2,1.3,0.5,1.8l0,0l0,0c0,0,0,0,0,0
		c0.3,0.6,0.8,1.1,1.4,1.4c0.6,0.3,1.3,0.5,2,0.5h73.4c0.7,0,1.4-0.2,2-0.5c0.6-0.3,1.1-0.8,1.4-1.4c0.3-0.6,0.5-1.3,0.5-2
		c0-0.7-0.2-1.4-0.5-2l-36.7-63.5c-0.3-0.6-0.8-1.1-1.4-1.4c-0.6-0.3-1.3-0.5-2-0.5c-0.7,0-1.4,0.2-2,0.5c-0.6,0.3-1.1,0.8-1.4,1.4
		L1502.9,665.9L1502.9,665.9z M1503.8,666.4l35.6-61.7c0.3-0.4,0.6-0.8,1.1-1.1c0.4-0.3,0.9-0.4,1.4-0.4c0.5,0,1,0.1,1.4,0.4
		c0.4,0.3,0.8,0.6,1.1,1.1l36.7,63.5c0.3,0.4,0.4,0.9,0.4,1.4c0,0.5-0.1,1-0.4,1.4c-0.3,0.4-0.6,0.8-1.1,1.1
		c-0.4,0.3-0.9,0.4-1.4,0.4h-73.4c-0.5,0-1-0.1-1.4-0.4c-0.4-0.3-0.8-0.6-1-1l-0.1-0.2l-0.1-0.1c-0.2-0.4-0.3-0.8-0.3-1.2
		c0-0.5,0.1-1,0.4-1.4L1503.8,666.4L1503.8,666.4z"/>
	<polygon class="st1" points="1543.7,661.2 1531.4,647 1531.4,647 1531.3,646.9 1531.3,646.8 1531.2,646.8 1531.2,646.7 
		1531.2,646.6 1531.2,646.6 1531.1,646.5 1531.1,646.4 1531.1,646.3 1531.1,646.3 1531.1,646.2 1531.1,646.1 1531.1,646 1531.1,637 
		1531.1,636.9 1531.1,636.8 1531.1,636.7 1531.1,636.6 1531.1,636.6 1531.1,636.5 1531.2,636.4 1531.2,636.3 1531.2,636.3 
		1531.2,636.2 1531.3,636.1 1531.3,636.1 1531.4,636 1531.4,635.9 1531.5,635.9 1531.5,635.8 1531.6,635.8 1531.6,635.7 
		1531.7,635.7 1531.8,635.6 1531.8,635.6 1531.9,635.5 1532,635.5 1532,635.5 1532.1,635.5 1532.2,635.4 1532.3,635.4 1532.3,635.4 
		1532.4,635.4 1532.5,635.4 1532.6,635.4 1532.7,635.4 1541.2,635.4 1541.3,635.4 1541.4,635.4 1541.5,635.4 1541.5,635.4 
		1541.6,635.4 1541.7,635.4 1541.8,635.5 1541.8,635.5 1541.9,635.5 1559.1,644.2 1559,644.2 1558.9,644.2 1558.8,644.1 
		1558.7,644.1 1558.6,644.1 1558.4,644 1558.3,644 1558.2,644 1558.1,644 1545.5,644 1545.4,644 1545.3,644 1545.1,644 1545,644.1 
		1544.9,644.1 1544.8,644.1 1544.7,644.2 1544.6,644.2 1544.5,644.2 1544.4,644.3 1544.3,644.4 1544.2,644.4 1544.1,644.5 
		1544,644.6 1543.9,644.6 1543.8,644.7 1543.7,644.8 1543.7,644.9 1543.6,645 1543.5,645.1 1543.5,645.2 1543.4,645.3 1543.4,645.4 
		1543.3,645.5 1543.3,645.6 1543.2,645.7 1543.2,645.8 1543.2,645.9 1543.2,646 1543.1,646.1 1543.1,646.3 1543.1,646.4 
		1543.1,659.7 1543.1,659.8 1543.1,659.9 1543.2,660 1543.2,660.2 1543.2,660.3 1543.2,660.4 1543.3,660.5 1543.3,660.6 
		1543.4,660.7 1543.4,660.8 1543.5,660.9 1543.5,661 1543.6,661.1 	"/>
	<path class="st1" d="M1545.5,643.7h12.1c0.8,0,1.4,0.3,1.9,0.8c0.5,0.5,0.8,1.2,0.8,1.9v12.7c0,0.8-0.3,1.5-0.8,1.9
		c-0.5,0.5-1.2,0.8-1.9,0.8h-12.1c-0.8,0-1.4-0.3-1.9-0.8c-0.5-0.5-0.8-1.2-0.8-1.9v-12.7c0-0.8,0.3-1.4,0.8-1.9
		C1544,644,1544.7,643.7,1545.5,643.7L1545.5,643.7z M1557.5,644.7h-12.1c-0.5,0-0.9,0.2-1.3,0.5c-0.3,0.3-0.5,0.8-0.5,1.3v12.7
		c0,0.5,0.2,0.9,0.5,1.3c0.3,0.3,0.8,0.5,1.3,0.5h12.1c0.5,0,0.9-0.2,1.3-0.5c0.3-0.3,0.5-0.8,0.5-1.3v-12.7c0-0.5-0.2-0.9-0.5-1.3
		C1558.5,644.9,1558,644.7,1557.5,644.7z"/>
	<polygon class="st11" points="1549.3,654.5 1547.7,652.4 1547.6,652.3 1547.6,652.2 1547.5,652 1547.4,651.9 1547.4,651.8 
		1547.3,651.7 1547.3,651.5 1547.3,651.4 1547.2,651.3 1547.2,651.1 1547.2,651 1547.2,650.8 1547.2,650.7 1547.2,650.6 
		1547.2,650.4 1547.2,650.3 1547.2,650.1 1547.3,650 1547.3,649.9 1547.3,649.7 1547.4,649.6 1547.4,649.5 1547.5,649.4 
		1547.6,649.2 1547.6,649.1 1547.7,649 1547.8,648.9 1547.9,648.8 1548,648.7 1548.1,648.6 1548.2,648.5 1548.3,648.4 1548.4,648.4 
		1548.5,648.3 1548.6,648.2 1548.8,648.2 1548.9,648.1 1549,648 1549.1,648 1549.3,648 1549.4,647.9 1549.6,647.9 1549.7,647.9 
		1549.8,647.9 1550,647.9 1550.1,647.9 1550.3,647.9 1550.4,647.9 1550.6,647.9 1550.7,648 1550.8,648 1551,648 1551.1,648.1 
		1553.5,649.1 1553.4,649.1 1553.2,649 1553.1,649 1552.9,648.9 1552.7,648.9 1552.5,648.9 1552.4,648.9 1552.2,648.9 1552,648.9 
		1551.8,648.9 1551.6,648.9 1551.5,648.9 1551.3,649 1551.1,649 1551,649.1 1550.8,649.1 1550.6,649.2 1550.5,649.3 1550.3,649.4 
		1550.2,649.5 1550.1,649.6 1549.9,649.7 1549.8,649.8 1549.7,649.9 1549.6,650 1549.4,650.1 1549.3,650.3 1549.2,650.4 
		1549.2,650.6 1549.1,650.7 1549,650.8 1548.9,651 1548.9,651.2 1548.8,651.3 1548.8,651.5 1548.7,651.7 1548.7,651.8 1548.7,652 
		1548.6,652.2 1548.6,652.4 1548.6,652.6 1548.7,652.7 1548.7,652.9 1548.7,653.1 1548.8,653.3 1548.8,653.4 1548.9,653.6 
		1548.9,653.8 1549,653.9 1549.1,654.1 1549.2,654.2 1549.2,654.4 	"/>
	<path class="st1" d="M1549,654.7l-1.6-2.1l0,0l-0.1-0.1l0,0l-0.1-0.1l0,0l-0.1-0.1l0,0l-0.1-0.1l0,0l-0.1-0.1l0,0l-0.1-0.1l0,0
		l0-0.1l0,0l0-0.1l0,0l0-0.1l0,0l0-0.1l0,0l0-0.1l0,0l0-0.1v0l0-0.1v0l0-0.1v0l0-0.1l0,0l0-0.1l0,0l0-0.1l0,0l0-0.1l0,0l0-0.1l0,0
		l0-0.1l0,0l0.1-0.1l0,0l0.1-0.1l0,0l0.1-0.1l0,0l0.1-0.1l0,0l0.1-0.1l0,0l0.1-0.1l0,0l0.1-0.1l0,0l0.1-0.1l0,0l0.1-0.1l0,0l0.1-0.1
		l0,0l0.1-0.1l0,0l0.1-0.1l0,0l0.1-0.1l0,0l0.1-0.1l0,0l0.1-0.1l0,0l0.1-0.1l0,0l0.1-0.1l0,0l0.1-0.1l0,0l0.1,0l0,0l0.1,0l0,0l0.1,0
		l0,0l0.1,0l0,0l0.1,0l0,0l0.1,0h0l0.1,0h0l0.1,0h0l0.1,0l0,0l0.1,0l0,0l0.1,0l0,0l0.1,0l0,0l0.1,0l0,0l0.1,0l0,0l0.1,0.1l0,0l2.4,1
		l0,0v0l0,0l-0.3,0.7l-0.2-0.1l-0.1,0l-0.1,0l-0.1,0l0,0l-0.2,0v0l-0.1,0l0,0l-0.2,0l0,0l-0.2,0l-0.2,0h0l-0.2,0l0,0l-0.1,0v0
		l-0.2,0l0,0l-0.1,0l-0.2,0l-0.1,0l-0.1,0.1l-0.1,0.1l0,0l-0.1,0.1l-0.1,0.1l0,0l-0.1,0.1l-0.1,0.1l0,0l-0.1,0.1l0,0l-0.1,0.1
		l-0.1,0.1l-0.1,0.1l-0.1,0.1l0,0l-0.1,0.1l0,0l-0.1,0.1l-0.1,0.1h0l-0.1,0.1l-0.1,0.1l0,0l-0.1,0.2l-0.1,0.1l0,0l0,0.1l0,0.2l0,0.1
		l0,0l0,0.2l0,0l0,0.1l0,0l0,0.2h0l0,0.2l0,0.2h0l0,0.2l0,0l0,0.1l0,0l0,0.2l0,0l0,0.1l0,0.2l0,0.1l0,0l0.1,0.1l0.1,0.1l0,0l0.1,0.1
		l0.1,0.1l0,0l0.1,0.1l0.1,0.1L1549,654.7L1549,654.7z M1548,652.1l0.2,0.3v0v0l0-0.2v0l0-0.2l0,0l0-0.2l0,0l0-0.2l0,0l0-0.2l0,0
		l0-0.2l0,0l0.1-0.2l0,0l0.1-0.2l0,0l0.1-0.2l0,0l0.1-0.2l0,0l0.1-0.1l0,0l0.1-0.1l0,0l0.1-0.1l0,0l0.1-0.1l0,0l0.1-0.1l0,0l0.1-0.1
		l0,0l0.1-0.1l0,0l0.1-0.1l0,0l0.1-0.1l0,0l0.1-0.1l0,0l0.1-0.1l0,0l0.1-0.1l0,0l0.2-0.1l0,0l0.2-0.1l0,0l0.2-0.1l0,0l0.2-0.1l0,0
		l0.2,0l0,0l-0.2-0.1l0,0l-0.1,0l-0.1,0l-0.1,0l-0.1,0l-0.1,0v0l-0.1,0l0,0l-0.1,0l0,0l-0.1,0l-0.1,0l0,0l-0.1,0l0,0l-0.1,0v0
		l-0.1,0l-0.1,0l-0.1,0l-0.1,0l-0.1,0l-0.1,0.1v0l-0.1,0l-0.1,0.1l0,0l-0.1,0.1l-0.1,0.1l0,0l-0.1,0.1v0l-0.1,0.1l-0.1,0.1l-0.1,0.1
		l-0.1,0.1l0,0l-0.1,0.1l0,0l-0.1,0.1l-0.1,0.1l0,0l-0.1,0.1l-0.1,0.1h0l-0.1,0.1l0,0.1l0,0.1l0,0.1l0,0.1l0,0l0,0.1h0l0,0.1l0,0
		l0,0.1l0,0l0,0.1l0,0.1l0,0l0,0.1l0,0l0,0.1h0l0,0.1l0,0l0,0.1l0,0.1l0,0.1l0,0.1l0.1,0.1h0l0.1,0.1l0.1,0.1l0,0L1548,652.1
		L1548,652.1z"/>
	<circle class="st1" cx="1552.2" cy="652.4" r="3.5"/>
	<path class="st1" d="M1552.2,648.4c1.1,0,2.1,0.4,2.8,1.2c0.7,0.7,1.2,1.7,1.2,2.8c0,1.1-0.4,2.1-1.2,2.8c-0.7,0.7-1.7,1.2-2.8,1.2
		c-1.1,0-2.1-0.4-2.8-1.2c-0.7-0.7-1.2-1.7-1.2-2.8c0-1.1,0.4-2.1,1.2-2.8C1550.1,648.9,1551.1,648.4,1552.2,648.4L1552.2,648.4z
		 M1554.4,650.2c-0.6-0.6-1.3-0.9-2.2-0.9c-0.9,0-1.6,0.3-2.2,0.9c-0.6,0.6-0.9,1.3-0.9,2.2c0,0.9,0.3,1.6,0.9,2.2
		c0.6,0.6,1.3,0.9,2.2,0.9c0.9,0,1.6-0.3,2.2-0.9c0.6-0.6,0.9-1.3,0.9-2.2C1555.3,651.5,1554.9,650.7,1554.4,650.2z"/>
	<path class="st1" d="M1538.3,650.2v5c0,1.2-0.5,2.3-1.3,3.1c-0.8,0.8-1.9,1.3-3.1,1.3h-24.4l0.9-3.2h23.5c0.3,0,0.6-0.1,0.8-0.3
		c0.2-0.2,0.3-0.5,0.3-0.8v-5H1538.3z"/>
</g>
</svg>
