<svg xmlns="http://www.w3.org/2000/svg" width="285.365" height="272.68" viewBox="0 0 285.365 272.68">
  <g id="shipping" transform="translate(0 -11.378)">
    <path id="Path_392" data-name="Path 392" d="M217.941,11.378H258.9V60.761H217.941Z" transform="translate(-96.456)" fill="#222"/>
    <path id="Path_393" data-name="Path 393" d="M217.941,134.067H258.9V159.4H217.941Z" transform="translate(-96.456 -54.299)" fill="#222"/>
    <path id="Path_394" data-name="Path 394" d="M27.275,134.067v90.651a28.735,28.735,0,0,1,15.825,8.8L74.478,267.58c.08.088.166.169.248.255V260.9a26.462,26.462,0,0,1,26.432-26.432H145.1c5.455.616,19.9-7.648,24.882-9.629a75.291,75.291,0,0,1,66.039,1.066l12.662,6.432c3.546-11.386,13.725-19.635,25.7-19.635h7.509V134.067H193.524V168.9a9.5,9.5,0,0,1-9.5,9.5H124.053a9.5,9.5,0,0,1-9.5-9.5V134.067Z" transform="translate(-12.071 -54.299)" fill="#222"/>
    <path id="Path_395" data-name="Path 395" d="M325.521,60.761h88.368V24.56c0-7.28-4.9-13.182-10.954-13.182H325.521Z" transform="translate(-144.068)" fill="#222"/>
    <path id="Path_396" data-name="Path 396" d="M464.193,309.24c-4.435,0-8.043,4.257-8.043,9.49v84.953c0,5.233,3.608,9.49,8.043,9.49H479.2c4.435,0,8.043-4.257,8.043-9.49V318.73c0-5.233-3.608-9.49-8.043-9.49Z" transform="translate(-201.882 -131.827)" fill="#222"/>
    <path id="Path_397" data-name="Path 397" d="M114.55,11.378H36.378c-5.027,0-9.1,4.9-9.1,10.955V60.761H114.55Z" transform="translate(-12.071)" fill="#222"/>
    <path id="Path_398" data-name="Path 398" d="M17.05,327.932c-8.4-8.4-22.691,2.579-14.7,12.345l42.806,51.893a75.98,75.98,0,0,0,58.8,27.721h48.415a231.057,231.057,0,0,0,53.454-6.276l29.439-7.041V334.507L215.36,324.4a56.377,56.377,0,0,0-49.439-.787l-16.927,7.87a38.134,38.134,0,0,1-15.968,3.53H89.086a7.434,7.434,0,0,0-7.425,7.425v14.4H167.01a9.5,9.5,0,0,1,0,19.007H80.017a43.714,43.714,0,0,1-31.59-13.849Z" transform="translate(0 -135.832)" fill="#222"/>
  </g>
</svg>
