<svg xmlns="http://www.w3.org/2000/svg" xmlns:xlink="http://www.w3.org/1999/xlink" width="635" height="486" viewBox="0 0 635 486">
  <defs>
    <radialGradient id="radial-gradient" cx="0.5" cy="0.5" r="0.5" gradientUnits="objectBoundingBox">
      <stop offset="0" stop-color="#eead82"/>
      <stop offset="1" stop-color="#ef8843"/>
    </radialGradient>
    <linearGradient id="linear-gradient" x1="1.338" y1="-0.112" x2="2.306" y2="-0.112" gradientUnits="objectBoundingBox">
      <stop offset="0" stop-color="#e37355"/>
      <stop offset="1" stop-color="#e88d50"/>
    </linearGradient>
    <linearGradient id="linear-gradient-2" x1="1.116" y1="-0.013" x2="0.355" y2="0.86" gradientUnits="objectBoundingBox">
      <stop offset="0" stop-color="#de7256"/>
      <stop offset="1" stop-color="#ef8843"/>
    </linearGradient>
    <linearGradient id="linear-gradient-3" x1="22.212" y1="0.39" x2="20.268" y2="1.37" gradientUnits="objectBoundingBox">
      <stop offset="0" stop-color="#2b3582"/>
      <stop offset="1" stop-color="#150e42"/>
    </linearGradient>
    <linearGradient id="linear-gradient-4" x1="0.756" y1="0.133" x2="1.352" y2="-0.71" gradientUnits="objectBoundingBox">
      <stop offset="0" stop-color="#0067b4"/>
      <stop offset="1" stop-color="#0073b4"/>
    </linearGradient>
    <linearGradient id="linear-gradient-5" x1="0.199" y1="-0.129" x2="0.989" y2="1.517" gradientUnits="objectBoundingBox">
      <stop offset="0" stop-color="#53d8ff"/>
      <stop offset="1" stop-color="#3840f7"/>
    </linearGradient>
    <linearGradient id="linear-gradient-6" x1="0.059" y1="0.174" x2="-1.083" y2="1.241" xlink:href="#linear-gradient-5"/>
    <linearGradient id="linear-gradient-7" x1="1.038" y1="-0.323" x2="-0.653" y2="2.245" xlink:href="#linear-gradient-5"/>
    <linearGradient id="linear-gradient-8" x1="13.302" y1="-0.098" x2="6.955" y2="2.295" gradientUnits="objectBoundingBox">
      <stop offset="0" stop-color="#fdf53f"/>
      <stop offset="1" stop-color="#d93c65"/>
    </linearGradient>
    <linearGradient id="linear-gradient-9" x1="2.937" y1="-4.35" x2="-0.447" y2="2.384" xlink:href="#linear-gradient-8"/>
    <linearGradient id="linear-gradient-10" x1="-17.209" y1="0.5" x2="-16.209" y2="0.5" xlink:href="#linear-gradient-3"/>
    <linearGradient id="linear-gradient-11" x1="-61.167" y1="0.5" x2="-60.167" y2="0.5" gradientUnits="objectBoundingBox">
      <stop offset="0" stop-color="#f9b776"/>
      <stop offset="1" stop-color="#f47960"/>
    </linearGradient>
    <linearGradient id="linear-gradient-12" x1="-36.796" y1="0.5" x2="-35.796" y2="0.5" xlink:href="#linear-gradient-3"/>
    <linearGradient id="linear-gradient-13" x1="-60.417" y1="0.5" x2="-59.417" y2="0.5" xlink:href="#linear-gradient-11"/>
    <linearGradient id="linear-gradient-14" x1="1.445" y1="-0.324" x2="0.99" y2="0.063" gradientUnits="objectBoundingBox">
      <stop offset="0" stop-color="#2b3582"/>
      <stop offset="0.546" stop-color="#1f205f"/>
      <stop offset="1" stop-color="#150e42"/>
    </linearGradient>
    <linearGradient id="linear-gradient-15" x1="2.358" y1="-1.364" x2="0.976" y2="-0.015" xlink:href="#linear-gradient-8"/>
    <linearGradient id="linear-gradient-16" x1="-31.726" y1="1.478" x2="-31.454" y2="0.434" xlink:href="#linear-gradient-11"/>
    <linearGradient id="linear-gradient-17" x1="-21.959" y1="0.35" x2="-23.071" y2="1.106" xlink:href="#linear-gradient-11"/>
    <linearGradient id="linear-gradient-18" x1="-19.125" y1="0.112" x2="-18.264" y2="1.221" xlink:href="#linear-gradient-3"/>
    <linearGradient id="linear-gradient-19" x1="-93.465" y1="-0.685" x2="-98.016" y2="1.784" xlink:href="#linear-gradient-11"/>
    <linearGradient id="linear-gradient-20" x1="-0.626" y1="-0.38" x2="1.374" y2="1.843" xlink:href="#linear-gradient-8"/>
    <linearGradient id="linear-gradient-21" x1="-68.225" y1="-0.166" x2="-86.269" y2="3.358" xlink:href="#linear-gradient-3"/>
    <linearGradient id="linear-gradient-22" x1="-84.122" y1="-0.086" x2="-106.886" y2="3.376" xlink:href="#linear-gradient-3"/>
    <linearGradient id="linear-gradient-23" x1="-72.489" y1="-0.015" x2="-92.707" y2="3.448" xlink:href="#linear-gradient-3"/>
    <linearGradient id="linear-gradient-24" x1="-46.432" y1="0.121" x2="-60.126" y2="3.397" xlink:href="#linear-gradient-3"/>
    <linearGradient id="linear-gradient-25" x1="-105.268" y1="0.174" x2="-137.275" y2="3.699" xlink:href="#linear-gradient-3"/>
    <linearGradient id="linear-gradient-26" x1="-64.755" y1="0.227" x2="-84.969" y2="3.744" xlink:href="#linear-gradient-3"/>
    <linearGradient id="linear-gradient-27" x1="-46.795" y1="-0.19" x2="-58.79" y2="2.95" xlink:href="#linear-gradient-3"/>
    <linearGradient id="linear-gradient-28" x1="-0.235" y1="-0.38" x2="1.765" y2="1.843" xlink:href="#linear-gradient-8"/>
    <linearGradient id="linear-gradient-29" x1="-39.851" y1="-0.166" x2="-57.893" y2="3.358" xlink:href="#linear-gradient-3"/>
    <linearGradient id="linear-gradient-30" x1="-48.327" y1="-0.086" x2="-71.091" y2="3.376" xlink:href="#linear-gradient-3"/>
    <linearGradient id="linear-gradient-31" x1="-40.699" y1="-0.015" x2="-60.918" y2="3.448" xlink:href="#linear-gradient-3"/>
    <linearGradient id="linear-gradient-32" x1="-24.898" y1="0.121" x2="-38.593" y2="3.397" xlink:href="#linear-gradient-3"/>
    <linearGradient id="linear-gradient-33" x1="-54.94" y1="0.174" x2="-86.947" y2="3.699" xlink:href="#linear-gradient-3"/>
    <linearGradient id="linear-gradient-34" x1="-32.972" y1="0.227" x2="-53.186" y2="3.744" xlink:href="#linear-gradient-3"/>
    <linearGradient id="linear-gradient-35" x1="-27.933" y1="-0.19" x2="-39.928" y2="2.95" xlink:href="#linear-gradient-3"/>
    <linearGradient id="linear-gradient-36" x1="44.209" y1="0.352" x2="48.457" y2="6.549" xlink:href="#linear-gradient-11"/>
    <linearGradient id="linear-gradient-37" x1="7.186" y1="-1.478" x2="1.21" y2="0.251" xlink:href="#linear-gradient-8"/>
    <linearGradient id="linear-gradient-38" x1="-11.877" y1="-0.752" x2="-12.23" y2="0.28" xlink:href="#linear-gradient-11"/>
    <linearGradient id="linear-gradient-39" x1="1.344" y1="-4.334" x2="0.773" y2="-1.249" xlink:href="#linear-gradient-11"/>
    <clipPath id="clip-slide02">
      <rect width="635" height="486"/>
    </clipPath>
  </defs>
  <g id="slide02" clip-path="url(#clip-slide02)">
    <rect width="635" height="486" fill="#fff"/>
    <rect id="Rectangle_1" data-name="Rectangle 1" width="635" height="486" fill="url(#radial-gradient)"/>
    <g id="Group_126" data-name="Group 126" transform="translate(265.974 78.363)">
      <path id="Path_403" data-name="Path 403" d="M265.849,272.614a71.493,71.493,0,0,1-12.557,10.192c-32.519,21.713-69.692,15.455-81.185,13.316-18.542-3.451-34.195-5.886-47.643-18.036-30.558-27.608-29.072-85.2-5.722-120.877,2.769-4.23,26.084-38.79,63.337-43.66.911-.119,1.591-.187,2.186-.25,5.763-.61,41.475-3.831,70.595,20.566a86.871,86.871,0,0,1,17.1,19.4C294.7,188.392,294.776,242.8,265.849,272.614Z" transform="translate(0 -42.252)" fill="#fff" opacity="0.15"/>
      <g id="Group_111" data-name="Group 111" transform="translate(235.104 85.421)">
        <path id="Path_404" data-name="Path 404" d="M2495.923,520.32c-9.344-1.827-16.495-15.775-15.815-27.52.7-12.086,9.225-13.761,15.216-28.466,6.805-16.7-.837-22.789,2.676-47.634.793-5.606,5.379-38.044,16.931-39.725,10.681-1.554,28.793,22.973,25.33,43.4-2.469,14.566-14.09,16.326-16.917,33.31-2.481,14.9,5.645,18.477,3.383,32.909C2523.973,504.166,2508.191,522.718,2495.923,520.32Z" transform="translate(-2480.063 -376.906)" fill="url(#linear-gradient)"/>
        <path id="Path_405" data-name="Path 405" d="M2709.605,1110.952c9.723-17.014,16.592-46.608,20.643-68.438,4.386-23.635,6.5-43.514,6.526-43.712l-.805-.085c-.021.2-2.137,20.05-6.517,43.655-4.039,21.767-10.883,51.264-20.549,68.178Z" transform="translate(-2696.035 -963.755)" fill="#f0f0f0" style="mix-blend-mode: soft-light;isolation: isolate"/>
      </g>
      <g id="Group_112" data-name="Group 112" transform="translate(187.309 68.055)">
        <path id="Path_406" data-name="Path 406" d="M1651.434,192.657c-15.88-4.644-25.916-29.418-19.4-39.41,4.406-6.752,13.514-2.377,20-9.756,8.28-9.422-1.7-22.093,2.35-41.9,3.446-16.854,16.2-34.684,25.953-33.481,10.213,1.26,19.917,23.718,14.532,39.462-3.5,10.238-11.562,12.306-11.636,21.2-.085,10.316,10.722,12.868,12.682,22.464C1699.439,168.472,1672.443,198.8,1651.434,192.657Z" transform="translate(-1630.021 -68.055)" fill="url(#linear-gradient-2)"/>
        <path id="Path_407" data-name="Path 407" d="M2160.271,835.225a.6.6,0,0,1-.694-.738c11.28-43.1,7.825-89.826,7.789-90.293a.6.6,0,0,1,1.192-.092c.036.469,3.506,47.392-7.824,90.688A.6.6,0,0,1,2160.271,835.225Z" transform="translate(-2129.783 -705.57)" fill="url(#linear-gradient-3)"/>
        <path id="Path_408" data-name="Path 408" d="M2541.641,189.568a.286.286,0,0,1-.311-.408c4.489-8.926,8.86-21.865,4.189-32.818a20.424,20.424,0,0,0-7.561-9.3.285.285,0,1,1,.282-.5,20.64,20.64,0,0,1,7.8,9.573c2.625,6.156,4.027,16.931-4.2,33.3A.285.285,0,0,1,2541.641,189.568Z" transform="translate(-2486.771 -142.096)" fill="#f0f0f0" style="mix-blend-mode: soft-light;isolation: isolate"/>
        <path id="Path_409" data-name="Path 409" d="M1705.718,1579.263a.286.286,0,0,1-.255-.076c-11.936-11.672-17.163-21.483-15.536-29.161,1.447-6.827,8.018-9.348,8.084-9.372a.286.286,0,0,1,.2.535c-.063.024-6.35,2.444-7.727,8.963-1.578,7.473,3.6,17.1,15.378,28.627a.285.285,0,0,1-.144.484Z" transform="translate(-1686.285 -1457.838)" fill="#f0f0f0"/>
      </g>
      <g id="Group_115" data-name="Group 115" transform="translate(128.888 88.214)">
        <g id="Group_114" data-name="Group 114" transform="translate(0 0)">
          <path id="Path_410" data-name="Path 410" d="M590.99,598.561c0,37.725,31.739,68.307,70.891,68.307s72.644-31.919,72.644-69.644-33.492-66.971-72.644-66.971S590.99,560.836,590.99,598.561Z" transform="translate(-590.99 -524.425)" fill="url(#linear-gradient-4)"/>
          <g id="Group_113" data-name="Group 113" transform="translate(43.258 8.625)">
            <path id="Path_411" data-name="Path 411" d="M2988.328,1298.359a.5.5,0,0,0,.126-.016.471.471,0,0,0,.348-.578,60.216,60.216,0,0,0-2.9-8.138.5.5,0,0,0-.642-.25.466.466,0,0,0-.26.619,59.061,59.061,0,0,1,2.851,8.012A.488.488,0,0,0,2988.328,1298.359Z" transform="translate(-2893.618 -1249.456)" fill="#fff"/>
            <path id="Path_412" data-name="Path 412" d="M1444.224,607.528a.505.505,0,0,0,.294-.095.461.461,0,0,0,.1-.66c-13.134-16.783-34.291-26.8-56.594-26.8a69.7,69.7,0,0,0-27.382,5.529.466.466,0,0,0-.25.622.5.5,0,0,0,.645.242,68.667,68.667,0,0,1,26.987-5.45c22,0,42.861,9.879,55.812,26.425A.5.5,0,0,0,1444.224,607.528Z" transform="translate(-1360.346 -579.971)" fill="#fff"/>
          </g>
          <path id="Path_413" data-name="Path 413" d="M762.525,752.646c0,32.655,27.473,59.128,61.364,59.128s62.881-27.629,62.881-60.284-28.991-57.971-62.881-57.971S762.525,719.99,762.525,752.646Z" transform="translate(-752.88 -678.509)" fill="url(#linear-gradient-5)"/>
          <path id="Path_414" data-name="Path 414" d="M762.528,752.646c0-32.655,27.473-59.128,61.363-59.128a65.523,65.523,0,0,1,46.917,19.418l-47.27,37.9-9.718,60.142C784.723,806.346,762.528,782,762.528,752.646Z" transform="translate(-752.883 -678.509)" fill="url(#linear-gradient-6)"/>
          <path id="Path_415" data-name="Path 415" d="M911.072,776.323c0,29.471,25.309,53.362,56.53,53.362s57.928-24.935,57.928-54.405-26.707-52.318-57.928-52.318S911.072,746.853,911.072,776.323Z" transform="translate(-893.075 -706.297)" fill="url(#linear-gradient-7)"/>
          <path id="Path_416" data-name="Path 416" d="M2693.195,1609.716a4.665,4.665,0,0,0,4.991,4.28,4.617,4.617,0,0,0,4.442-4.809,4.665,4.665,0,0,0-4.991-4.28A4.617,4.617,0,0,0,2693.195,1609.716Z" transform="translate(-2574.987 -1538.646)" fill="#fff" opacity="0.78"/>
          <path id="Path_417" data-name="Path 417" d="M877.934,1711.522a4.665,4.665,0,0,0,4.991,4.28,4.617,4.617,0,0,0,4.442-4.809,4.665,4.665,0,0,0-4.991-4.28A4.616,4.616,0,0,0,877.934,1711.522Z" transform="translate(-861.793 -1634.728)" fill="#fff" opacity="0.78"/>
          <path id="Path_418" data-name="Path 418" d="M1952.778,2517.647a4.568,4.568,0,0,0-3.8,5.3,4.715,4.715,0,0,0,5.5,3.66,4.568,4.568,0,0,0,3.8-5.3A4.715,4.715,0,0,0,1952.778,2517.647Z" transform="translate(-1872.551 -2400.003)" fill="#fff" opacity="0.78"/>
          <path id="Path_419" data-name="Path 419" d="M1626.062,794.084a4.568,4.568,0,0,0-3.8,5.3,4.714,4.714,0,0,0,5.5,3.66,4.568,4.568,0,0,0,3.8-5.3A4.715,4.715,0,0,0,1626.062,794.084Z" transform="translate(-1564.205 -773.35)" fill="#fff" opacity="0.78"/>
          <path id="Path_420" data-name="Path 420" d="M1415.55,2534.777c-.48,1.167-.36,2.26.268,2.441s1.527-.618,2.007-1.785.36-2.26-.268-2.441S1416.03,2533.61,1415.55,2534.777Z" transform="translate(-1368.91 -2414.531)" fill="#fff" opacity="0.78"/>
          <path id="Path_421" data-name="Path 421" d="M2145.831,899.977c-.48,1.167-.36,2.26.268,2.441s1.526-.619,2.006-1.786.36-2.26-.268-2.441S2146.311,898.81,2145.831,899.977Z" transform="translate(-2058.13 -871.65)" fill="#fff" opacity="0.78"/>
          <path id="Path_422" data-name="Path 422" d="M1018.237,2241.585c-1.039.758-1.526,1.751-1.086,2.22s1.638.235,2.677-.522,1.526-1.751,1.086-2.22S1019.276,2240.828,1018.237,2241.585Z" transform="translate(-993.036 -2138.813)" fill="#fff" opacity="0.78"/>
          <path id="Path_423" data-name="Path 423" d="M2523.288,1209.781c-1.039.757-1.525,1.751-1.086,2.22s1.638.235,2.677-.522,1.525-1.751,1.086-2.22S2524.327,1209.024,2523.288,1209.781Z" transform="translate(-2413.463 -1165.023)" fill="#fff" opacity="0.78"/>
          <path id="Path_424" data-name="Path 424" d="M947.887,1322.4c-1.176-.54-2.316-.5-2.545.094s.538,1.509,1.714,2.049,2.316.5,2.546-.094S949.064,1322.944,947.887,1322.4Z" transform="translate(-925.379 -1271.677)" fill="#fff" opacity="0.78"/>
          <path id="Path_425" data-name="Path 425" d="M2591.79,2133.983c-1.177-.54-2.316-.5-2.545.094s.538,1.509,1.714,2.049,2.316.5,2.546-.094S2592.966,2134.523,2591.79,2133.983Z" transform="translate(-2476.851 -2037.624)" fill="#fff" opacity="0.78"/>
          <path id="Path_426" data-name="Path 426" d="M1296.209,960.813c-.714-1.05-1.711-1.584-2.226-1.193s-.353,1.559.361,2.609,1.711,1.584,2.226,1.193S1296.923,961.863,1296.209,960.813Z" transform="translate(-1254.171 -929.528)" fill="#fff" opacity="0.78"/>
          <path id="Path_427" data-name="Path 427" d="M2263.829,2476.873c-.714-1.05-1.711-1.583-2.226-1.193s-.353,1.559.361,2.609,1.711,1.584,2.226,1.193S2264.543,2477.923,2263.829,2476.873Z" transform="translate(-2167.385 -2360.345)" fill="#fff" opacity="0.78"/>
          <path id="Path_428" data-name="Path 428" d="M1861.49,1710.671l37.952,18.238a1.084,1.084,0,0,0,1.571-.969l-.149-4.708a1.09,1.09,0,0,1,1.8-.817l27.44,23.28a1.049,1.049,0,0,1-.945,1.809l-35.342-7.271a1.035,1.035,0,0,1-.536-1.769l4.138-3.932a1.026,1.026,0,0,0-.221-1.653l-36.738-20.365a1.027,1.027,0,0,1-.412-1.408h0A1.108,1.108,0,0,1,1861.49,1710.671Z" transform="translate(-1788.571 -1638.367)" fill="#de5760"/>
          <path id="Path_429" data-name="Path 429" d="M2567.335,2222.58a.923.923,0,0,0,.833-.51.868.868,0,0,0-.246-1.091l-6-4.783a.5.5,0,0,0-.689.064.46.46,0,0,0,.065.664l6,4.783c-8-1.761-26.74-5.7-27.129-5.733a.487.487,0,0,0-.537.421.476.476,0,0,0,.427.516c.561.087,14.922,3.094,27.068,5.646A1.013,1.013,0,0,0,2567.335,2222.58Z" transform="translate(-2430.065 -2115.36)" fill="#fff"/>
          <path id="Path_430" data-name="Path 430" d="M1692.813,497.09l.075-35.755a1.087,1.087,0,0,0-1.615-.9L1687,462.729a1.076,1.076,0,0,1-1.583-1.167l8.83-34.186a1.1,1.1,0,0,1,2.1-.024l9.557,33.582a1.069,1.069,0,0,1-1.384,1.272L1699,460.474a1.082,1.082,0,0,0-1.421.949l-2.594,35.7a1.07,1.07,0,0,1-1.108,1h0A1.067,1.067,0,0,1,1692.813,497.09Z" transform="translate(-1623.853 -426.581)" fill="url(#linear-gradient-8)"/>
          <path id="Path_431" data-name="Path 431" d="M1825.925,525.054a.505.505,0,0,0,.179-.032.467.467,0,0,0,.281-.6c-.178-.518-4.013-14.188-7.248-25.755a.945.945,0,0,0-1.82.045l-1.645,7.338a.471.471,0,0,0,.375.56.49.49,0,0,0,.582-.361l1.646-7.338c2.058,7.656,7.053,25.5,7.2,25.847A.489.489,0,0,0,1825.925,525.054Z" transform="translate(-1746.801 -493.981)" fill="#fff"/>
          <ellipse id="Ellipse_1" data-name="Ellipse 1" cx="5.046" cy="4.862" rx="5.046" ry="4.862" transform="translate(66.28 67.563)" fill="url(#linear-gradient-9)"/>
        </g>
      </g>
      <g id="Group_125" data-name="Group 125" transform="translate(117.455 91.768)">
        <path id="Path_432" data-name="Path 432" d="M921.748,3381.631c3.261.282,8.921.74,13.384.936a12.883,12.883,0,0,0,5.116-.5c0,.1,0,.2-.008.283a.923.923,0,0,1-.877.872,156.764,156.764,0,0,1-17.524.018.657.657,0,0,1-.535-.988A5.365,5.365,0,0,1,921.748,3381.631Z" transform="translate(-891.21 -3219.032)" fill="#0067b4"/>
        <path id="Path_433" data-name="Path 433" d="M944.155,3272.03c-4.462-.2-10.122-.654-13.384-.936,3.206-3.934,13.384-6.585,13.384-6.585h2.874a12.053,12.053,0,0,1,2.242,7.021A12.88,12.88,0,0,1,944.155,3272.03Z" transform="translate(-900.233 -3108.494)" fill="url(#linear-gradient-10)"/>
        <path id="Path_434" data-name="Path 434" d="M1138.522,3181.05l-.269,5.323a1.216,1.216,0,0,1-1.038,1.144,4.734,4.734,0,0,1-2.159-.179,1.439,1.439,0,0,1-.967-1.105l-.929-5.182Z" transform="translate(-1091.243 -3029.729)" fill="url(#linear-gradient-11)"/>
        <g id="Group_116" data-name="Group 116" transform="translate(72.255 152.961)">
          <path id="Path_435" data-name="Path 435" d="M1739.282,3453.582a2.806,2.806,0,0,0,2.323-2.219c0,.009,0,.018.005.027a2.53,2.53,0,0,1-1.239,2.708,6.452,6.452,0,0,1-3.429.694,3.172,3.172,0,0,1-2.571-1.533l-.008-.014C1735.427,3453.927,1736.923,3454.007,1739.282,3453.582Z" transform="translate(-1730.896 -3437.803)" fill="#0067b4"/>
          <path id="Path_436" data-name="Path 436" d="M1674.438,3210.207h2.37c3.611-.1,5.878,9.747,6.62,13.559a2.806,2.806,0,0,1-2.323,2.219c-2.359.425-3.854.345-4.92-.337-1.951-3.317-2.918-8.176-3.383-11.012C1672.275,3211.412,1674.438,3210.207,1674.438,3210.207Z" transform="translate(-1672.72 -3210.207)" fill="url(#linear-gradient-12)"/>
        </g>
        <path id="Path_437" data-name="Path 437" d="M1655.248,3122.349l1.316,5.235a1.421,1.421,0,0,1-.739,1.61,5.044,5.044,0,0,1-2.726.66,1.187,1.187,0,0,1-.968-.792l-1.932-5.508Z" transform="translate(-1579.209 -2974.328)" fill="url(#linear-gradient-13)"/>
        <path id="Path_438" data-name="Path 438" d="M916.49,1871.1s11.763,73.528,11.569,73.932a9.786,9.786,0,0,0,6.791.188s-1.064-39.306-3.556-54.377c0,0,20.075,35.132,26.45,52.637a15.936,15.936,0,0,0,6.077-2.208s-21.615-63.236-27.382-71.659Z" transform="translate(-886.755 -1792.035)" fill="url(#linear-gradient-14)"/>
        <path id="Path_439" data-name="Path 439" d="M429.4,980.061a9.166,9.166,0,0,0-2.464.486c-8.621,2.987-15.391,2.236-20.6-.116a23.079,23.079,0,0,0-4,10.531c9.474,7.051,21.387,5.193,25.284,4.322-1.02,7.568-1.01,19.539,3.155,37.089a1.1,1.1,0,0,0,.979.838,72.157,72.157,0,0,0,20.135-1.181.629.629,0,0,0,.442-.859l-.078-.183a11.878,11.878,0,0,1-.931-5.317c.311-5.528,1.8-18.019,4.969-26.58.184.312.356.62.523.925.574-5.631,2.73-11.169,4.253-16.755C448.668,979.319,433.918,979.8,429.4,980.061Z" transform="translate(-401.515 -952.333)" fill="url(#linear-gradient-15)"/>
        <path id="Path_440" data-name="Path 440" d="M1084.522,801.112s.866,9.162,1.63,11.872a.926.926,0,0,1-.437,1.058c-1.295.74-4.4,1.947-8.648-.135a1.927,1.927,0,0,1-1.07-1.814l.374-8.853Z" transform="translate(-1037.292 -783.607)" fill="url(#linear-gradient-16)"/>
        <g id="Group_117" data-name="Group 117" transform="translate(35.76 1.152)">
          <path id="Path_441" data-name="Path 441" d="M1026.779,592.659s-2.771,6.366-2.958,9.708-.906,5.51,2.958,6.183a8.214,8.214,0,0,0,8.882-4.58s2.763-5.129,2.143-7.229S1026.779,592.659,1026.779,592.659Z" transform="translate(-1023.646 -588.027)" fill="url(#linear-gradient-17)"/>
          <path id="Path_442" data-name="Path 442" d="M1069.3,523.82l-.22-.1a.53.53,0,0,1-.259-.729c.545-1.053,1.607-3.465.235-4.028-1.293-.53-2.692-.828-4.021-1.253-1.234-.395-3.63-.808-4.273-2.11a1.346,1.346,0,0,1,.218-1.189l1.127-2.071a5.445,5.445,0,0,1,1.152-1.612c1.158-.986,2.54-.12,3.821.116,4.767.88,7.918,2.809,8,6.1a.263.263,0,0,0,.406.217c.352-.214.915-.315,1.668.318,1.309,1.1.773,3.956-2.1,6.3a.261.261,0,0,0,.012.42c.52.339,1.3,1.145-.714,2.219a6.766,6.766,0,0,1-4.228.921.261.261,0,0,1-.212-.316l.638-2.895a.263.263,0,0,0-.256-.319Z" transform="translate(-1058.601 -510.27)" fill="url(#linear-gradient-18)"/>
          <path id="Path_443" data-name="Path 443" d="M1211.707,709.607s1.057-4.067,2.881-2.927-.946,4.557-2.412,4.709Z" transform="translate(-1201.133 -695.447)" fill="url(#linear-gradient-19)"/>
        </g>
        <g id="Group_119" data-name="Group 119" transform="translate(29.74)">
          <g id="Group_118" data-name="Group 118" transform="translate(6.86)">
            <path id="Path_444" data-name="Path 444" d="M1038.6,496.649c4.533-13.439,23.34-4.967,17.139,6.742C1049.224,500.443,1041.641,495.719,1038.6,496.649Z" transform="translate(-1038.596 -489.782)" fill="#e27751"/>
          </g>
          <path id="Path_445" data-name="Path 445" d="M934.534,608.519l-11.82,1.553a.86.86,0,0,1-.787-.319,8.059,8.059,0,0,0-5.139-3.043.241.241,0,0,1-.011-.472l7.13-1.666.024,0c3.638-.31,7.172,1.334,10.668,3.672A.153.153,0,0,1,934.534,608.519Z" transform="translate(-916.59 -598.079)" fill="#e27751"/>
        </g>
        <g id="Group_121" data-name="Group 121" transform="translate(4.821 46.697)">
          <path id="Path_446" data-name="Path 446" d="M518.833,1351.891a4.844,4.844,0,0,0,4.936-4.843v-21.554a5.164,5.164,0,0,0-5.108-5.167c-8.5-.093-26.027-.1-40.369,1.111a3.882,3.882,0,0,0-3.55,3.732l-1.34,20.838a4.934,4.934,0,0,0,4.837,5.111Z" transform="translate(-473.399 -1320.291)" fill="url(#linear-gradient-20)"/>
          <path id="Path_447" data-name="Path 447" d="M1107.491,1427.057c.036,1.834-.018,4.744-.063,6.624a1.66,1.66,0,0,1-1.854,1.609l-6.994-.82a1.661,1.661,0,0,1-1.449-1.9l.859-5.727a1.661,1.661,0,0,1,1.642-1.415h6.2A1.659,1.659,0,0,1,1107.491,1427.057Z" transform="translate(-1062.043 -1419.522)" fill="#fff"/>
          <path id="Path_448" data-name="Path 448" d="M834.239,1340.106l-5.834.629a1.315,1.315,0,0,1-1.453-1.4l1.275-17.356c2.446-.078,4.858-.134,7.186-.174v17A1.316,1.316,0,0,1,834.239,1340.106Z" transform="translate(-807.07 -1321.717)" fill="#fff" opacity="0.37"/>
          <path id="Path_449" data-name="Path 449" d="M894.407,1338a.587.587,0,0,1-.585.553h-.034a.586.586,0,0,1-.552-.62l.88-15.147,1.177-.027Z" transform="translate(-869.628 -1322.615)" fill="#fff"/>
          <g id="Group_120" data-name="Group 120" transform="translate(37.723 7.644)">
            <path id="Path_450" data-name="Path 450" d="M1220.883,1464.89a.2.2,0,0,0,.2-.183l.3-4.771a.2.2,0,0,0-.183-.208.191.191,0,0,0-.208.183l-.3,4.771a.2.2,0,0,0,.183.208Z" transform="translate(-1216.393 -1459.532)" fill="url(#linear-gradient-21)"/>
            <path id="Path_451" data-name="Path 451" d="M1209.806,1463.356a.2.2,0,0,0,.2-.189l.159-4.862a.2.2,0,0,0-.189-.2.185.185,0,0,0-.2.189l-.159,4.862a.2.2,0,0,0,.189.2Z" transform="translate(-1205.939 -1457.998)" fill="url(#linear-gradient-22)"/>
            <path id="Path_452" data-name="Path 452" d="M1194.946,1463.361a.2.2,0,0,1-.186-.2c.078-1.633.225-4.749.228-4.855a.2.2,0,0,1,.391,0c0,.081-.19,4.072-.228,4.872a.2.2,0,0,1-.2.186Zm.038-5.058h0Z" transform="translate(-1191.923 -1458.003)" fill="url(#linear-gradient-23)"/>
            <path id="Path_453" data-name="Path 453" d="M1168.473,1461.8a.391.391,0,0,0,.391-.378c.165-4.711.136-4.817.117-4.888a.391.391,0,0,0-.765.155c.013.283-.075,3.024-.134,4.705a.391.391,0,0,0,.377.4Z" transform="translate(-1166.745 -1456.25)" fill="url(#linear-gradient-24)"/>
            <path id="Path_454" data-name="Path 454" d="M1156.683,1464.894a.2.2,0,0,0,.2-.2v-4.771a.2.2,0,0,0-.391,0v4.771A.2.2,0,0,0,1156.683,1464.894Z" transform="translate(-1155.802 -1459.536)" fill="url(#linear-gradient-25)"/>
            <path id="Path_455" data-name="Path 455" d="M1144.5,1464.706a.2.2,0,0,0,.2-.191c.038-1.658.125-4.365.2-4.691a.2.2,0,0,0-.278-.259c-.107.07-.208.136-.316,4.941a.2.2,0,0,0,.191.2Z" transform="translate(-1144.308 -1459.348)" fill="url(#linear-gradient-26)"/>
            <path id="Path_456" data-name="Path 456" d="M1236.312,1462.036a.391.391,0,0,0,.391-.371l.261-5.01a.392.392,0,0,0-.371-.411.4.4,0,0,0-.411.371l-.261,5.01a.391.391,0,0,0,.371.411Z" transform="translate(-1230.77 -1456.244)" fill="url(#linear-gradient-27)"/>
          </g>
        </g>
        <g id="Group_123" data-name="Group 123" transform="translate(1.812 23.878)">
          <path id="Path_457" data-name="Path 457" d="M453.886,938.106a3.626,3.626,0,0,0,3.7-3.626V918.345a3.866,3.866,0,0,0-3.824-3.868c-6.362-.069-19.484-.073-30.22.832a2.907,2.907,0,0,0-2.658,2.794l-1,15.6a3.694,3.694,0,0,0,3.621,3.827Z" transform="translate(-419.874 -914.449)" fill="url(#linear-gradient-28)"/>
          <path id="Path_458" data-name="Path 458" d="M894.555,994.375c.027,1.373-.014,3.551-.047,4.959a1.243,1.243,0,0,1-1.388,1.2l-5.236-.614a1.243,1.243,0,0,1-1.085-1.419l.643-4.287a1.243,1.243,0,0,1,1.23-1.059h4.64A1.242,1.242,0,0,1,894.555,994.375Z" transform="translate(-860.533 -988.734)" fill="#fff"/>
          <path id="Path_459" data-name="Path 459" d="M690,929.283l-4.368.471a.985.985,0,0,1-1.088-1.051l.955-12.992c1.831-.058,3.637-.1,5.379-.13V928.3A.985.985,0,0,1,690,929.283Z" transform="translate(-669.66 -915.517)" fill="#fff" opacity="0.37"/>
          <path id="Path_460" data-name="Path 460" d="M735.041,927.7a.439.439,0,0,1-.438.414h-.026a.439.439,0,0,1-.413-.464l.659-11.339.881-.02Z" transform="translate(-716.492 -916.189)" fill="#fff"/>
          <g id="Group_122" data-name="Group 122" transform="translate(28.24 5.722)">
            <path id="Path_461" data-name="Path 461" d="M979.441,1022.7a.147.147,0,0,0,.146-.137l.226-3.572a.146.146,0,0,0-.137-.155.143.143,0,0,0-.155.137l-.227,3.572a.146.146,0,0,0,.137.155Z" transform="translate(-976.08 -1018.685)" fill="url(#linear-gradient-29)"/>
            <path id="Path_462" data-name="Path 462" d="M971.148,1021.548a.147.147,0,0,0,.146-.142l.119-3.64a.147.147,0,0,0-.142-.151.139.139,0,0,0-.151.142L971,1021.4a.147.147,0,0,0,.142.151Z" transform="translate(-968.253 -1017.537)" fill="url(#linear-gradient-30)"/>
            <path id="Path_463" data-name="Path 463" d="M960.024,1021.552a.146.146,0,0,1-.139-.153c.058-1.223.169-3.555.17-3.634a.146.146,0,0,1,.293,0c0,.06-.142,3.049-.171,3.647a.146.146,0,0,1-.146.14Zm.028-3.786h0Z" transform="translate(-957.761 -1017.541)" fill="url(#linear-gradient-31)"/>
            <path id="Path_464" data-name="Path 464" d="M940.207,1020.386a.293.293,0,0,0,.292-.283c.124-3.527.1-3.606.088-3.659a.293.293,0,0,0-.573.116c.01.212-.056,2.264-.1,3.522a.292.292,0,0,0,.282.3Z" transform="translate(-938.913 -1016.228)" fill="url(#linear-gradient-32)"/>
            <path id="Path_465" data-name="Path 465" d="M931.38,1022.7a.146.146,0,0,0,.146-.146v-3.572a.146.146,0,1,0-.293,0v3.572A.146.146,0,0,0,931.38,1022.7Z" transform="translate(-930.721 -1018.688)" fill="url(#linear-gradient-33)"/>
            <path id="Path_466" data-name="Path 466" d="M922.264,1022.559a.146.146,0,0,0,.146-.143c.028-1.241.094-3.268.152-3.512a.146.146,0,0,0-.208-.194c-.08.052-.156.1-.237,3.7a.147.147,0,0,0,.143.15Z" transform="translate(-922.117 -1018.548)" fill="url(#linear-gradient-34)"/>
            <path id="Path_467" data-name="Path 467" d="M990.991,1020.561a.293.293,0,0,0,.292-.278l.2-3.75a.293.293,0,0,0-.277-.308.3.3,0,0,0-.308.277l-.2,3.75a.293.293,0,0,0,.277.308Z" transform="translate(-986.842 -1016.224)" fill="url(#linear-gradient-35)"/>
          </g>
        </g>
        <path id="Path_468" data-name="Path 468" d="M388.036,1044.635c.893-.219,2.9-2.932,3.111-1.941s-.391,2.248-.3,2.669.763,2.782.228,3.773a40.451,40.451,0,0,0-1.535,4.159c-.13.4-.236.922-.651.875s-.737-.605-.776-1.021C388.1,1052.982,387.144,1044.854,388.036,1044.635Z" transform="translate(-387.655 -1011.401)" fill="url(#linear-gradient-36)"/>
        <g id="Group_124" data-name="Group 124" transform="translate(30.565 30.928)">
          <path id="Path_469" data-name="Path 469" d="M1371.486,1045.5c-1.1-2.523-4.6-5.594-4.787-5.653-1.523,5.586-4.2,10.2-4.776,15.829,3.757,6.9,2.9,15.039.549,19a37.708,37.708,0,0,1,3.672,6.949C1380.589,1072.974,1374.871,1053.267,1371.486,1045.5Z" transform="translate(-1337.707 -1039.846)" fill="url(#linear-gradient-37)"/>
          <path id="Path_470" data-name="Path 470" d="M992.1,1672.425l-12.507-.272s10.906-3.083,11.583-2.243c0,0,6.76-4.442,10.464-10.69a37.728,37.728,0,0,1,3.672,6.949C1001.987,1668.117,997.625,1671.5,992.1,1672.425Z" transform="translate(-976.871 -1624.394)" fill="url(#linear-gradient-38)"/>
          <path id="Path_471" data-name="Path 471" d="M946.826,1855.567s.258,4.983-6.283,4.259c-3.555-.393-9.294-3.708-9.294-3.708S946.208,1856.079,946.826,1855.567Z" transform="translate(-931.249 -1809.702)" fill="url(#linear-gradient-39)"/>
        </g>
      </g>
    </g>
  </g>
</svg>
