<?xml version="1.0" encoding="utf-8"?>
<!-- Generator: Adobe Illustrator 23.1.0, SVG Export Plug-In . SVG Version: 6.00 Build 0)  -->
<svg version="1.1" id="Layer_1" xmlns="http://www.w3.org/2000/svg" xmlns:xlink="http://www.w3.org/1999/xlink" x="0px" y="0px"
	 width="73.5px" height="87.1px" viewBox="0 0 73.5 87.1" style="enable-background:new 0 0 73.5 87.1;" xml:space="preserve">
<style type="text/css">
	.st0{fill:#150400;}
	.st1{fill:#F7BE00;}
</style>
<g>
	<path class="st0" d="M36.7,86.8c-3.7-1.6-21-9.3-26.6-13.9c-6.5-5.3-10-13-10-22.1V8.3C10.5,2.7,22.5,0,36.7,0s26.2,2.7,36.6,8.3
		v42.4c0,9.1-3.4,16.8-10,22.1C57.7,77.5,40.4,85.2,36.7,86.8z"/>
	<path class="st1" d="M68.9,10C64.5,9.6,60,9.3,55.3,9.3C38.2,9.3,19.8,13,4.6,26.9v23.8c0,7.8,2.9,14.2,8.3,18.7
		c4.8,3.9,19.6,10.6,23.8,12.5c4.1-1.8,18.9-8.4,23.8-12.5c5.5-4.5,8.3-10.8,8.3-18.7V10 M7.8,48.3V28.9H14v19.6
		c0,1.7,0.4,4.3,3.2,4.3c1.2,0,2.2-0.3,2.9-0.8V28.9h6.1v26.7c-2.4,1.6-5.5,2.5-9.3,2.5C10.8,58.1,7.8,54.8,7.8,48.3 M35.5,70.6
		h-6.2V30.5c2.2-1.4,4.9-2.2,8.3-2.2C45,28.3,49,33.9,49,42.8c0,9-3.9,15.1-10.8,15.1c-1.3,0-2.2-0.2-2.8-0.3L35.5,70.6L35.5,70.6z
		 M35.5,52.6c0.4,0.2,1.2,0.4,2,0.4c3.5,0,5.2-3.3,5.2-10c0-6.9-1.5-9.7-5.1-9.7c-0.8,0-1.7,0.2-2.2,0.4L35.5,52.6L35.5,52.6z
		 M50.4,36.3c0-5,4.2-7.9,8.3-8c3.4-0.1,5.7,1.2,6.8,2v5.4c-1.3-1.3-3.4-2.5-5.5-2.5c-1.7,0-3.6,0.8-3.6,2.9c-0.1,2.2,1.8,3.1,4,4.5
		c5.1,3,6.1,5.7,6,9.3c-0.1,3.9-2.8,8.2-8.9,8.2c-2.4,0-4.8-0.8-6.8-1.9v-5.7c1.6,1.4,3.9,2.5,5.9,2.5c2.3,0,3.7-1.3,3.7-3.4
		c0-1.9-1.1-3-3.8-4.6C51.4,42,50.5,39.6,50.4,36.3 M10.9,71.9c-6.2-5.1-9.5-12.4-9.5-21.2V9.1c9.8-5.2,21.7-7.9,35.4-7.9
		s25.6,2.6,35.4,7.9v41.7c0,8.8-3.3,16.1-9.5,21.2C57,76.7,38.9,84.6,36.8,85.5C34.7,84.5,16.6,76.6,10.9,71.9z M59.3,80.7v3.6H60
		v-1.5h0.1c0,0.1,1,1.5,1,1.5h0.8c0,0-1-1.4-1.1-1.6c0.5-0.1,0.8-0.5,0.8-1s-0.3-1.1-1.2-1.1L59.3,80.7L59.3,80.7z M60.3,81.2
		c0.6,0,0.6,0.3,0.6,0.5c0,0.3-0.1,0.6-0.8,0.6H60v-1.1H60.3z M62.8,82.5c0,1.3-1.1,2.4-2.4,2.4c-1.3,0-2.4-1.1-2.4-2.4
		s1.1-2.5,2.4-2.5S62.8,81.1,62.8,82.5 M60.4,79.5c-1.6,0-3,1.3-3,3c0,1.6,1.3,3,3,3c1.6,0,3-1.3,3-3C63.3,80.8,62,79.5,60.4,79.5"
		/>
</g>
</svg>
